%TF.GenerationSoftware,KiCad,Pcbnew,(6.0.2)*%
%TF.CreationDate,2022-04-04T11:24:22-04:00*%
%TF.ProjectId,xum1541-parallel-adapter,78756d31-3534-4312-9d70-6172616c6c65,1*%
%TF.SameCoordinates,Original*%
%TF.FileFunction,Legend,Bot*%
%TF.FilePolarity,Positive*%
%FSLAX46Y46*%
G04 Gerber Fmt 4.6, Leading zero omitted, Abs format (unit mm)*
G04 Created by KiCad (PCBNEW (6.0.2)) date 2022-04-04 11:24:22*
%MOMM*%
%LPD*%
G01*
G04 APERTURE LIST*
%ADD10C,0.152400*%
%ADD11C,0.150000*%
%ADD12R,2.200000X6.000000*%
%ADD13C,6.400000*%
%ADD14R,1.700000X1.700000*%
%ADD15O,1.700000X1.700000*%
%ADD16C,1.600000*%
%ADD17O,1.600000X1.600000*%
%ADD18C,2.000000*%
%ADD19R,1.800000X1.800000*%
%ADD20C,1.800000*%
G04 APERTURE END LIST*
D10*
X132215361Y-93522895D02*
X132215361Y-94103466D01*
X132254066Y-94219580D01*
X132331476Y-94296990D01*
X132447590Y-94335695D01*
X132525000Y-94335695D01*
X131441266Y-94335695D02*
X131828314Y-94335695D01*
X131828314Y-93522895D01*
X130705876Y-94258285D02*
X130744580Y-94296990D01*
X130860695Y-94335695D01*
X130938104Y-94335695D01*
X131054219Y-94296990D01*
X131131628Y-94219580D01*
X131170333Y-94142171D01*
X131209038Y-93987352D01*
X131209038Y-93871238D01*
X131170333Y-93716419D01*
X131131628Y-93639009D01*
X131054219Y-93561600D01*
X130938104Y-93522895D01*
X130860695Y-93522895D01*
X130744580Y-93561600D01*
X130705876Y-93600304D01*
X130125304Y-93522895D02*
X130125304Y-94103466D01*
X130164009Y-94219580D01*
X130241419Y-94296990D01*
X130357533Y-94335695D01*
X130434942Y-94335695D01*
X129351209Y-94335695D02*
X129738257Y-94335695D01*
X129738257Y-93522895D01*
X128615819Y-94258285D02*
X128654523Y-94296990D01*
X128770638Y-94335695D01*
X128848047Y-94335695D01*
X128964161Y-94296990D01*
X129041571Y-94219580D01*
X129080276Y-94142171D01*
X129118980Y-93987352D01*
X129118980Y-93871238D01*
X129080276Y-93716419D01*
X129041571Y-93639009D01*
X128964161Y-93561600D01*
X128848047Y-93522895D01*
X128770638Y-93522895D01*
X128654523Y-93561600D01*
X128615819Y-93600304D01*
X128035247Y-93522895D02*
X128035247Y-94103466D01*
X128073952Y-94219580D01*
X128151361Y-94296990D01*
X128267476Y-94335695D01*
X128344885Y-94335695D01*
X127261152Y-94335695D02*
X127648200Y-94335695D01*
X127648200Y-93522895D01*
X126525761Y-94258285D02*
X126564466Y-94296990D01*
X126680580Y-94335695D01*
X126757990Y-94335695D01*
X126874104Y-94296990D01*
X126951514Y-94219580D01*
X126990219Y-94142171D01*
X127028923Y-93987352D01*
X127028923Y-93871238D01*
X126990219Y-93716419D01*
X126951514Y-93639009D01*
X126874104Y-93561600D01*
X126757990Y-93522895D01*
X126680580Y-93522895D01*
X126564466Y-93561600D01*
X126525761Y-93600304D01*
X125945190Y-93522895D02*
X125945190Y-94103466D01*
X125983895Y-94219580D01*
X126061304Y-94296990D01*
X126177419Y-94335695D01*
X126254828Y-94335695D01*
X125171095Y-94335695D02*
X125558142Y-94335695D01*
X125558142Y-93522895D01*
X124435704Y-94258285D02*
X124474409Y-94296990D01*
X124590523Y-94335695D01*
X124667933Y-94335695D01*
X124784047Y-94296990D01*
X124861457Y-94219580D01*
X124900161Y-94142171D01*
X124938866Y-93987352D01*
X124938866Y-93871238D01*
X124900161Y-93716419D01*
X124861457Y-93639009D01*
X124784047Y-93561600D01*
X124667933Y-93522895D01*
X124590523Y-93522895D01*
X124474409Y-93561600D01*
X124435704Y-93600304D01*
D11*
X104699095Y-99184666D02*
X104222904Y-99184666D01*
X104794333Y-99470380D02*
X104461000Y-98470380D01*
X104127666Y-99470380D01*
X152746714Y-99470380D02*
X152746714Y-98470380D01*
X152175285Y-99470380D01*
X152175285Y-98470380D01*
%LPC*%
D12*
X106681000Y-99018000D03*
X110641000Y-99018000D03*
X114601000Y-99018000D03*
X118561000Y-99018000D03*
X122521000Y-99018000D03*
X126481000Y-99018000D03*
X130441000Y-99018000D03*
X134401000Y-99018000D03*
X138361000Y-99018000D03*
X142321000Y-99018000D03*
X146281000Y-99018000D03*
X150241000Y-99018000D03*
D13*
X158461000Y-90118000D03*
D14*
X122111000Y-90718000D03*
D15*
X122111000Y-88178000D03*
X124651000Y-90718000D03*
X124651000Y-88178000D03*
X127191000Y-90718000D03*
X127191000Y-88178000D03*
X129731000Y-90718000D03*
X129731000Y-88178000D03*
X132271000Y-90718000D03*
X132271000Y-88178000D03*
X134811000Y-90718000D03*
X134811000Y-88178000D03*
D16*
X106681000Y-91253000D03*
D17*
X106681000Y-81093000D03*
D18*
X161711000Y-79868000D03*
X155211000Y-79868000D03*
X161711000Y-84368000D03*
X155211000Y-84368000D03*
D19*
X98461000Y-80843000D03*
D20*
X98461000Y-83383000D03*
D13*
X98461000Y-90118000D03*
M02*
