%TF.GenerationSoftware,KiCad,Pcbnew,(6.0.2)*%
%TF.CreationDate,2022-04-04T11:24:22-04:00*%
%TF.ProjectId,xum1541-parallel-adapter,78756d31-3534-4312-9d70-6172616c6c65,1*%
%TF.SameCoordinates,Original*%
%TF.FileFunction,Legend,Top*%
%TF.FilePolarity,Positive*%
%FSLAX46Y46*%
G04 Gerber Fmt 4.6, Leading zero omitted, Abs format (unit mm)*
G04 Created by KiCad (PCBNEW (6.0.2)) date 2022-04-04 11:24:22*
%MOMM*%
%LPD*%
G01*
G04 APERTURE LIST*
%ADD10C,0.152400*%
%ADD11C,0.150000*%
%ADD12C,0.100000*%
%ADD13C,0.120000*%
%ADD14R,2.200000X6.000000*%
%ADD15C,6.400000*%
%ADD16R,1.700000X1.700000*%
%ADD17O,1.700000X1.700000*%
%ADD18C,1.600000*%
%ADD19O,1.600000X1.600000*%
%ADD20C,2.000000*%
%ADD21R,1.800000X1.800000*%
%ADD22C,1.800000*%
G04 APERTURE END LIST*
D10*
X121842485Y-93255638D02*
X121958600Y-93294343D01*
X121997304Y-93333048D01*
X122036009Y-93410457D01*
X122036009Y-93526572D01*
X121997304Y-93603981D01*
X121958600Y-93642686D01*
X121881190Y-93681391D01*
X121571552Y-93681391D01*
X121571552Y-92868591D01*
X121842485Y-92868591D01*
X121919895Y-92907296D01*
X121958600Y-92946000D01*
X121997304Y-93023410D01*
X121997304Y-93100819D01*
X121958600Y-93178229D01*
X121919895Y-93216934D01*
X121842485Y-93255638D01*
X121571552Y-93255638D01*
X122693990Y-93642686D02*
X122616580Y-93681391D01*
X122461761Y-93681391D01*
X122384352Y-93642686D01*
X122345647Y-93565276D01*
X122345647Y-93255638D01*
X122384352Y-93178229D01*
X122461761Y-93139524D01*
X122616580Y-93139524D01*
X122693990Y-93178229D01*
X122732695Y-93255638D01*
X122732695Y-93333048D01*
X122345647Y-93410457D01*
X123429380Y-93681391D02*
X123429380Y-93255638D01*
X123390676Y-93178229D01*
X123313266Y-93139524D01*
X123158447Y-93139524D01*
X123081038Y-93178229D01*
X123429380Y-93642686D02*
X123351971Y-93681391D01*
X123158447Y-93681391D01*
X123081038Y-93642686D01*
X123042333Y-93565276D01*
X123042333Y-93487867D01*
X123081038Y-93410457D01*
X123158447Y-93371753D01*
X123351971Y-93371753D01*
X123429380Y-93333048D01*
X124164771Y-93139524D02*
X124164771Y-93681391D01*
X123816428Y-93139524D02*
X123816428Y-93565276D01*
X123855133Y-93642686D01*
X123932542Y-93681391D01*
X124048657Y-93681391D01*
X124126066Y-93642686D01*
X124164771Y-93603981D01*
X124551819Y-93139524D02*
X124551819Y-93952324D01*
X124551819Y-93178229D02*
X124629228Y-93139524D01*
X124784047Y-93139524D01*
X124861457Y-93178229D01*
X124900161Y-93216934D01*
X124938866Y-93294343D01*
X124938866Y-93526572D01*
X124900161Y-93603981D01*
X124861457Y-93642686D01*
X124784047Y-93681391D01*
X124629228Y-93681391D01*
X124551819Y-93642686D01*
X125287209Y-93681391D02*
X125287209Y-93139524D01*
X125287209Y-93294343D02*
X125325914Y-93216934D01*
X125364619Y-93178229D01*
X125442028Y-93139524D01*
X125519438Y-93139524D01*
X126100009Y-93642686D02*
X126022600Y-93681391D01*
X125867780Y-93681391D01*
X125790371Y-93642686D01*
X125751666Y-93565276D01*
X125751666Y-93255638D01*
X125790371Y-93178229D01*
X125867780Y-93139524D01*
X126022600Y-93139524D01*
X126100009Y-93178229D01*
X126138714Y-93255638D01*
X126138714Y-93333048D01*
X125751666Y-93410457D01*
X126022600Y-92829886D02*
X125906485Y-92946000D01*
X127570790Y-93603981D02*
X127532085Y-93642686D01*
X127415971Y-93681391D01*
X127338561Y-93681391D01*
X127222447Y-93642686D01*
X127145038Y-93565276D01*
X127106333Y-93487867D01*
X127067628Y-93333048D01*
X127067628Y-93216934D01*
X127106333Y-93062115D01*
X127145038Y-92984705D01*
X127222447Y-92907296D01*
X127338561Y-92868591D01*
X127415971Y-92868591D01*
X127532085Y-92907296D01*
X127570790Y-92946000D01*
X127919133Y-93681391D02*
X127919133Y-93139524D01*
X127919133Y-92868591D02*
X127880428Y-92907296D01*
X127919133Y-92946000D01*
X127957838Y-92907296D01*
X127919133Y-92868591D01*
X127919133Y-92946000D01*
X128306180Y-93681391D02*
X128306180Y-93139524D01*
X128306180Y-93294343D02*
X128344885Y-93216934D01*
X128383590Y-93178229D01*
X128461000Y-93139524D01*
X128538409Y-93139524D01*
X129157685Y-93642686D02*
X129080276Y-93681391D01*
X128925457Y-93681391D01*
X128848047Y-93642686D01*
X128809342Y-93603981D01*
X128770638Y-93526572D01*
X128770638Y-93294343D01*
X128809342Y-93216934D01*
X128848047Y-93178229D01*
X128925457Y-93139524D01*
X129080276Y-93139524D01*
X129157685Y-93178229D01*
X129854371Y-93139524D02*
X129854371Y-93681391D01*
X129506028Y-93139524D02*
X129506028Y-93565276D01*
X129544733Y-93642686D01*
X129622142Y-93681391D01*
X129738257Y-93681391D01*
X129815666Y-93642686D01*
X129854371Y-93603981D01*
X130241419Y-93681391D02*
X130241419Y-93139524D01*
X130241419Y-92868591D02*
X130202714Y-92907296D01*
X130241419Y-92946000D01*
X130280123Y-92907296D01*
X130241419Y-92868591D01*
X130241419Y-92946000D01*
X130512352Y-93139524D02*
X130821990Y-93139524D01*
X130628466Y-92868591D02*
X130628466Y-93565276D01*
X130667171Y-93642686D01*
X130744580Y-93681391D01*
X130821990Y-93681391D01*
X131712200Y-93681391D02*
X131712200Y-92868591D01*
X131905723Y-92868591D01*
X132021838Y-92907296D01*
X132099247Y-92984705D01*
X132137952Y-93062115D01*
X132176657Y-93216934D01*
X132176657Y-93333048D01*
X132137952Y-93487867D01*
X132099247Y-93565276D01*
X132021838Y-93642686D01*
X131905723Y-93681391D01*
X131712200Y-93681391D01*
X132834638Y-93642686D02*
X132757228Y-93681391D01*
X132602409Y-93681391D01*
X132525000Y-93642686D01*
X132486295Y-93565276D01*
X132486295Y-93255638D01*
X132525000Y-93178229D01*
X132602409Y-93139524D01*
X132757228Y-93139524D01*
X132834638Y-93178229D01*
X132873342Y-93255638D01*
X132873342Y-93333048D01*
X132486295Y-93410457D01*
X133182980Y-93642686D02*
X133260390Y-93681391D01*
X133415209Y-93681391D01*
X133492619Y-93642686D01*
X133531323Y-93565276D01*
X133531323Y-93526572D01*
X133492619Y-93449162D01*
X133415209Y-93410457D01*
X133299095Y-93410457D01*
X133221685Y-93371753D01*
X133182980Y-93294343D01*
X133182980Y-93255638D01*
X133221685Y-93178229D01*
X133299095Y-93139524D01*
X133415209Y-93139524D01*
X133492619Y-93178229D01*
X133879666Y-93681391D02*
X133879666Y-93139524D01*
X133879666Y-92868591D02*
X133840961Y-92907296D01*
X133879666Y-92946000D01*
X133918371Y-92907296D01*
X133879666Y-92868591D01*
X133879666Y-92946000D01*
X134615057Y-93139524D02*
X134615057Y-93797505D01*
X134576352Y-93874915D01*
X134537647Y-93913619D01*
X134460238Y-93952324D01*
X134344123Y-93952324D01*
X134266714Y-93913619D01*
X134615057Y-93642686D02*
X134537647Y-93681391D01*
X134382828Y-93681391D01*
X134305419Y-93642686D01*
X134266714Y-93603981D01*
X134228009Y-93526572D01*
X134228009Y-93294343D01*
X134266714Y-93216934D01*
X134305419Y-93178229D01*
X134382828Y-93139524D01*
X134537647Y-93139524D01*
X134615057Y-93178229D01*
X135002104Y-93139524D02*
X135002104Y-93681391D01*
X135002104Y-93216934D02*
X135040809Y-93178229D01*
X135118219Y-93139524D01*
X135234333Y-93139524D01*
X135311742Y-93178229D01*
X135350447Y-93255638D01*
X135350447Y-93681391D01*
X114411171Y-94989999D02*
X114411171Y-94177199D01*
X114759514Y-94989999D02*
X114759514Y-94564246D01*
X114720809Y-94486837D01*
X114643400Y-94448132D01*
X114527285Y-94448132D01*
X114449876Y-94486837D01*
X114411171Y-94525542D01*
X115030447Y-94448132D02*
X115340085Y-94448132D01*
X115146561Y-94177199D02*
X115146561Y-94873884D01*
X115185266Y-94951294D01*
X115262676Y-94989999D01*
X115340085Y-94989999D01*
X115494904Y-94448132D02*
X115804542Y-94448132D01*
X115611019Y-94177199D02*
X115611019Y-94873884D01*
X115649723Y-94951294D01*
X115727133Y-94989999D01*
X115804542Y-94989999D01*
X116075476Y-94448132D02*
X116075476Y-95260932D01*
X116075476Y-94486837D02*
X116152885Y-94448132D01*
X116307704Y-94448132D01*
X116385114Y-94486837D01*
X116423819Y-94525542D01*
X116462523Y-94602951D01*
X116462523Y-94835180D01*
X116423819Y-94912589D01*
X116385114Y-94951294D01*
X116307704Y-94989999D01*
X116152885Y-94989999D01*
X116075476Y-94951294D01*
X116772161Y-94951294D02*
X116849571Y-94989999D01*
X117004390Y-94989999D01*
X117081800Y-94951294D01*
X117120504Y-94873884D01*
X117120504Y-94835180D01*
X117081800Y-94757770D01*
X117004390Y-94719065D01*
X116888276Y-94719065D01*
X116810866Y-94680361D01*
X116772161Y-94602951D01*
X116772161Y-94564246D01*
X116810866Y-94486837D01*
X116888276Y-94448132D01*
X117004390Y-94448132D01*
X117081800Y-94486837D01*
X117468847Y-94912589D02*
X117507552Y-94951294D01*
X117468847Y-94989999D01*
X117430142Y-94951294D01*
X117468847Y-94912589D01*
X117468847Y-94989999D01*
X117468847Y-94486837D02*
X117507552Y-94525542D01*
X117468847Y-94564246D01*
X117430142Y-94525542D01*
X117468847Y-94486837D01*
X117468847Y-94564246D01*
X118436466Y-94138494D02*
X117739780Y-95183523D01*
X119287971Y-94138494D02*
X118591285Y-95183523D01*
X119907247Y-94448132D02*
X119907247Y-95106113D01*
X119868542Y-95183523D01*
X119829838Y-95222227D01*
X119752428Y-95260932D01*
X119636314Y-95260932D01*
X119558904Y-95222227D01*
X119907247Y-94951294D02*
X119829838Y-94989999D01*
X119675019Y-94989999D01*
X119597609Y-94951294D01*
X119558904Y-94912589D01*
X119520200Y-94835180D01*
X119520200Y-94602951D01*
X119558904Y-94525542D01*
X119597609Y-94486837D01*
X119675019Y-94448132D01*
X119829838Y-94448132D01*
X119907247Y-94486837D01*
X120294295Y-94989999D02*
X120294295Y-94448132D01*
X120294295Y-94177199D02*
X120255590Y-94215904D01*
X120294295Y-94254608D01*
X120333000Y-94215904D01*
X120294295Y-94177199D01*
X120294295Y-94254608D01*
X120565228Y-94448132D02*
X120874866Y-94448132D01*
X120681342Y-94177199D02*
X120681342Y-94873884D01*
X120720047Y-94951294D01*
X120797457Y-94989999D01*
X120874866Y-94989999D01*
X121145800Y-94989999D02*
X121145800Y-94177199D01*
X121494142Y-94989999D02*
X121494142Y-94564246D01*
X121455438Y-94486837D01*
X121378028Y-94448132D01*
X121261914Y-94448132D01*
X121184504Y-94486837D01*
X121145800Y-94525542D01*
X122229533Y-94448132D02*
X122229533Y-94989999D01*
X121881190Y-94448132D02*
X121881190Y-94873884D01*
X121919895Y-94951294D01*
X121997304Y-94989999D01*
X122113419Y-94989999D01*
X122190828Y-94951294D01*
X122229533Y-94912589D01*
X122616580Y-94989999D02*
X122616580Y-94177199D01*
X122616580Y-94486837D02*
X122693990Y-94448132D01*
X122848809Y-94448132D01*
X122926219Y-94486837D01*
X122964923Y-94525542D01*
X123003628Y-94602951D01*
X123003628Y-94835180D01*
X122964923Y-94912589D01*
X122926219Y-94951294D01*
X122848809Y-94989999D01*
X122693990Y-94989999D01*
X122616580Y-94951294D01*
X123351971Y-94912589D02*
X123390676Y-94951294D01*
X123351971Y-94989999D01*
X123313266Y-94951294D01*
X123351971Y-94912589D01*
X123351971Y-94989999D01*
X124087361Y-94951294D02*
X124009952Y-94989999D01*
X123855133Y-94989999D01*
X123777723Y-94951294D01*
X123739019Y-94912589D01*
X123700314Y-94835180D01*
X123700314Y-94602951D01*
X123739019Y-94525542D01*
X123777723Y-94486837D01*
X123855133Y-94448132D01*
X124009952Y-94448132D01*
X124087361Y-94486837D01*
X124551819Y-94989999D02*
X124474409Y-94951294D01*
X124435704Y-94912589D01*
X124397000Y-94835180D01*
X124397000Y-94602951D01*
X124435704Y-94525542D01*
X124474409Y-94486837D01*
X124551819Y-94448132D01*
X124667933Y-94448132D01*
X124745342Y-94486837D01*
X124784047Y-94525542D01*
X124822752Y-94602951D01*
X124822752Y-94835180D01*
X124784047Y-94912589D01*
X124745342Y-94951294D01*
X124667933Y-94989999D01*
X124551819Y-94989999D01*
X125171095Y-94989999D02*
X125171095Y-94448132D01*
X125171095Y-94525542D02*
X125209799Y-94486837D01*
X125287209Y-94448132D01*
X125403323Y-94448132D01*
X125480733Y-94486837D01*
X125519438Y-94564246D01*
X125519438Y-94989999D01*
X125519438Y-94564246D02*
X125558142Y-94486837D01*
X125635552Y-94448132D01*
X125751666Y-94448132D01*
X125829076Y-94486837D01*
X125867780Y-94564246D01*
X125867780Y-94989999D01*
X126835400Y-94138494D02*
X126138714Y-95183523D01*
X127377266Y-94564246D02*
X127493380Y-94602951D01*
X127532085Y-94641656D01*
X127570790Y-94719065D01*
X127570790Y-94835180D01*
X127532085Y-94912589D01*
X127493380Y-94951294D01*
X127415971Y-94989999D01*
X127106333Y-94989999D01*
X127106333Y-94177199D01*
X127377266Y-94177199D01*
X127454676Y-94215904D01*
X127493380Y-94254608D01*
X127532085Y-94332018D01*
X127532085Y-94409427D01*
X127493380Y-94486837D01*
X127454676Y-94525542D01*
X127377266Y-94564246D01*
X127106333Y-94564246D01*
X128228771Y-94951294D02*
X128151361Y-94989999D01*
X127996542Y-94989999D01*
X127919133Y-94951294D01*
X127880428Y-94873884D01*
X127880428Y-94564246D01*
X127919133Y-94486837D01*
X127996542Y-94448132D01*
X128151361Y-94448132D01*
X128228771Y-94486837D01*
X128267476Y-94564246D01*
X128267476Y-94641656D01*
X127880428Y-94719065D01*
X128964161Y-94989999D02*
X128964161Y-94564246D01*
X128925457Y-94486837D01*
X128848047Y-94448132D01*
X128693228Y-94448132D01*
X128615819Y-94486837D01*
X128964161Y-94951294D02*
X128886752Y-94989999D01*
X128693228Y-94989999D01*
X128615819Y-94951294D01*
X128577114Y-94873884D01*
X128577114Y-94796475D01*
X128615819Y-94719065D01*
X128693228Y-94680361D01*
X128886752Y-94680361D01*
X128964161Y-94641656D01*
X129699552Y-94448132D02*
X129699552Y-94989999D01*
X129351209Y-94448132D02*
X129351209Y-94873884D01*
X129389914Y-94951294D01*
X129467323Y-94989999D01*
X129583438Y-94989999D01*
X129660847Y-94951294D01*
X129699552Y-94912589D01*
X130086599Y-94448132D02*
X130086599Y-95260932D01*
X130086599Y-94486837D02*
X130164009Y-94448132D01*
X130318828Y-94448132D01*
X130396238Y-94486837D01*
X130434942Y-94525542D01*
X130473647Y-94602951D01*
X130473647Y-94835180D01*
X130434942Y-94912589D01*
X130396238Y-94951294D01*
X130318828Y-94989999D01*
X130164009Y-94989999D01*
X130086599Y-94951294D01*
X130821990Y-94989999D02*
X130821990Y-94448132D01*
X130821990Y-94602951D02*
X130860695Y-94525542D01*
X130899399Y-94486837D01*
X130976809Y-94448132D01*
X131054219Y-94448132D01*
X131634790Y-94951294D02*
X131557380Y-94989999D01*
X131402561Y-94989999D01*
X131325152Y-94951294D01*
X131286447Y-94873884D01*
X131286447Y-94564246D01*
X131325152Y-94486837D01*
X131402561Y-94448132D01*
X131557380Y-94448132D01*
X131634790Y-94486837D01*
X131673495Y-94564246D01*
X131673495Y-94641656D01*
X131286447Y-94719065D01*
X132021838Y-94680361D02*
X132641114Y-94680361D01*
X133492619Y-94912589D02*
X133453914Y-94951294D01*
X133337799Y-94989999D01*
X133260390Y-94989999D01*
X133144276Y-94951294D01*
X133066866Y-94873884D01*
X133028161Y-94796475D01*
X132989457Y-94641656D01*
X132989457Y-94525542D01*
X133028161Y-94370723D01*
X133066866Y-94293313D01*
X133144276Y-94215904D01*
X133260390Y-94177199D01*
X133337799Y-94177199D01*
X133453914Y-94215904D01*
X133492619Y-94254608D01*
X133840961Y-94989999D02*
X133840961Y-94448132D01*
X133840961Y-94177199D02*
X133802257Y-94215904D01*
X133840961Y-94254608D01*
X133879666Y-94215904D01*
X133840961Y-94177199D01*
X133840961Y-94254608D01*
X134228009Y-94989999D02*
X134228009Y-94448132D01*
X134228009Y-94602951D02*
X134266714Y-94525542D01*
X134305419Y-94486837D01*
X134382828Y-94448132D01*
X134460238Y-94448132D01*
X135079514Y-94951294D02*
X135002104Y-94989999D01*
X134847285Y-94989999D01*
X134769876Y-94951294D01*
X134731171Y-94912589D01*
X134692466Y-94835180D01*
X134692466Y-94602951D01*
X134731171Y-94525542D01*
X134769876Y-94486837D01*
X134847285Y-94448132D01*
X135002104Y-94448132D01*
X135079514Y-94486837D01*
X135776200Y-94448132D02*
X135776200Y-94989999D01*
X135427857Y-94448132D02*
X135427857Y-94873884D01*
X135466561Y-94951294D01*
X135543971Y-94989999D01*
X135660085Y-94989999D01*
X135737495Y-94951294D01*
X135776200Y-94912589D01*
X136163247Y-94989999D02*
X136163247Y-94448132D01*
X136163247Y-94177199D02*
X136124542Y-94215904D01*
X136163247Y-94254608D01*
X136201952Y-94215904D01*
X136163247Y-94177199D01*
X136163247Y-94254608D01*
X136434180Y-94448132D02*
X136743819Y-94448132D01*
X136550295Y-94177199D02*
X136550295Y-94873884D01*
X136589000Y-94951294D01*
X136666409Y-94989999D01*
X136743819Y-94989999D01*
X137014752Y-94680361D02*
X137634028Y-94680361D01*
X138021076Y-94989999D02*
X138021076Y-94177199D01*
X138214600Y-94177199D01*
X138330714Y-94215904D01*
X138408123Y-94293313D01*
X138446828Y-94370723D01*
X138485533Y-94525542D01*
X138485533Y-94641656D01*
X138446828Y-94796475D01*
X138408123Y-94873884D01*
X138330714Y-94951294D01*
X138214600Y-94989999D01*
X138021076Y-94989999D01*
X139143514Y-94951294D02*
X139066104Y-94989999D01*
X138911285Y-94989999D01*
X138833876Y-94951294D01*
X138795171Y-94873884D01*
X138795171Y-94564246D01*
X138833876Y-94486837D01*
X138911285Y-94448132D01*
X139066104Y-94448132D01*
X139143514Y-94486837D01*
X139182219Y-94564246D01*
X139182219Y-94641656D01*
X138795171Y-94719065D01*
X139491857Y-94951294D02*
X139569266Y-94989999D01*
X139724085Y-94989999D01*
X139801495Y-94951294D01*
X139840199Y-94873884D01*
X139840199Y-94835180D01*
X139801495Y-94757770D01*
X139724085Y-94719065D01*
X139607971Y-94719065D01*
X139530561Y-94680361D01*
X139491857Y-94602951D01*
X139491857Y-94564246D01*
X139530561Y-94486837D01*
X139607971Y-94448132D01*
X139724085Y-94448132D01*
X139801495Y-94486837D01*
X140188542Y-94989999D02*
X140188542Y-94448132D01*
X140188542Y-94177199D02*
X140149838Y-94215904D01*
X140188542Y-94254608D01*
X140227247Y-94215904D01*
X140188542Y-94177199D01*
X140188542Y-94254608D01*
X140923933Y-94448132D02*
X140923933Y-95106113D01*
X140885228Y-95183523D01*
X140846523Y-95222227D01*
X140769114Y-95260932D01*
X140652999Y-95260932D01*
X140575590Y-95222227D01*
X140923933Y-94951294D02*
X140846523Y-94989999D01*
X140691704Y-94989999D01*
X140614295Y-94951294D01*
X140575590Y-94912589D01*
X140536885Y-94835180D01*
X140536885Y-94602951D01*
X140575590Y-94525542D01*
X140614295Y-94486837D01*
X140691704Y-94448132D01*
X140846523Y-94448132D01*
X140923933Y-94486837D01*
X141310980Y-94448132D02*
X141310980Y-94989999D01*
X141310980Y-94525542D02*
X141349685Y-94486837D01*
X141427095Y-94448132D01*
X141543209Y-94448132D01*
X141620619Y-94486837D01*
X141659323Y-94564246D01*
X141659323Y-94989999D01*
X142626942Y-94138494D02*
X141930257Y-95183523D01*
X157454676Y-86385695D02*
X157183742Y-85998647D01*
X156990219Y-86385695D02*
X156990219Y-85572895D01*
X157299857Y-85572895D01*
X157377266Y-85611600D01*
X157415971Y-85650304D01*
X157454676Y-85727714D01*
X157454676Y-85843828D01*
X157415971Y-85921238D01*
X157377266Y-85959942D01*
X157299857Y-85998647D01*
X156990219Y-85998647D01*
X158112657Y-86346990D02*
X158035247Y-86385695D01*
X157880428Y-86385695D01*
X157803019Y-86346990D01*
X157764314Y-86269580D01*
X157764314Y-85959942D01*
X157803019Y-85882533D01*
X157880428Y-85843828D01*
X158035247Y-85843828D01*
X158112657Y-85882533D01*
X158151361Y-85959942D01*
X158151361Y-86037352D01*
X157764314Y-86114761D01*
X158461000Y-86346990D02*
X158538409Y-86385695D01*
X158693228Y-86385695D01*
X158770638Y-86346990D01*
X158809342Y-86269580D01*
X158809342Y-86230876D01*
X158770638Y-86153466D01*
X158693228Y-86114761D01*
X158577114Y-86114761D01*
X158499704Y-86076057D01*
X158461000Y-85998647D01*
X158461000Y-85959942D01*
X158499704Y-85882533D01*
X158577114Y-85843828D01*
X158693228Y-85843828D01*
X158770638Y-85882533D01*
X159467323Y-86346990D02*
X159389914Y-86385695D01*
X159235095Y-86385695D01*
X159157685Y-86346990D01*
X159118980Y-86269580D01*
X159118980Y-85959942D01*
X159157685Y-85882533D01*
X159235095Y-85843828D01*
X159389914Y-85843828D01*
X159467323Y-85882533D01*
X159506028Y-85959942D01*
X159506028Y-86037352D01*
X159118980Y-86114761D01*
X159738257Y-85843828D02*
X160047895Y-85843828D01*
X159854371Y-85572895D02*
X159854371Y-86269580D01*
X159893076Y-86346990D01*
X159970485Y-86385695D01*
X160047895Y-86385695D01*
X139192485Y-89177087D02*
X138728028Y-89177087D01*
X138960257Y-89177087D02*
X138960257Y-88364287D01*
X138882847Y-88480401D01*
X138805438Y-88557811D01*
X138728028Y-88596515D01*
X139927876Y-88364287D02*
X139540828Y-88364287D01*
X139502123Y-88751334D01*
X139540828Y-88712630D01*
X139618238Y-88673925D01*
X139811761Y-88673925D01*
X139889171Y-88712630D01*
X139927876Y-88751334D01*
X139966580Y-88828744D01*
X139966580Y-89022268D01*
X139927876Y-89099677D01*
X139889171Y-89138382D01*
X139811761Y-89177087D01*
X139618238Y-89177087D01*
X139540828Y-89138382D01*
X139502123Y-89099677D01*
X140663266Y-88635220D02*
X140663266Y-89177087D01*
X140469742Y-88325582D02*
X140276219Y-88906153D01*
X140779380Y-88906153D01*
X141514771Y-89177087D02*
X141050314Y-89177087D01*
X141282542Y-89177087D02*
X141282542Y-88364287D01*
X141205133Y-88480401D01*
X141127723Y-88557811D01*
X141050314Y-88596515D01*
X142482390Y-89177087D02*
X142482390Y-88364287D01*
X142792028Y-88364287D01*
X142869438Y-88402992D01*
X142908142Y-88441696D01*
X142946847Y-88519106D01*
X142946847Y-88635220D01*
X142908142Y-88712630D01*
X142869438Y-88751334D01*
X142792028Y-88790039D01*
X142482390Y-88790039D01*
X143643533Y-89177087D02*
X143643533Y-88751334D01*
X143604828Y-88673925D01*
X143527419Y-88635220D01*
X143372600Y-88635220D01*
X143295190Y-88673925D01*
X143643533Y-89138382D02*
X143566123Y-89177087D01*
X143372600Y-89177087D01*
X143295190Y-89138382D01*
X143256485Y-89060972D01*
X143256485Y-88983563D01*
X143295190Y-88906153D01*
X143372600Y-88867449D01*
X143566123Y-88867449D01*
X143643533Y-88828744D01*
X144030580Y-89177087D02*
X144030580Y-88635220D01*
X144030580Y-88790039D02*
X144069285Y-88712630D01*
X144107990Y-88673925D01*
X144185400Y-88635220D01*
X144262809Y-88635220D01*
X144882085Y-89177087D02*
X144882085Y-88751334D01*
X144843380Y-88673925D01*
X144765971Y-88635220D01*
X144611152Y-88635220D01*
X144533742Y-88673925D01*
X144882085Y-89138382D02*
X144804676Y-89177087D01*
X144611152Y-89177087D01*
X144533742Y-89138382D01*
X144495038Y-89060972D01*
X144495038Y-88983563D01*
X144533742Y-88906153D01*
X144611152Y-88867449D01*
X144804676Y-88867449D01*
X144882085Y-88828744D01*
X145385247Y-89177087D02*
X145307838Y-89138382D01*
X145269133Y-89060972D01*
X145269133Y-88364287D01*
X145811000Y-89177087D02*
X145733590Y-89138382D01*
X145694885Y-89060972D01*
X145694885Y-88364287D01*
X146430276Y-89138382D02*
X146352866Y-89177087D01*
X146198047Y-89177087D01*
X146120638Y-89138382D01*
X146081933Y-89060972D01*
X146081933Y-88751334D01*
X146120638Y-88673925D01*
X146198047Y-88635220D01*
X146352866Y-88635220D01*
X146430276Y-88673925D01*
X146468980Y-88751334D01*
X146468980Y-88828744D01*
X146081933Y-88906153D01*
X146933438Y-89177087D02*
X146856028Y-89138382D01*
X146817323Y-89060972D01*
X146817323Y-88364287D01*
X147862352Y-89177087D02*
X147862352Y-88364287D01*
X148249400Y-88635220D02*
X148249400Y-89177087D01*
X148249400Y-88712630D02*
X148288104Y-88673925D01*
X148365514Y-88635220D01*
X148481628Y-88635220D01*
X148559038Y-88673925D01*
X148597742Y-88751334D01*
X148597742Y-89177087D01*
X148868676Y-88635220D02*
X149178314Y-88635220D01*
X148984790Y-88364287D02*
X148984790Y-89060972D01*
X149023495Y-89138382D01*
X149100904Y-89177087D01*
X149178314Y-89177087D01*
X149758885Y-89138382D02*
X149681476Y-89177087D01*
X149526657Y-89177087D01*
X149449247Y-89138382D01*
X149410542Y-89060972D01*
X149410542Y-88751334D01*
X149449247Y-88673925D01*
X149526657Y-88635220D01*
X149681476Y-88635220D01*
X149758885Y-88673925D01*
X149797590Y-88751334D01*
X149797590Y-88828744D01*
X149410542Y-88906153D01*
X150145933Y-89177087D02*
X150145933Y-88635220D01*
X150145933Y-88790039D02*
X150184638Y-88712630D01*
X150223342Y-88673925D01*
X150300752Y-88635220D01*
X150378161Y-88635220D01*
X150532980Y-88635220D02*
X150842619Y-88635220D01*
X150649095Y-89177087D02*
X150649095Y-88480401D01*
X150687800Y-88402992D01*
X150765209Y-88364287D01*
X150842619Y-88364287D01*
X151461895Y-89177087D02*
X151461895Y-88751334D01*
X151423190Y-88673925D01*
X151345780Y-88635220D01*
X151190961Y-88635220D01*
X151113552Y-88673925D01*
X151461895Y-89138382D02*
X151384485Y-89177087D01*
X151190961Y-89177087D01*
X151113552Y-89138382D01*
X151074847Y-89060972D01*
X151074847Y-88983563D01*
X151113552Y-88906153D01*
X151190961Y-88867449D01*
X151384485Y-88867449D01*
X151461895Y-88828744D01*
X152197285Y-89138382D02*
X152119876Y-89177087D01*
X151965057Y-89177087D01*
X151887647Y-89138382D01*
X151848942Y-89099677D01*
X151810238Y-89022268D01*
X151810238Y-88790039D01*
X151848942Y-88712630D01*
X151887647Y-88673925D01*
X151965057Y-88635220D01*
X152119876Y-88635220D01*
X152197285Y-88673925D01*
X152855266Y-89138382D02*
X152777857Y-89177087D01*
X152623038Y-89177087D01*
X152545628Y-89138382D01*
X152506923Y-89060972D01*
X152506923Y-88751334D01*
X152545628Y-88673925D01*
X152623038Y-88635220D01*
X152777857Y-88635220D01*
X152855266Y-88673925D01*
X152893971Y-88751334D01*
X152893971Y-88828744D01*
X152506923Y-88906153D01*
X141805057Y-89943828D02*
X142114695Y-89943828D01*
X141921171Y-90485695D02*
X141921171Y-89789009D01*
X141959876Y-89711600D01*
X142037285Y-89672895D01*
X142114695Y-89672895D01*
X142501742Y-90485695D02*
X142424333Y-90446990D01*
X142385628Y-90408285D01*
X142346923Y-90330876D01*
X142346923Y-90098647D01*
X142385628Y-90021238D01*
X142424333Y-89982533D01*
X142501742Y-89943828D01*
X142617857Y-89943828D01*
X142695266Y-89982533D01*
X142733971Y-90021238D01*
X142772676Y-90098647D01*
X142772676Y-90330876D01*
X142733971Y-90408285D01*
X142695266Y-90446990D01*
X142617857Y-90485695D01*
X142501742Y-90485695D01*
X143121019Y-90485695D02*
X143121019Y-89943828D01*
X143121019Y-90098647D02*
X143159723Y-90021238D01*
X143198428Y-89982533D01*
X143275838Y-89943828D01*
X143353247Y-89943828D01*
X144204752Y-90446990D02*
X144320866Y-90485695D01*
X144514390Y-90485695D01*
X144591800Y-90446990D01*
X144630504Y-90408285D01*
X144669209Y-90330876D01*
X144669209Y-90253466D01*
X144630504Y-90176057D01*
X144591800Y-90137352D01*
X144514390Y-90098647D01*
X144359571Y-90059942D01*
X144282161Y-90021238D01*
X144243457Y-89982533D01*
X144204752Y-89905123D01*
X144204752Y-89827714D01*
X144243457Y-89750304D01*
X144282161Y-89711600D01*
X144359571Y-89672895D01*
X144553095Y-89672895D01*
X144669209Y-89711600D01*
X145017552Y-89943828D02*
X145017552Y-90756628D01*
X145017552Y-89982533D02*
X145094961Y-89943828D01*
X145249780Y-89943828D01*
X145327190Y-89982533D01*
X145365895Y-90021238D01*
X145404600Y-90098647D01*
X145404600Y-90330876D01*
X145365895Y-90408285D01*
X145327190Y-90446990D01*
X145249780Y-90485695D01*
X145094961Y-90485695D01*
X145017552Y-90446990D01*
X146062580Y-90446990D02*
X145985171Y-90485695D01*
X145830352Y-90485695D01*
X145752942Y-90446990D01*
X145714238Y-90369580D01*
X145714238Y-90059942D01*
X145752942Y-89982533D01*
X145830352Y-89943828D01*
X145985171Y-89943828D01*
X146062580Y-89982533D01*
X146101285Y-90059942D01*
X146101285Y-90137352D01*
X145714238Y-90214761D01*
X146759266Y-90446990D02*
X146681857Y-90485695D01*
X146527038Y-90485695D01*
X146449628Y-90446990D01*
X146410923Y-90369580D01*
X146410923Y-90059942D01*
X146449628Y-89982533D01*
X146527038Y-89943828D01*
X146681857Y-89943828D01*
X146759266Y-89982533D01*
X146797971Y-90059942D01*
X146797971Y-90137352D01*
X146410923Y-90214761D01*
X147494657Y-90485695D02*
X147494657Y-89672895D01*
X147494657Y-90446990D02*
X147417247Y-90485695D01*
X147262428Y-90485695D01*
X147185019Y-90446990D01*
X147146314Y-90408285D01*
X147107609Y-90330876D01*
X147107609Y-90098647D01*
X147146314Y-90021238D01*
X147185019Y-89982533D01*
X147262428Y-89943828D01*
X147417247Y-89943828D01*
X147494657Y-89982533D01*
X147881704Y-90485695D02*
X147881704Y-89672895D01*
X148075228Y-89672895D01*
X148191342Y-89711600D01*
X148268752Y-89789009D01*
X148307457Y-89866419D01*
X148346161Y-90021238D01*
X148346161Y-90137352D01*
X148307457Y-90292171D01*
X148268752Y-90369580D01*
X148191342Y-90446990D01*
X148075228Y-90485695D01*
X147881704Y-90485695D01*
X148810619Y-90485695D02*
X148733209Y-90446990D01*
X148694504Y-90408285D01*
X148655800Y-90330876D01*
X148655800Y-90098647D01*
X148694504Y-90021238D01*
X148733209Y-89982533D01*
X148810619Y-89943828D01*
X148926733Y-89943828D01*
X149004142Y-89982533D01*
X149042847Y-90021238D01*
X149081552Y-90098647D01*
X149081552Y-90330876D01*
X149042847Y-90408285D01*
X149004142Y-90446990D01*
X148926733Y-90485695D01*
X148810619Y-90485695D01*
X149391190Y-90446990D02*
X149468600Y-90485695D01*
X149623419Y-90485695D01*
X149700828Y-90446990D01*
X149739533Y-90369580D01*
X149739533Y-90330876D01*
X149700828Y-90253466D01*
X149623419Y-90214761D01*
X149507304Y-90214761D01*
X149429895Y-90176057D01*
X149391190Y-90098647D01*
X149391190Y-90059942D01*
X149429895Y-89982533D01*
X149507304Y-89943828D01*
X149623419Y-89943828D01*
X149700828Y-89982533D01*
X138302276Y-91794303D02*
X138031342Y-91407255D01*
X137837819Y-91794303D02*
X137837819Y-90981503D01*
X138147457Y-90981503D01*
X138224866Y-91020208D01*
X138263571Y-91058912D01*
X138302276Y-91136322D01*
X138302276Y-91252436D01*
X138263571Y-91329846D01*
X138224866Y-91368550D01*
X138147457Y-91407255D01*
X137837819Y-91407255D01*
X138960257Y-91755598D02*
X138882847Y-91794303D01*
X138728028Y-91794303D01*
X138650619Y-91755598D01*
X138611914Y-91678188D01*
X138611914Y-91368550D01*
X138650619Y-91291141D01*
X138728028Y-91252436D01*
X138882847Y-91252436D01*
X138960257Y-91291141D01*
X138998961Y-91368550D01*
X138998961Y-91445960D01*
X138611914Y-91523369D01*
X139269895Y-91252436D02*
X139463419Y-91794303D01*
X139656942Y-91252436D01*
X139966580Y-91794303D02*
X139966580Y-91252436D01*
X139966580Y-90981503D02*
X139927876Y-91020208D01*
X139966580Y-91058912D01*
X140005285Y-91020208D01*
X139966580Y-90981503D01*
X139966580Y-91058912D01*
X140314923Y-91755598D02*
X140392333Y-91794303D01*
X140547152Y-91794303D01*
X140624561Y-91755598D01*
X140663266Y-91678188D01*
X140663266Y-91639484D01*
X140624561Y-91562074D01*
X140547152Y-91523369D01*
X140431038Y-91523369D01*
X140353628Y-91484665D01*
X140314923Y-91407255D01*
X140314923Y-91368550D01*
X140353628Y-91291141D01*
X140431038Y-91252436D01*
X140547152Y-91252436D01*
X140624561Y-91291141D01*
X141011609Y-91794303D02*
X141011609Y-91252436D01*
X141011609Y-90981503D02*
X140972904Y-91020208D01*
X141011609Y-91058912D01*
X141050314Y-91020208D01*
X141011609Y-90981503D01*
X141011609Y-91058912D01*
X141514771Y-91794303D02*
X141437361Y-91755598D01*
X141398657Y-91716893D01*
X141359952Y-91639484D01*
X141359952Y-91407255D01*
X141398657Y-91329846D01*
X141437361Y-91291141D01*
X141514771Y-91252436D01*
X141630885Y-91252436D01*
X141708295Y-91291141D01*
X141747000Y-91329846D01*
X141785704Y-91407255D01*
X141785704Y-91639484D01*
X141747000Y-91716893D01*
X141708295Y-91755598D01*
X141630885Y-91794303D01*
X141514771Y-91794303D01*
X142134047Y-91252436D02*
X142134047Y-91794303D01*
X142134047Y-91329846D02*
X142172752Y-91291141D01*
X142250161Y-91252436D01*
X142366276Y-91252436D01*
X142443685Y-91291141D01*
X142482390Y-91368550D01*
X142482390Y-91794303D01*
X143914466Y-91794303D02*
X143450009Y-91794303D01*
X143682238Y-91794303D02*
X143682238Y-90981503D01*
X143604828Y-91097617D01*
X143527419Y-91175027D01*
X143450009Y-91213731D01*
X145114314Y-92103941D02*
X145075609Y-92065236D01*
X144998199Y-91949122D01*
X144959495Y-91871712D01*
X144920790Y-91755598D01*
X144882085Y-91562074D01*
X144882085Y-91407255D01*
X144920790Y-91213731D01*
X144959495Y-91097617D01*
X144998199Y-91020208D01*
X145075609Y-90904093D01*
X145114314Y-90865388D01*
X145385247Y-91058912D02*
X145423952Y-91020208D01*
X145501361Y-90981503D01*
X145694885Y-90981503D01*
X145772295Y-91020208D01*
X145810999Y-91058912D01*
X145849704Y-91136322D01*
X145849704Y-91213731D01*
X145810999Y-91329846D01*
X145346542Y-91794303D01*
X145849704Y-91794303D01*
X146352866Y-90981503D02*
X146430276Y-90981503D01*
X146507685Y-91020208D01*
X146546390Y-91058912D01*
X146585095Y-91136322D01*
X146623800Y-91291141D01*
X146623800Y-91484665D01*
X146585095Y-91639484D01*
X146546390Y-91716893D01*
X146507685Y-91755598D01*
X146430276Y-91794303D01*
X146352866Y-91794303D01*
X146275457Y-91755598D01*
X146236752Y-91716893D01*
X146198047Y-91639484D01*
X146159342Y-91484665D01*
X146159342Y-91291141D01*
X146198047Y-91136322D01*
X146236752Y-91058912D01*
X146275457Y-91020208D01*
X146352866Y-90981503D01*
X146933438Y-91058912D02*
X146972142Y-91020208D01*
X147049552Y-90981503D01*
X147243076Y-90981503D01*
X147320485Y-91020208D01*
X147359190Y-91058912D01*
X147397895Y-91136322D01*
X147397895Y-91213731D01*
X147359190Y-91329846D01*
X146894733Y-91794303D01*
X147397895Y-91794303D01*
X147707533Y-91058912D02*
X147746238Y-91020208D01*
X147823647Y-90981503D01*
X148017171Y-90981503D01*
X148094580Y-91020208D01*
X148133285Y-91058912D01*
X148171990Y-91136322D01*
X148171990Y-91213731D01*
X148133285Y-91329846D01*
X147668828Y-91794303D01*
X148171990Y-91794303D01*
X148520333Y-91484665D02*
X149139609Y-91484665D01*
X149681476Y-90981503D02*
X149758885Y-90981503D01*
X149836295Y-91020208D01*
X149875000Y-91058912D01*
X149913704Y-91136322D01*
X149952409Y-91291141D01*
X149952409Y-91484665D01*
X149913704Y-91639484D01*
X149875000Y-91716893D01*
X149836295Y-91755598D01*
X149758885Y-91794303D01*
X149681476Y-91794303D01*
X149604066Y-91755598D01*
X149565361Y-91716893D01*
X149526657Y-91639484D01*
X149487952Y-91484665D01*
X149487952Y-91291141D01*
X149526657Y-91136322D01*
X149565361Y-91058912D01*
X149604066Y-91020208D01*
X149681476Y-90981503D01*
X150223342Y-90981503D02*
X150726504Y-90981503D01*
X150455571Y-91291141D01*
X150571685Y-91291141D01*
X150649095Y-91329846D01*
X150687800Y-91368550D01*
X150726504Y-91445960D01*
X150726504Y-91639484D01*
X150687800Y-91716893D01*
X150649095Y-91755598D01*
X150571685Y-91794303D01*
X150339457Y-91794303D01*
X150262047Y-91755598D01*
X150223342Y-91716893D01*
X151074847Y-91484665D02*
X151694123Y-91484665D01*
X152042466Y-91058912D02*
X152081171Y-91020208D01*
X152158580Y-90981503D01*
X152352104Y-90981503D01*
X152429514Y-91020208D01*
X152468219Y-91058912D01*
X152506923Y-91136322D01*
X152506923Y-91213731D01*
X152468219Y-91329846D01*
X152003761Y-91794303D01*
X152506923Y-91794303D01*
X152777857Y-90981503D02*
X153319723Y-90981503D01*
X152971380Y-91794303D01*
X153551952Y-92103941D02*
X153590657Y-92065236D01*
X153668066Y-91949122D01*
X153706771Y-91871712D01*
X153745476Y-91755598D01*
X153784180Y-91562074D01*
X153784180Y-91407255D01*
X153745476Y-91213731D01*
X153706771Y-91097617D01*
X153668066Y-91020208D01*
X153590657Y-90904093D01*
X153551952Y-90865388D01*
D11*
X152270523Y-99470380D02*
X151699095Y-99470380D01*
X151984809Y-99470380D02*
X151984809Y-98470380D01*
X151889571Y-98613238D01*
X151794333Y-98708476D01*
X151699095Y-98756095D01*
X152651476Y-98565619D02*
X152699095Y-98518000D01*
X152794333Y-98470380D01*
X153032428Y-98470380D01*
X153127666Y-98518000D01*
X153175285Y-98565619D01*
X153222904Y-98660857D01*
X153222904Y-98756095D01*
X153175285Y-98898952D01*
X152603857Y-99470380D01*
X153222904Y-99470380D01*
X104746714Y-99470380D02*
X104175285Y-99470380D01*
X104461000Y-99470380D02*
X104461000Y-98470380D01*
X104365761Y-98613238D01*
X104270523Y-98708476D01*
X104175285Y-98756095D01*
D10*
X119395895Y-85333933D02*
X119976466Y-85333933D01*
X120092580Y-85372638D01*
X120169990Y-85450047D01*
X120208695Y-85566161D01*
X120208695Y-85643571D01*
X120208695Y-84521133D02*
X120208695Y-84985590D01*
X120208695Y-84753361D02*
X119395895Y-84753361D01*
X119512009Y-84830771D01*
X119589419Y-84908180D01*
X119628123Y-84985590D01*
X104678695Y-86308466D02*
X104291647Y-86579400D01*
X104678695Y-86772923D02*
X103865895Y-86772923D01*
X103865895Y-86463285D01*
X103904600Y-86385876D01*
X103943304Y-86347171D01*
X104020714Y-86308466D01*
X104136828Y-86308466D01*
X104214238Y-86347171D01*
X104252942Y-86385876D01*
X104291647Y-86463285D01*
X104291647Y-86772923D01*
X104678695Y-85534371D02*
X104678695Y-85998828D01*
X104678695Y-85766600D02*
X103865895Y-85766600D01*
X103982009Y-85844009D01*
X104059419Y-85921419D01*
X104098123Y-85998828D01*
X162956990Y-83201733D02*
X162995695Y-83085619D01*
X162995695Y-82892095D01*
X162956990Y-82814685D01*
X162918285Y-82775980D01*
X162840876Y-82737276D01*
X162763466Y-82737276D01*
X162686057Y-82775980D01*
X162647352Y-82814685D01*
X162608647Y-82892095D01*
X162569942Y-83046914D01*
X162531238Y-83124323D01*
X162492533Y-83163028D01*
X162415123Y-83201733D01*
X162337714Y-83201733D01*
X162260304Y-83163028D01*
X162221600Y-83124323D01*
X162182895Y-83046914D01*
X162182895Y-82853390D01*
X162221600Y-82737276D01*
X162182895Y-82466342D02*
X162995695Y-82272819D01*
X162415123Y-82118000D01*
X162995695Y-81963180D01*
X162182895Y-81769657D01*
X162995695Y-81034266D02*
X162995695Y-81498723D01*
X162995695Y-81266495D02*
X162182895Y-81266495D01*
X162299009Y-81343904D01*
X162376419Y-81421314D01*
X162415123Y-81498723D01*
X102788695Y-82712923D02*
X101975895Y-82712923D01*
X101975895Y-82519400D01*
X102014600Y-82403285D01*
X102092009Y-82325876D01*
X102169419Y-82287171D01*
X102324238Y-82248466D01*
X102440352Y-82248466D01*
X102595171Y-82287171D01*
X102672580Y-82325876D01*
X102749990Y-82403285D01*
X102788695Y-82519400D01*
X102788695Y-82712923D01*
X102788695Y-81474371D02*
X102788695Y-81938828D01*
X102788695Y-81706600D02*
X101975895Y-81706600D01*
X102092009Y-81784009D01*
X102169419Y-81861419D01*
X102208123Y-81938828D01*
G36*
X143765780Y-83060229D02*
G01*
X143829221Y-83060446D01*
X143832156Y-83060458D01*
X144116554Y-83061696D01*
X144133248Y-83074431D01*
X144139835Y-83079359D01*
X144145469Y-83083799D01*
X144150229Y-83088465D01*
X144154191Y-83094068D01*
X144157432Y-83101320D01*
X144160031Y-83110933D01*
X144162065Y-83123620D01*
X144163612Y-83140091D01*
X144164748Y-83161059D01*
X144165551Y-83187237D01*
X144166100Y-83219335D01*
X144166471Y-83258067D01*
X144166742Y-83304143D01*
X144166990Y-83358276D01*
X144167115Y-83385560D01*
X144168390Y-83654878D01*
X144022659Y-83654878D01*
X144022659Y-84259423D01*
X143631750Y-84259423D01*
X143631750Y-83654878D01*
X143486295Y-83654878D01*
X143486321Y-83394651D01*
X143486414Y-83332196D01*
X143486678Y-83277127D01*
X143487108Y-83229701D01*
X143487700Y-83190177D01*
X143488450Y-83158811D01*
X143489352Y-83135862D01*
X143490403Y-83121589D01*
X143491114Y-83117254D01*
X143499392Y-83098914D01*
X143512579Y-83081511D01*
X143527977Y-83068277D01*
X143535188Y-83064428D01*
X143540950Y-83063274D01*
X143552473Y-83062312D01*
X143570172Y-83061534D01*
X143594460Y-83060936D01*
X143625751Y-83060512D01*
X143664459Y-83060257D01*
X143710997Y-83060164D01*
X143765780Y-83060229D01*
G37*
G36*
X142578776Y-83402161D02*
G01*
X142580133Y-83360728D01*
X142582038Y-83322134D01*
X142584451Y-83288282D01*
X142587334Y-83261074D01*
X142588225Y-83254878D01*
X142608936Y-83150470D01*
X142638104Y-83049354D01*
X142675657Y-82951665D01*
X142721526Y-82857540D01*
X142775641Y-82767114D01*
X142837932Y-82680521D01*
X142908330Y-82597899D01*
X142947562Y-82557104D01*
X143026270Y-82484542D01*
X143109098Y-82419953D01*
X143195854Y-82363440D01*
X143286345Y-82315110D01*
X143380379Y-82275066D01*
X143477763Y-82243412D01*
X143561295Y-82223528D01*
X143590957Y-82217777D01*
X143617350Y-82213174D01*
X143642068Y-82209597D01*
X143666705Y-82206924D01*
X143692854Y-82205033D01*
X143722110Y-82203802D01*
X143756066Y-82203108D01*
X143796316Y-82202830D01*
X143831750Y-82202821D01*
X143882679Y-82203128D01*
X143926227Y-82203998D01*
X143964093Y-82205604D01*
X143997979Y-82208120D01*
X144029585Y-82211722D01*
X144060613Y-82216582D01*
X144092762Y-82222875D01*
X144127733Y-82230775D01*
X144144528Y-82234823D01*
X144244314Y-82263852D01*
X144340601Y-82301219D01*
X144433126Y-82346765D01*
X144521627Y-82400332D01*
X144605840Y-82461764D01*
X144685504Y-82530901D01*
X144755090Y-82601771D01*
X144823492Y-82682730D01*
X144883393Y-82766200D01*
X144935047Y-82852722D01*
X144978708Y-82942838D01*
X145014630Y-83037089D01*
X145043067Y-83136018D01*
X145064274Y-83240165D01*
X145069016Y-83270787D01*
X145071292Y-83292605D01*
X145073049Y-83321844D01*
X145074296Y-83356847D01*
X145075040Y-83395961D01*
X145075291Y-83437529D01*
X145075057Y-83479897D01*
X145074346Y-83521409D01*
X145073167Y-83560410D01*
X145071529Y-83595245D01*
X145069440Y-83624259D01*
X145067088Y-83644645D01*
X145046787Y-83750547D01*
X145018892Y-83851543D01*
X144983312Y-83947790D01*
X144939953Y-84039447D01*
X144888724Y-84126671D01*
X144829533Y-84209620D01*
X144762288Y-84288452D01*
X144686897Y-84363324D01*
X144609084Y-84429784D01*
X144522173Y-84493392D01*
X144431678Y-84548675D01*
X144337735Y-84595577D01*
X144240479Y-84634043D01*
X144140043Y-84664014D01*
X144036564Y-84685435D01*
X143979318Y-84693445D01*
X143959786Y-84695190D01*
X143933988Y-84696705D01*
X143903616Y-84697964D01*
X143870364Y-84698942D01*
X143835925Y-84699616D01*
X143801990Y-84699960D01*
X143770254Y-84699950D01*
X143742408Y-84699561D01*
X143720146Y-84698769D01*
X143705160Y-84697548D01*
X143704477Y-84697453D01*
X143694901Y-84696172D01*
X143679120Y-84694166D01*
X143659955Y-84691792D01*
X143652205Y-84690847D01*
X143553734Y-84674342D01*
X143457027Y-84649028D01*
X143362422Y-84615072D01*
X143270257Y-84572644D01*
X143180872Y-84521911D01*
X143094606Y-84463043D01*
X143011797Y-84396209D01*
X142955083Y-84343814D01*
X142879322Y-84264056D01*
X142811935Y-84180800D01*
X142752935Y-84094071D01*
X142702336Y-84003895D01*
X142660148Y-83910299D01*
X142626386Y-83813307D01*
X142601061Y-83712946D01*
X142584187Y-83609241D01*
X142581545Y-83585332D01*
X142579589Y-83558238D01*
X142578373Y-83524471D01*
X142577857Y-83485935D01*
X142577907Y-83471819D01*
X142807005Y-83471819D01*
X142808275Y-83516969D01*
X142810865Y-83558399D01*
X142814773Y-83593566D01*
X142815105Y-83595787D01*
X142833184Y-83688037D01*
X142858681Y-83775690D01*
X142891862Y-83859278D01*
X142932994Y-83939330D01*
X142982341Y-84016377D01*
X143040172Y-84090950D01*
X143093102Y-84149578D01*
X143165158Y-84218724D01*
X143240324Y-84279353D01*
X143318760Y-84331551D01*
X143400629Y-84375401D01*
X143486094Y-84410987D01*
X143575316Y-84438393D01*
X143668457Y-84457704D01*
X143694364Y-84461550D01*
X143724563Y-84464612D01*
X143761331Y-84466682D01*
X143802198Y-84467760D01*
X143844697Y-84467846D01*
X143886359Y-84466941D01*
X143924716Y-84465043D01*
X143957300Y-84462154D01*
X143962199Y-84461550D01*
X144055138Y-84445136D01*
X144144778Y-84420420D01*
X144231271Y-84387323D01*
X144314768Y-84345768D01*
X144395421Y-84295680D01*
X144473380Y-84236981D01*
X144548799Y-84169593D01*
X144561496Y-84157151D01*
X144614990Y-84100623D01*
X144661129Y-84044185D01*
X144701390Y-83985793D01*
X144737255Y-83923402D01*
X144752336Y-83893514D01*
X144787194Y-83811490D01*
X144814326Y-83725628D01*
X144833738Y-83636870D01*
X144845438Y-83546156D01*
X144849434Y-83454429D01*
X144845731Y-83362629D01*
X144834337Y-83271697D01*
X144815259Y-83182575D01*
X144788505Y-83096205D01*
X144754082Y-83013526D01*
X144745549Y-82996062D01*
X144700328Y-82915698D01*
X144647671Y-82839315D01*
X144588309Y-82767576D01*
X144522974Y-82701143D01*
X144452399Y-82640678D01*
X144377313Y-82586843D01*
X144298450Y-82540301D01*
X144216541Y-82501713D01*
X144186295Y-82489840D01*
X144102667Y-82463348D01*
X144015014Y-82444286D01*
X143924618Y-82432700D01*
X143832759Y-82428636D01*
X143740718Y-82432142D01*
X143649774Y-82443263D01*
X143561210Y-82462047D01*
X143544765Y-82466484D01*
X143458287Y-82495219D01*
X143375541Y-82532091D01*
X143296335Y-82577212D01*
X143220476Y-82630695D01*
X143147769Y-82692652D01*
X143134048Y-82705628D01*
X143063545Y-82779174D01*
X143001432Y-82856182D01*
X142947719Y-82936634D01*
X142902418Y-83020510D01*
X142865537Y-83107791D01*
X142837089Y-83198456D01*
X142817082Y-83292488D01*
X142815114Y-83304878D01*
X142811108Y-83339478D01*
X142808422Y-83380531D01*
X142807054Y-83425492D01*
X142807005Y-83471819D01*
X142577907Y-83471819D01*
X142578005Y-83444531D01*
X142578776Y-83402161D01*
G37*
G36*
X143869781Y-82643965D02*
G01*
X143905745Y-82652335D01*
X143935836Y-82666650D01*
X143960792Y-82687210D01*
X143971281Y-82699536D01*
X143984820Y-82721182D01*
X143994095Y-82745813D01*
X143999545Y-82775170D01*
X144001604Y-82810998D01*
X144001643Y-82820787D01*
X143998719Y-82864982D01*
X143990190Y-82902113D01*
X143975769Y-82932486D01*
X143955169Y-82956410D01*
X143928103Y-82974191D01*
X143894287Y-82986137D01*
X143853433Y-82992555D01*
X143840841Y-82993396D01*
X143819014Y-82993778D01*
X143797008Y-82993006D01*
X143779138Y-82991248D01*
X143777205Y-82990932D01*
X143741037Y-82980654D01*
X143710285Y-82963746D01*
X143685645Y-82940713D01*
X143667815Y-82912064D01*
X143667307Y-82910932D01*
X143658192Y-82882875D01*
X143652631Y-82849617D01*
X143650979Y-82814463D01*
X143653401Y-82782010D01*
X143662376Y-82741993D01*
X143676780Y-82709013D01*
X143696903Y-82682835D01*
X143723034Y-82663224D01*
X143755462Y-82649946D01*
X143794478Y-82642767D01*
X143827205Y-82641242D01*
X143869781Y-82643965D01*
G37*
G36*
X146132362Y-80655614D02*
G01*
X146099320Y-80721496D01*
X146067978Y-80789065D01*
X146044438Y-80850917D01*
X146029289Y-80905405D01*
X146025057Y-80929277D01*
X146019528Y-80969820D01*
X145991518Y-80912384D01*
X145978642Y-80886870D01*
X145970669Y-80873327D01*
X145967260Y-80871274D01*
X145967766Y-80878599D01*
X145977136Y-80916115D01*
X145992119Y-80958972D01*
X146011373Y-81004578D01*
X146033557Y-81050345D01*
X146057330Y-81093679D01*
X146081350Y-81131993D01*
X146104277Y-81162693D01*
X146124768Y-81183191D01*
X146125910Y-81184053D01*
X146143032Y-81199401D01*
X146148750Y-81214160D01*
X146144103Y-81232802D01*
X146139505Y-81242486D01*
X146132551Y-81255058D01*
X146119647Y-81277380D01*
X146101870Y-81307658D01*
X146080293Y-81344099D01*
X146055991Y-81384907D01*
X146030041Y-81428289D01*
X146003517Y-81472450D01*
X145977493Y-81515596D01*
X145953045Y-81555931D01*
X145931249Y-81591663D01*
X145913179Y-81620996D01*
X145902601Y-81637902D01*
X145873226Y-81684329D01*
X145825358Y-81681112D01*
X145781342Y-81676808D01*
X145745249Y-81669450D01*
X145713435Y-81657448D01*
X145682255Y-81639216D01*
X145648066Y-81613165D01*
X145625800Y-81594180D01*
X145600408Y-81572156D01*
X145578799Y-81553753D01*
X145562918Y-81540603D01*
X145554712Y-81534338D01*
X145554076Y-81534039D01*
X145552730Y-81540187D01*
X145552139Y-81556222D01*
X145552377Y-81576271D01*
X145553627Y-81618503D01*
X145556149Y-81581879D01*
X145558670Y-81545255D01*
X145615713Y-81602001D01*
X145672755Y-81658747D01*
X145672755Y-81812838D01*
X145672490Y-81873311D01*
X145671187Y-81921633D01*
X145668085Y-81959165D01*
X145662424Y-81987266D01*
X145653443Y-82007299D01*
X145640380Y-82020622D01*
X145622476Y-82028597D01*
X145598969Y-82032585D01*
X145569099Y-82033945D01*
X145549041Y-82034066D01*
X145485470Y-82034066D01*
X145477184Y-81951291D01*
X145473862Y-81919472D01*
X145470837Y-81892983D01*
X145468429Y-81874474D01*
X145466961Y-81866596D01*
X145466906Y-81866515D01*
X145464738Y-81871176D01*
X145461903Y-81887399D01*
X145458651Y-81913262D01*
X145455228Y-81946843D01*
X145452505Y-81978319D01*
X145448025Y-82034066D01*
X145309375Y-82034066D01*
X145305560Y-82012105D01*
X145303183Y-81994837D01*
X145300364Y-81969120D01*
X145297645Y-81939980D01*
X145297190Y-81934531D01*
X145294552Y-81909541D01*
X145291473Y-81891177D01*
X145288488Y-81882350D01*
X145287546Y-81882063D01*
X145284766Y-81889780D01*
X145281673Y-81907718D01*
X145278781Y-81932613D01*
X145277744Y-81944433D01*
X145275033Y-81980636D01*
X145272251Y-82005566D01*
X145267270Y-82021308D01*
X145257964Y-82029945D01*
X145242204Y-82033561D01*
X145217863Y-82034241D01*
X145186243Y-82034066D01*
X145152181Y-82034246D01*
X145128647Y-82033398D01*
X145113515Y-82029438D01*
X145104657Y-82020281D01*
X145099945Y-82003844D01*
X145097251Y-81978041D01*
X145094742Y-81944433D01*
X145092089Y-81917581D01*
X145089019Y-81896304D01*
X145086044Y-81883868D01*
X145084939Y-81882063D01*
X145082118Y-81886777D01*
X145079011Y-81902068D01*
X145076154Y-81925025D01*
X145075296Y-81934531D01*
X145072657Y-81963753D01*
X145069815Y-81990497D01*
X145067314Y-82009736D01*
X145066926Y-82012105D01*
X145063111Y-82034066D01*
X144924460Y-82034066D01*
X144919981Y-81978319D01*
X144916601Y-81939903D01*
X144913191Y-81907651D01*
X144909999Y-81883486D01*
X144907274Y-81869329D01*
X144905580Y-81866515D01*
X144904183Y-81873612D01*
X144901827Y-81891512D01*
X144898832Y-81917564D01*
X144895519Y-81949117D01*
X144895301Y-81951291D01*
X144887016Y-82034066D01*
X144822091Y-82034040D01*
X144788613Y-82033441D01*
X144765221Y-82031335D01*
X144748525Y-82027214D01*
X144736088Y-82021162D01*
X144725251Y-82013455D01*
X144716786Y-82004009D01*
X144710407Y-81991167D01*
X144705826Y-81973272D01*
X144702756Y-81948667D01*
X144700908Y-81915696D01*
X144699996Y-81872700D01*
X144699732Y-81818023D01*
X144699730Y-81811612D01*
X144699730Y-81695767D01*
X145039984Y-81695767D01*
X145040524Y-81696210D01*
X145047948Y-81693515D01*
X145064868Y-81686229D01*
X145088569Y-81675546D01*
X145109633Y-81665803D01*
X145137642Y-81653202D01*
X145161975Y-81643149D01*
X145179522Y-81636877D01*
X145186243Y-81635396D01*
X145196882Y-81638146D01*
X145216594Y-81645581D01*
X145242298Y-81656475D01*
X145263695Y-81666197D01*
X145290628Y-81678529D01*
X145312594Y-81688107D01*
X145327019Y-81693839D01*
X145331407Y-81694914D01*
X145329035Y-81688443D01*
X145320986Y-81672410D01*
X145308441Y-81648896D01*
X145292580Y-81619984D01*
X145274585Y-81587755D01*
X145255636Y-81554293D01*
X145236915Y-81521679D01*
X145219602Y-81491996D01*
X145204877Y-81467326D01*
X145193922Y-81449751D01*
X145187918Y-81441353D01*
X145187379Y-81440944D01*
X145182237Y-81445879D01*
X145171842Y-81460886D01*
X145157339Y-81484132D01*
X145139874Y-81513785D01*
X145121951Y-81545554D01*
X145101957Y-81581586D01*
X145083309Y-81615001D01*
X145067360Y-81643385D01*
X145055467Y-81664325D01*
X145049691Y-81674249D01*
X145042223Y-81688208D01*
X145039984Y-81695767D01*
X144699730Y-81695767D01*
X144699730Y-81658747D01*
X144756773Y-81602001D01*
X144813815Y-81545255D01*
X144818859Y-81618503D01*
X144820109Y-81576271D01*
X144820327Y-81554396D01*
X144819659Y-81539134D01*
X144818410Y-81534039D01*
X144812527Y-81538239D01*
X144798461Y-81549750D01*
X144778157Y-81566941D01*
X144753565Y-81588177D01*
X144746686Y-81594180D01*
X144709144Y-81625405D01*
X144676693Y-81647905D01*
X144645688Y-81663269D01*
X144612484Y-81673084D01*
X144573437Y-81678937D01*
X144547128Y-81681112D01*
X144499260Y-81684329D01*
X144469884Y-81637902D01*
X144455363Y-81614629D01*
X144436300Y-81583595D01*
X144413768Y-81546593D01*
X144388844Y-81505419D01*
X144362602Y-81461866D01*
X144336117Y-81417728D01*
X144310465Y-81374801D01*
X144286720Y-81334878D01*
X144265958Y-81299754D01*
X144249253Y-81271223D01*
X144237681Y-81251080D01*
X144232981Y-81242486D01*
X144224429Y-81220996D01*
X144225820Y-81205202D01*
X144238194Y-81190632D01*
X144246576Y-81184053D01*
X144266875Y-81164262D01*
X144289692Y-81134110D01*
X144313683Y-81096187D01*
X144337510Y-81053085D01*
X144359829Y-81007393D01*
X144373288Y-80975810D01*
X144498910Y-80975810D01*
X144498958Y-80983600D01*
X144501993Y-81002321D01*
X144507499Y-81029851D01*
X144514961Y-81064071D01*
X144523864Y-81102858D01*
X144533692Y-81144091D01*
X144543932Y-81185648D01*
X144554067Y-81225409D01*
X144563583Y-81261251D01*
X144571965Y-81291055D01*
X144578696Y-81312697D01*
X144583263Y-81324058D01*
X144583596Y-81324568D01*
X144598828Y-81339286D01*
X144621133Y-81353938D01*
X144645296Y-81365667D01*
X144666101Y-81371617D01*
X144669939Y-81371868D01*
X144679739Y-81369668D01*
X144700594Y-81363433D01*
X144730841Y-81353713D01*
X144768823Y-81341056D01*
X144812878Y-81326011D01*
X144861348Y-81309128D01*
X144886424Y-81300273D01*
X144935980Y-81282605D01*
X144981439Y-81266225D01*
X145021234Y-81251713D01*
X145053796Y-81239646D01*
X145077559Y-81230602D01*
X145090955Y-81225161D01*
X145093303Y-81223947D01*
X145093255Y-81223914D01*
X145279154Y-81223914D01*
X145279183Y-81223952D01*
X145287394Y-81227986D01*
X145306526Y-81235662D01*
X145334690Y-81246316D01*
X145369995Y-81259287D01*
X145410552Y-81273912D01*
X145454472Y-81289529D01*
X145499864Y-81305476D01*
X145544839Y-81321091D01*
X145587507Y-81335711D01*
X145625979Y-81348674D01*
X145658364Y-81359318D01*
X145682773Y-81366981D01*
X145697317Y-81371000D01*
X145700041Y-81371442D01*
X145716286Y-81368647D01*
X145737498Y-81361089D01*
X145746945Y-81356665D01*
X145767463Y-81343990D01*
X145784351Y-81329838D01*
X145788889Y-81324568D01*
X145793199Y-81314412D01*
X145799727Y-81293751D01*
X145807959Y-81264706D01*
X145817380Y-81229399D01*
X145827474Y-81189950D01*
X145837727Y-81148482D01*
X145847623Y-81107115D01*
X145856648Y-81067971D01*
X145864286Y-81033172D01*
X145870021Y-81004838D01*
X145873340Y-80985091D01*
X145873727Y-80976052D01*
X145873576Y-80975810D01*
X145866845Y-80977633D01*
X145848870Y-80984177D01*
X145820876Y-80994952D01*
X145784090Y-81009473D01*
X145739738Y-81027250D01*
X145689044Y-81047795D01*
X145633236Y-81070621D01*
X145573539Y-81095239D01*
X145572158Y-81095811D01*
X145512652Y-81120590D01*
X145457312Y-81143902D01*
X145407323Y-81165228D01*
X145363872Y-81184049D01*
X145328143Y-81199847D01*
X145301324Y-81212103D01*
X145284599Y-81220298D01*
X145279154Y-81223914D01*
X145093255Y-81223914D01*
X145088281Y-81220504D01*
X145071936Y-81212463D01*
X145045455Y-81200344D01*
X145010023Y-81184664D01*
X144966825Y-81165942D01*
X144917048Y-81144696D01*
X144861878Y-81121447D01*
X144802500Y-81096711D01*
X144800328Y-81095811D01*
X144740557Y-81071158D01*
X144684648Y-81048287D01*
X144633826Y-81027685D01*
X144589317Y-81009840D01*
X144552347Y-80995240D01*
X144524141Y-80984375D01*
X144505927Y-80977730D01*
X144498929Y-80975796D01*
X144498910Y-80975810D01*
X144373288Y-80975810D01*
X144379300Y-80961702D01*
X144394582Y-80918603D01*
X144404334Y-80880687D01*
X144404720Y-80878599D01*
X144405048Y-80870932D01*
X144401112Y-80874329D01*
X144392573Y-80889273D01*
X144380967Y-80912384D01*
X144352958Y-80969820D01*
X144347428Y-80929277D01*
X144336676Y-80879070D01*
X144317240Y-80820678D01*
X144289709Y-80755749D01*
X144273166Y-80721496D01*
X144240123Y-80655614D01*
X144186190Y-80655614D01*
X144186190Y-81196183D01*
X143802499Y-81196183D01*
X143797999Y-81214113D01*
X143785060Y-81243708D01*
X143762858Y-81273019D01*
X143735015Y-81297691D01*
X143721386Y-81306241D01*
X143685406Y-81319783D01*
X143645149Y-81325247D01*
X143605566Y-81322449D01*
X143572624Y-81311733D01*
X143533097Y-81284730D01*
X143504534Y-81249997D01*
X143487414Y-81208309D01*
X143482183Y-81165365D01*
X143483868Y-81151198D01*
X143546506Y-81151198D01*
X143547891Y-81181768D01*
X143560187Y-81211643D01*
X143581204Y-81236813D01*
X143600353Y-81249698D01*
X143624028Y-81259952D01*
X143642809Y-81262931D01*
X143663028Y-81258889D01*
X143679356Y-81252850D01*
X143707987Y-81234947D01*
X143727581Y-81209588D01*
X143737656Y-81179698D01*
X143737733Y-81148202D01*
X143727330Y-81118025D01*
X143705969Y-81092093D01*
X143705784Y-81091938D01*
X143676105Y-81074783D01*
X143644198Y-81069208D01*
X143612763Y-81074210D01*
X143584499Y-81088784D01*
X143562105Y-81111925D01*
X143548279Y-81142631D01*
X143546506Y-81151198D01*
X143483868Y-81151198D01*
X143487839Y-81117802D01*
X143504932Y-81076998D01*
X143532769Y-81043892D01*
X143570657Y-81019421D01*
X143597284Y-81009461D01*
X143643191Y-81002489D01*
X143686958Y-81008165D01*
X143726883Y-81025629D01*
X143761263Y-81054022D01*
X143788395Y-81092483D01*
X143796700Y-81110157D01*
X143807208Y-81135624D01*
X144115240Y-81131990D01*
X144117016Y-80893802D01*
X144118791Y-80655614D01*
X143456797Y-80655614D01*
X143442241Y-80689449D01*
X143418510Y-80729128D01*
X143386314Y-80758470D01*
X143346507Y-80776927D01*
X143299943Y-80783947D01*
X143295293Y-80783999D01*
X143247455Y-80778220D01*
X143206715Y-80761085D01*
X143173566Y-80732898D01*
X143148500Y-80693965D01*
X143148073Y-80693054D01*
X143133570Y-80647831D01*
X143132801Y-80618524D01*
X143199651Y-80618524D01*
X143205125Y-80655837D01*
X143220787Y-80686201D01*
X143245491Y-80707900D01*
X143264806Y-80716237D01*
X143283198Y-80721145D01*
X143296866Y-80721970D01*
X143313197Y-80718731D01*
X143321781Y-80716400D01*
X143351603Y-80701365D01*
X143374324Y-80675375D01*
X143385139Y-80652002D01*
X143390211Y-80618429D01*
X143390043Y-80617782D01*
X146982911Y-80617782D01*
X146986423Y-80651228D01*
X147002586Y-80683045D01*
X147011405Y-80693567D01*
X147036531Y-80711134D01*
X147067527Y-80719340D01*
X147100127Y-80717760D01*
X147130066Y-80705971D01*
X147130926Y-80705425D01*
X147153496Y-80683288D01*
X147168036Y-80652771D01*
X147172810Y-80619877D01*
X147171568Y-80599428D01*
X147166149Y-80583909D01*
X147154073Y-80567631D01*
X147146291Y-80559063D01*
X147130658Y-80543195D01*
X147118034Y-80534689D01*
X147102992Y-80531256D01*
X147080108Y-80530608D01*
X147078833Y-80530607D01*
X147055057Y-80531300D01*
X147039388Y-80534713D01*
X147026438Y-80542852D01*
X147013696Y-80554829D01*
X146992014Y-80584914D01*
X146982911Y-80617782D01*
X143390043Y-80617782D01*
X143381911Y-80586459D01*
X143360318Y-80556379D01*
X143358790Y-80554829D01*
X143343954Y-80541164D01*
X143330933Y-80533908D01*
X143314338Y-80531060D01*
X143293653Y-80530607D01*
X143270298Y-80531186D01*
X143255025Y-80534448D01*
X143242408Y-80542682D01*
X143227022Y-80558177D01*
X143226194Y-80559063D01*
X143210419Y-80577599D01*
X143202447Y-80592958D01*
X143199788Y-80610719D01*
X143199651Y-80618524D01*
X143132801Y-80618524D01*
X143132417Y-80603901D01*
X143144457Y-80562097D01*
X143169536Y-80523249D01*
X143182571Y-80509318D01*
X143205149Y-80488994D01*
X143224678Y-80476379D01*
X143246318Y-80468446D01*
X143256436Y-80465969D01*
X143302086Y-80461875D01*
X143345721Y-80469643D01*
X143384352Y-80488689D01*
X143388445Y-80491656D01*
X143410267Y-80509360D01*
X143425017Y-80525673D01*
X143437221Y-80546145D01*
X143443618Y-80559325D01*
X143457053Y-80588043D01*
X144211637Y-80588043D01*
X144202129Y-80560444D01*
X144195961Y-80537544D01*
X144190600Y-80509204D01*
X144188442Y-80492873D01*
X144184264Y-80452900D01*
X143922876Y-80452900D01*
X143919284Y-80077880D01*
X143847060Y-80075967D01*
X143774836Y-80074053D01*
X143760544Y-80106374D01*
X143736964Y-80145917D01*
X143706972Y-80175384D01*
X143672393Y-80195130D01*
X143635052Y-80205510D01*
X143596775Y-80206878D01*
X143559387Y-80199589D01*
X143524713Y-80183999D01*
X143494578Y-80160462D01*
X143470809Y-80129333D01*
X143455229Y-80090967D01*
X143449664Y-80045930D01*
X143449955Y-80043609D01*
X143513409Y-80043609D01*
X143520683Y-80076429D01*
X143525260Y-80086478D01*
X143546207Y-80115228D01*
X143573555Y-80133958D01*
X143604659Y-80141825D01*
X143636869Y-80137986D01*
X143657507Y-80128595D01*
X143683661Y-80105855D01*
X143699907Y-80077411D01*
X143706063Y-80046141D01*
X143701946Y-80014921D01*
X143687375Y-79986628D01*
X143667683Y-79967761D01*
X143634897Y-79951927D01*
X143601316Y-79948997D01*
X143569155Y-79958711D01*
X143540627Y-79980809D01*
X143538744Y-79982903D01*
X143519386Y-80012771D01*
X143513409Y-80043609D01*
X143449955Y-80043609D01*
X143455618Y-79998462D01*
X143472697Y-79957768D01*
X143499727Y-79925018D01*
X143535532Y-79901387D01*
X143578939Y-79888047D01*
X143610370Y-79885451D01*
X143657850Y-79891294D01*
X143698834Y-79908883D01*
X143732672Y-79937782D01*
X143758714Y-79977551D01*
X143763751Y-79988712D01*
X143774187Y-80013688D01*
X143990233Y-80013688D01*
X143990233Y-80385329D01*
X144192689Y-80385329D01*
X144196919Y-80366747D01*
X144224293Y-80261168D01*
X144256258Y-80166579D01*
X144293895Y-80080919D01*
X144338288Y-80002126D01*
X144390517Y-79928140D01*
X144451666Y-79856899D01*
X144480030Y-79827541D01*
X144566707Y-79749731D01*
X144659934Y-79683686D01*
X144759895Y-79629309D01*
X144866776Y-79586501D01*
X144980761Y-79555166D01*
X145007179Y-79549730D01*
X145049884Y-79543658D01*
X145102066Y-79539648D01*
X145159846Y-79537702D01*
X145219346Y-79537819D01*
X145276687Y-79539999D01*
X145327989Y-79544242D01*
X145365306Y-79549730D01*
X145480902Y-79578520D01*
X145589352Y-79618759D01*
X145690841Y-79670547D01*
X145785554Y-79733981D01*
X145873676Y-79809157D01*
X145892456Y-79827541D01*
X145957640Y-79898246D01*
X146013454Y-79970838D01*
X146060980Y-80047378D01*
X146101300Y-80129927D01*
X146135496Y-80220546D01*
X146164651Y-80321296D01*
X146175567Y-80366747D01*
X146179796Y-80385329D01*
X146382252Y-80385329D01*
X146382252Y-80038386D01*
X146666579Y-80038386D01*
X146669611Y-80069126D01*
X146682849Y-80098274D01*
X146706746Y-80123326D01*
X146714979Y-80128997D01*
X146742451Y-80139029D01*
X146774231Y-80139669D01*
X146805209Y-80131219D01*
X146820075Y-80122791D01*
X146841734Y-80099717D01*
X146855058Y-80069658D01*
X146858328Y-80037412D01*
X146855891Y-80022822D01*
X146841619Y-79992429D01*
X146818592Y-79968508D01*
X146789881Y-79953134D01*
X146758559Y-79948378D01*
X146747435Y-79949627D01*
X146714180Y-79961676D01*
X146689317Y-79982155D01*
X146673298Y-80008560D01*
X146666579Y-80038386D01*
X146382252Y-80038386D01*
X146382252Y-80013688D01*
X146598299Y-80013688D01*
X146608734Y-79988712D01*
X146632800Y-79946388D01*
X146664818Y-79914830D01*
X146704140Y-79894475D01*
X146750114Y-79885761D01*
X146762116Y-79885451D01*
X146809796Y-79891542D01*
X146850632Y-79908680D01*
X146883448Y-79935692D01*
X146907070Y-79971404D01*
X146920323Y-80014644D01*
X146922822Y-80045930D01*
X146916593Y-80091887D01*
X146898819Y-80132551D01*
X146870866Y-80166171D01*
X146834102Y-80190997D01*
X146800104Y-80203148D01*
X146753893Y-80207838D01*
X146710427Y-80199911D01*
X146671367Y-80180223D01*
X146638377Y-80149628D01*
X146613116Y-80108981D01*
X146611941Y-80106374D01*
X146597649Y-80074053D01*
X146525426Y-80075967D01*
X146453202Y-80077880D01*
X146449610Y-80452900D01*
X146188221Y-80452900D01*
X146184043Y-80492873D01*
X146179956Y-80520604D01*
X146174079Y-80547745D01*
X146170357Y-80560444D01*
X146160848Y-80588043D01*
X146915432Y-80588043D01*
X146928868Y-80559325D01*
X146941472Y-80534806D01*
X146954413Y-80517155D01*
X146972217Y-80500824D01*
X146984041Y-80491656D01*
X147021884Y-80471316D01*
X147065084Y-80462186D01*
X147110651Y-80464849D01*
X147116049Y-80465969D01*
X147139909Y-80472897D01*
X147159647Y-80483327D01*
X147180424Y-80500287D01*
X147189914Y-80509318D01*
X147219949Y-80546812D01*
X147237005Y-80587582D01*
X147240927Y-80630796D01*
X147231559Y-80675621D01*
X147224413Y-80693054D01*
X147199518Y-80732206D01*
X147166529Y-80760616D01*
X147125941Y-80777981D01*
X147078244Y-80783997D01*
X147077193Y-80783999D01*
X147030044Y-80778072D01*
X146989572Y-80760658D01*
X146956630Y-80732306D01*
X146932074Y-80693566D01*
X146930244Y-80689449D01*
X146915689Y-80655614D01*
X146253694Y-80655614D01*
X146257246Y-81131990D01*
X146565278Y-81135624D01*
X146575786Y-81110157D01*
X146599606Y-81067977D01*
X146631342Y-81035527D01*
X146669292Y-81013667D01*
X146711753Y-81003258D01*
X146757022Y-81005159D01*
X146775201Y-81009461D01*
X146818664Y-81028429D01*
X146852481Y-81056583D01*
X146875961Y-81092985D01*
X146888411Y-81136696D01*
X146890303Y-81165365D01*
X146883917Y-81212665D01*
X146865658Y-81253709D01*
X146836003Y-81287721D01*
X146799862Y-81311733D01*
X146765631Y-81322683D01*
X146725943Y-81325195D01*
X146685751Y-81319453D01*
X146651100Y-81306241D01*
X146621883Y-81285144D01*
X146596651Y-81257415D01*
X146579025Y-81227409D01*
X146574487Y-81214113D01*
X146569987Y-81196183D01*
X146186296Y-81196183D01*
X146186296Y-81157964D01*
X146634097Y-81157964D01*
X146636617Y-81187931D01*
X146648436Y-81215933D01*
X146669863Y-81239361D01*
X146689418Y-81251052D01*
X146714570Y-81260657D01*
X146734935Y-81262531D01*
X146756656Y-81256581D01*
X146771626Y-81249834D01*
X146797751Y-81230652D01*
X146816662Y-81203827D01*
X146826180Y-81173312D01*
X146825980Y-81151198D01*
X146814392Y-81118620D01*
X146792887Y-81092795D01*
X146764151Y-81075605D01*
X146730874Y-81068932D01*
X146710823Y-81070571D01*
X146679239Y-81082333D01*
X146655717Y-81102557D01*
X146640567Y-81128637D01*
X146634097Y-81157964D01*
X146186296Y-81157964D01*
X146186296Y-80655614D01*
X146132362Y-80655614D01*
G37*
D12*
X151561000Y-95818000D02*
X151561000Y-102518000D01*
X105361000Y-95818000D02*
X151561000Y-95818000D01*
X105361000Y-102518000D02*
X105361000Y-95818000D01*
X157826000Y-100118000D02*
X157826000Y-102518000D01*
X99096000Y-100118000D02*
X100216000Y-100118000D01*
X100216000Y-96918000D02*
X94016000Y-96918000D01*
X94016000Y-100118000D02*
X95136000Y-100118000D01*
X161786000Y-100118000D02*
X161786000Y-102518000D01*
X100216000Y-100118000D02*
X100216000Y-96918000D01*
X156706000Y-100118000D02*
X157826000Y-100118000D01*
X162906000Y-100118000D02*
X162906000Y-96918000D01*
X95136000Y-100118000D02*
X95136000Y-102518000D01*
X161786000Y-100118000D02*
X162906000Y-100118000D01*
X99096000Y-100118000D02*
X99096000Y-102518000D01*
X94016000Y-96918000D02*
X94016000Y-100118000D01*
X162906000Y-96918000D02*
X156706000Y-96918000D01*
X156706000Y-96918000D02*
X156706000Y-100118000D01*
G36*
X112063676Y-91162264D02*
G01*
X111901096Y-91162264D01*
X111901096Y-90524450D01*
X112063676Y-90524450D01*
X112063676Y-91162264D01*
G37*
G36*
X116428324Y-89236316D02*
G01*
X116265744Y-89236316D01*
X116265744Y-89073736D01*
X116428324Y-89073736D01*
X116428324Y-89236316D01*
G37*
G36*
X114652450Y-87935676D02*
G01*
X114489870Y-87935676D01*
X114489870Y-87773096D01*
X114652450Y-87773096D01*
X114652450Y-87935676D01*
G37*
G36*
X112713996Y-90849610D02*
G01*
X112551416Y-90849610D01*
X112551416Y-90999684D01*
X112388836Y-90999684D01*
X112388836Y-90687030D01*
X112713996Y-90687030D01*
X112713996Y-90849610D01*
G37*
G36*
X116590904Y-90036710D02*
G01*
X116428324Y-90036710D01*
X116428324Y-89874130D01*
X116590904Y-89874130D01*
X116590904Y-90036710D01*
G37*
G36*
X112713996Y-91162264D02*
G01*
X112551416Y-91162264D01*
X112551416Y-90999684D01*
X112713996Y-90999684D01*
X112713996Y-91162264D01*
G37*
G36*
X112388836Y-90199290D02*
G01*
X112226256Y-90199290D01*
X112226256Y-90036710D01*
X112388836Y-90036710D01*
X112388836Y-90199290D01*
G37*
G36*
X114815030Y-92462904D02*
G01*
X114164710Y-92462904D01*
X114164710Y-92300324D01*
X114815030Y-92300324D01*
X114815030Y-92462904D01*
G37*
G36*
X115127684Y-92462904D02*
G01*
X114977610Y-92462904D01*
X114977610Y-92300324D01*
X115127684Y-92300324D01*
X115127684Y-92462904D01*
G37*
G36*
X114489870Y-91812584D02*
G01*
X114327290Y-91812584D01*
X114327290Y-91650004D01*
X114489870Y-91650004D01*
X114489870Y-91812584D01*
G37*
G36*
X116590904Y-89386390D02*
G01*
X116428324Y-89386390D01*
X116428324Y-89236316D01*
X116590904Y-89236316D01*
X116590904Y-89386390D01*
G37*
G36*
X116265744Y-88585996D02*
G01*
X115778004Y-88585996D01*
X115778004Y-88098256D01*
X116265744Y-88098256D01*
X116265744Y-88585996D01*
G37*
G36*
X116103164Y-89236316D02*
G01*
X115940584Y-89236316D01*
X115940584Y-89073736D01*
X116103164Y-89073736D01*
X116103164Y-89236316D01*
G37*
G36*
X116590904Y-87773096D02*
G01*
X116590904Y-88911156D01*
X115452844Y-88911156D01*
X115452844Y-88748576D01*
X115615424Y-88748576D01*
X116428324Y-88748576D01*
X116428324Y-87935676D01*
X115615424Y-87935676D01*
X115615424Y-88748576D01*
X115452844Y-88748576D01*
X115452844Y-87773096D01*
X116590904Y-87773096D01*
G37*
G36*
X112713996Y-90036710D02*
G01*
X113039156Y-90036710D01*
X113039156Y-90199290D01*
X113201736Y-90199290D01*
X113201736Y-89874130D01*
X113364316Y-89874130D01*
X113364316Y-89711550D01*
X113676970Y-89711550D01*
X113676970Y-89874130D01*
X113514390Y-89874130D01*
X113514390Y-90199290D01*
X113676970Y-90199290D01*
X113676970Y-90036710D01*
X114489870Y-90036710D01*
X114489870Y-89874130D01*
X113839550Y-89874130D01*
X113839550Y-89548970D01*
X114002130Y-89548970D01*
X114002130Y-89711550D01*
X114164710Y-89711550D01*
X114164710Y-89548970D01*
X114327290Y-89548970D01*
X114327290Y-89386390D01*
X114489870Y-89386390D01*
X114489870Y-89548970D01*
X114652450Y-89548970D01*
X114652450Y-89711550D01*
X114815030Y-89711550D01*
X114815030Y-89874130D01*
X115940584Y-89874130D01*
X115940584Y-89548970D01*
X115778004Y-89548970D01*
X115778004Y-89386390D01*
X115452844Y-89386390D01*
X115452844Y-89236316D01*
X115290264Y-89236316D01*
X115290264Y-89073736D01*
X115127684Y-89073736D01*
X115127684Y-88585996D01*
X114977610Y-88585996D01*
X114977610Y-89073736D01*
X114815030Y-89073736D01*
X114815030Y-89236316D01*
X114652450Y-89236316D01*
X114652450Y-89073736D01*
X114327290Y-89073736D01*
X114327290Y-89236316D01*
X114164710Y-89236316D01*
X114164710Y-89386390D01*
X113839550Y-89386390D01*
X113839550Y-89236316D01*
X114002130Y-89236316D01*
X114002130Y-89073736D01*
X114164710Y-89073736D01*
X114164710Y-88911156D01*
X114327290Y-88911156D01*
X114489870Y-88911156D01*
X114489870Y-88748576D01*
X114327290Y-88748576D01*
X114327290Y-88911156D01*
X114164710Y-88911156D01*
X114164710Y-88748576D01*
X114327290Y-88748576D01*
X114327290Y-88585996D01*
X114489870Y-88585996D01*
X114489870Y-88423416D01*
X114652450Y-88423416D01*
X114652450Y-88260836D01*
X114815030Y-88260836D01*
X114815030Y-88423416D01*
X114652450Y-88423416D01*
X114652450Y-89073736D01*
X114815030Y-89073736D01*
X114815030Y-88585996D01*
X114977610Y-88585996D01*
X114977610Y-88423416D01*
X115290264Y-88423416D01*
X115290264Y-89073736D01*
X115452844Y-89073736D01*
X115452844Y-89236316D01*
X115615424Y-89236316D01*
X115615424Y-89073736D01*
X115778004Y-89073736D01*
X115778004Y-89236316D01*
X115940584Y-89236316D01*
X115940584Y-89548970D01*
X116103164Y-89548970D01*
X116103164Y-89711550D01*
X116265744Y-89711550D01*
X116265744Y-89874130D01*
X115940584Y-89874130D01*
X115940584Y-90036710D01*
X116265744Y-90036710D01*
X116265744Y-90199290D01*
X115940584Y-90199290D01*
X115940584Y-90361870D01*
X115778004Y-90361870D01*
X115778004Y-90524450D01*
X115940584Y-90524450D01*
X115940584Y-90361870D01*
X116265744Y-90361870D01*
X116265744Y-90849610D01*
X116428324Y-90849610D01*
X116428324Y-90999684D01*
X116590904Y-90999684D01*
X116590904Y-91324844D01*
X116265744Y-91324844D01*
X116265744Y-91487424D01*
X115940584Y-91487424D01*
X115940584Y-91812584D01*
X115290264Y-91812584D01*
X115290264Y-91975164D01*
X115940584Y-91975164D01*
X115940584Y-91812584D01*
X116103164Y-91812584D01*
X116103164Y-91650004D01*
X116265744Y-91650004D01*
X116265744Y-91487424D01*
X116590904Y-91487424D01*
X116590904Y-91975164D01*
X116428324Y-91975164D01*
X116428324Y-92300324D01*
X116265744Y-92300324D01*
X116265744Y-92462904D01*
X116103164Y-92462904D01*
X116103164Y-92300324D01*
X116265744Y-92300324D01*
X116265744Y-92137744D01*
X116103164Y-92137744D01*
X116103164Y-92300324D01*
X115940584Y-92300324D01*
X115940584Y-92462904D01*
X115452844Y-92462904D01*
X115452844Y-92300324D01*
X115615424Y-92300324D01*
X115778004Y-92300324D01*
X115940584Y-92300324D01*
X115940584Y-92137744D01*
X115778004Y-92137744D01*
X115778004Y-92300324D01*
X115615424Y-92300324D01*
X115615424Y-92137744D01*
X115452844Y-92137744D01*
X115452844Y-92300324D01*
X115127684Y-92300324D01*
X115127684Y-92137744D01*
X114815030Y-92137744D01*
X114815030Y-91975164D01*
X114489870Y-91975164D01*
X114489870Y-92137744D01*
X114164710Y-92137744D01*
X114164710Y-92300324D01*
X114002130Y-92300324D01*
X114002130Y-92462904D01*
X113839550Y-92462904D01*
X113839550Y-92137744D01*
X114002130Y-92137744D01*
X114002130Y-91975164D01*
X113839550Y-91975164D01*
X113839550Y-91812584D01*
X114164710Y-91812584D01*
X114164710Y-91975164D01*
X114489870Y-91975164D01*
X114489870Y-91812584D01*
X114652450Y-91812584D01*
X114652450Y-91650004D01*
X114815030Y-91650004D01*
X114815030Y-91812584D01*
X115127684Y-91812584D01*
X115127684Y-91650004D01*
X115290264Y-91650004D01*
X115778004Y-91650004D01*
X115778004Y-91162264D01*
X115290264Y-91162264D01*
X115290264Y-91650004D01*
X115127684Y-91650004D01*
X114977610Y-91650004D01*
X114977610Y-91487424D01*
X114327290Y-91487424D01*
X114327290Y-91650004D01*
X114164710Y-91650004D01*
X114164710Y-91487424D01*
X113839550Y-91487424D01*
X113839550Y-91812584D01*
X113676970Y-91812584D01*
X113676970Y-91487424D01*
X113514390Y-91487424D01*
X113514390Y-91324844D01*
X113676970Y-91324844D01*
X114002130Y-91324844D01*
X114002130Y-91162264D01*
X113839550Y-91162264D01*
X113839550Y-90999684D01*
X114002130Y-90999684D01*
X114164710Y-90999684D01*
X114164710Y-91324844D01*
X114489870Y-91324844D01*
X114652450Y-91324844D01*
X114815030Y-91324844D01*
X114977610Y-91324844D01*
X115127684Y-91324844D01*
X115127684Y-91162264D01*
X114977610Y-91162264D01*
X114977610Y-91324844D01*
X114815030Y-91324844D01*
X114815030Y-91162264D01*
X114652450Y-91162264D01*
X114652450Y-91324844D01*
X114489870Y-91324844D01*
X114489870Y-91162264D01*
X114327290Y-91162264D01*
X114327290Y-90999684D01*
X114652450Y-90999684D01*
X114815030Y-90999684D01*
X114815030Y-91162264D01*
X114977610Y-91162264D01*
X114977610Y-90999684D01*
X115127684Y-90999684D01*
X115615424Y-90999684D01*
X115940584Y-90999684D01*
X115940584Y-91162264D01*
X116103164Y-91162264D01*
X116103164Y-90999684D01*
X116265744Y-90999684D01*
X116265744Y-90849610D01*
X116103164Y-90849610D01*
X116103164Y-90524450D01*
X115940584Y-90524450D01*
X115940584Y-90849610D01*
X115615424Y-90849610D01*
X115615424Y-90999684D01*
X115127684Y-90999684D01*
X115127684Y-90849610D01*
X115290264Y-90849610D01*
X115452844Y-90849610D01*
X115452844Y-90687030D01*
X115290264Y-90687030D01*
X115290264Y-90849610D01*
X115127684Y-90849610D01*
X115127684Y-90687030D01*
X115290264Y-90687030D01*
X115290264Y-90524450D01*
X115452844Y-90524450D01*
X115615424Y-90524450D01*
X115615424Y-90361870D01*
X115452844Y-90361870D01*
X115452844Y-90524450D01*
X115290264Y-90524450D01*
X115290264Y-90361870D01*
X115127684Y-90361870D01*
X115127684Y-90687030D01*
X114652450Y-90687030D01*
X114652450Y-90999684D01*
X114327290Y-90999684D01*
X114327290Y-90849610D01*
X114002130Y-90849610D01*
X114002130Y-90999684D01*
X113839550Y-90999684D01*
X113839550Y-90849610D01*
X114002130Y-90849610D01*
X114002130Y-90687030D01*
X114164710Y-90687030D01*
X114489870Y-90687030D01*
X114489870Y-90524450D01*
X114652450Y-90524450D01*
X114652450Y-90361870D01*
X114977610Y-90361870D01*
X114977610Y-90199290D01*
X115127684Y-90199290D01*
X115452844Y-90199290D01*
X115778004Y-90199290D01*
X115778004Y-90036710D01*
X115452844Y-90036710D01*
X115452844Y-90199290D01*
X115127684Y-90199290D01*
X115127684Y-90036710D01*
X114815030Y-90036710D01*
X114815030Y-89874130D01*
X114652450Y-89874130D01*
X114652450Y-90199290D01*
X114489870Y-90199290D01*
X114489870Y-90361870D01*
X114327290Y-90361870D01*
X114327290Y-90524450D01*
X114164710Y-90524450D01*
X114164710Y-90687030D01*
X114002130Y-90687030D01*
X113839550Y-90687030D01*
X113839550Y-90524450D01*
X114002130Y-90524450D01*
X114002130Y-90361870D01*
X114164710Y-90361870D01*
X114164710Y-90199290D01*
X113839550Y-90199290D01*
X113839550Y-90524450D01*
X113676970Y-90524450D01*
X113676970Y-91324844D01*
X113514390Y-91324844D01*
X113364316Y-91324844D01*
X113364316Y-91487424D01*
X113201736Y-91487424D01*
X113201736Y-91162264D01*
X113364316Y-91162264D01*
X113514390Y-91162264D01*
X113514390Y-90999684D01*
X113364316Y-90999684D01*
X113364316Y-91162264D01*
X113201736Y-91162264D01*
X113201736Y-90849610D01*
X113364316Y-90849610D01*
X113364316Y-90687030D01*
X113201736Y-90687030D01*
X113201736Y-90849610D01*
X112876576Y-90849610D01*
X112876576Y-90687030D01*
X113201736Y-90687030D01*
X113201736Y-90524450D01*
X113514390Y-90524450D01*
X113514390Y-90199290D01*
X113364316Y-90199290D01*
X113364316Y-90361870D01*
X113039156Y-90361870D01*
X113039156Y-90524450D01*
X112876576Y-90524450D01*
X112876576Y-90687030D01*
X112713996Y-90687030D01*
X112713996Y-90524450D01*
X112876576Y-90524450D01*
X112876576Y-90361870D01*
X113039156Y-90361870D01*
X113039156Y-90199290D01*
X112713996Y-90199290D01*
X112713996Y-90361870D01*
X112388836Y-90361870D01*
X112388836Y-90199290D01*
X112551416Y-90199290D01*
X112551416Y-89874130D01*
X112388836Y-89874130D01*
X112388836Y-89711550D01*
X112226256Y-89711550D01*
X112226256Y-89548970D01*
X112063676Y-89548970D01*
X112063676Y-89386390D01*
X112388836Y-89386390D01*
X112388836Y-89236316D01*
X111901096Y-89236316D01*
X111901096Y-89073736D01*
X112713996Y-89073736D01*
X112713996Y-89236316D01*
X112876576Y-89236316D01*
X112876576Y-89073736D01*
X113364316Y-89073736D01*
X113364316Y-88911156D01*
X113514390Y-88911156D01*
X113676970Y-88911156D01*
X113839550Y-88911156D01*
X113839550Y-88748576D01*
X113676970Y-88748576D01*
X113676970Y-88911156D01*
X113514390Y-88911156D01*
X113514390Y-88748576D01*
X113364316Y-88748576D01*
X113364316Y-88911156D01*
X113201736Y-88911156D01*
X113201736Y-88585996D01*
X113364316Y-88585996D01*
X113364316Y-88423416D01*
X113201736Y-88423416D01*
X113201736Y-88260836D01*
X113676970Y-88260836D01*
X113676970Y-88423416D01*
X113514390Y-88423416D01*
X113514390Y-88748576D01*
X113676970Y-88748576D01*
X113676970Y-88585996D01*
X114164710Y-88585996D01*
X114164710Y-88423416D01*
X113839550Y-88423416D01*
X113839550Y-88098256D01*
X114002130Y-88098256D01*
X114002130Y-88260836D01*
X114164710Y-88260836D01*
X114164710Y-87935676D01*
X114489870Y-87935676D01*
X114489870Y-88098256D01*
X114652450Y-88098256D01*
X114652450Y-88260836D01*
X114489870Y-88260836D01*
X114489870Y-88423416D01*
X114327290Y-88423416D01*
X114327290Y-88585996D01*
X114164710Y-88585996D01*
X114164710Y-88748576D01*
X114002130Y-88748576D01*
X114002130Y-88911156D01*
X113839550Y-88911156D01*
X113839550Y-89236316D01*
X113676970Y-89236316D01*
X113676970Y-89073736D01*
X113514390Y-89073736D01*
X113514390Y-89236316D01*
X113364316Y-89236316D01*
X113364316Y-89386390D01*
X113201736Y-89386390D01*
X113201736Y-89236316D01*
X112876576Y-89236316D01*
X112876576Y-89386390D01*
X112713996Y-89386390D01*
X112713996Y-89548970D01*
X112551416Y-89548970D01*
X112551416Y-89711550D01*
X112713996Y-89711550D01*
X112713996Y-90036710D01*
G37*
G36*
X113039156Y-91324844D02*
G01*
X113039156Y-92462904D01*
X111901096Y-92462904D01*
X111901096Y-92300324D01*
X112063676Y-92300324D01*
X112876576Y-92300324D01*
X112876576Y-91487424D01*
X112063676Y-91487424D01*
X112063676Y-92300324D01*
X111901096Y-92300324D01*
X111901096Y-91324844D01*
X113039156Y-91324844D01*
G37*
G36*
X113039156Y-91162264D02*
G01*
X112876576Y-91162264D01*
X112876576Y-90999684D01*
X113039156Y-90999684D01*
X113039156Y-91162264D01*
G37*
G36*
X113676970Y-89548970D02*
G01*
X113514390Y-89548970D01*
X113514390Y-89236316D01*
X113676970Y-89236316D01*
X113676970Y-89548970D01*
G37*
G36*
X113201736Y-89548970D02*
G01*
X113201736Y-89874130D01*
X112876576Y-89874130D01*
X112876576Y-89711550D01*
X113039156Y-89711550D01*
X113039156Y-89548970D01*
X113201736Y-89548970D01*
G37*
G36*
X113039156Y-89548970D02*
G01*
X112876576Y-89548970D01*
X112876576Y-89711550D01*
X112713996Y-89711550D01*
X112713996Y-89548970D01*
X112876576Y-89548970D01*
X112876576Y-89386390D01*
X113039156Y-89386390D01*
X113039156Y-89548970D01*
G37*
G36*
X115290264Y-88098256D02*
G01*
X115127684Y-88098256D01*
X115127684Y-87935676D01*
X114977610Y-87935676D01*
X114977610Y-87773096D01*
X115290264Y-87773096D01*
X115290264Y-88098256D01*
G37*
G36*
X113676970Y-88098256D02*
G01*
X113514390Y-88098256D01*
X113514390Y-87773096D01*
X113676970Y-87773096D01*
X113676970Y-88098256D01*
G37*
G36*
X115290264Y-89386390D02*
G01*
X114977610Y-89386390D01*
X114977610Y-89236316D01*
X115290264Y-89236316D01*
X115290264Y-89386390D01*
G37*
G36*
X113039156Y-87773096D02*
G01*
X113039156Y-88911156D01*
X111901096Y-88911156D01*
X111901096Y-88748576D01*
X112063676Y-88748576D01*
X112876576Y-88748576D01*
X112876576Y-87935676D01*
X112063676Y-87935676D01*
X112063676Y-88748576D01*
X111901096Y-88748576D01*
X111901096Y-87773096D01*
X113039156Y-87773096D01*
G37*
G36*
X115615424Y-91487424D02*
G01*
X115452844Y-91487424D01*
X115452844Y-91324844D01*
X115615424Y-91324844D01*
X115615424Y-91487424D01*
G37*
G36*
X116428324Y-90361870D02*
G01*
X116265744Y-90361870D01*
X116265744Y-90199290D01*
X116428324Y-90199290D01*
X116428324Y-90361870D01*
G37*
G36*
X113364316Y-88098256D02*
G01*
X113201736Y-88098256D01*
X113201736Y-87935676D01*
X113364316Y-87935676D01*
X113364316Y-88098256D01*
G37*
G36*
X112713996Y-88585996D02*
G01*
X112226256Y-88585996D01*
X112226256Y-88098256D01*
X112713996Y-88098256D01*
X112713996Y-88585996D01*
G37*
G36*
X114002130Y-87935676D02*
G01*
X113839550Y-87935676D01*
X113839550Y-87773096D01*
X114002130Y-87773096D01*
X114002130Y-87935676D01*
G37*
G36*
X112226256Y-90036710D02*
G01*
X112063676Y-90036710D01*
X112063676Y-90361870D01*
X111901096Y-90361870D01*
X111901096Y-89711550D01*
X112226256Y-89711550D01*
X112226256Y-90036710D01*
G37*
G36*
X114977610Y-89548970D02*
G01*
X115127684Y-89548970D01*
X115127684Y-89711550D01*
X114815030Y-89711550D01*
X114815030Y-89548970D01*
X114652450Y-89548970D01*
X114652450Y-89386390D01*
X114977610Y-89386390D01*
X114977610Y-89548970D01*
G37*
G36*
X113514390Y-91812584D02*
G01*
X113676970Y-91812584D01*
X113676970Y-91975164D01*
X113514390Y-91975164D01*
X113514390Y-92137744D01*
X113364316Y-92137744D01*
X113364316Y-92300324D01*
X113514390Y-92300324D01*
X113514390Y-92462904D01*
X113201736Y-92462904D01*
X113201736Y-91650004D01*
X113514390Y-91650004D01*
X113514390Y-91812584D01*
G37*
G36*
X112713996Y-92137744D02*
G01*
X112226256Y-92137744D01*
X112226256Y-91650004D01*
X112713996Y-91650004D01*
X112713996Y-92137744D01*
G37*
G36*
X116590904Y-90687030D02*
G01*
X116428324Y-90687030D01*
X116428324Y-90524450D01*
X116590904Y-90524450D01*
X116590904Y-90687030D01*
G37*
G36*
X116428324Y-89711550D02*
G01*
X116265744Y-89711550D01*
X116265744Y-89548970D01*
X116428324Y-89548970D01*
X116428324Y-89711550D01*
G37*
G36*
X141544295Y-83062380D02*
G01*
X141575211Y-83062811D01*
X141599264Y-83063815D01*
X141618675Y-83065600D01*
X141635666Y-83068373D01*
X141652459Y-83072343D01*
X141653386Y-83072591D01*
X141699512Y-83087498D01*
X141739258Y-83106183D01*
X141774996Y-83129965D01*
X141807038Y-83158131D01*
X141820749Y-83172631D01*
X141834695Y-83189143D01*
X141847649Y-83205979D01*
X141858385Y-83221451D01*
X141865678Y-83233872D01*
X141868302Y-83241554D01*
X141868186Y-83242298D01*
X141864096Y-83245217D01*
X141853426Y-83251574D01*
X141837640Y-83260573D01*
X141818203Y-83271417D01*
X141796577Y-83283311D01*
X141774229Y-83295457D01*
X141752620Y-83307059D01*
X141733217Y-83317321D01*
X141717482Y-83325446D01*
X141706881Y-83330638D01*
X141702998Y-83332151D01*
X141700049Y-83328600D01*
X141694190Y-83319540D01*
X141690160Y-83312833D01*
X141672206Y-83288283D01*
X141649429Y-83266035D01*
X141624850Y-83248895D01*
X141617023Y-83244913D01*
X141590181Y-83236689D01*
X141559318Y-83233684D01*
X141527830Y-83235860D01*
X141499113Y-83243179D01*
X141491720Y-83246290D01*
X141462174Y-83264637D01*
X141438250Y-83289504D01*
X141419647Y-83321302D01*
X141406062Y-83360444D01*
X141405167Y-83363969D01*
X141401682Y-83384640D01*
X141399561Y-83411186D01*
X141398774Y-83441033D01*
X141399290Y-83471602D01*
X141401077Y-83500316D01*
X141404103Y-83524598D01*
X141407295Y-83538775D01*
X141422376Y-83578521D01*
X141441212Y-83610472D01*
X141464332Y-83635332D01*
X141492265Y-83653805D01*
X141494487Y-83654913D01*
X141506670Y-83660216D01*
X141518651Y-83663516D01*
X141533175Y-83665258D01*
X141552987Y-83665888D01*
X141562477Y-83665928D01*
X141585038Y-83665603D01*
X141601279Y-83664330D01*
X141613958Y-83661662D01*
X141625831Y-83657154D01*
X141630659Y-83654887D01*
X141652683Y-83641070D01*
X141674098Y-83622253D01*
X141692133Y-83601193D01*
X141703046Y-83582906D01*
X141709385Y-83571560D01*
X141715524Y-83564798D01*
X141717678Y-83563969D01*
X141723870Y-83565911D01*
X141736243Y-83571219D01*
X141753259Y-83579120D01*
X141773382Y-83588838D01*
X141795075Y-83599600D01*
X141816800Y-83610630D01*
X141837022Y-83621154D01*
X141854204Y-83630397D01*
X141866808Y-83637585D01*
X141873297Y-83641943D01*
X141873841Y-83642680D01*
X141871172Y-83649385D01*
X141864050Y-83661213D01*
X141853805Y-83676271D01*
X141841765Y-83692666D01*
X141829260Y-83708506D01*
X141820236Y-83719036D01*
X141786719Y-83750952D01*
X141746922Y-83780035D01*
X141703533Y-83804657D01*
X141659239Y-83823190D01*
X141637477Y-83829695D01*
X141615800Y-83833721D01*
X141587927Y-83836740D01*
X141556706Y-83838641D01*
X141524988Y-83839313D01*
X141495621Y-83838644D01*
X141471457Y-83836524D01*
X141469474Y-83836234D01*
X141414500Y-83823727D01*
X141364319Y-83803627D01*
X141318220Y-83775573D01*
X141275489Y-83739204D01*
X141273374Y-83737108D01*
X141254337Y-83717403D01*
X141240161Y-83700649D01*
X141228735Y-83683959D01*
X141217947Y-83664452D01*
X141213174Y-83654878D01*
X141193622Y-83608602D01*
X141180121Y-83561397D01*
X141172321Y-83511359D01*
X141169874Y-83456580D01*
X141170714Y-83423060D01*
X141174582Y-83375993D01*
X141181977Y-83334495D01*
X141193656Y-83295477D01*
X141210376Y-83255850D01*
X141213038Y-83250333D01*
X141223058Y-83230796D01*
X141232701Y-83214803D01*
X141243737Y-83199987D01*
X141257940Y-83183980D01*
X141277081Y-83164416D01*
X141278165Y-83163336D01*
X141298159Y-83143913D01*
X141314473Y-83129505D01*
X141329482Y-83118345D01*
X141345563Y-83108666D01*
X141365060Y-83098717D01*
X141393702Y-83085568D01*
X141419195Y-83075890D01*
X141443890Y-83069205D01*
X141470135Y-83065038D01*
X141500282Y-83062912D01*
X141536679Y-83062350D01*
X141544295Y-83062380D01*
G37*
G36*
X140839750Y-83061025D02*
G01*
X140901640Y-83067676D01*
X140957776Y-83081308D01*
X141008337Y-83102018D01*
X141053503Y-83129899D01*
X141093457Y-83165049D01*
X141128376Y-83207561D01*
X141134976Y-83217265D01*
X141141855Y-83229396D01*
X141145380Y-83239055D01*
X141145396Y-83242265D01*
X141141102Y-83245532D01*
X141130195Y-83252193D01*
X141114129Y-83261456D01*
X141094361Y-83272526D01*
X141072345Y-83284610D01*
X141049535Y-83296914D01*
X141027389Y-83308645D01*
X141007360Y-83319009D01*
X140990903Y-83327211D01*
X140982186Y-83331288D01*
X140978313Y-83328511D01*
X140971319Y-83319874D01*
X140963418Y-83308314D01*
X140938985Y-83277235D01*
X140910756Y-83254244D01*
X140879040Y-83239509D01*
X140844147Y-83233197D01*
X140825328Y-83233270D01*
X140788171Y-83239438D01*
X140756289Y-83252968D01*
X140729739Y-83273782D01*
X140708578Y-83301798D01*
X140692861Y-83336936D01*
X140682646Y-83379115D01*
X140677988Y-83428256D01*
X140677686Y-83443514D01*
X140679677Y-83492525D01*
X140686366Y-83534622D01*
X140698077Y-83570863D01*
X140715132Y-83602302D01*
X140733320Y-83625228D01*
X140753934Y-83643797D01*
X140776807Y-83656325D01*
X140803857Y-83663534D01*
X140837001Y-83666147D01*
X140842023Y-83666187D01*
X140865261Y-83665739D01*
X140882269Y-83664051D01*
X140895871Y-83660698D01*
X140906215Y-83656523D01*
X140934599Y-83639025D01*
X140960078Y-83614968D01*
X140979350Y-83587961D01*
X140987147Y-83575271D01*
X140993703Y-83566574D01*
X140997055Y-83563969D01*
X141002790Y-83565959D01*
X141014890Y-83571385D01*
X141031754Y-83579435D01*
X141051780Y-83589293D01*
X141073364Y-83600146D01*
X141094904Y-83611181D01*
X141114799Y-83621582D01*
X141131444Y-83630537D01*
X141143239Y-83637231D01*
X141148580Y-83640850D01*
X141148681Y-83640984D01*
X141147976Y-83647619D01*
X141142191Y-83659460D01*
X141132360Y-83674986D01*
X141119518Y-83692673D01*
X141104696Y-83710997D01*
X141090302Y-83727006D01*
X141048268Y-83764690D01*
X141001227Y-83795034D01*
X140949790Y-83817845D01*
X140894567Y-83832929D01*
X140836173Y-83840091D01*
X140775217Y-83839138D01*
X140746568Y-83835933D01*
X140694365Y-83824225D01*
X140644833Y-83804672D01*
X140599038Y-83778029D01*
X140558041Y-83745050D01*
X140522909Y-83706490D01*
X140494705Y-83663103D01*
X140490105Y-83654149D01*
X140476463Y-83624887D01*
X140466173Y-83598489D01*
X140458784Y-83572791D01*
X140453850Y-83545624D01*
X140450919Y-83514822D01*
X140449545Y-83478218D01*
X140449302Y-83457151D01*
X140449339Y-83423669D01*
X140449963Y-83397320D01*
X140451306Y-83376159D01*
X140453497Y-83358238D01*
X140456670Y-83341613D01*
X140457271Y-83338969D01*
X140474568Y-83282721D01*
X140498842Y-83232049D01*
X140529647Y-83187274D01*
X140566539Y-83148720D01*
X140609075Y-83116709D01*
X140656810Y-83091565D01*
X140709299Y-83073609D01*
X140766099Y-83063166D01*
X140826766Y-83060557D01*
X140839750Y-83061025D01*
G37*
G36*
X139912746Y-83405309D02*
G01*
X139913052Y-83372422D01*
X139913625Y-83345628D01*
X139914547Y-83323427D01*
X139915897Y-83304320D01*
X139917756Y-83286808D01*
X139920205Y-83269393D01*
X139922971Y-83252605D01*
X139945737Y-83145613D01*
X139976405Y-83043081D01*
X140015076Y-82944800D01*
X140061851Y-82850563D01*
X140116832Y-82760162D01*
X140180119Y-82673388D01*
X140236870Y-82606360D01*
X140312696Y-82528526D01*
X140392459Y-82458874D01*
X140476136Y-82397419D01*
X140563701Y-82344173D01*
X140655129Y-82299150D01*
X140750395Y-82262362D01*
X140849473Y-82233823D01*
X140952340Y-82213545D01*
X140999443Y-82207168D01*
X141034138Y-82204066D01*
X141075483Y-82201912D01*
X141121089Y-82200706D01*
X141168567Y-82200447D01*
X141215525Y-82201136D01*
X141259573Y-82202772D01*
X141298322Y-82205354D01*
X141316760Y-82207207D01*
X141368384Y-82214338D01*
X141421622Y-82223664D01*
X141473077Y-82234521D01*
X141519349Y-82246245D01*
X141525620Y-82248033D01*
X141620518Y-82280223D01*
X141713017Y-82320847D01*
X141802447Y-82369412D01*
X141888137Y-82425427D01*
X141969419Y-82488400D01*
X142045622Y-82557839D01*
X142116076Y-82633254D01*
X142180111Y-82714151D01*
X142200776Y-82743514D01*
X142253546Y-82828803D01*
X142299413Y-82919573D01*
X142338080Y-83015059D01*
X142369251Y-83114498D01*
X142392629Y-83217125D01*
X142399108Y-83254878D01*
X142402148Y-83279876D01*
X142404722Y-83312055D01*
X142406792Y-83349513D01*
X142408319Y-83390349D01*
X142409265Y-83432664D01*
X142409591Y-83474556D01*
X142409258Y-83514125D01*
X142408227Y-83549469D01*
X142406459Y-83578688D01*
X142405846Y-83585332D01*
X142390874Y-83691215D01*
X142367866Y-83793542D01*
X142336940Y-83891970D01*
X142298217Y-83986156D01*
X142251815Y-84075757D01*
X142212758Y-84138680D01*
X142185530Y-84178284D01*
X142159688Y-84213093D01*
X142133221Y-84245538D01*
X142104123Y-84278050D01*
X142070385Y-84313059D01*
X142060385Y-84323090D01*
X141979183Y-84397919D01*
X141893643Y-84464823D01*
X141803964Y-84523706D01*
X141710345Y-84574472D01*
X141612984Y-84617025D01*
X141512081Y-84651268D01*
X141407834Y-84677107D01*
X141300441Y-84694444D01*
X141289750Y-84695683D01*
X141273526Y-84696914D01*
X141250101Y-84697918D01*
X141221365Y-84698685D01*
X141189206Y-84699203D01*
X141155512Y-84699462D01*
X141122171Y-84699452D01*
X141091073Y-84699161D01*
X141064105Y-84698580D01*
X141043155Y-84697698D01*
X141035205Y-84697111D01*
X140986228Y-84690956D01*
X140931899Y-84681372D01*
X140874997Y-84668998D01*
X140818300Y-84654475D01*
X140764585Y-84638443D01*
X140731776Y-84627222D01*
X140666225Y-84600537D01*
X140598142Y-84567522D01*
X140529853Y-84529528D01*
X140463682Y-84487907D01*
X140401957Y-84444012D01*
X140362477Y-84412520D01*
X140343539Y-84395925D01*
X140320612Y-84374795D01*
X140295916Y-84351235D01*
X140271672Y-84327349D01*
X140257660Y-84313115D01*
X140186270Y-84233372D01*
X140122993Y-84149625D01*
X140067768Y-84061751D01*
X140020537Y-83969631D01*
X139981239Y-83873142D01*
X139949816Y-83772163D01*
X139926209Y-83666574D01*
X139918604Y-83620787D01*
X139916238Y-83598734D01*
X139914468Y-83568087D01*
X139913291Y-83528715D01*
X139912701Y-83480485D01*
X139912638Y-83450333D01*
X140140062Y-83450333D01*
X140140914Y-83503517D01*
X140143707Y-83550691D01*
X140148795Y-83594798D01*
X140156533Y-83638778D01*
X140167276Y-83685575D01*
X140169465Y-83694172D01*
X140197147Y-83783497D01*
X140233214Y-83869954D01*
X140277266Y-83952999D01*
X140328898Y-84032091D01*
X140387709Y-84106687D01*
X140453297Y-84176246D01*
X140525258Y-84240224D01*
X140603192Y-84298080D01*
X140631059Y-84316311D01*
X140708949Y-84360342D01*
X140791649Y-84397175D01*
X140878109Y-84426559D01*
X140967276Y-84448246D01*
X141058099Y-84461985D01*
X141149527Y-84467525D01*
X141240507Y-84464618D01*
X141251114Y-84463710D01*
X141340627Y-84451221D01*
X141430178Y-84430322D01*
X141517996Y-84401510D01*
X141602309Y-84365286D01*
X141604617Y-84364163D01*
X141641775Y-84345553D01*
X141673569Y-84328417D01*
X141702688Y-84311112D01*
X141731821Y-84291996D01*
X141763655Y-84269424D01*
X141782932Y-84255209D01*
X141856453Y-84195153D01*
X141923198Y-84129686D01*
X141982856Y-84059265D01*
X142035122Y-83984353D01*
X142079685Y-83905407D01*
X142116238Y-83822889D01*
X142144473Y-83737259D01*
X142153283Y-83702605D01*
X142171559Y-83605260D01*
X142181013Y-83508512D01*
X142181799Y-83412808D01*
X142174068Y-83318595D01*
X142157971Y-83226321D01*
X142133660Y-83136433D01*
X142101287Y-83049378D01*
X142061004Y-82965605D01*
X142012962Y-82885559D01*
X141957314Y-82809690D01*
X141894211Y-82738444D01*
X141823805Y-82672268D01*
X141795863Y-82649100D01*
X141722350Y-82595187D01*
X141645488Y-82548367D01*
X141566371Y-82509214D01*
X141486092Y-82478301D01*
X141448841Y-82466941D01*
X141359097Y-82446244D01*
X141267338Y-82433481D01*
X141174610Y-82428576D01*
X141081956Y-82431454D01*
X140990420Y-82442040D01*
X140901048Y-82460259D01*
X140814883Y-82486036D01*
X140735187Y-82518267D01*
X140659838Y-82557798D01*
X140586631Y-82605471D01*
X140516422Y-82660430D01*
X140450071Y-82721817D01*
X140388435Y-82788774D01*
X140332370Y-82860444D01*
X140282735Y-82935970D01*
X140241856Y-83011461D01*
X140207143Y-83089430D01*
X140180153Y-83165326D01*
X140160441Y-83241064D01*
X140147563Y-83318562D01*
X140141074Y-83399738D01*
X140140062Y-83450333D01*
X139912638Y-83450333D01*
X139912629Y-83445787D01*
X139912746Y-83405309D01*
G37*
D13*
X130111000Y-78078000D02*
X130111000Y-84078000D01*
X135191000Y-87135071D02*
X135191000Y-86738000D01*
X123381000Y-86738000D02*
X123381000Y-84078000D01*
X132651000Y-78078000D02*
X132651000Y-84078000D01*
X122271000Y-84078000D02*
X122271000Y-78078000D01*
X133541000Y-86738000D02*
X133541000Y-84078000D01*
X130111000Y-89675071D02*
X130111000Y-89220929D01*
X132651000Y-87135071D02*
X132651000Y-86738000D01*
X132651000Y-89675071D02*
X132651000Y-89220929D01*
X124271000Y-89675071D02*
X124271000Y-89220929D01*
X125031000Y-87135071D02*
X125031000Y-86738000D01*
X131891000Y-89675071D02*
X131891000Y-89220929D01*
X129351000Y-89675071D02*
X129351000Y-89220929D01*
X129351000Y-78078000D02*
X130111000Y-78078000D01*
X125921000Y-86738000D02*
X125921000Y-84078000D01*
X131891000Y-84078000D02*
X131891000Y-78078000D01*
X134431000Y-87135071D02*
X134431000Y-86738000D01*
X121731000Y-89608000D02*
X121731000Y-89220929D01*
X135191000Y-89675071D02*
X135191000Y-89220929D01*
X120781000Y-86738000D02*
X136141000Y-86738000D01*
X121911000Y-84078000D02*
X121911000Y-78078000D01*
X125031000Y-78078000D02*
X125031000Y-84078000D01*
X126811000Y-78078000D02*
X127571000Y-78078000D01*
X131891000Y-87135071D02*
X131891000Y-86738000D01*
X124271000Y-84078000D02*
X124271000Y-78078000D01*
X131001000Y-86738000D02*
X131001000Y-84078000D01*
X130111000Y-87135071D02*
X130111000Y-86738000D01*
X121731000Y-84078000D02*
X121731000Y-78078000D01*
X122111000Y-91988000D02*
X120841000Y-91988000D01*
X131891000Y-78078000D02*
X132651000Y-78078000D01*
X126811000Y-84078000D02*
X126811000Y-78078000D01*
X120841000Y-91988000D02*
X120841000Y-90718000D01*
X128461000Y-86738000D02*
X128461000Y-84078000D01*
X127571000Y-89675071D02*
X127571000Y-89220929D01*
X124271000Y-87135071D02*
X124271000Y-86738000D01*
X125031000Y-89675071D02*
X125031000Y-89220929D01*
X136141000Y-84078000D02*
X120781000Y-84078000D01*
X122491000Y-89608000D02*
X122491000Y-89220929D01*
X134431000Y-78078000D02*
X135191000Y-78078000D01*
X127571000Y-87135071D02*
X127571000Y-86738000D01*
X121731000Y-87135071D02*
X121731000Y-86738000D01*
X122491000Y-87135071D02*
X122491000Y-86738000D01*
X121791000Y-84078000D02*
X121791000Y-78078000D01*
X127571000Y-78078000D02*
X127571000Y-84078000D01*
X120781000Y-84078000D02*
X120781000Y-86738000D01*
X135191000Y-78078000D02*
X135191000Y-84078000D01*
X122151000Y-84078000D02*
X122151000Y-78078000D01*
X134431000Y-84078000D02*
X134431000Y-78078000D01*
X122391000Y-84078000D02*
X122391000Y-78078000D01*
X121731000Y-78078000D02*
X122491000Y-78078000D01*
X134431000Y-89675071D02*
X134431000Y-89220929D01*
X124271000Y-78078000D02*
X125031000Y-78078000D01*
X129351000Y-87135071D02*
X129351000Y-86738000D01*
X136141000Y-86738000D02*
X136141000Y-84078000D01*
X126811000Y-87135071D02*
X126811000Y-86738000D01*
X126811000Y-89675071D02*
X126811000Y-89220929D01*
X129351000Y-84078000D02*
X129351000Y-78078000D01*
X122031000Y-84078000D02*
X122031000Y-78078000D01*
X122491000Y-78078000D02*
X122491000Y-84078000D01*
G36*
X145247366Y-83370077D02*
G01*
X145248835Y-83331346D01*
X145250825Y-83297151D01*
X145253327Y-83269194D01*
X145254908Y-83257151D01*
X145275493Y-83152481D01*
X145304502Y-83051199D01*
X145341878Y-82953413D01*
X145373801Y-82887607D01*
X145646960Y-82887607D01*
X145647206Y-82891515D01*
X145651975Y-82894063D01*
X145664119Y-82899878D01*
X145682719Y-82908547D01*
X145706856Y-82919658D01*
X145735612Y-82932798D01*
X145768068Y-82947553D01*
X145803304Y-82963511D01*
X145840404Y-82980259D01*
X145878447Y-82997384D01*
X145916515Y-83014473D01*
X145953690Y-83031113D01*
X145989052Y-83046891D01*
X146021683Y-83061393D01*
X146050665Y-83074208D01*
X146075079Y-83084922D01*
X146094005Y-83093123D01*
X146106526Y-83098396D01*
X146111723Y-83100330D01*
X146111759Y-83100332D01*
X146115254Y-83096413D01*
X146119501Y-83086601D01*
X146120882Y-83082346D01*
X146127839Y-83065934D01*
X146139469Y-83045462D01*
X146154101Y-83023383D01*
X146170065Y-83002150D01*
X146185691Y-82984216D01*
X146191800Y-82978212D01*
X146228265Y-82949405D01*
X146269986Y-82924614D01*
X146302639Y-82909970D01*
X146326745Y-82901679D01*
X146353426Y-82894104D01*
X146379919Y-82887893D01*
X146403464Y-82883693D01*
X146421286Y-82882151D01*
X146435114Y-82882151D01*
X146435114Y-82691242D01*
X146585114Y-82691242D01*
X146585114Y-82880311D01*
X146627326Y-82885643D01*
X146690835Y-82897719D01*
X146753179Y-82917940D01*
X146801023Y-82939195D01*
X146825449Y-82951864D01*
X146848084Y-82964666D01*
X146867588Y-82976740D01*
X146882627Y-82987224D01*
X146891861Y-82995257D01*
X146894176Y-82999240D01*
X146891139Y-83003294D01*
X146882603Y-83012956D01*
X146869409Y-83027320D01*
X146852399Y-83045479D01*
X146832413Y-83066526D01*
X146813371Y-83086365D01*
X146732595Y-83170124D01*
X146700826Y-83151251D01*
X146649343Y-83124940D01*
X146597894Y-83107055D01*
X146547024Y-83097705D01*
X146497281Y-83096998D01*
X146458094Y-83102858D01*
X146428551Y-83112114D01*
X146404206Y-83124891D01*
X146386491Y-83140304D01*
X146379104Y-83151543D01*
X146373981Y-83167481D01*
X146371772Y-83185453D01*
X146372580Y-83202079D01*
X146376509Y-83213976D01*
X146377159Y-83214880D01*
X146378386Y-83216085D01*
X146380635Y-83217687D01*
X146384272Y-83219854D01*
X146389662Y-83222750D01*
X146397170Y-83226540D01*
X146407163Y-83231391D01*
X146420005Y-83237468D01*
X146436063Y-83244937D01*
X146455701Y-83253964D01*
X146479285Y-83264713D01*
X146507182Y-83277351D01*
X146539755Y-83292044D01*
X146577372Y-83308956D01*
X146620397Y-83328254D01*
X146669196Y-83350104D01*
X146724134Y-83374670D01*
X146785577Y-83402118D01*
X146853891Y-83432615D01*
X146929441Y-83466325D01*
X147012592Y-83503415D01*
X147096477Y-83540824D01*
X147165790Y-83571693D01*
X147227193Y-83598949D01*
X147281052Y-83622748D01*
X147327728Y-83643245D01*
X147367588Y-83660596D01*
X147400994Y-83674956D01*
X147428311Y-83686481D01*
X147449904Y-83695325D01*
X147466135Y-83701644D01*
X147477369Y-83705593D01*
X147483970Y-83707327D01*
X147486262Y-83707106D01*
X147488336Y-83700457D01*
X147491436Y-83686836D01*
X147495136Y-83668247D01*
X147498910Y-83647306D01*
X147511373Y-83550931D01*
X147515746Y-83455215D01*
X147512154Y-83360824D01*
X147500720Y-83268421D01*
X147481569Y-83178671D01*
X147454825Y-83092238D01*
X147420612Y-83009785D01*
X147379056Y-82931978D01*
X147359104Y-82900332D01*
X147330962Y-82859330D01*
X147303460Y-82822781D01*
X147274470Y-82788113D01*
X147241864Y-82752748D01*
X147212588Y-82723060D01*
X147140346Y-82656959D01*
X147065567Y-82599504D01*
X146987887Y-82550514D01*
X146906944Y-82509810D01*
X146822376Y-82477210D01*
X146733819Y-82452534D01*
X146640912Y-82435602D01*
X146633431Y-82434596D01*
X146573601Y-82429088D01*
X146508462Y-82427215D01*
X146440921Y-82428851D01*
X146373881Y-82433867D01*
X146310249Y-82442137D01*
X146264973Y-82450738D01*
X146184288Y-82472899D01*
X146103824Y-82503204D01*
X146025249Y-82540818D01*
X145950228Y-82584911D01*
X145880430Y-82634650D01*
X145854738Y-82655606D01*
X145833339Y-82674591D01*
X145810133Y-82696622D01*
X145785889Y-82720824D01*
X145761377Y-82746322D01*
X145737368Y-82772241D01*
X145714630Y-82797707D01*
X145693934Y-82821844D01*
X145676049Y-82843778D01*
X145661746Y-82862633D01*
X145651793Y-82877534D01*
X145646960Y-82887607D01*
X145373801Y-82887607D01*
X145387566Y-82859231D01*
X145441511Y-82768762D01*
X145503655Y-82682114D01*
X145573945Y-82599395D01*
X145614562Y-82557104D01*
X145693270Y-82484542D01*
X145776098Y-82419953D01*
X145862854Y-82363440D01*
X145953345Y-82315110D01*
X146047379Y-82275066D01*
X146144763Y-82243412D01*
X146228295Y-82223528D01*
X146257957Y-82217777D01*
X146284350Y-82213174D01*
X146309068Y-82209597D01*
X146333705Y-82206924D01*
X146359854Y-82205033D01*
X146389110Y-82203802D01*
X146423066Y-82203108D01*
X146463316Y-82202830D01*
X146498750Y-82202821D01*
X146549679Y-82203128D01*
X146593227Y-82203998D01*
X146631093Y-82205604D01*
X146664979Y-82208120D01*
X146696585Y-82211722D01*
X146727613Y-82216582D01*
X146759762Y-82222875D01*
X146794733Y-82230775D01*
X146811528Y-82234823D01*
X146910929Y-82263771D01*
X147007069Y-82301118D01*
X147099600Y-82346652D01*
X147188175Y-82400162D01*
X147272447Y-82461434D01*
X147352069Y-82530258D01*
X147426694Y-82606421D01*
X147434658Y-82615324D01*
X147500633Y-82695301D01*
X147558137Y-82777093D01*
X147607539Y-82861486D01*
X147649206Y-82949266D01*
X147683504Y-83041216D01*
X147710801Y-83138125D01*
X147731465Y-83240775D01*
X147733729Y-83254878D01*
X147736724Y-83280300D01*
X147739102Y-83313067D01*
X147740860Y-83351457D01*
X147741996Y-83393744D01*
X147742510Y-83438205D01*
X147742399Y-83483115D01*
X147741662Y-83526750D01*
X147740297Y-83567387D01*
X147738302Y-83603301D01*
X147735676Y-83632768D01*
X147734111Y-83644645D01*
X147713929Y-83750299D01*
X147686439Y-83850631D01*
X147651477Y-83945946D01*
X147608875Y-84036548D01*
X147558468Y-84122741D01*
X147500090Y-84204829D01*
X147433576Y-84283116D01*
X147358758Y-84357906D01*
X147331488Y-84382514D01*
X147246255Y-84452065D01*
X147158427Y-84512933D01*
X147067824Y-84565201D01*
X146974264Y-84608950D01*
X146877568Y-84644263D01*
X146777554Y-84671221D01*
X146674041Y-84689907D01*
X146646318Y-84693445D01*
X146626786Y-84695190D01*
X146600988Y-84696705D01*
X146570616Y-84697964D01*
X146537364Y-84698942D01*
X146502925Y-84699616D01*
X146468990Y-84699960D01*
X146437254Y-84699950D01*
X146409408Y-84699561D01*
X146387146Y-84698769D01*
X146372160Y-84697548D01*
X146371477Y-84697453D01*
X146361901Y-84696172D01*
X146346120Y-84694166D01*
X146326955Y-84691792D01*
X146319205Y-84690847D01*
X146220601Y-84674329D01*
X146123955Y-84649015D01*
X146029532Y-84615040D01*
X145937603Y-84572540D01*
X145848435Y-84521652D01*
X145762296Y-84462511D01*
X145679455Y-84395254D01*
X145612268Y-84332241D01*
X145538398Y-84253022D01*
X145473196Y-84171539D01*
X145416413Y-84087304D01*
X145367799Y-83999827D01*
X145327107Y-83908621D01*
X145294088Y-83813196D01*
X145268493Y-83713064D01*
X145252604Y-83625332D01*
X145250119Y-83602472D01*
X145248231Y-83572243D01*
X145246928Y-83536344D01*
X145246201Y-83496477D01*
X145246039Y-83454343D01*
X145246204Y-83436392D01*
X145472421Y-83436392D01*
X145473142Y-83490579D01*
X145481361Y-83585294D01*
X145497041Y-83675217D01*
X145520466Y-83761135D01*
X145551919Y-83843837D01*
X145591686Y-83924110D01*
X145640048Y-84002742D01*
X145675671Y-84052605D01*
X145696350Y-84078255D01*
X145722339Y-84107697D01*
X145751961Y-84139254D01*
X145783543Y-84171252D01*
X145815408Y-84202012D01*
X145845881Y-84229861D01*
X145873287Y-84253120D01*
X145885880Y-84262927D01*
X145964877Y-84317102D01*
X146045584Y-84362635D01*
X146128756Y-84399814D01*
X146215149Y-84428927D01*
X146305517Y-84450263D01*
X146400615Y-84464110D01*
X146416932Y-84465705D01*
X146436997Y-84466745D01*
X146463944Y-84467014D01*
X146495602Y-84466593D01*
X146529803Y-84465566D01*
X146564377Y-84464012D01*
X146597154Y-84462014D01*
X146625965Y-84459653D01*
X146648641Y-84457010D01*
X146648750Y-84456994D01*
X146739840Y-84439455D01*
X146827320Y-84413931D01*
X146911742Y-84380188D01*
X146993655Y-84337994D01*
X147073608Y-84287117D01*
X147106761Y-84263084D01*
X147133124Y-84241976D01*
X147163420Y-84215576D01*
X147195839Y-84185640D01*
X147228572Y-84153924D01*
X147259810Y-84122184D01*
X147287744Y-84092177D01*
X147310563Y-84065658D01*
X147311953Y-84063940D01*
X147330091Y-84040624D01*
X147346993Y-84017464D01*
X147361899Y-83995654D01*
X147374050Y-83976387D01*
X147382687Y-83960857D01*
X147387050Y-83950259D01*
X147386889Y-83946068D01*
X147382360Y-83943808D01*
X147370448Y-83938273D01*
X147352078Y-83929877D01*
X147328175Y-83919036D01*
X147299664Y-83906163D01*
X147267472Y-83891671D01*
X147232523Y-83875974D01*
X147195743Y-83859488D01*
X147158059Y-83842625D01*
X147120394Y-83825800D01*
X147083674Y-83809426D01*
X147048826Y-83793917D01*
X147016774Y-83779688D01*
X146988444Y-83767153D01*
X146964762Y-83756725D01*
X146946652Y-83748818D01*
X146935041Y-83743846D01*
X146932122Y-83742653D01*
X146927922Y-83745514D01*
X146922872Y-83755940D01*
X146919209Y-83767052D01*
X146903020Y-83809016D01*
X146879496Y-83850491D01*
X146850236Y-83889295D01*
X146816836Y-83923244D01*
X146789022Y-83944895D01*
X146748096Y-83969064D01*
X146703489Y-83989214D01*
X146658145Y-84004196D01*
X146615008Y-84012864D01*
X146614659Y-84012907D01*
X146587386Y-84016274D01*
X146586160Y-84112849D01*
X146584933Y-84209423D01*
X146435114Y-84209423D01*
X146435114Y-84019238D01*
X146404432Y-84016305D01*
X146357397Y-84010239D01*
X146311270Y-84001377D01*
X146269801Y-83990459D01*
X146263831Y-83988565D01*
X146230000Y-83975608D01*
X146192434Y-83957990D01*
X146154038Y-83937258D01*
X146117715Y-83914959D01*
X146092217Y-83897119D01*
X146052488Y-83867301D01*
X146081265Y-83837226D01*
X146109153Y-83808227D01*
X146135738Y-83780862D01*
X146160300Y-83755850D01*
X146182118Y-83733912D01*
X146200471Y-83715767D01*
X146214638Y-83702134D01*
X146223900Y-83693734D01*
X146227425Y-83691242D01*
X146232483Y-83693875D01*
X146242792Y-83700919D01*
X146256514Y-83711089D01*
X146263298Y-83716332D01*
X146312445Y-83749444D01*
X146364872Y-83774722D01*
X146419559Y-83791799D01*
X146475486Y-83800307D01*
X146498750Y-83801234D01*
X146543078Y-83798761D01*
X146580422Y-83790750D01*
X146610695Y-83777265D01*
X146633812Y-83758367D01*
X146649686Y-83734120D01*
X146658233Y-83704584D01*
X146659811Y-83684074D01*
X146659457Y-83665543D01*
X146657349Y-83652272D01*
X146652550Y-83640467D01*
X146646477Y-83630060D01*
X146641658Y-83622632D01*
X146636783Y-83616530D01*
X146630619Y-83611026D01*
X146621934Y-83605389D01*
X146609495Y-83598889D01*
X146592068Y-83590798D01*
X146568422Y-83580385D01*
X146546477Y-83570879D01*
X146531185Y-83564260D01*
X146516006Y-83557671D01*
X146500448Y-83550893D01*
X146484022Y-83543708D01*
X146466237Y-83535899D01*
X146446604Y-83527247D01*
X146424632Y-83517534D01*
X146399831Y-83506544D01*
X146371710Y-83494057D01*
X146339780Y-83479856D01*
X146303551Y-83463724D01*
X146262531Y-83445441D01*
X146216232Y-83424792D01*
X146164162Y-83401556D01*
X146105832Y-83375517D01*
X146040752Y-83346458D01*
X145968431Y-83314159D01*
X145888379Y-83278403D01*
X145874819Y-83272346D01*
X145822103Y-83248809D01*
X145771801Y-83226370D01*
X145724525Y-83205302D01*
X145680891Y-83185877D01*
X145641513Y-83168369D01*
X145607006Y-83153050D01*
X145577984Y-83140194D01*
X145555062Y-83130072D01*
X145538854Y-83122959D01*
X145529975Y-83119126D01*
X145528426Y-83118514D01*
X145525716Y-83122678D01*
X145521456Y-83134093D01*
X145516099Y-83151144D01*
X145510104Y-83172214D01*
X145503926Y-83195689D01*
X145498021Y-83219954D01*
X145492846Y-83243392D01*
X145492038Y-83247345D01*
X145482043Y-83307951D01*
X145475399Y-83372321D01*
X145472421Y-83436392D01*
X145246204Y-83436392D01*
X145246431Y-83411643D01*
X145247366Y-83370077D01*
G37*
G36*
X147914021Y-83364782D02*
G01*
X147915850Y-83326837D01*
X147918172Y-83293491D01*
X147920950Y-83266596D01*
X147922248Y-83257639D01*
X147942158Y-83157153D01*
X147968266Y-83062586D01*
X148000998Y-82972834D01*
X148040778Y-82886793D01*
X148088033Y-82803358D01*
X148111020Y-82767613D01*
X148136342Y-82730423D01*
X148159936Y-82697759D01*
X148183385Y-82667715D01*
X148208269Y-82638386D01*
X148236170Y-82607865D01*
X148268671Y-82574247D01*
X148285897Y-82556923D01*
X148347025Y-82498894D01*
X148407281Y-82448157D01*
X148468565Y-82403345D01*
X148532778Y-82363091D01*
X148601818Y-82326029D01*
X148618023Y-82318082D01*
X148704521Y-82280149D01*
X148791395Y-82249942D01*
X148880531Y-82226932D01*
X148973812Y-82210588D01*
X149020295Y-82204989D01*
X149049671Y-82202751D01*
X149085867Y-82201280D01*
X149126646Y-82200557D01*
X149169773Y-82200565D01*
X149213010Y-82201285D01*
X149254121Y-82202698D01*
X149290868Y-82204787D01*
X149320295Y-82207448D01*
X149424119Y-82223513D01*
X149523525Y-82247238D01*
X149618836Y-82278788D01*
X149710373Y-82318323D01*
X149798458Y-82366007D01*
X149883412Y-82422002D01*
X149965558Y-82486471D01*
X150045215Y-82559575D01*
X150073122Y-82587806D01*
X150142920Y-82666099D01*
X150204504Y-82747835D01*
X150258029Y-82833341D01*
X150303655Y-82922944D01*
X150341538Y-83016969D01*
X150371837Y-83115745D01*
X150394709Y-83219596D01*
X150403016Y-83270787D01*
X150405366Y-83293223D01*
X150407167Y-83323059D01*
X150408428Y-83358622D01*
X150409159Y-83398239D01*
X150409371Y-83440238D01*
X150409074Y-83482944D01*
X150408278Y-83524684D01*
X150406992Y-83563786D01*
X150405227Y-83598577D01*
X150402993Y-83627382D01*
X150400753Y-83645787D01*
X150381919Y-83745110D01*
X150357341Y-83838177D01*
X150326646Y-83926069D01*
X150289458Y-84009864D01*
X150248174Y-84085985D01*
X150213009Y-84141894D01*
X150175372Y-84194492D01*
X150133651Y-84245817D01*
X150086236Y-84297907D01*
X150056962Y-84327804D01*
X149976616Y-84402466D01*
X149893622Y-84468511D01*
X149807630Y-84526121D01*
X149718286Y-84575476D01*
X149625241Y-84616755D01*
X149528141Y-84650139D01*
X149426636Y-84675807D01*
X149351221Y-84689522D01*
X149335941Y-84691245D01*
X149313717Y-84692904D01*
X149286037Y-84694460D01*
X149254389Y-84695874D01*
X149220262Y-84697107D01*
X149185144Y-84698120D01*
X149150522Y-84698873D01*
X149117887Y-84699329D01*
X149088725Y-84699448D01*
X149064525Y-84699191D01*
X149046777Y-84698520D01*
X149038477Y-84697702D01*
X149028900Y-84696309D01*
X149013117Y-84694216D01*
X148993950Y-84691796D01*
X148986205Y-84690847D01*
X148887737Y-84674343D01*
X148791031Y-84649029D01*
X148696427Y-84615074D01*
X148604265Y-84572647D01*
X148514883Y-84521918D01*
X148428621Y-84463056D01*
X148345820Y-84396228D01*
X148289088Y-84343814D01*
X148213254Y-84264086D01*
X148145924Y-84181167D01*
X148087064Y-84094988D01*
X148036639Y-84005479D01*
X147994615Y-83912570D01*
X147960958Y-83816191D01*
X147935633Y-83716273D01*
X147918606Y-83612745D01*
X147915545Y-83585332D01*
X147913614Y-83558678D01*
X147912405Y-83525514D01*
X147911879Y-83487691D01*
X147911998Y-83447060D01*
X147912321Y-83428594D01*
X148139271Y-83428594D01*
X148141792Y-83522394D01*
X148142762Y-83534423D01*
X148155128Y-83629485D01*
X148175440Y-83720353D01*
X148203826Y-83807308D01*
X148240415Y-83890632D01*
X148285337Y-83970607D01*
X148338722Y-84047514D01*
X148400699Y-84121635D01*
X148424394Y-84146918D01*
X148496715Y-84216344D01*
X148571580Y-84277113D01*
X148649277Y-84329375D01*
X148730092Y-84373279D01*
X148814312Y-84408974D01*
X148902224Y-84436611D01*
X148994114Y-84456337D01*
X149028364Y-84461550D01*
X149058563Y-84464612D01*
X149095331Y-84466682D01*
X149136198Y-84467760D01*
X149178697Y-84467846D01*
X149220359Y-84466941D01*
X149258716Y-84465043D01*
X149291300Y-84462154D01*
X149296199Y-84461550D01*
X149389510Y-84445030D01*
X149479596Y-84420096D01*
X149566546Y-84386705D01*
X149650446Y-84344812D01*
X149731384Y-84294372D01*
X149809447Y-84235343D01*
X149884722Y-84167679D01*
X149893122Y-84159423D01*
X149956494Y-84091266D01*
X150011357Y-84020743D01*
X150058134Y-83947186D01*
X150097245Y-83869925D01*
X150129115Y-83788291D01*
X150131166Y-83782151D01*
X150155660Y-83694492D01*
X150172420Y-83603989D01*
X150181466Y-83511795D01*
X150182822Y-83419063D01*
X150176509Y-83326944D01*
X150162551Y-83236591D01*
X150140968Y-83149155D01*
X150117639Y-83080551D01*
X150082352Y-83001176D01*
X150038846Y-82923795D01*
X149987926Y-82849281D01*
X149930394Y-82778512D01*
X149867053Y-82712363D01*
X149798709Y-82651710D01*
X149726164Y-82597429D01*
X149650221Y-82550395D01*
X149613477Y-82530990D01*
X149530275Y-82494464D01*
X149443271Y-82465826D01*
X149353309Y-82445151D01*
X149261232Y-82432511D01*
X149167881Y-82427981D01*
X149074099Y-82431634D01*
X148980731Y-82443542D01*
X148888617Y-82463781D01*
X148877539Y-82466814D01*
X148794128Y-82494821D01*
X148712927Y-82531378D01*
X148634430Y-82576111D01*
X148559134Y-82628642D01*
X148487532Y-82688595D01*
X148420119Y-82755594D01*
X148357390Y-82829262D01*
X148303861Y-82903173D01*
X148255867Y-82983030D01*
X148215876Y-83066842D01*
X148184054Y-83153958D01*
X148160568Y-83243723D01*
X148145585Y-83335486D01*
X148139271Y-83428594D01*
X147912321Y-83428594D01*
X147912725Y-83405473D01*
X147914021Y-83364782D01*
G37*
G36*
X149196224Y-82792825D02*
G01*
X149236317Y-82795013D01*
X149273028Y-82798419D01*
X149303889Y-82802980D01*
X149310192Y-82804248D01*
X149379722Y-82822726D01*
X149443025Y-82847160D01*
X149501198Y-82878123D01*
X149555337Y-82916183D01*
X149598880Y-82954424D01*
X149650137Y-83009947D01*
X149693916Y-83070620D01*
X149730189Y-83136387D01*
X149758927Y-83207187D01*
X149780104Y-83282964D01*
X149793336Y-83360688D01*
X149795802Y-83389945D01*
X149797045Y-83425039D01*
X149797139Y-83463750D01*
X149796159Y-83503861D01*
X149794179Y-83543153D01*
X149791274Y-83579408D01*
X149787518Y-83610406D01*
X149784349Y-83628131D01*
X149771506Y-83679913D01*
X149755970Y-83727076D01*
X149736213Y-83774019D01*
X149726887Y-83793514D01*
X149690006Y-83858392D01*
X149646306Y-83917599D01*
X149596361Y-83970709D01*
X149540744Y-84017297D01*
X149480031Y-84056938D01*
X149414793Y-84089207D01*
X149345605Y-84113679D01*
X149273042Y-84129929D01*
X149272895Y-84129953D01*
X149240903Y-84134025D01*
X149203958Y-84136952D01*
X149165050Y-84138637D01*
X149127168Y-84138983D01*
X149093301Y-84137894D01*
X149074841Y-84136368D01*
X149008114Y-84124840D01*
X148943638Y-84105647D01*
X148882408Y-84079334D01*
X148825421Y-84046444D01*
X148773672Y-84007522D01*
X148728159Y-83963111D01*
X148704145Y-83933907D01*
X148669461Y-83881425D01*
X148640867Y-83823999D01*
X148618053Y-83760854D01*
X148600708Y-83691214D01*
X148595477Y-83662832D01*
X148592611Y-83645787D01*
X148752050Y-83645787D01*
X148796427Y-83645857D01*
X148832433Y-83646085D01*
X148860788Y-83646496D01*
X148882211Y-83647116D01*
X148897421Y-83647969D01*
X148907137Y-83649081D01*
X148912079Y-83650478D01*
X148913053Y-83651469D01*
X148914478Y-83658515D01*
X148916785Y-83671830D01*
X148919505Y-83688691D01*
X148919836Y-83690817D01*
X148930563Y-83733506D01*
X148948523Y-83770866D01*
X148973457Y-83802714D01*
X149005104Y-83828864D01*
X149043204Y-83849135D01*
X149087496Y-83863341D01*
X149137719Y-83871300D01*
X149178240Y-83873060D01*
X149227608Y-83869484D01*
X149272174Y-83858603D01*
X149312275Y-83840185D01*
X149348250Y-83813999D01*
X149380438Y-83779814D01*
X149409176Y-83737397D01*
X149427459Y-83702605D01*
X149446205Y-83656921D01*
X149460013Y-83608456D01*
X149469166Y-83555732D01*
X149473945Y-83497270D01*
X149474841Y-83454017D01*
X149472024Y-83382809D01*
X149463613Y-83318193D01*
X149449669Y-83260292D01*
X149430254Y-83209230D01*
X149405428Y-83165128D01*
X149375253Y-83128111D01*
X149339790Y-83098300D01*
X149299099Y-83075818D01*
X149283675Y-83069718D01*
X149268671Y-83064660D01*
X149255371Y-83061229D01*
X149241358Y-83059118D01*
X149224212Y-83058019D01*
X149201515Y-83057623D01*
X149188477Y-83057593D01*
X149154496Y-83058195D01*
X149127635Y-83060100D01*
X149105993Y-83063474D01*
X149097568Y-83065484D01*
X149050845Y-83081649D01*
X149011202Y-83103427D01*
X148978403Y-83131030D01*
X148952212Y-83164674D01*
X148932394Y-83204573D01*
X148926622Y-83220988D01*
X148919691Y-83243032D01*
X148916195Y-83257779D01*
X148917135Y-83266693D01*
X148923515Y-83271237D01*
X148936337Y-83272873D01*
X148956605Y-83273066D01*
X148962310Y-83273060D01*
X149008870Y-83273060D01*
X148883932Y-83398060D01*
X148856138Y-83425753D01*
X148830259Y-83451317D01*
X148807016Y-83474057D01*
X148787129Y-83493279D01*
X148771316Y-83508288D01*
X148760299Y-83518390D01*
X148754796Y-83522890D01*
X148754386Y-83523060D01*
X148750294Y-83519961D01*
X148740693Y-83511238D01*
X148726443Y-83497747D01*
X148708408Y-83480348D01*
X148687449Y-83459898D01*
X148664428Y-83437256D01*
X148640207Y-83413279D01*
X148615648Y-83388825D01*
X148591612Y-83364754D01*
X148568962Y-83341922D01*
X148548560Y-83321188D01*
X148531268Y-83303410D01*
X148517947Y-83289445D01*
X148509460Y-83280153D01*
X148506659Y-83276438D01*
X148510890Y-83275047D01*
X148522327Y-83273934D01*
X148539086Y-83273234D01*
X148554080Y-83273060D01*
X148575546Y-83273139D01*
X148589759Y-83272462D01*
X148598535Y-83269661D01*
X148603692Y-83263365D01*
X148607046Y-83252205D01*
X148610414Y-83234811D01*
X148611364Y-83229878D01*
X148629304Y-83160111D01*
X148654704Y-83095102D01*
X148687162Y-83035246D01*
X148726274Y-82980938D01*
X148771639Y-82932574D01*
X148822854Y-82890550D01*
X148879516Y-82855261D01*
X148941222Y-82827103D01*
X149007570Y-82806472D01*
X149051405Y-82797544D01*
X149080340Y-82794216D01*
X149115768Y-82792363D01*
X149155218Y-82791921D01*
X149196224Y-82792825D01*
G37*
X106681000Y-90213000D02*
X106681000Y-89443000D01*
X105311000Y-82903000D02*
X105311000Y-89443000D01*
X108051000Y-82903000D02*
X105311000Y-82903000D01*
X108051000Y-89443000D02*
X108051000Y-82903000D01*
X105311000Y-89443000D02*
X108051000Y-89443000D01*
X106681000Y-82133000D02*
X106681000Y-82903000D01*
X154961000Y-81368000D02*
X154961000Y-82868000D01*
X161961000Y-82868000D02*
X161961000Y-81368000D01*
X156211000Y-85368000D02*
X160711000Y-85368000D01*
X160711000Y-78868000D02*
X156211000Y-78868000D01*
G36*
X141206054Y-79540059D02*
G01*
X141242772Y-79540896D01*
X141274621Y-79542206D01*
X141299409Y-79543988D01*
X141307600Y-79544933D01*
X141354034Y-79551947D01*
X141397310Y-79559679D01*
X141436078Y-79567813D01*
X141468991Y-79576028D01*
X141494697Y-79584006D01*
X141511847Y-79591430D01*
X141515947Y-79594123D01*
X141517467Y-79597561D01*
X141518750Y-79605737D01*
X141519814Y-79619343D01*
X141520675Y-79639072D01*
X141521348Y-79665614D01*
X141521851Y-79699664D01*
X141522199Y-79741913D01*
X141522408Y-79793053D01*
X141522494Y-79853777D01*
X141522499Y-79873842D01*
X141522450Y-79926385D01*
X141522308Y-79975628D01*
X141522083Y-80020603D01*
X141521785Y-80060340D01*
X141521422Y-80093868D01*
X141521005Y-80120219D01*
X141520543Y-80138423D01*
X141520045Y-80147510D01*
X141519833Y-80148376D01*
X141514423Y-80145557D01*
X141503504Y-80138347D01*
X141495460Y-80132651D01*
X141482108Y-80123635D01*
X141471945Y-80117947D01*
X141468780Y-80116927D01*
X141460995Y-80114881D01*
X141448659Y-80109891D01*
X141447290Y-80109264D01*
X141386365Y-80085611D01*
X141318322Y-80067558D01*
X141245170Y-80055542D01*
X141177370Y-80050280D01*
X141143581Y-80049318D01*
X141116536Y-80049494D01*
X141092534Y-80051051D01*
X141067875Y-80054230D01*
X141038857Y-80059272D01*
X141038472Y-80059344D01*
X141008292Y-80065653D01*
X140975625Y-80073594D01*
X140943066Y-80082429D01*
X140913208Y-80091421D01*
X140888644Y-80099831D01*
X140872873Y-80106459D01*
X140864543Y-80110619D01*
X140849643Y-80118047D01*
X140830987Y-80127339D01*
X140825388Y-80130127D01*
X140754464Y-80171100D01*
X140687814Y-80220856D01*
X140626696Y-80278138D01*
X140572365Y-80341689D01*
X140526079Y-80410253D01*
X140503136Y-80452379D01*
X140493410Y-80471863D01*
X140484980Y-80488653D01*
X140479331Y-80499797D01*
X140478480Y-80501446D01*
X140471097Y-80518876D01*
X140462573Y-80544333D01*
X140453563Y-80575516D01*
X140444720Y-80610125D01*
X140436699Y-80645857D01*
X140434862Y-80654878D01*
X140423691Y-80732710D01*
X140421899Y-80808629D01*
X140429487Y-80885403D01*
X140434862Y-80915542D01*
X140442569Y-80951193D01*
X140451264Y-80986306D01*
X140460294Y-81018582D01*
X140469004Y-81045719D01*
X140476740Y-81065416D01*
X140478480Y-81068974D01*
X140483131Y-81078103D01*
X140490961Y-81093669D01*
X140500485Y-81112720D01*
X140503136Y-81118041D01*
X140544109Y-81188965D01*
X140593865Y-81255615D01*
X140651147Y-81316733D01*
X140714698Y-81371064D01*
X140783262Y-81417350D01*
X140825388Y-81440293D01*
X140844598Y-81449859D01*
X140860852Y-81457960D01*
X140871336Y-81463192D01*
X140872873Y-81463961D01*
X140890221Y-81471174D01*
X140915265Y-81479653D01*
X140945412Y-81488658D01*
X140978068Y-81497453D01*
X141010639Y-81505298D01*
X141038472Y-81511076D01*
X141105630Y-81519374D01*
X141176936Y-81520482D01*
X141249755Y-81514721D01*
X141321451Y-81502414D01*
X141389391Y-81483881D01*
X141447290Y-81461156D01*
X141459953Y-81455948D01*
X141468694Y-81453517D01*
X141469165Y-81453493D01*
X141475976Y-81450521D01*
X141487978Y-81442845D01*
X141498511Y-81435183D01*
X141522499Y-81416872D01*
X141522499Y-81693992D01*
X141522446Y-81758020D01*
X141522277Y-81812255D01*
X141521976Y-81857387D01*
X141521527Y-81894104D01*
X141520913Y-81923096D01*
X141520120Y-81945053D01*
X141519130Y-81960663D01*
X141517928Y-81970617D01*
X141516498Y-81975603D01*
X141515947Y-81976297D01*
X141502950Y-81983174D01*
X141481218Y-81990770D01*
X141452438Y-81998690D01*
X141418300Y-82006538D01*
X141380492Y-82013918D01*
X141340701Y-82020433D01*
X141310221Y-82024557D01*
X141275202Y-82027851D01*
X141232980Y-82030278D01*
X141186806Y-82031769D01*
X141139928Y-82032256D01*
X141095597Y-82031670D01*
X141057062Y-82029942D01*
X141056572Y-82029909D01*
X141028898Y-82027694D01*
X141002623Y-82025000D01*
X140980853Y-82022181D01*
X140967468Y-82019777D01*
X140948081Y-82015636D01*
X140924922Y-82011300D01*
X140911872Y-82009118D01*
X140855448Y-81997538D01*
X140793389Y-81979968D01*
X140728000Y-81957262D01*
X140661587Y-81930274D01*
X140596456Y-81899856D01*
X140549204Y-81874952D01*
X140519220Y-81858144D01*
X140495116Y-81844165D01*
X140474583Y-81831456D01*
X140455316Y-81818454D01*
X140435007Y-81803599D01*
X140411350Y-81785330D01*
X140382038Y-81762085D01*
X140379866Y-81760352D01*
X140298187Y-81689749D01*
X140224880Y-81614700D01*
X140158952Y-81533969D01*
X140099411Y-81446326D01*
X140045266Y-81350535D01*
X140036567Y-81333433D01*
X140025482Y-81310988D01*
X140016365Y-81291917D01*
X140010131Y-81278179D01*
X140007697Y-81271733D01*
X140007691Y-81271644D01*
X140005406Y-81264515D01*
X139999886Y-81252839D01*
X139999284Y-81251698D01*
X139993146Y-81237958D01*
X139986077Y-81218964D01*
X139981373Y-81204525D01*
X139975137Y-81184032D01*
X139967331Y-81158476D01*
X139959469Y-81132812D01*
X139958152Y-81128524D01*
X139948245Y-81092420D01*
X139938018Y-81048004D01*
X139927926Y-80997421D01*
X139918427Y-80942813D01*
X139917946Y-80939832D01*
X139916043Y-80921784D01*
X139914559Y-80895342D01*
X139913496Y-80862589D01*
X139912852Y-80825607D01*
X139912629Y-80786476D01*
X139912826Y-80747278D01*
X139913442Y-80710095D01*
X139914479Y-80677009D01*
X139915935Y-80650101D01*
X139917811Y-80631452D01*
X139917946Y-80630588D01*
X139927401Y-80575826D01*
X139937473Y-80524974D01*
X139947704Y-80480176D01*
X139957640Y-80443575D01*
X139958152Y-80441896D01*
X139965863Y-80416744D01*
X139973791Y-80390800D01*
X139980425Y-80369019D01*
X139981373Y-80365895D01*
X139987955Y-80346135D01*
X139994956Y-80328071D01*
X139999284Y-80318722D01*
X140005004Y-80306857D01*
X140007668Y-80299120D01*
X140007691Y-80298776D01*
X140010133Y-80291434D01*
X140016803Y-80276703D01*
X140026794Y-80256328D01*
X140039195Y-80232055D01*
X140053096Y-80205633D01*
X140067588Y-80178807D01*
X140081763Y-80153323D01*
X140094709Y-80130929D01*
X140097719Y-80125898D01*
X140120494Y-80090799D01*
X140148849Y-80051178D01*
X140180700Y-80009671D01*
X140213966Y-79968913D01*
X140246565Y-79931538D01*
X140274737Y-79901848D01*
X140294211Y-79883436D01*
X140319590Y-79860896D01*
X140348730Y-79835996D01*
X140379484Y-79810506D01*
X140409708Y-79786196D01*
X140437256Y-79764834D01*
X140459982Y-79748189D01*
X140466349Y-79743839D01*
X140485949Y-79731581D01*
X140512098Y-79716301D01*
X140542147Y-79699442D01*
X140573449Y-79682445D01*
X140603353Y-79666752D01*
X140629210Y-79653804D01*
X140646170Y-79645973D01*
X140713086Y-79618701D01*
X140776036Y-79596381D01*
X140838278Y-79578100D01*
X140903067Y-79562945D01*
X140973660Y-79550001D01*
X141006217Y-79544946D01*
X141026128Y-79542952D01*
X141054318Y-79541429D01*
X141088598Y-79540379D01*
X141126775Y-79539800D01*
X141166657Y-79539693D01*
X141206054Y-79540059D01*
G37*
G36*
X142500027Y-81128524D02*
G01*
X142741090Y-81369630D01*
X141548706Y-81369630D01*
X141548706Y-80887418D01*
X142258963Y-80887418D01*
X142500027Y-81128524D01*
G37*
G36*
X141380963Y-80245228D02*
G01*
X141306349Y-80319976D01*
X141231735Y-80394723D01*
X141306349Y-80469471D01*
X141380963Y-80544218D01*
X141310335Y-80614846D01*
X141235587Y-80540232D01*
X141160840Y-80465618D01*
X141086092Y-80540232D01*
X141011345Y-80614846D01*
X140976031Y-80579532D01*
X140940716Y-80544218D01*
X141015331Y-80469471D01*
X141089945Y-80394723D01*
X141015331Y-80319976D01*
X140940716Y-80245228D01*
X140976031Y-80209914D01*
X141011345Y-80174600D01*
X141086092Y-80249214D01*
X141160840Y-80323828D01*
X141235587Y-80249214D01*
X141310335Y-80174600D01*
X141380963Y-80245228D01*
G37*
G36*
X142481682Y-80444517D02*
G01*
X142222270Y-80703968D01*
X141548706Y-80703968D01*
X141548706Y-80185066D01*
X142741093Y-80185066D01*
X142481682Y-80444517D01*
G37*
X100006000Y-79553000D02*
X96916000Y-79553000D01*
X96916170Y-79553000D02*
G75*
G03*
X98461462Y-85103000I1544830J-2560000D01*
G01*
X98460538Y-85103000D02*
G75*
G03*
X100005830Y-79553000I462J2990000D01*
G01*
X100961000Y-82113000D02*
G75*
G03*
X100961000Y-82113000I-2500000J0D01*
G01*
G36*
X113488108Y-80320483D02*
G01*
X113488167Y-80251218D01*
X113488444Y-80194612D01*
X113489096Y-80149162D01*
X113490276Y-80113360D01*
X113492140Y-80085702D01*
X113494841Y-80064681D01*
X113498534Y-80048792D01*
X113503375Y-80036530D01*
X113509516Y-80026388D01*
X113517114Y-80016861D01*
X113519563Y-80014052D01*
X113528235Y-80004840D01*
X113537400Y-79997319D01*
X113548517Y-79991316D01*
X113563044Y-79986662D01*
X113582439Y-79983186D01*
X113608161Y-79980717D01*
X113641666Y-79979084D01*
X113684414Y-79978116D01*
X113737862Y-79977643D01*
X113803469Y-79977492D01*
X113831639Y-79977485D01*
X113902204Y-79977557D01*
X113960062Y-79977889D01*
X114006670Y-79978651D01*
X114043487Y-79980013D01*
X114071969Y-79982147D01*
X114093577Y-79985224D01*
X114109767Y-79989414D01*
X114121997Y-79994888D01*
X114131727Y-80001817D01*
X114140413Y-80010373D01*
X114143714Y-80014052D01*
X114151747Y-80023670D01*
X114158283Y-80033472D01*
X114163476Y-80044964D01*
X114167479Y-80059649D01*
X114170448Y-80079031D01*
X114172537Y-80104613D01*
X114173899Y-80137900D01*
X114174688Y-80180396D01*
X114175059Y-80233603D01*
X114175166Y-80299026D01*
X114175169Y-80321015D01*
X114175111Y-80390353D01*
X114174835Y-80447029D01*
X114174186Y-80492547D01*
X114173010Y-80528409D01*
X114171153Y-80556122D01*
X114168462Y-80577187D01*
X114164781Y-80593109D01*
X114159957Y-80605391D01*
X114153836Y-80615538D01*
X114146264Y-80625054D01*
X114143714Y-80627978D01*
X114135083Y-80637165D01*
X114125991Y-80644670D01*
X114114987Y-80650658D01*
X114100621Y-80655295D01*
X114081445Y-80658747D01*
X114056006Y-80661180D01*
X114022856Y-80662760D01*
X113980545Y-80663651D01*
X113927621Y-80664022D01*
X113862636Y-80664036D01*
X113829003Y-80663970D01*
X113752983Y-80663614D01*
X113690440Y-80662909D01*
X113640686Y-80661831D01*
X113603035Y-80660360D01*
X113576801Y-80658471D01*
X113561297Y-80656143D01*
X113557810Y-80655024D01*
X113537602Y-80643441D01*
X113523581Y-80632723D01*
X113514644Y-80624043D01*
X113507347Y-80614791D01*
X113501523Y-80603509D01*
X113497007Y-80588742D01*
X113493634Y-80569031D01*
X113491238Y-80542920D01*
X113489654Y-80508953D01*
X113488715Y-80465672D01*
X113488257Y-80411620D01*
X113488134Y-80353986D01*
X113701751Y-80353986D01*
X113701754Y-80389666D01*
X113702174Y-80418167D01*
X113702977Y-80436946D01*
X113703806Y-80443103D01*
X113708140Y-80446535D01*
X113719194Y-80448923D01*
X113738629Y-80450362D01*
X113768107Y-80450945D01*
X113809292Y-80450767D01*
X113833250Y-80450446D01*
X113959135Y-80448511D01*
X113959135Y-80193519D01*
X113704143Y-80193519D01*
X113702194Y-80313672D01*
X113701751Y-80353986D01*
X113488134Y-80353986D01*
X113488115Y-80345342D01*
X113488108Y-80320483D01*
G37*
G36*
X114323914Y-81156289D02*
G01*
X114323973Y-81087024D01*
X114324250Y-81030418D01*
X114324902Y-80984968D01*
X114326082Y-80949166D01*
X114327946Y-80921508D01*
X114330647Y-80900487D01*
X114334340Y-80884598D01*
X114339181Y-80872336D01*
X114345322Y-80862194D01*
X114352920Y-80852667D01*
X114355369Y-80849858D01*
X114364041Y-80840646D01*
X114373206Y-80833124D01*
X114384323Y-80827122D01*
X114398850Y-80822468D01*
X114418245Y-80818992D01*
X114443966Y-80816523D01*
X114477472Y-80814890D01*
X114520220Y-80813922D01*
X114573668Y-80813449D01*
X114639275Y-80813298D01*
X114667445Y-80813291D01*
X114738010Y-80813363D01*
X114795868Y-80813695D01*
X114842476Y-80814457D01*
X114879293Y-80815819D01*
X114907775Y-80817953D01*
X114929383Y-80821030D01*
X114945572Y-80825220D01*
X114957803Y-80830694D01*
X114967532Y-80837623D01*
X114976219Y-80846178D01*
X114979520Y-80849858D01*
X114987553Y-80859476D01*
X114994089Y-80869278D01*
X114999281Y-80880770D01*
X115003285Y-80895455D01*
X115006254Y-80914837D01*
X115008343Y-80940419D01*
X115009705Y-80973706D01*
X115010494Y-81016202D01*
X115010865Y-81069409D01*
X115010972Y-81134832D01*
X115010975Y-81156821D01*
X115010917Y-81226159D01*
X115010641Y-81282835D01*
X115009992Y-81328352D01*
X115008816Y-81364215D01*
X115006959Y-81391927D01*
X115004268Y-81412993D01*
X115000587Y-81428915D01*
X114995763Y-81441197D01*
X114989642Y-81451344D01*
X114982070Y-81460860D01*
X114979520Y-81463784D01*
X114970889Y-81472971D01*
X114961797Y-81480476D01*
X114950793Y-81486464D01*
X114936427Y-81491101D01*
X114917251Y-81494553D01*
X114891812Y-81496986D01*
X114858662Y-81498565D01*
X114816350Y-81499457D01*
X114763427Y-81499827D01*
X114698442Y-81499842D01*
X114664809Y-81499776D01*
X114588789Y-81499420D01*
X114526246Y-81498714D01*
X114476492Y-81497637D01*
X114438841Y-81496166D01*
X114412607Y-81494277D01*
X114397103Y-81491949D01*
X114393616Y-81490830D01*
X114373408Y-81479247D01*
X114359387Y-81468529D01*
X114350450Y-81459849D01*
X114343153Y-81450597D01*
X114337329Y-81439315D01*
X114332813Y-81424548D01*
X114329440Y-81404837D01*
X114327044Y-81378726D01*
X114325460Y-81344759D01*
X114324521Y-81301478D01*
X114324063Y-81247426D01*
X114323940Y-81189792D01*
X114537557Y-81189792D01*
X114537560Y-81225471D01*
X114537980Y-81253973D01*
X114538783Y-81272752D01*
X114539612Y-81278908D01*
X114543946Y-81282341D01*
X114555000Y-81284729D01*
X114574435Y-81286168D01*
X114603913Y-81286751D01*
X114645098Y-81286573D01*
X114669056Y-81286252D01*
X114794941Y-81284317D01*
X114794941Y-81029325D01*
X114539949Y-81029325D01*
X114538000Y-81149478D01*
X114537557Y-81189792D01*
X114323940Y-81189792D01*
X114323921Y-81181148D01*
X114323914Y-81156289D01*
G37*
G36*
X113488108Y-81156289D02*
G01*
X113488167Y-81087024D01*
X113488444Y-81030418D01*
X113489096Y-80984968D01*
X113490276Y-80949166D01*
X113492140Y-80921508D01*
X113494841Y-80900487D01*
X113498534Y-80884598D01*
X113503375Y-80872336D01*
X113509516Y-80862194D01*
X113517114Y-80852667D01*
X113519563Y-80849858D01*
X113528235Y-80840646D01*
X113537400Y-80833124D01*
X113548517Y-80827122D01*
X113563044Y-80822468D01*
X113582439Y-80818992D01*
X113608161Y-80816523D01*
X113641666Y-80814890D01*
X113684414Y-80813922D01*
X113737862Y-80813449D01*
X113803469Y-80813298D01*
X113831639Y-80813291D01*
X113902204Y-80813363D01*
X113960062Y-80813695D01*
X114006670Y-80814457D01*
X114043487Y-80815819D01*
X114071969Y-80817953D01*
X114093577Y-80821030D01*
X114109767Y-80825220D01*
X114121997Y-80830694D01*
X114131727Y-80837623D01*
X114140413Y-80846178D01*
X114143714Y-80849858D01*
X114151747Y-80859476D01*
X114158283Y-80869278D01*
X114163476Y-80880770D01*
X114167479Y-80895455D01*
X114170448Y-80914837D01*
X114172537Y-80940419D01*
X114173899Y-80973706D01*
X114174688Y-81016202D01*
X114175059Y-81069409D01*
X114175166Y-81134832D01*
X114175169Y-81156821D01*
X114175111Y-81226159D01*
X114174835Y-81282835D01*
X114174186Y-81328352D01*
X114173010Y-81364215D01*
X114171153Y-81391927D01*
X114168462Y-81412993D01*
X114164781Y-81428915D01*
X114159957Y-81441197D01*
X114153836Y-81451344D01*
X114146264Y-81460860D01*
X114143714Y-81463784D01*
X114135083Y-81472971D01*
X114125991Y-81480476D01*
X114114987Y-81486464D01*
X114100621Y-81491101D01*
X114081445Y-81494553D01*
X114056006Y-81496986D01*
X114022856Y-81498565D01*
X113980545Y-81499457D01*
X113927621Y-81499827D01*
X113862636Y-81499842D01*
X113829003Y-81499776D01*
X113752983Y-81499420D01*
X113690440Y-81498714D01*
X113640686Y-81497637D01*
X113603035Y-81496166D01*
X113576801Y-81494277D01*
X113561297Y-81491949D01*
X113557810Y-81490830D01*
X113537602Y-81479247D01*
X113523581Y-81468529D01*
X113514644Y-81459849D01*
X113507347Y-81450597D01*
X113501523Y-81439315D01*
X113497007Y-81424548D01*
X113493634Y-81404837D01*
X113491238Y-81378726D01*
X113489654Y-81344759D01*
X113488715Y-81301478D01*
X113488257Y-81247426D01*
X113488134Y-81189792D01*
X113701751Y-81189792D01*
X113701754Y-81225471D01*
X113702174Y-81253973D01*
X113702977Y-81272752D01*
X113703806Y-81278908D01*
X113708140Y-81282341D01*
X113719194Y-81284729D01*
X113738629Y-81286168D01*
X113768107Y-81286751D01*
X113809292Y-81286573D01*
X113833250Y-81286252D01*
X113959135Y-81284317D01*
X113959135Y-81029325D01*
X113704143Y-81029325D01*
X113702194Y-81149478D01*
X113701751Y-81189792D01*
X113488134Y-81189792D01*
X113488115Y-81181148D01*
X113488108Y-81156289D01*
G37*
G36*
X115159720Y-81156289D02*
G01*
X115159779Y-81087024D01*
X115160056Y-81030418D01*
X115160708Y-80984968D01*
X115161888Y-80949166D01*
X115163752Y-80921508D01*
X115166453Y-80900487D01*
X115170146Y-80884598D01*
X115174986Y-80872336D01*
X115181128Y-80862194D01*
X115188726Y-80852667D01*
X115191175Y-80849858D01*
X115198299Y-80842037D01*
X115205559Y-80835419D01*
X115214136Y-80829903D01*
X115225210Y-80825390D01*
X115239962Y-80821778D01*
X115259575Y-80818968D01*
X115285228Y-80816859D01*
X115318103Y-80815349D01*
X115359381Y-80814340D01*
X115410244Y-80813730D01*
X115471871Y-80813419D01*
X115545444Y-80813306D01*
X115620987Y-80813291D01*
X115988443Y-80813291D01*
X115988443Y-80442293D01*
X115988464Y-80356829D01*
X115988592Y-80284357D01*
X115988927Y-80223701D01*
X115989568Y-80173686D01*
X115990613Y-80133138D01*
X115992163Y-80100881D01*
X115994316Y-80075741D01*
X115997171Y-80056542D01*
X116000828Y-80042110D01*
X116005386Y-80031270D01*
X116010943Y-80022846D01*
X116017600Y-80015664D01*
X116025011Y-80008940D01*
X116034638Y-80000899D01*
X116044452Y-79994359D01*
X116055958Y-79989164D01*
X116070661Y-79985160D01*
X116090068Y-79982193D01*
X116115684Y-79980107D01*
X116149016Y-79978748D01*
X116191567Y-79977961D01*
X116244845Y-79977593D01*
X116310355Y-79977488D01*
X116331442Y-79977485D01*
X116402078Y-79977557D01*
X116460005Y-79977887D01*
X116506679Y-79978645D01*
X116543555Y-79980002D01*
X116572092Y-79982128D01*
X116593744Y-79985194D01*
X116609969Y-79989369D01*
X116622223Y-79994825D01*
X116631961Y-80001730D01*
X116640641Y-80010257D01*
X116644049Y-80014052D01*
X116649256Y-80019973D01*
X116653854Y-80025775D01*
X116657881Y-80032330D01*
X116661376Y-80040508D01*
X116664375Y-80051180D01*
X116666917Y-80065217D01*
X116669039Y-80083490D01*
X116670779Y-80106869D01*
X116672176Y-80136226D01*
X116673266Y-80172432D01*
X116674088Y-80216357D01*
X116674680Y-80268871D01*
X116675079Y-80330847D01*
X116675323Y-80403154D01*
X116675450Y-80486665D01*
X116675498Y-80582248D01*
X116675504Y-80690776D01*
X116675504Y-80738386D01*
X116675508Y-80853232D01*
X116675490Y-80954770D01*
X116675408Y-81043860D01*
X116675219Y-81121360D01*
X116674880Y-81188130D01*
X116674347Y-81245027D01*
X116673578Y-81292912D01*
X116672530Y-81332642D01*
X116671159Y-81365077D01*
X116669424Y-81391076D01*
X116667280Y-81411497D01*
X116664685Y-81427199D01*
X116661596Y-81439042D01*
X116657969Y-81447883D01*
X116653762Y-81454582D01*
X116648933Y-81459998D01*
X116643437Y-81464989D01*
X116638936Y-81468896D01*
X116619592Y-81482820D01*
X116602569Y-81491916D01*
X116592056Y-81493394D01*
X116568601Y-81494728D01*
X116533415Y-81495920D01*
X116487709Y-81496970D01*
X116432695Y-81497881D01*
X116369584Y-81498653D01*
X116299589Y-81499286D01*
X116223919Y-81499783D01*
X116143786Y-81500142D01*
X116060403Y-81500367D01*
X115974979Y-81500457D01*
X115888727Y-81500414D01*
X115802858Y-81500238D01*
X115718584Y-81499931D01*
X115637115Y-81499494D01*
X115559664Y-81498926D01*
X115487441Y-81498230D01*
X115421658Y-81497407D01*
X115363526Y-81496457D01*
X115314258Y-81495381D01*
X115275063Y-81494180D01*
X115247154Y-81492855D01*
X115231741Y-81491408D01*
X115229422Y-81490830D01*
X115209214Y-81479247D01*
X115195193Y-81468529D01*
X115186256Y-81459849D01*
X115178959Y-81450597D01*
X115173135Y-81439315D01*
X115168619Y-81424548D01*
X115165246Y-81404837D01*
X115162850Y-81378726D01*
X115161265Y-81344759D01*
X115160327Y-81301478D01*
X115159869Y-81247426D01*
X115159822Y-81225439D01*
X115373356Y-81225439D01*
X115373764Y-81253911D01*
X115374554Y-81272656D01*
X115375371Y-81278789D01*
X115378393Y-81280534D01*
X115386574Y-81282036D01*
X115400744Y-81283304D01*
X115421731Y-81284351D01*
X115450366Y-81285187D01*
X115487477Y-81285823D01*
X115533893Y-81286271D01*
X115590443Y-81286542D01*
X115657957Y-81286647D01*
X115737264Y-81286598D01*
X115829193Y-81286405D01*
X115919178Y-81286132D01*
X116459469Y-81284317D01*
X116459469Y-80193519D01*
X116204478Y-80193519D01*
X116202650Y-80609594D01*
X116200823Y-81025669D01*
X115375755Y-81029325D01*
X115373806Y-81149478D01*
X115373360Y-81189780D01*
X115373356Y-81225439D01*
X115159822Y-81225439D01*
X115159726Y-81181148D01*
X115159720Y-81156289D01*
G37*
G36*
X112652303Y-81992095D02*
G01*
X112652361Y-81922829D01*
X112652638Y-81866224D01*
X112653290Y-81820773D01*
X112654470Y-81784972D01*
X112656334Y-81757313D01*
X112659035Y-81736293D01*
X112662729Y-81720404D01*
X112667569Y-81708141D01*
X112673710Y-81698000D01*
X112681308Y-81688473D01*
X112683758Y-81685664D01*
X112687126Y-81681518D01*
X112690008Y-81677697D01*
X112692969Y-81674187D01*
X112696573Y-81670976D01*
X112701385Y-81668049D01*
X112707969Y-81665395D01*
X112716890Y-81663000D01*
X112728713Y-81660850D01*
X112744002Y-81658933D01*
X112763323Y-81657235D01*
X112787238Y-81655743D01*
X112816315Y-81654443D01*
X112851116Y-81653324D01*
X112892207Y-81652370D01*
X112940152Y-81651569D01*
X112995516Y-81650909D01*
X113058863Y-81650375D01*
X113130759Y-81649954D01*
X113211767Y-81649634D01*
X113302453Y-81649401D01*
X113403381Y-81649242D01*
X113515116Y-81649143D01*
X113638223Y-81649092D01*
X113773265Y-81649075D01*
X113920808Y-81649079D01*
X114081417Y-81649090D01*
X114246532Y-81649096D01*
X114427936Y-81649115D01*
X114595609Y-81649172D01*
X114749986Y-81649270D01*
X114891502Y-81649411D01*
X115020593Y-81649598D01*
X115137693Y-81649833D01*
X115243238Y-81650119D01*
X115337663Y-81650458D01*
X115421403Y-81650852D01*
X115494893Y-81651304D01*
X115558568Y-81651817D01*
X115612864Y-81652391D01*
X115658215Y-81653032D01*
X115695057Y-81653739D01*
X115723825Y-81654517D01*
X115744954Y-81655366D01*
X115758879Y-81656291D01*
X115766035Y-81657293D01*
X115766763Y-81657531D01*
X115800796Y-81678968D01*
X115824984Y-81709226D01*
X115829692Y-81719022D01*
X115832664Y-81733411D01*
X115835169Y-81759891D01*
X115837204Y-81796393D01*
X115838772Y-81840849D01*
X115839871Y-81891191D01*
X115840501Y-81945351D01*
X115840663Y-82001261D01*
X115840357Y-82056853D01*
X115839582Y-82110058D01*
X115838339Y-82158809D01*
X115836628Y-82201038D01*
X115834448Y-82234676D01*
X115831799Y-82257655D01*
X115829692Y-82266232D01*
X115808710Y-82298553D01*
X115777209Y-82322711D01*
X115766763Y-82327722D01*
X115757396Y-82328721D01*
X115734669Y-82329656D01*
X115699381Y-82330529D01*
X115652332Y-82331340D01*
X115594321Y-82332088D01*
X115526149Y-82332774D01*
X115448615Y-82333399D01*
X115362520Y-82333963D01*
X115268663Y-82334466D01*
X115167843Y-82334907D01*
X115060862Y-82335289D01*
X114948518Y-82335610D01*
X114831611Y-82335872D01*
X114710942Y-82336074D01*
X114587309Y-82336216D01*
X114461514Y-82336300D01*
X114334355Y-82336325D01*
X114206633Y-82336291D01*
X114079147Y-82336200D01*
X113952697Y-82336050D01*
X113828084Y-82335843D01*
X113706106Y-82335579D01*
X113587564Y-82335258D01*
X113473257Y-82334880D01*
X113363986Y-82334445D01*
X113260551Y-82333955D01*
X113163750Y-82333408D01*
X113074384Y-82332806D01*
X112993253Y-82332149D01*
X112921156Y-82331437D01*
X112858894Y-82330670D01*
X112807266Y-82329848D01*
X112767072Y-82328973D01*
X112739111Y-82328043D01*
X112724185Y-82327060D01*
X112722004Y-82326636D01*
X112701796Y-82315053D01*
X112687775Y-82304335D01*
X112678838Y-82295655D01*
X112671541Y-82286403D01*
X112665717Y-82275121D01*
X112661201Y-82260353D01*
X112657828Y-82240643D01*
X112655432Y-82214532D01*
X112653848Y-82180565D01*
X112652909Y-82137284D01*
X112652452Y-82083232D01*
X112652405Y-82061237D01*
X112865936Y-82061237D01*
X112866342Y-82089703D01*
X112867128Y-82108441D01*
X112867944Y-82114568D01*
X112870588Y-82115686D01*
X112877974Y-82116706D01*
X112890623Y-82117633D01*
X112909055Y-82118468D01*
X112933793Y-82119214D01*
X112965359Y-82119875D01*
X113004272Y-82120453D01*
X113051055Y-82120951D01*
X113106229Y-82121372D01*
X113170315Y-82121717D01*
X113243836Y-82121991D01*
X113327311Y-82122196D01*
X113421263Y-82122335D01*
X113526213Y-82122410D01*
X113642683Y-82122424D01*
X113771193Y-82122380D01*
X113912265Y-82122281D01*
X114066421Y-82122130D01*
X114234182Y-82121929D01*
X114247556Y-82121911D01*
X115623663Y-82120123D01*
X115623663Y-81865131D01*
X112868337Y-81865131D01*
X112866388Y-81985284D01*
X112865942Y-82025584D01*
X112865936Y-82061237D01*
X112652405Y-82061237D01*
X112652309Y-82016953D01*
X112652303Y-81992095D01*
G37*
G36*
X114302717Y-82728688D02*
G01*
X114358503Y-82730745D01*
X114408325Y-82734407D01*
X114448841Y-82739677D01*
X114462035Y-82742314D01*
X114583911Y-82776192D01*
X114695236Y-82819268D01*
X114795903Y-82871491D01*
X114885806Y-82932808D01*
X114928984Y-82968914D01*
X114953193Y-82992499D01*
X114965227Y-83008898D01*
X114966203Y-83016661D01*
X114960415Y-83025994D01*
X114948012Y-83044236D01*
X114930742Y-83068865D01*
X114910356Y-83097357D01*
X114907626Y-83101132D01*
X114884858Y-83132890D01*
X114862941Y-83163995D01*
X114844404Y-83190826D01*
X114832006Y-83209401D01*
X114810219Y-83243297D01*
X114784872Y-83219364D01*
X114740484Y-83181214D01*
X114689834Y-83143845D01*
X114637429Y-83110280D01*
X114587780Y-83083542D01*
X114570842Y-83075913D01*
X114495200Y-83046605D01*
X114426454Y-83025805D01*
X114360857Y-83012673D01*
X114294662Y-83006370D01*
X114256625Y-83005510D01*
X114212981Y-83006183D01*
X114177131Y-83008766D01*
X114143965Y-83014103D01*
X114108373Y-83023038D01*
X114065244Y-83036417D01*
X114060776Y-83037882D01*
X113994277Y-83066085D01*
X113928325Y-83105827D01*
X113865912Y-83154693D01*
X113810028Y-83210268D01*
X113763663Y-83270137D01*
X113753725Y-83285798D01*
X113714259Y-83358068D01*
X113685103Y-83428837D01*
X113665328Y-83501575D01*
X113654003Y-83579753D01*
X113650196Y-83666838D01*
X113650186Y-83671899D01*
X113650978Y-83727701D01*
X113653806Y-83773918D01*
X113659354Y-83815068D01*
X113668303Y-83855669D01*
X113681335Y-83900237D01*
X113687525Y-83919230D01*
X113700976Y-83954889D01*
X113718226Y-83993734D01*
X113737403Y-84032124D01*
X113756630Y-84066417D01*
X113774034Y-84092972D01*
X113782057Y-84102859D01*
X113795222Y-84117364D01*
X113812502Y-84136656D01*
X113821014Y-84146235D01*
X113836475Y-84162395D01*
X113856558Y-84181649D01*
X113878496Y-84201565D01*
X113899520Y-84219712D01*
X113916862Y-84233657D01*
X113927753Y-84240969D01*
X113929481Y-84241511D01*
X113937364Y-84245181D01*
X113952421Y-84254461D01*
X113960591Y-84259928D01*
X113975627Y-84269882D01*
X113989601Y-84277895D01*
X114006189Y-84285717D01*
X114029068Y-84295095D01*
X114058298Y-84306396D01*
X114119761Y-84324546D01*
X114189049Y-84335969D01*
X114262048Y-84340576D01*
X114334643Y-84338275D01*
X114402721Y-84328978D01*
X114455189Y-84315087D01*
X114475090Y-84308929D01*
X114490028Y-84305507D01*
X114492757Y-84305259D01*
X114501833Y-84302275D01*
X114520564Y-84294263D01*
X114545985Y-84282637D01*
X114575134Y-84268810D01*
X114605048Y-84254195D01*
X114632761Y-84240205D01*
X114655312Y-84228251D01*
X114661194Y-84224950D01*
X114679847Y-84212693D01*
X114705008Y-84194156D01*
X114732641Y-84172516D01*
X114758705Y-84150951D01*
X114779165Y-84132639D01*
X114781921Y-84129953D01*
X114796946Y-84116194D01*
X114808201Y-84107966D01*
X114810983Y-84106933D01*
X114817117Y-84112424D01*
X114829805Y-84127557D01*
X114847546Y-84150317D01*
X114868840Y-84178691D01*
X114892187Y-84210665D01*
X114916086Y-84244225D01*
X114939039Y-84277360D01*
X114949576Y-84292965D01*
X114976867Y-84333794D01*
X114939789Y-84367130D01*
X114917860Y-84386141D01*
X114892694Y-84406872D01*
X114866871Y-84427336D01*
X114842970Y-84445546D01*
X114823569Y-84459513D01*
X114811247Y-84467250D01*
X114808677Y-84468171D01*
X114800686Y-84471828D01*
X114785100Y-84481221D01*
X114772593Y-84489420D01*
X114753863Y-84501341D01*
X114739705Y-84509051D01*
X114734961Y-84510669D01*
X114725693Y-84513636D01*
X114708220Y-84521291D01*
X114692777Y-84528770D01*
X114651812Y-84546654D01*
X114600981Y-84564661D01*
X114544509Y-84581490D01*
X114486624Y-84595841D01*
X114451410Y-84603010D01*
X114408370Y-84608994D01*
X114356278Y-84613203D01*
X114298815Y-84615616D01*
X114239663Y-84616212D01*
X114182504Y-84614968D01*
X114131018Y-84611864D01*
X114088889Y-84606877D01*
X114079547Y-84605195D01*
X114022296Y-84592249D01*
X113964197Y-84576264D01*
X113909536Y-84558572D01*
X113862596Y-84540502D01*
X113843937Y-84532023D01*
X113822021Y-84521472D01*
X113802924Y-84512464D01*
X113797897Y-84510153D01*
X113757685Y-84488457D01*
X113712044Y-84457985D01*
X113664210Y-84421170D01*
X113617416Y-84380444D01*
X113589494Y-84353436D01*
X113546754Y-84308559D01*
X113513159Y-84269309D01*
X113486516Y-84232817D01*
X113464631Y-84196216D01*
X113455172Y-84177764D01*
X113444209Y-84156818D01*
X113434981Y-84141766D01*
X113430239Y-84136445D01*
X113425280Y-84128338D01*
X113424361Y-84120926D01*
X113420915Y-84107577D01*
X113417170Y-84103325D01*
X113407067Y-84091030D01*
X113395531Y-84066999D01*
X113383207Y-84033507D01*
X113370744Y-83992832D01*
X113358788Y-83947250D01*
X113347985Y-83899036D01*
X113338983Y-83850467D01*
X113332667Y-83805901D01*
X113326704Y-83720025D01*
X113327786Y-83629837D01*
X113335472Y-83538598D01*
X113349323Y-83449567D01*
X113368901Y-83366004D01*
X113393765Y-83291169D01*
X113405861Y-83262727D01*
X113415513Y-83241175D01*
X113422206Y-83225202D01*
X113424361Y-83218812D01*
X113428002Y-83211386D01*
X113437357Y-83196202D01*
X113445610Y-83183686D01*
X113457503Y-83165195D01*
X113465215Y-83151539D01*
X113466859Y-83147164D01*
X113470875Y-83139034D01*
X113481036Y-83124263D01*
X113487079Y-83116318D01*
X113499870Y-83098988D01*
X113508508Y-83085434D01*
X113510099Y-83082031D01*
X113517168Y-83070789D01*
X113532417Y-83052195D01*
X113553649Y-83028544D01*
X113578667Y-83002128D01*
X113605277Y-82975241D01*
X113631280Y-82950176D01*
X113654482Y-82929227D01*
X113664178Y-82921146D01*
X113749666Y-82861504D01*
X113845606Y-82811105D01*
X113951537Y-82770163D01*
X114051215Y-82742460D01*
X114086724Y-82736502D01*
X114132969Y-82732145D01*
X114186610Y-82729390D01*
X114244306Y-82728237D01*
X114302717Y-82728688D01*
G37*
G36*
X111481429Y-79778934D02*
G01*
X111515535Y-79725294D01*
X111560255Y-79679807D01*
X111613315Y-79644749D01*
X111617946Y-79642417D01*
X111663912Y-79619788D01*
X116828088Y-79619788D01*
X116874055Y-79642417D01*
X116927695Y-79676523D01*
X116973181Y-79721243D01*
X117008239Y-79774303D01*
X117010571Y-79778934D01*
X117033200Y-79824900D01*
X117033200Y-82481659D01*
X117010571Y-82527625D01*
X116976465Y-82581265D01*
X116931745Y-82626751D01*
X116878686Y-82661810D01*
X116874055Y-82664142D01*
X116828089Y-82686771D01*
X114260316Y-82688088D01*
X114024074Y-82688200D01*
X113801634Y-82688286D01*
X113592635Y-82688344D01*
X113396712Y-82688373D01*
X113213503Y-82688373D01*
X113042645Y-82688343D01*
X112883773Y-82688281D01*
X112736526Y-82688186D01*
X112600539Y-82688058D01*
X112475451Y-82687894D01*
X112360897Y-82687696D01*
X112256514Y-82687460D01*
X112161940Y-82687186D01*
X112076811Y-82686874D01*
X112000764Y-82686522D01*
X111933435Y-82686128D01*
X111874463Y-82685693D01*
X111823482Y-82685215D01*
X111780132Y-82684693D01*
X111744047Y-82684125D01*
X111714866Y-82683512D01*
X111692224Y-82682851D01*
X111675759Y-82682142D01*
X111665108Y-82681384D01*
X111660168Y-82680652D01*
X111606868Y-82659168D01*
X111558014Y-82625631D01*
X111515875Y-82581983D01*
X111482721Y-82530168D01*
X111481415Y-82527550D01*
X111458800Y-82481659D01*
X111458800Y-82434231D01*
X111667752Y-82434231D01*
X111711340Y-82477819D01*
X116780661Y-82477819D01*
X116824249Y-82434231D01*
X116824249Y-79872328D01*
X116780661Y-79828740D01*
X111711340Y-79828740D01*
X111667752Y-79872328D01*
X111667752Y-82434231D01*
X111458800Y-82434231D01*
X111458800Y-79824900D01*
X111481429Y-79778934D01*
G37*
G36*
X111900856Y-82754060D02*
G01*
X111986798Y-82754099D01*
X112059966Y-82754241D01*
X112121754Y-82754528D01*
X112173554Y-82755000D01*
X112216759Y-82755697D01*
X112252762Y-82756659D01*
X112282955Y-82757926D01*
X112308732Y-82759540D01*
X112331486Y-82761539D01*
X112352608Y-82763965D01*
X112373492Y-82766858D01*
X112380736Y-82767948D01*
X112459182Y-82781742D01*
X112525686Y-82797730D01*
X112582416Y-82816823D01*
X112631537Y-82839929D01*
X112675216Y-82867960D01*
X112715620Y-82901825D01*
X112727971Y-82913802D01*
X112764894Y-82959851D01*
X112794972Y-83015739D01*
X112817758Y-83078665D01*
X112832804Y-83145828D01*
X112839663Y-83214429D01*
X112837888Y-83281666D01*
X112827031Y-83344739D01*
X112806644Y-83400848D01*
X112805995Y-83402164D01*
X112778915Y-83448343D01*
X112745600Y-83489013D01*
X112704292Y-83525620D01*
X112653235Y-83559610D01*
X112590671Y-83592427D01*
X112554999Y-83608641D01*
X112537690Y-83617761D01*
X112528007Y-83625958D01*
X112527193Y-83628823D01*
X112534859Y-83634890D01*
X112551262Y-83641326D01*
X112557207Y-83642989D01*
X112576645Y-83648541D01*
X112590258Y-83653500D01*
X112592096Y-83654455D01*
X112603309Y-83658515D01*
X112621844Y-83662894D01*
X112625741Y-83663629D01*
X112642771Y-83668101D01*
X112651844Y-83673208D01*
X112652303Y-83674396D01*
X112658468Y-83679579D01*
X112673535Y-83684326D01*
X112675758Y-83684770D01*
X112697117Y-83692404D01*
X112725445Y-83707523D01*
X112757409Y-83727888D01*
X112789678Y-83751258D01*
X112818918Y-83775393D01*
X112837883Y-83793740D01*
X112870451Y-83834801D01*
X112897366Y-83883226D01*
X112918710Y-83936938D01*
X112924070Y-83955130D01*
X112927824Y-83975233D01*
X112930221Y-84000119D01*
X112931512Y-84032660D01*
X112931945Y-84075726D01*
X112931948Y-84089225D01*
X112930796Y-84148832D01*
X112927034Y-84197667D01*
X112919963Y-84238998D01*
X112908883Y-84276089D01*
X112893094Y-84312206D01*
X112878341Y-84339578D01*
X112862859Y-84362808D01*
X112841448Y-84390057D01*
X112817109Y-84417990D01*
X112792841Y-84443273D01*
X112771646Y-84462569D01*
X112760453Y-84470608D01*
X112704292Y-84501383D01*
X112651541Y-84525723D01*
X112598359Y-84544906D01*
X112540903Y-84560206D01*
X112475332Y-84572902D01*
X112432726Y-84579480D01*
X112412395Y-84581932D01*
X112387044Y-84584080D01*
X112355590Y-84585955D01*
X112316945Y-84587587D01*
X112270025Y-84589007D01*
X112213743Y-84590246D01*
X112147014Y-84591334D01*
X112068752Y-84592303D01*
X111977871Y-84593182D01*
X111935139Y-84593536D01*
X111511923Y-84596900D01*
X111511923Y-84067213D01*
X111816497Y-84067213D01*
X111816616Y-84127845D01*
X111816956Y-84183996D01*
X111817490Y-84234097D01*
X111818192Y-84276580D01*
X111819034Y-84309876D01*
X111819989Y-84332416D01*
X111821030Y-84342633D01*
X111821219Y-84343036D01*
X111829175Y-84344148D01*
X111849630Y-84345160D01*
X111880918Y-84346041D01*
X111921371Y-84346760D01*
X111969322Y-84347286D01*
X112023105Y-84347587D01*
X112067356Y-84347647D01*
X112134528Y-84347534D01*
X112189370Y-84347209D01*
X112233721Y-84346587D01*
X112269417Y-84345586D01*
X112298296Y-84344121D01*
X112322194Y-84342110D01*
X112342949Y-84339469D01*
X112362397Y-84336114D01*
X112374267Y-84333711D01*
X112438201Y-84316511D01*
X112490021Y-84294039D01*
X112531095Y-84265375D01*
X112562790Y-84229599D01*
X112583278Y-84193131D01*
X112589872Y-84176357D01*
X112594288Y-84158342D01*
X112596954Y-84135706D01*
X112598299Y-84105071D01*
X112598719Y-84071517D01*
X112598613Y-84032797D01*
X112597582Y-84005180D01*
X112595258Y-83985614D01*
X112591276Y-83971050D01*
X112585271Y-83958433D01*
X112585132Y-83958187D01*
X112556042Y-83916602D01*
X112519060Y-83881431D01*
X112473261Y-83852294D01*
X112417719Y-83828810D01*
X112351509Y-83810597D01*
X112273704Y-83797276D01*
X112183378Y-83788465D01*
X112170670Y-83787631D01*
X112123416Y-83785197D01*
X112073284Y-83783504D01*
X112022452Y-83782536D01*
X111973098Y-83782274D01*
X111927398Y-83782702D01*
X111887530Y-83783803D01*
X111855672Y-83785558D01*
X111834000Y-83787951D01*
X111825351Y-83790382D01*
X111822971Y-83795109D01*
X111821024Y-83806632D01*
X111819475Y-83826025D01*
X111818290Y-83854363D01*
X111817434Y-83892721D01*
X111816873Y-83942171D01*
X111816573Y-84003790D01*
X111816497Y-84067213D01*
X111511923Y-84067213D01*
X111511923Y-83263385D01*
X111816497Y-83263385D01*
X111816609Y-83336309D01*
X111816970Y-83396141D01*
X111817613Y-83443955D01*
X111818573Y-83480822D01*
X111819885Y-83507815D01*
X111821582Y-83526008D01*
X111823699Y-83536472D01*
X111825351Y-83539674D01*
X111830816Y-83542556D01*
X111841928Y-83544644D01*
X111860164Y-83545978D01*
X111886997Y-83546597D01*
X111923901Y-83546543D01*
X111972353Y-83545854D01*
X112018365Y-83544919D01*
X112078016Y-83543448D01*
X112125726Y-83541845D01*
X112163720Y-83539937D01*
X112194224Y-83537551D01*
X112219461Y-83534513D01*
X112241658Y-83530649D01*
X112262732Y-83525863D01*
X112329890Y-83504879D01*
X112388940Y-83477795D01*
X112438440Y-83445564D01*
X112476951Y-83409138D01*
X112503031Y-83369467D01*
X112504618Y-83366001D01*
X112519402Y-83317689D01*
X112522788Y-83264318D01*
X112515156Y-83205281D01*
X112506252Y-83167179D01*
X112496447Y-83138765D01*
X112483541Y-83115622D01*
X112465332Y-83093332D01*
X112453084Y-83080658D01*
X112420354Y-83052752D01*
X112383240Y-83031121D01*
X112339291Y-83014834D01*
X112286059Y-83002959D01*
X112228809Y-82995337D01*
X112202450Y-82993294D01*
X112167145Y-82991546D01*
X112125202Y-82990109D01*
X112078930Y-82989003D01*
X112030638Y-82988246D01*
X111982634Y-82987857D01*
X111937227Y-82987856D01*
X111896726Y-82988259D01*
X111863439Y-82989086D01*
X111839674Y-82990356D01*
X111827741Y-82992087D01*
X111827701Y-82992102D01*
X111824799Y-82994463D01*
X111822439Y-82999979D01*
X111820566Y-83009967D01*
X111819125Y-83025747D01*
X111818063Y-83048638D01*
X111817323Y-83079958D01*
X111816853Y-83121027D01*
X111816598Y-83173163D01*
X111816502Y-83237686D01*
X111816497Y-83263385D01*
X111511923Y-83263385D01*
X111511923Y-82754060D01*
X111900856Y-82754060D01*
G37*
G36*
X111815749Y-81152819D02*
G01*
X111815834Y-81097588D01*
X111816344Y-81044611D01*
X111817284Y-80995937D01*
X111818662Y-80953613D01*
X111820482Y-80919687D01*
X111822750Y-80896206D01*
X111824932Y-80886226D01*
X111846368Y-80852192D01*
X111876626Y-80828005D01*
X111886422Y-80823297D01*
X111897911Y-80821449D01*
X111922344Y-80819767D01*
X111958498Y-80818252D01*
X112005151Y-80816904D01*
X112061082Y-80815722D01*
X112125068Y-80814707D01*
X112195888Y-80813859D01*
X112272319Y-80813177D01*
X112353140Y-80812662D01*
X112437129Y-80812313D01*
X112523064Y-80812131D01*
X112609722Y-80812116D01*
X112695882Y-80812267D01*
X112780323Y-80812585D01*
X112861821Y-80813069D01*
X112939155Y-80813720D01*
X113011104Y-80814538D01*
X113076445Y-80815522D01*
X113133956Y-80816673D01*
X113182415Y-80817991D01*
X113220600Y-80819475D01*
X113247290Y-80821125D01*
X113261263Y-80822943D01*
X113262355Y-80823297D01*
X113294676Y-80844278D01*
X113318834Y-80875780D01*
X113323845Y-80886226D01*
X113326479Y-80899684D01*
X113328660Y-80925254D01*
X113330395Y-80960887D01*
X113331690Y-81004537D01*
X113332551Y-81054155D01*
X113332983Y-81107694D01*
X113332993Y-81163107D01*
X113332587Y-81218346D01*
X113331770Y-81271363D01*
X113330548Y-81320111D01*
X113328928Y-81362542D01*
X113326914Y-81396609D01*
X113324514Y-81420264D01*
X113322274Y-81430426D01*
X113301293Y-81462747D01*
X113269791Y-81486905D01*
X113259345Y-81491916D01*
X113248832Y-81493394D01*
X113225377Y-81494728D01*
X113190191Y-81495920D01*
X113144485Y-81496970D01*
X113089471Y-81497881D01*
X113026361Y-81498653D01*
X112956365Y-81499286D01*
X112880695Y-81499783D01*
X112800563Y-81500142D01*
X112717179Y-81500367D01*
X112631755Y-81500457D01*
X112545504Y-81500414D01*
X112459635Y-81500238D01*
X112375360Y-81499931D01*
X112293892Y-81499494D01*
X112216440Y-81498926D01*
X112144217Y-81498230D01*
X112078434Y-81497407D01*
X112020303Y-81496457D01*
X111971034Y-81495381D01*
X111931839Y-81494180D01*
X111903930Y-81492855D01*
X111888518Y-81491408D01*
X111886198Y-81490830D01*
X111852743Y-81468722D01*
X111829527Y-81437149D01*
X111826537Y-81430570D01*
X111823818Y-81416889D01*
X111821482Y-81391129D01*
X111819534Y-81355339D01*
X111817981Y-81311565D01*
X111816828Y-81261855D01*
X111816321Y-81225439D01*
X112030133Y-81225439D01*
X112030541Y-81253911D01*
X112031330Y-81272656D01*
X112032148Y-81278789D01*
X112035169Y-81280534D01*
X112043350Y-81282036D01*
X112057520Y-81283304D01*
X112078508Y-81284351D01*
X112107142Y-81285187D01*
X112144253Y-81285823D01*
X112190669Y-81286271D01*
X112247219Y-81286542D01*
X112314733Y-81286647D01*
X112394040Y-81286598D01*
X112485969Y-81286405D01*
X112575954Y-81286132D01*
X113116246Y-81284317D01*
X113116246Y-81029325D01*
X112032531Y-81029325D01*
X112030582Y-81149478D01*
X112030136Y-81189780D01*
X112030133Y-81225439D01*
X111816321Y-81225439D01*
X111816082Y-81208257D01*
X111815749Y-81152819D01*
G37*
G36*
X115995526Y-81992095D02*
G01*
X115995584Y-81922829D01*
X115995862Y-81866224D01*
X115996514Y-81820773D01*
X115997694Y-81784972D01*
X115999558Y-81757313D01*
X116002259Y-81736293D01*
X116005952Y-81720404D01*
X116010792Y-81708141D01*
X116016934Y-81698000D01*
X116024532Y-81688473D01*
X116026981Y-81685664D01*
X116035653Y-81676452D01*
X116044818Y-81668930D01*
X116055935Y-81662928D01*
X116070462Y-81658274D01*
X116089857Y-81654798D01*
X116115578Y-81652329D01*
X116149084Y-81650696D01*
X116191832Y-81649728D01*
X116245280Y-81649254D01*
X116310887Y-81649104D01*
X116339057Y-81649096D01*
X116409622Y-81649169D01*
X116467480Y-81649501D01*
X116514088Y-81650262D01*
X116550904Y-81651625D01*
X116579387Y-81653759D01*
X116600994Y-81656836D01*
X116617184Y-81661026D01*
X116629415Y-81666500D01*
X116639144Y-81673429D01*
X116647831Y-81681984D01*
X116651132Y-81685664D01*
X116659165Y-81695282D01*
X116665701Y-81705084D01*
X116670893Y-81716576D01*
X116674897Y-81731261D01*
X116677866Y-81750643D01*
X116679955Y-81776225D01*
X116681316Y-81809512D01*
X116682106Y-81852008D01*
X116682477Y-81905215D01*
X116682583Y-81970638D01*
X116682587Y-81992627D01*
X116682529Y-82061965D01*
X116682253Y-82118641D01*
X116681604Y-82164158D01*
X116680428Y-82200021D01*
X116678571Y-82227733D01*
X116675879Y-82248798D01*
X116672199Y-82264720D01*
X116667375Y-82277003D01*
X116661254Y-82287150D01*
X116653681Y-82296665D01*
X116651132Y-82299589D01*
X116642501Y-82308777D01*
X116633408Y-82316282D01*
X116622404Y-82322270D01*
X116608039Y-82326907D01*
X116588862Y-82330359D01*
X116563424Y-82332792D01*
X116530274Y-82334371D01*
X116487962Y-82335263D01*
X116435039Y-82335633D01*
X116370053Y-82335648D01*
X116336421Y-82335582D01*
X116260401Y-82335226D01*
X116197858Y-82334520D01*
X116148104Y-82333443D01*
X116110453Y-82331972D01*
X116084218Y-82330083D01*
X116068715Y-82327754D01*
X116065228Y-82326636D01*
X116045020Y-82315053D01*
X116030998Y-82304335D01*
X116022062Y-82295655D01*
X116014765Y-82286403D01*
X116008941Y-82275121D01*
X116004425Y-82260353D01*
X116001052Y-82240643D01*
X115998656Y-82214532D01*
X115997071Y-82180565D01*
X115996133Y-82137284D01*
X115995675Y-82083232D01*
X115995551Y-82025597D01*
X116209168Y-82025597D01*
X116209172Y-82061277D01*
X116209591Y-82089779D01*
X116210394Y-82108558D01*
X116211223Y-82114714D01*
X116215558Y-82118147D01*
X116226612Y-82120535D01*
X116246046Y-82121974D01*
X116275525Y-82122557D01*
X116316710Y-82122379D01*
X116340668Y-82122058D01*
X116466552Y-82120123D01*
X116466552Y-81865131D01*
X116211561Y-81865131D01*
X116209612Y-81985284D01*
X116209168Y-82025597D01*
X115995551Y-82025597D01*
X115995532Y-82016953D01*
X115995526Y-81992095D01*
G37*
G36*
X114323914Y-80320483D02*
G01*
X114323973Y-80251218D01*
X114324250Y-80194612D01*
X114324902Y-80149162D01*
X114326082Y-80113360D01*
X114327946Y-80085702D01*
X114330647Y-80064681D01*
X114334340Y-80048792D01*
X114339181Y-80036530D01*
X114345322Y-80026388D01*
X114352920Y-80016861D01*
X114355369Y-80014052D01*
X114364041Y-80004840D01*
X114373206Y-79997319D01*
X114384323Y-79991316D01*
X114398850Y-79986662D01*
X114418245Y-79983186D01*
X114443966Y-79980717D01*
X114477472Y-79979084D01*
X114520220Y-79978116D01*
X114573668Y-79977643D01*
X114639275Y-79977492D01*
X114667445Y-79977485D01*
X114738010Y-79977557D01*
X114795868Y-79977889D01*
X114842476Y-79978651D01*
X114879293Y-79980013D01*
X114907775Y-79982147D01*
X114929383Y-79985224D01*
X114945572Y-79989414D01*
X114957803Y-79994888D01*
X114967532Y-80001817D01*
X114976219Y-80010373D01*
X114979520Y-80014052D01*
X114987553Y-80023670D01*
X114994089Y-80033472D01*
X114999281Y-80044964D01*
X115003285Y-80059649D01*
X115006254Y-80079031D01*
X115008343Y-80104613D01*
X115009705Y-80137900D01*
X115010494Y-80180396D01*
X115010865Y-80233603D01*
X115010972Y-80299026D01*
X115010975Y-80321015D01*
X115010917Y-80390353D01*
X115010641Y-80447029D01*
X115009992Y-80492547D01*
X115008816Y-80528409D01*
X115006959Y-80556122D01*
X115004268Y-80577187D01*
X115000587Y-80593109D01*
X114995763Y-80605391D01*
X114989642Y-80615538D01*
X114982070Y-80625054D01*
X114979520Y-80627978D01*
X114970889Y-80637165D01*
X114961797Y-80644670D01*
X114950793Y-80650658D01*
X114936427Y-80655295D01*
X114917251Y-80658747D01*
X114891812Y-80661180D01*
X114858662Y-80662760D01*
X114816350Y-80663651D01*
X114763427Y-80664022D01*
X114698442Y-80664036D01*
X114664809Y-80663970D01*
X114588789Y-80663614D01*
X114526246Y-80662909D01*
X114476492Y-80661831D01*
X114438841Y-80660360D01*
X114412607Y-80658471D01*
X114397103Y-80656143D01*
X114393616Y-80655024D01*
X114373408Y-80643441D01*
X114359387Y-80632723D01*
X114350450Y-80624043D01*
X114343153Y-80614791D01*
X114337329Y-80603509D01*
X114332813Y-80588742D01*
X114329440Y-80569031D01*
X114327044Y-80542920D01*
X114325460Y-80508953D01*
X114324521Y-80465672D01*
X114324063Y-80411620D01*
X114323940Y-80353986D01*
X114537557Y-80353986D01*
X114537560Y-80389666D01*
X114537980Y-80418167D01*
X114538783Y-80436946D01*
X114539612Y-80443103D01*
X114543946Y-80446535D01*
X114555000Y-80448923D01*
X114574435Y-80450362D01*
X114603913Y-80450945D01*
X114645098Y-80450767D01*
X114669056Y-80450446D01*
X114794941Y-80448511D01*
X114794941Y-80193519D01*
X114539949Y-80193519D01*
X114538000Y-80313672D01*
X114537557Y-80353986D01*
X114323940Y-80353986D01*
X114323921Y-80345342D01*
X114323914Y-80320483D01*
G37*
G36*
X112652303Y-80320483D02*
G01*
X112652361Y-80251218D01*
X112652638Y-80194612D01*
X112653290Y-80149162D01*
X112654470Y-80113360D01*
X112656334Y-80085702D01*
X112659035Y-80064681D01*
X112662729Y-80048792D01*
X112667569Y-80036530D01*
X112673710Y-80026388D01*
X112681308Y-80016861D01*
X112683758Y-80014052D01*
X112692429Y-80004840D01*
X112701594Y-79997319D01*
X112712711Y-79991316D01*
X112727238Y-79986662D01*
X112746633Y-79983186D01*
X112772355Y-79980717D01*
X112805860Y-79979084D01*
X112848608Y-79978116D01*
X112902056Y-79977643D01*
X112967663Y-79977492D01*
X112995833Y-79977485D01*
X113066399Y-79977557D01*
X113124256Y-79977889D01*
X113170864Y-79978651D01*
X113207681Y-79980013D01*
X113236163Y-79982147D01*
X113257771Y-79985224D01*
X113273961Y-79989414D01*
X113286191Y-79994888D01*
X113295921Y-80001817D01*
X113304607Y-80010373D01*
X113307908Y-80014052D01*
X113315941Y-80023670D01*
X113322477Y-80033472D01*
X113327670Y-80044964D01*
X113331673Y-80059649D01*
X113334643Y-80079031D01*
X113336731Y-80104613D01*
X113338093Y-80137900D01*
X113338882Y-80180396D01*
X113339253Y-80233603D01*
X113339360Y-80299026D01*
X113339363Y-80321015D01*
X113339305Y-80390353D01*
X113339029Y-80447029D01*
X113338380Y-80492547D01*
X113337204Y-80528409D01*
X113335347Y-80556122D01*
X113332656Y-80577187D01*
X113328975Y-80593109D01*
X113324151Y-80605391D01*
X113318030Y-80615538D01*
X113310458Y-80625054D01*
X113307908Y-80627978D01*
X113299277Y-80637165D01*
X113290185Y-80644670D01*
X113279181Y-80650658D01*
X113264816Y-80655295D01*
X113245639Y-80658747D01*
X113220200Y-80661180D01*
X113187050Y-80662760D01*
X113144739Y-80663651D01*
X113091815Y-80664022D01*
X113026830Y-80664036D01*
X112993197Y-80663970D01*
X112917178Y-80663614D01*
X112854634Y-80662909D01*
X112804880Y-80661831D01*
X112767229Y-80660360D01*
X112740995Y-80658471D01*
X112725491Y-80656143D01*
X112722004Y-80655024D01*
X112701796Y-80643441D01*
X112687775Y-80632723D01*
X112678838Y-80624043D01*
X112671541Y-80614791D01*
X112665717Y-80603509D01*
X112661201Y-80588742D01*
X112657828Y-80569031D01*
X112655432Y-80542920D01*
X112653848Y-80508953D01*
X112652909Y-80465672D01*
X112652452Y-80411620D01*
X112652328Y-80353986D01*
X112865945Y-80353986D01*
X112865948Y-80389666D01*
X112866368Y-80418167D01*
X112867171Y-80436946D01*
X112868000Y-80443103D01*
X112872334Y-80446535D01*
X112883388Y-80448923D01*
X112902823Y-80450362D01*
X112932301Y-80450945D01*
X112973486Y-80450767D01*
X112997444Y-80450446D01*
X113123329Y-80448511D01*
X113123329Y-80193519D01*
X112868337Y-80193519D01*
X112866388Y-80313672D01*
X112865945Y-80353986D01*
X112652328Y-80353986D01*
X112652309Y-80345342D01*
X112652303Y-80320483D01*
G37*
G36*
X111815834Y-81933394D02*
G01*
X111816344Y-81880417D01*
X111817284Y-81831743D01*
X111818662Y-81789419D01*
X111820482Y-81755493D01*
X111822750Y-81732012D01*
X111824932Y-81722032D01*
X111846368Y-81687998D01*
X111876626Y-81663811D01*
X111886422Y-81659103D01*
X111900811Y-81656130D01*
X111927291Y-81653626D01*
X111963793Y-81651590D01*
X112008249Y-81650023D01*
X112058591Y-81648924D01*
X112112751Y-81648293D01*
X112168661Y-81648131D01*
X112224253Y-81648437D01*
X112277459Y-81649212D01*
X112326210Y-81650455D01*
X112368438Y-81652167D01*
X112402076Y-81654347D01*
X112425055Y-81656995D01*
X112433632Y-81659103D01*
X112465953Y-81680084D01*
X112490111Y-81711586D01*
X112495123Y-81722032D01*
X112497504Y-81734799D01*
X112499516Y-81759693D01*
X112501160Y-81794680D01*
X112502436Y-81837723D01*
X112503343Y-81886789D01*
X112503881Y-81939842D01*
X112504050Y-81994849D01*
X112503851Y-82049774D01*
X112503283Y-82102582D01*
X112502347Y-82151239D01*
X112501042Y-82193710D01*
X112499368Y-82227961D01*
X112497326Y-82251956D01*
X112495123Y-82263222D01*
X112473686Y-82297256D01*
X112443428Y-82321443D01*
X112433632Y-82326151D01*
X112420096Y-82328811D01*
X112394491Y-82331072D01*
X112358851Y-82332931D01*
X112315208Y-82334386D01*
X112265594Y-82335437D01*
X112212040Y-82336081D01*
X112156579Y-82336316D01*
X112101244Y-82336140D01*
X112048066Y-82335553D01*
X111999077Y-82334551D01*
X111956310Y-82333133D01*
X111921797Y-82331298D01*
X111897570Y-82329043D01*
X111886198Y-82326636D01*
X111852743Y-82304528D01*
X111829527Y-82272954D01*
X111826537Y-82266376D01*
X111823818Y-82252695D01*
X111821482Y-82226935D01*
X111819534Y-82191145D01*
X111817981Y-82147371D01*
X111816828Y-82097661D01*
X111816082Y-82044063D01*
X111815971Y-82025597D01*
X112030139Y-82025597D01*
X112030143Y-82061277D01*
X112030562Y-82089779D01*
X112031365Y-82108558D01*
X112032194Y-82114714D01*
X112036529Y-82118147D01*
X112047582Y-82120535D01*
X112067017Y-82121974D01*
X112096495Y-82122557D01*
X112137680Y-82122379D01*
X112161638Y-82122058D01*
X112287523Y-82120123D01*
X112287523Y-81865131D01*
X112032531Y-81865131D01*
X112030582Y-81985284D01*
X112030139Y-82025597D01*
X111815971Y-82025597D01*
X111815749Y-81988625D01*
X111815834Y-81933394D01*
G37*
G36*
X115159720Y-80320483D02*
G01*
X115159779Y-80251218D01*
X115160056Y-80194612D01*
X115160708Y-80149162D01*
X115161888Y-80113360D01*
X115163752Y-80085702D01*
X115166453Y-80064681D01*
X115170146Y-80048792D01*
X115174986Y-80036530D01*
X115181128Y-80026388D01*
X115188726Y-80016861D01*
X115191175Y-80014052D01*
X115199847Y-80004840D01*
X115209012Y-79997319D01*
X115220129Y-79991316D01*
X115234656Y-79986662D01*
X115254051Y-79983186D01*
X115279772Y-79980717D01*
X115313278Y-79979084D01*
X115356026Y-79978116D01*
X115409474Y-79977643D01*
X115475081Y-79977492D01*
X115503251Y-79977485D01*
X115573816Y-79977557D01*
X115631674Y-79977889D01*
X115678282Y-79978651D01*
X115715098Y-79980013D01*
X115743581Y-79982147D01*
X115765189Y-79985224D01*
X115781378Y-79989414D01*
X115793609Y-79994888D01*
X115803338Y-80001817D01*
X115812025Y-80010373D01*
X115815326Y-80014052D01*
X115823359Y-80023670D01*
X115829895Y-80033472D01*
X115835087Y-80044964D01*
X115839091Y-80059649D01*
X115842060Y-80079031D01*
X115844149Y-80104613D01*
X115845511Y-80137900D01*
X115846300Y-80180396D01*
X115846671Y-80233603D01*
X115846778Y-80299026D01*
X115846781Y-80321015D01*
X115846723Y-80390353D01*
X115846447Y-80447029D01*
X115845798Y-80492547D01*
X115844622Y-80528409D01*
X115842765Y-80556122D01*
X115840073Y-80577187D01*
X115836393Y-80593109D01*
X115831569Y-80605391D01*
X115825448Y-80615538D01*
X115817875Y-80625054D01*
X115815326Y-80627978D01*
X115806695Y-80637165D01*
X115797602Y-80644670D01*
X115786599Y-80650658D01*
X115772233Y-80655295D01*
X115753056Y-80658747D01*
X115727618Y-80661180D01*
X115694468Y-80662760D01*
X115652156Y-80663651D01*
X115599233Y-80664022D01*
X115534247Y-80664036D01*
X115500615Y-80663970D01*
X115424595Y-80663614D01*
X115362052Y-80662909D01*
X115312298Y-80661831D01*
X115274647Y-80660360D01*
X115248413Y-80658471D01*
X115232909Y-80656143D01*
X115229422Y-80655024D01*
X115209214Y-80643441D01*
X115195193Y-80632723D01*
X115186256Y-80624043D01*
X115178959Y-80614791D01*
X115173135Y-80603509D01*
X115168619Y-80588742D01*
X115165246Y-80569031D01*
X115162850Y-80542920D01*
X115161265Y-80508953D01*
X115160327Y-80465672D01*
X115159869Y-80411620D01*
X115159745Y-80353986D01*
X115373362Y-80353986D01*
X115373366Y-80389666D01*
X115373785Y-80418167D01*
X115374589Y-80436946D01*
X115375417Y-80443103D01*
X115379752Y-80446535D01*
X115390806Y-80448923D01*
X115410241Y-80450362D01*
X115439719Y-80450945D01*
X115480904Y-80450767D01*
X115504862Y-80450446D01*
X115630747Y-80448511D01*
X115630747Y-80193519D01*
X115375755Y-80193519D01*
X115373806Y-80313672D01*
X115373362Y-80353986D01*
X115159745Y-80353986D01*
X115159726Y-80345342D01*
X115159720Y-80320483D01*
G37*
G36*
X111815834Y-80261782D02*
G01*
X111816344Y-80208805D01*
X111817284Y-80160131D01*
X111818662Y-80117807D01*
X111820482Y-80083881D01*
X111822750Y-80060400D01*
X111824932Y-80050420D01*
X111846368Y-80016386D01*
X111876626Y-79992199D01*
X111886422Y-79987491D01*
X111900811Y-79984518D01*
X111927291Y-79982014D01*
X111963793Y-79979978D01*
X112008249Y-79978411D01*
X112058591Y-79977312D01*
X112112751Y-79976681D01*
X112168661Y-79976519D01*
X112224253Y-79976826D01*
X112277459Y-79977600D01*
X112326210Y-79978843D01*
X112368438Y-79980555D01*
X112402076Y-79982735D01*
X112425055Y-79985383D01*
X112433632Y-79987491D01*
X112465953Y-80008472D01*
X112490111Y-80039974D01*
X112495123Y-80050420D01*
X112497504Y-80063187D01*
X112499516Y-80088082D01*
X112501160Y-80123068D01*
X112502436Y-80166111D01*
X112503343Y-80215177D01*
X112503881Y-80268231D01*
X112504050Y-80323237D01*
X112503851Y-80378162D01*
X112503283Y-80430970D01*
X112502347Y-80479627D01*
X112501042Y-80522098D01*
X112499368Y-80556349D01*
X112497326Y-80580344D01*
X112495123Y-80591610D01*
X112473686Y-80625644D01*
X112443428Y-80649831D01*
X112433632Y-80654539D01*
X112420096Y-80657199D01*
X112394491Y-80659460D01*
X112358851Y-80661319D01*
X112315208Y-80662774D01*
X112265594Y-80663825D01*
X112212040Y-80664469D01*
X112156579Y-80664704D01*
X112101244Y-80664528D01*
X112048066Y-80663941D01*
X111999077Y-80662939D01*
X111956310Y-80661521D01*
X111921797Y-80659686D01*
X111897570Y-80657431D01*
X111886198Y-80655024D01*
X111852743Y-80632916D01*
X111829527Y-80601343D01*
X111826537Y-80594764D01*
X111823818Y-80581083D01*
X111821482Y-80555323D01*
X111819534Y-80519533D01*
X111817981Y-80475759D01*
X111816828Y-80426049D01*
X111816082Y-80372451D01*
X111815971Y-80353986D01*
X112030139Y-80353986D01*
X112030143Y-80389666D01*
X112030562Y-80418167D01*
X112031365Y-80436946D01*
X112032194Y-80443103D01*
X112036529Y-80446535D01*
X112047582Y-80448923D01*
X112067017Y-80450362D01*
X112096495Y-80450945D01*
X112137680Y-80450767D01*
X112161638Y-80450446D01*
X112287523Y-80448511D01*
X112287523Y-80193519D01*
X112032531Y-80193519D01*
X112030582Y-80313672D01*
X112030139Y-80353986D01*
X111815971Y-80353986D01*
X111815749Y-80317013D01*
X111815834Y-80261782D01*
G37*
G36*
X115763452Y-82754060D02*
G01*
X115852322Y-82754155D01*
X115928310Y-82754459D01*
X115992699Y-82755005D01*
X116046770Y-82755822D01*
X116091806Y-82756941D01*
X116129090Y-82758393D01*
X116159905Y-82760210D01*
X116185532Y-82762421D01*
X116204375Y-82764659D01*
X116323793Y-82785868D01*
X116433599Y-82815637D01*
X116533350Y-82853746D01*
X116622601Y-82899976D01*
X116700910Y-82954109D01*
X116767832Y-83015924D01*
X116806553Y-83062161D01*
X116849429Y-83123957D01*
X116884901Y-83185983D01*
X116913792Y-83250617D01*
X116936920Y-83320234D01*
X116955107Y-83397212D01*
X116969174Y-83483927D01*
X116977577Y-83557426D01*
X116981979Y-83603899D01*
X116984830Y-83640461D01*
X116986126Y-83671283D01*
X116985862Y-83700538D01*
X116984037Y-83732395D01*
X116980646Y-83771026D01*
X116977374Y-83803992D01*
X116971329Y-83860099D01*
X116965369Y-83906070D01*
X116958780Y-83945914D01*
X116950844Y-83983638D01*
X116940846Y-84023251D01*
X116933368Y-84050268D01*
X116914275Y-84106241D01*
X116888219Y-84166529D01*
X116857984Y-84225164D01*
X116831648Y-84268392D01*
X116815693Y-84289654D01*
X116793354Y-84315936D01*
X116767234Y-84344542D01*
X116739934Y-84372775D01*
X116714055Y-84397938D01*
X116692198Y-84417335D01*
X116677921Y-84427745D01*
X116664224Y-84435783D01*
X116643176Y-84448391D01*
X116621038Y-84461805D01*
X116547239Y-84500037D01*
X116461688Y-84531891D01*
X116364046Y-84557470D01*
X116253976Y-84576878D01*
X116239893Y-84578800D01*
X116215557Y-84581569D01*
X116186484Y-84583972D01*
X116151450Y-84586047D01*
X116109231Y-84587834D01*
X116058603Y-84589371D01*
X115998342Y-84590699D01*
X115927222Y-84591854D01*
X115844021Y-84592878D01*
X115777721Y-84593539D01*
X115400546Y-84597013D01*
X115400546Y-84349394D01*
X115712202Y-84349394D01*
X115926466Y-84345877D01*
X115984560Y-84344665D01*
X116039233Y-84343033D01*
X116088387Y-84341078D01*
X116129921Y-84338899D01*
X116161738Y-84336592D01*
X116181737Y-84334255D01*
X116183228Y-84333980D01*
X116213250Y-84327400D01*
X116243641Y-84319718D01*
X116258552Y-84315430D01*
X116279460Y-84309426D01*
X116295128Y-84305774D01*
X116299261Y-84305259D01*
X116313094Y-84301672D01*
X116335594Y-84292036D01*
X116363561Y-84278038D01*
X116393794Y-84261367D01*
X116423094Y-84243709D01*
X116448260Y-84226754D01*
X116448640Y-84226477D01*
X116500537Y-84182019D01*
X116544674Y-84129624D01*
X116581842Y-84067955D01*
X116612833Y-83995674D01*
X116638436Y-83911447D01*
X116640926Y-83901523D01*
X116647653Y-83865255D01*
X116653066Y-83818373D01*
X116657023Y-83764383D01*
X116659381Y-83706788D01*
X116659996Y-83649092D01*
X116658726Y-83594800D01*
X116655428Y-83547416D01*
X116655379Y-83546935D01*
X116639740Y-83447497D01*
X116614235Y-83358169D01*
X116578733Y-83278769D01*
X116533104Y-83209117D01*
X116477219Y-83149032D01*
X116410946Y-83098334D01*
X116334157Y-83056843D01*
X116289475Y-83038642D01*
X116228288Y-83020985D01*
X116154007Y-83008116D01*
X116066878Y-83000055D01*
X115967145Y-82996824D01*
X115855056Y-82998445D01*
X115838518Y-82999055D01*
X115712202Y-83004041D01*
X115712202Y-84349394D01*
X115400546Y-84349394D01*
X115400546Y-82754060D01*
X115763452Y-82754060D01*
G37*
G36*
X149051223Y-79536087D02*
G01*
X149087808Y-79536274D01*
X149121841Y-79536602D01*
X149151915Y-79537071D01*
X149176624Y-79537681D01*
X149194562Y-79538432D01*
X149204324Y-79539323D01*
X149205577Y-79539686D01*
X149207611Y-79541768D01*
X149209746Y-79545989D01*
X149212168Y-79553212D01*
X149215057Y-79564300D01*
X149218599Y-79580115D01*
X149222976Y-79601522D01*
X149228371Y-79629382D01*
X149234968Y-79664558D01*
X149242949Y-79707914D01*
X149252498Y-79760312D01*
X149253002Y-79763090D01*
X149262065Y-79811818D01*
X149269799Y-79850844D01*
X149276271Y-79880472D01*
X149281550Y-79901006D01*
X149285705Y-79912747D01*
X149287420Y-79915454D01*
X149294772Y-79920065D01*
X149309991Y-79927585D01*
X149331492Y-79937366D01*
X149357686Y-79948762D01*
X149386987Y-79961125D01*
X149417808Y-79973809D01*
X149448562Y-79986166D01*
X149477661Y-79997548D01*
X149503520Y-80007310D01*
X149524550Y-80014804D01*
X149539165Y-80019382D01*
X149545070Y-80020513D01*
X149555506Y-80017612D01*
X149570936Y-80010086D01*
X149588333Y-79999447D01*
X149591156Y-79997515D01*
X149608546Y-79985480D01*
X149631277Y-79969836D01*
X149656336Y-79952652D01*
X149679544Y-79936793D01*
X149705875Y-79918817D01*
X149736727Y-79897725D01*
X149768295Y-79876121D01*
X149796772Y-79856606D01*
X149797289Y-79856251D01*
X149819514Y-79841272D01*
X149839062Y-79828594D01*
X149854315Y-79819228D01*
X149863654Y-79814186D01*
X149865510Y-79813597D01*
X149870423Y-79817056D01*
X149881398Y-79826783D01*
X149897457Y-79841801D01*
X149917625Y-79861135D01*
X149940923Y-79883807D01*
X149966375Y-79908842D01*
X149993002Y-79935264D01*
X150019827Y-79962097D01*
X150045873Y-79988364D01*
X150070163Y-80013089D01*
X150091719Y-80035296D01*
X150109564Y-80054009D01*
X150122721Y-80068252D01*
X150130212Y-80077048D01*
X150131582Y-80079344D01*
X150128817Y-80084663D01*
X150120954Y-80097313D01*
X150108638Y-80116317D01*
X150092515Y-80140697D01*
X150073231Y-80169476D01*
X150051433Y-80201676D01*
X150029800Y-80233355D01*
X150006160Y-80267967D01*
X149984345Y-80300165D01*
X149965018Y-80328950D01*
X149948842Y-80353324D01*
X149936481Y-80372287D01*
X149928599Y-80384839D01*
X149925882Y-80389834D01*
X149927259Y-80396398D01*
X149932208Y-80410958D01*
X149940240Y-80432259D01*
X149950866Y-80459047D01*
X149963597Y-80490067D01*
X149977945Y-80524065D01*
X149980477Y-80529973D01*
X149997002Y-80568401D01*
X150010115Y-80598588D01*
X150020386Y-80621578D01*
X150028384Y-80638414D01*
X150034680Y-80650140D01*
X150039843Y-80657798D01*
X150044441Y-80662432D01*
X150049046Y-80665085D01*
X150054226Y-80666801D01*
X150055353Y-80667115D01*
X150064747Y-80669254D01*
X150082708Y-80672911D01*
X150107859Y-80677824D01*
X150138824Y-80683727D01*
X150174226Y-80690357D01*
X150212691Y-80697451D01*
X150230071Y-80700622D01*
X150269056Y-80707865D01*
X150305222Y-80714878D01*
X150337265Y-80721384D01*
X150363880Y-80727109D01*
X150383761Y-80731775D01*
X150395603Y-80735108D01*
X150398007Y-80736126D01*
X150409371Y-80743160D01*
X150409293Y-80923606D01*
X150409175Y-80965465D01*
X150408872Y-81004207D01*
X150408409Y-81038653D01*
X150407810Y-81067623D01*
X150407098Y-81089936D01*
X150406299Y-81104414D01*
X150405505Y-81109800D01*
X150399439Y-81112762D01*
X150385313Y-81116968D01*
X150365022Y-81121930D01*
X150340458Y-81127159D01*
X150331085Y-81128984D01*
X150303383Y-81134256D01*
X150277220Y-81139249D01*
X150255194Y-81143465D01*
X150239906Y-81146408D01*
X150237647Y-81146846D01*
X150219385Y-81150323D01*
X150197381Y-81154408D01*
X150184614Y-81156733D01*
X150139002Y-81165194D01*
X150103013Y-81172413D01*
X150076261Y-81178479D01*
X150058357Y-81183483D01*
X150048912Y-81187514D01*
X150047784Y-81188423D01*
X150044275Y-81194750D01*
X150037736Y-81209032D01*
X150028758Y-81229800D01*
X150017931Y-81255582D01*
X150005847Y-81284906D01*
X149993097Y-81316301D01*
X149980271Y-81348297D01*
X149967959Y-81379421D01*
X149956753Y-81408203D01*
X149947244Y-81433172D01*
X149940022Y-81452855D01*
X149935678Y-81465783D01*
X149934663Y-81470134D01*
X149937445Y-81476313D01*
X149945222Y-81489508D01*
X149957189Y-81508464D01*
X149972545Y-81531926D01*
X149990486Y-81558637D01*
X150002565Y-81576294D01*
X150023944Y-81607336D01*
X150045439Y-81638556D01*
X150065710Y-81668006D01*
X150083416Y-81693740D01*
X150097217Y-81713810D01*
X150100995Y-81719309D01*
X150113564Y-81738140D01*
X150123628Y-81754236D01*
X150129980Y-81765602D01*
X150131582Y-81769852D01*
X150128124Y-81774680D01*
X150118280Y-81785780D01*
X150102847Y-81802321D01*
X150082620Y-81823469D01*
X150058394Y-81848395D01*
X150030966Y-81876265D01*
X150001132Y-81906247D01*
X150000549Y-81906830D01*
X149966356Y-81940950D01*
X149938532Y-81968540D01*
X149916340Y-81990246D01*
X149899046Y-82006717D01*
X149885910Y-82018602D01*
X149876199Y-82026548D01*
X149869174Y-82031203D01*
X149864100Y-82033217D01*
X149860240Y-82033236D01*
X149857867Y-82032411D01*
X149850880Y-82028255D01*
X149836734Y-82019093D01*
X149816563Y-82005684D01*
X149791499Y-81988790D01*
X149762676Y-81969172D01*
X149731227Y-81947591D01*
X149719949Y-81939812D01*
X149687725Y-81917690D01*
X149657592Y-81897266D01*
X149630712Y-81879306D01*
X149608244Y-81864576D01*
X149591349Y-81853841D01*
X149581186Y-81847867D01*
X149579486Y-81847063D01*
X149574294Y-81845190D01*
X149569300Y-81844389D01*
X149563201Y-81845198D01*
X149554693Y-81848155D01*
X149542475Y-81853798D01*
X149525242Y-81862665D01*
X149501692Y-81875295D01*
X149471768Y-81891548D01*
X149454077Y-81900375D01*
X149439168Y-81906374D01*
X149429654Y-81908534D01*
X149428362Y-81908333D01*
X149424659Y-81903120D01*
X149417692Y-81889710D01*
X149407992Y-81869265D01*
X149396092Y-81842949D01*
X149382523Y-81811924D01*
X149367819Y-81777354D01*
X149361562Y-81762368D01*
X149328614Y-81682960D01*
X149298468Y-81610158D01*
X149271240Y-81544248D01*
X149247049Y-81485520D01*
X149226013Y-81434260D01*
X149208249Y-81390758D01*
X149193875Y-81355301D01*
X149183009Y-81328176D01*
X149175769Y-81309673D01*
X149172272Y-81300078D01*
X149171948Y-81298788D01*
X149175824Y-81294119D01*
X149186235Y-81285282D01*
X149201348Y-81273771D01*
X149211091Y-81266781D01*
X149255125Y-81234002D01*
X149291076Y-81202889D01*
X149320429Y-81171862D01*
X149344667Y-81139341D01*
X149365272Y-81103745D01*
X149366640Y-81101051D01*
X149384185Y-81062116D01*
X149396117Y-81024897D01*
X149403171Y-80986071D01*
X149406085Y-80942316D01*
X149406253Y-80922227D01*
X149405918Y-80893945D01*
X149404918Y-80872636D01*
X149402789Y-80855173D01*
X149399069Y-80838432D01*
X149393296Y-80819284D01*
X149389182Y-80806905D01*
X149364712Y-80749261D01*
X149332608Y-80697442D01*
X149293711Y-80651990D01*
X149248857Y-80613446D01*
X149198885Y-80582354D01*
X149144635Y-80559255D01*
X149086945Y-80544691D01*
X149026654Y-80539206D01*
X148978758Y-80541535D01*
X148917292Y-80553141D01*
X148859829Y-80573723D01*
X148807076Y-80602708D01*
X148759738Y-80639523D01*
X148718521Y-80683596D01*
X148684131Y-80734355D01*
X148657273Y-80791227D01*
X148651624Y-80806905D01*
X148644700Y-80828044D01*
X148639983Y-80845164D01*
X148637046Y-80861223D01*
X148635464Y-80879183D01*
X148634810Y-80902003D01*
X148634671Y-80924753D01*
X148635830Y-80967902D01*
X148640015Y-81004553D01*
X148647978Y-81038053D01*
X148660474Y-81071745D01*
X148674568Y-81101736D01*
X148689219Y-81128521D01*
X148705431Y-81152989D01*
X148724382Y-81176340D01*
X148747255Y-81199769D01*
X148775228Y-81224476D01*
X148809483Y-81251657D01*
X148851198Y-81282511D01*
X148856418Y-81286270D01*
X148871021Y-81296764D01*
X148855077Y-81336777D01*
X148851537Y-81345620D01*
X148847346Y-81355991D01*
X148842246Y-81368520D01*
X148835976Y-81383838D01*
X148828276Y-81402573D01*
X148818885Y-81425356D01*
X148807543Y-81452816D01*
X148793991Y-81485584D01*
X148777968Y-81524288D01*
X148759213Y-81569560D01*
X148737467Y-81622029D01*
X148712469Y-81682324D01*
X148683959Y-81751075D01*
X148671951Y-81780031D01*
X148657892Y-81813392D01*
X148644723Y-81843626D01*
X148633025Y-81869484D01*
X148623374Y-81889718D01*
X148616348Y-81903079D01*
X148612530Y-81908318D01*
X148604879Y-81907359D01*
X148591138Y-81902289D01*
X148573925Y-81894120D01*
X148569086Y-81891548D01*
X148538207Y-81874779D01*
X148514902Y-81862291D01*
X148497869Y-81853546D01*
X148485803Y-81848007D01*
X148477403Y-81845136D01*
X148471365Y-81844393D01*
X148466386Y-81845241D01*
X148461367Y-81847062D01*
X148453257Y-81851445D01*
X148438237Y-81860732D01*
X148417670Y-81874034D01*
X148392919Y-81890460D01*
X148365350Y-81909122D01*
X148348683Y-81920566D01*
X148306906Y-81949389D01*
X148272652Y-81972983D01*
X148245139Y-81991868D01*
X148223584Y-82006565D01*
X148207203Y-82017592D01*
X148195215Y-82025470D01*
X148186836Y-82030719D01*
X148181284Y-82033860D01*
X148177776Y-82035411D01*
X148175530Y-82035893D01*
X148175072Y-82035908D01*
X148170299Y-82032451D01*
X148159254Y-82022612D01*
X148142770Y-82007191D01*
X148121681Y-81986984D01*
X148096820Y-81962792D01*
X148069020Y-81935411D01*
X148039291Y-81905817D01*
X148009546Y-81875898D01*
X147982195Y-81848082D01*
X147958035Y-81823203D01*
X147937864Y-81802098D01*
X147922482Y-81785601D01*
X147912685Y-81774547D01*
X147909271Y-81769780D01*
X147911988Y-81763382D01*
X147919335Y-81750731D01*
X147930105Y-81733818D01*
X147939858Y-81719309D01*
X147951911Y-81701774D01*
X147968356Y-81677869D01*
X147987852Y-81649541D01*
X148009058Y-81618738D01*
X148030634Y-81587406D01*
X148038288Y-81576294D01*
X148057429Y-81548197D01*
X148074483Y-81522572D01*
X148088648Y-81500672D01*
X148099120Y-81483754D01*
X148105095Y-81473074D01*
X148106190Y-81470134D01*
X148104355Y-81463152D01*
X148099206Y-81448325D01*
X148091331Y-81427125D01*
X148081324Y-81401022D01*
X148069773Y-81371489D01*
X148057271Y-81339997D01*
X148044408Y-81308016D01*
X148031774Y-81277017D01*
X148019960Y-81248473D01*
X148009558Y-81223855D01*
X148001158Y-81204633D01*
X147995350Y-81192278D01*
X147993069Y-81188423D01*
X147990883Y-81186603D01*
X147987411Y-81184760D01*
X147981867Y-81182731D01*
X147973465Y-81180351D01*
X147961421Y-81177456D01*
X147944948Y-81173880D01*
X147923263Y-81169460D01*
X147895579Y-81164032D01*
X147861111Y-81157429D01*
X147819074Y-81149489D01*
X147768683Y-81140047D01*
X147709152Y-81128938D01*
X147708438Y-81128805D01*
X147679956Y-81123350D01*
X147659912Y-81119039D01*
X147646776Y-81115377D01*
X147639018Y-81111868D01*
X147635108Y-81108017D01*
X147633794Y-81104664D01*
X147633224Y-81097230D01*
X147632776Y-81080933D01*
X147632460Y-81057010D01*
X147632282Y-81026698D01*
X147632251Y-80991235D01*
X147632374Y-80951857D01*
X147632599Y-80917243D01*
X147634008Y-80740535D01*
X147646635Y-80734596D01*
X147654614Y-80732245D01*
X147671222Y-80728404D01*
X147695142Y-80723343D01*
X147725057Y-80717328D01*
X147759647Y-80710629D01*
X147797597Y-80703512D01*
X147815833Y-80700170D01*
X147855057Y-80692968D01*
X147891689Y-80686120D01*
X147924381Y-80679886D01*
X147951781Y-80674529D01*
X147972542Y-80670309D01*
X147985312Y-80667490D01*
X147988082Y-80666751D01*
X147992872Y-80664822D01*
X147997382Y-80661557D01*
X148002161Y-80655912D01*
X148007762Y-80646845D01*
X148014735Y-80633311D01*
X148023632Y-80614268D01*
X148035005Y-80588673D01*
X148049405Y-80555481D01*
X148060432Y-80529843D01*
X148074998Y-80495474D01*
X148088027Y-80463863D01*
X148099030Y-80436266D01*
X148107519Y-80413941D01*
X148113005Y-80398144D01*
X148114998Y-80390133D01*
X148114958Y-80389649D01*
X148111675Y-80383674D01*
X148103319Y-80370408D01*
X148090563Y-80350867D01*
X148074080Y-80326065D01*
X148054546Y-80297020D01*
X148032633Y-80264745D01*
X148013614Y-80236949D01*
X147990224Y-80202773D01*
X147968608Y-80170987D01*
X147949452Y-80142610D01*
X147933436Y-80118664D01*
X147921245Y-80100168D01*
X147913562Y-80088142D01*
X147911115Y-80083854D01*
X147911993Y-80079677D01*
X147916964Y-80072015D01*
X147926523Y-80060328D01*
X147941163Y-80044074D01*
X147961381Y-80022712D01*
X147987669Y-79995702D01*
X148020523Y-79962503D01*
X148038560Y-79944420D01*
X148068551Y-79914572D01*
X148096445Y-79887116D01*
X148121410Y-79862849D01*
X148142613Y-79842568D01*
X148159222Y-79827067D01*
X148170403Y-79817145D01*
X148175324Y-79813598D01*
X148175343Y-79813597D01*
X148181443Y-79816328D01*
X148194195Y-79823845D01*
X148211982Y-79835136D01*
X148233186Y-79849190D01*
X148243564Y-79856251D01*
X148271939Y-79875697D01*
X148303482Y-79897285D01*
X148334387Y-79918413D01*
X148360847Y-79936477D01*
X148361310Y-79936793D01*
X148385790Y-79953523D01*
X148410804Y-79970679D01*
X148433337Y-79986191D01*
X148449697Y-79997515D01*
X148467063Y-80008487D01*
X148482970Y-80016624D01*
X148494390Y-80020411D01*
X148495671Y-80020513D01*
X148504233Y-80018645D01*
X148520437Y-80013365D01*
X148542696Y-80005320D01*
X148569425Y-79995155D01*
X148599037Y-79983516D01*
X148629948Y-79971048D01*
X148660571Y-79958397D01*
X148689320Y-79946209D01*
X148714610Y-79935130D01*
X148734855Y-79925805D01*
X148748469Y-79918879D01*
X148753469Y-79915552D01*
X148758077Y-79906419D01*
X148763525Y-79887960D01*
X148769625Y-79860902D01*
X148775256Y-79831275D01*
X148780923Y-79799736D01*
X148786912Y-79766937D01*
X148792577Y-79736377D01*
X148797274Y-79711557D01*
X148798051Y-79707533D01*
X148803120Y-79681331D01*
X148809154Y-79650013D01*
X148815226Y-79618383D01*
X148818464Y-79601468D01*
X148823302Y-79578300D01*
X148828138Y-79558852D01*
X148832392Y-79545245D01*
X148835344Y-79539674D01*
X148841740Y-79538731D01*
X148856830Y-79537929D01*
X148879208Y-79537269D01*
X148907470Y-79536750D01*
X148940208Y-79536373D01*
X148976016Y-79536136D01*
X149013490Y-79536041D01*
X149051223Y-79536087D01*
G37*
%LPC*%
D14*
X106681000Y-99018000D03*
X110641000Y-99018000D03*
X114601000Y-99018000D03*
X118561000Y-99018000D03*
X122521000Y-99018000D03*
X126481000Y-99018000D03*
X130441000Y-99018000D03*
X134401000Y-99018000D03*
X138361000Y-99018000D03*
X142321000Y-99018000D03*
X146281000Y-99018000D03*
X150241000Y-99018000D03*
D15*
X158461000Y-90118000D03*
D16*
X122111000Y-90718000D03*
D17*
X122111000Y-88178000D03*
X124651000Y-90718000D03*
X124651000Y-88178000D03*
X127191000Y-90718000D03*
X127191000Y-88178000D03*
X129731000Y-90718000D03*
X129731000Y-88178000D03*
X132271000Y-90718000D03*
X132271000Y-88178000D03*
X134811000Y-90718000D03*
X134811000Y-88178000D03*
D18*
X106681000Y-91253000D03*
D19*
X106681000Y-81093000D03*
D20*
X161711000Y-79868000D03*
X155211000Y-79868000D03*
X161711000Y-84368000D03*
X155211000Y-84368000D03*
D21*
X98461000Y-80843000D03*
D22*
X98461000Y-83383000D03*
D15*
X98461000Y-90118000D03*
M02*
