%TF.GenerationSoftware,KiCad,Pcbnew,(6.0.2)*%
%TF.CreationDate,2022-04-04T11:24:22-04:00*%
%TF.ProjectId,xum1541-parallel-adapter,78756d31-3534-4312-9d70-6172616c6c65,1*%
%TF.SameCoordinates,Original*%
%TF.FileFunction,Copper,L2,Bot*%
%TF.FilePolarity,Positive*%
%FSLAX46Y46*%
G04 Gerber Fmt 4.6, Leading zero omitted, Abs format (unit mm)*
G04 Created by KiCad (PCBNEW (6.0.2)) date 2022-04-04 11:24:22*
%MOMM*%
%LPD*%
G01*
G04 APERTURE LIST*
%TA.AperFunction,SMDPad,CuDef*%
%ADD10R,2.200000X6.000000*%
%TD*%
%TA.AperFunction,ComponentPad*%
%ADD11C,6.400000*%
%TD*%
%TA.AperFunction,ComponentPad*%
%ADD12R,1.700000X1.700000*%
%TD*%
%TA.AperFunction,ComponentPad*%
%ADD13O,1.700000X1.700000*%
%TD*%
%TA.AperFunction,ComponentPad*%
%ADD14C,1.600000*%
%TD*%
%TA.AperFunction,ComponentPad*%
%ADD15O,1.600000X1.600000*%
%TD*%
%TA.AperFunction,ComponentPad*%
%ADD16C,2.000000*%
%TD*%
%TA.AperFunction,ComponentPad*%
%ADD17R,1.800000X1.800000*%
%TD*%
%TA.AperFunction,ComponentPad*%
%ADD18C,1.800000*%
%TD*%
%TA.AperFunction,Conductor*%
%ADD19C,0.254000*%
%TD*%
G04 APERTURE END LIST*
D10*
X106681000Y-99018000D03*
X110641000Y-99018000D03*
X114601000Y-99018000D03*
X118561000Y-99018000D03*
X122521000Y-99018000D03*
X126481000Y-99018000D03*
X130441000Y-99018000D03*
X134401000Y-99018000D03*
X138361000Y-99018000D03*
X142321000Y-99018000D03*
X146281000Y-99018000D03*
X150241000Y-99018000D03*
D11*
X158461000Y-90118000D03*
D12*
X122111000Y-90718000D03*
D13*
X122111000Y-88178000D03*
X124651000Y-90718000D03*
X124651000Y-88178000D03*
X127191000Y-90718000D03*
X127191000Y-88178000D03*
X129731000Y-90718000D03*
X129731000Y-88178000D03*
X132271000Y-90718000D03*
X132271000Y-88178000D03*
X134811000Y-90718000D03*
X134811000Y-88178000D03*
D14*
X106681000Y-91253000D03*
D15*
X106681000Y-81093000D03*
D16*
X161711000Y-79868000D03*
X155211000Y-79868000D03*
X161711000Y-84368000D03*
X155211000Y-84368000D03*
D17*
X98461000Y-80843000D03*
D18*
X98461000Y-83383000D03*
D11*
X98461000Y-90118000D03*
D19*
X98461000Y-81093000D02*
X106681000Y-81093000D01*
X124651000Y-90718000D02*
X124651000Y-92128000D01*
X124651000Y-92128000D02*
X124397201Y-92381799D01*
X114601000Y-92728000D02*
X114601000Y-99018000D01*
X114947201Y-92381799D02*
X114601000Y-92728000D01*
X124397201Y-92381799D02*
X114947201Y-92381799D01*
X125920999Y-89447999D02*
X125920999Y-93058001D01*
X125920999Y-93058001D02*
X125656401Y-93322599D01*
X125656401Y-93322599D02*
X118856401Y-93322599D01*
X118856401Y-93322599D02*
X118561000Y-93618000D01*
X118561000Y-93618000D02*
X118561000Y-99018000D01*
X124651000Y-88178000D02*
X125920999Y-89447999D01*
X122521000Y-99018000D02*
X122521000Y-94458000D01*
X127191000Y-94038000D02*
X127191000Y-90718000D01*
X122521000Y-94458000D02*
X122715601Y-94263399D01*
X122715601Y-94263399D02*
X126965601Y-94263399D01*
X126965601Y-94263399D02*
X127191000Y-94038000D01*
X127191000Y-88178000D02*
X128460999Y-89447999D01*
X128460999Y-94968001D02*
X128224801Y-95204199D01*
X128224801Y-95204199D02*
X126674801Y-95204199D01*
X128460999Y-89447999D02*
X128460999Y-94968001D01*
X126481000Y-95398000D02*
X126481000Y-99018000D01*
X126674801Y-95204199D02*
X126481000Y-95398000D01*
X129731000Y-95099199D02*
X129836000Y-95204199D01*
X130441000Y-95309199D02*
X130336000Y-95204199D01*
X130441000Y-99018000D02*
X130441000Y-95309199D01*
X129731000Y-90718000D02*
X129731000Y-95099199D01*
X130336000Y-95204199D02*
X129836000Y-95204199D01*
X134401000Y-94508000D02*
X134156399Y-94263399D01*
X131000999Y-94007999D02*
X131000999Y-89447999D01*
X134156399Y-94263399D02*
X131256399Y-94263399D01*
X131000999Y-89447999D02*
X129731000Y-88178000D01*
X131256399Y-94263399D02*
X131000999Y-94007999D01*
X134401000Y-99018000D02*
X134401000Y-94508000D01*
X132515599Y-93322599D02*
X138115599Y-93322599D01*
X138115599Y-93322599D02*
X138361000Y-93568000D01*
X132271000Y-90718000D02*
X132271000Y-93078000D01*
X138361000Y-93568000D02*
X138361000Y-99018000D01*
X132271000Y-93078000D02*
X132515599Y-93322599D01*
X142321000Y-99018000D02*
X142321000Y-92678000D01*
X142321000Y-92678000D02*
X142024799Y-92381799D01*
X142024799Y-92381799D02*
X133824799Y-92381799D01*
X133824799Y-92381799D02*
X133540999Y-92097999D01*
X133540999Y-92097999D02*
X133540999Y-89447999D01*
X133540999Y-89447999D02*
X132271000Y-88178000D01*
X110641000Y-99018000D02*
X110641000Y-86188000D01*
X136861000Y-86118000D02*
X136861000Y-90418000D01*
X111011000Y-85818000D02*
X136561000Y-85818000D01*
X136861000Y-90418000D02*
X136561000Y-90718000D01*
X136561000Y-90718000D02*
X134811000Y-90718000D01*
X136561000Y-85818000D02*
X136861000Y-86118000D01*
X110641000Y-86188000D02*
X111011000Y-85818000D01*
%TA.AperFunction,Conductor*%
G36*
X163445190Y-77819590D02*
G01*
X163452973Y-77821379D01*
X163460642Y-77823143D01*
X163467507Y-77821589D01*
X163469503Y-77821593D01*
X163486647Y-77820526D01*
X163497196Y-77821565D01*
X163610948Y-77832769D01*
X163622957Y-77835157D01*
X163738235Y-77870126D01*
X163761259Y-77877110D01*
X163772578Y-77881799D01*
X163900028Y-77949923D01*
X163910215Y-77956730D01*
X164021927Y-78048409D01*
X164030591Y-78057073D01*
X164122270Y-78168785D01*
X164129077Y-78178972D01*
X164197201Y-78306422D01*
X164201890Y-78317741D01*
X164235852Y-78429698D01*
X164243842Y-78456039D01*
X164246232Y-78468056D01*
X164258431Y-78591920D01*
X164257441Y-78607399D01*
X164257435Y-78610780D01*
X164255857Y-78617642D01*
X164257410Y-78624505D01*
X164257410Y-78624507D01*
X164259459Y-78633561D01*
X164261000Y-78647354D01*
X164261000Y-101588184D01*
X164259410Y-101602190D01*
X164255857Y-101617642D01*
X164257411Y-101624507D01*
X164257407Y-101626503D01*
X164258474Y-101643647D01*
X164246232Y-101767944D01*
X164243843Y-101779957D01*
X164208874Y-101895235D01*
X164201890Y-101918259D01*
X164197201Y-101929578D01*
X164129077Y-102057028D01*
X164122270Y-102067215D01*
X164030591Y-102178927D01*
X164021927Y-102187591D01*
X163910215Y-102279270D01*
X163900028Y-102286077D01*
X163772578Y-102354201D01*
X163761258Y-102358890D01*
X163622957Y-102400843D01*
X163610948Y-102403231D01*
X163530093Y-102411195D01*
X163487080Y-102415431D01*
X163471601Y-102414441D01*
X163468220Y-102414435D01*
X163461358Y-102412857D01*
X163454495Y-102414410D01*
X163454493Y-102414410D01*
X163445439Y-102416459D01*
X163431646Y-102418000D01*
X161948500Y-102418000D01*
X161904306Y-102399694D01*
X161886000Y-102355500D01*
X161886000Y-100280500D01*
X161904306Y-100236306D01*
X161948500Y-100218000D01*
X162800123Y-100218000D01*
X162844411Y-100218039D01*
X162844412Y-100218039D01*
X162851449Y-100218045D01*
X162857794Y-100214998D01*
X162857795Y-100214998D01*
X162866034Y-100211042D01*
X162879188Y-100206448D01*
X162879776Y-100206314D01*
X162894962Y-100202850D01*
X162907435Y-100192911D01*
X162919329Y-100185450D01*
X162933705Y-100178547D01*
X162938102Y-100173049D01*
X162943813Y-100165908D01*
X162953673Y-100156065D01*
X162953989Y-100155813D01*
X162966323Y-100145985D01*
X162969380Y-100139648D01*
X162969382Y-100139645D01*
X162973251Y-100131622D01*
X162980735Y-100119738D01*
X162980978Y-100119435D01*
X162990694Y-100107285D01*
X162992271Y-100100428D01*
X162992273Y-100100423D01*
X162994322Y-100091511D01*
X162998938Y-100078366D01*
X162999098Y-100078034D01*
X163005965Y-100063798D01*
X163005985Y-100040799D01*
X163005986Y-100040783D01*
X163006000Y-100040723D01*
X163006000Y-100023877D01*
X163006045Y-99972551D01*
X163006007Y-99972472D01*
X163006000Y-99972407D01*
X163006000Y-97023877D01*
X163006039Y-96979589D01*
X163006039Y-96979588D01*
X163006045Y-96972551D01*
X163002834Y-96965864D01*
X162999042Y-96957966D01*
X162994448Y-96944812D01*
X162992415Y-96935901D01*
X162990850Y-96929038D01*
X162980911Y-96916565D01*
X162973450Y-96904671D01*
X162966547Y-96890295D01*
X162961049Y-96885898D01*
X162953908Y-96880187D01*
X162944065Y-96870327D01*
X162943878Y-96870092D01*
X162933985Y-96857677D01*
X162927648Y-96854620D01*
X162927645Y-96854618D01*
X162919622Y-96850749D01*
X162907738Y-96843265D01*
X162900782Y-96837702D01*
X162895285Y-96833306D01*
X162888428Y-96831729D01*
X162888423Y-96831727D01*
X162879511Y-96829678D01*
X162866366Y-96825062D01*
X162866150Y-96824958D01*
X162851798Y-96818035D01*
X162830114Y-96818016D01*
X162828799Y-96818015D01*
X162828783Y-96818014D01*
X162828723Y-96818000D01*
X162811877Y-96818000D01*
X162760808Y-96817955D01*
X162760551Y-96817955D01*
X162760472Y-96817993D01*
X162760407Y-96818000D01*
X156811877Y-96818000D01*
X156767589Y-96817961D01*
X156767588Y-96817961D01*
X156760551Y-96817955D01*
X156754206Y-96821002D01*
X156754205Y-96821002D01*
X156745966Y-96824958D01*
X156732812Y-96829552D01*
X156717038Y-96833150D01*
X156711532Y-96837537D01*
X156711533Y-96837537D01*
X156704565Y-96843089D01*
X156692672Y-96850549D01*
X156678295Y-96857453D01*
X156673899Y-96862950D01*
X156673898Y-96862951D01*
X156668187Y-96870092D01*
X156658327Y-96879935D01*
X156645677Y-96890015D01*
X156642620Y-96896352D01*
X156642618Y-96896355D01*
X156638749Y-96904378D01*
X156631266Y-96916261D01*
X156621306Y-96928715D01*
X156619729Y-96935572D01*
X156619727Y-96935577D01*
X156617678Y-96944489D01*
X156613062Y-96957634D01*
X156606035Y-96972202D01*
X156606029Y-96979239D01*
X156606015Y-96995201D01*
X156606014Y-96995217D01*
X156606000Y-96995277D01*
X156606000Y-97012123D01*
X156605955Y-97063449D01*
X156605993Y-97063528D01*
X156606000Y-97063593D01*
X156606000Y-100012123D01*
X156605955Y-100063449D01*
X156609002Y-100069794D01*
X156609002Y-100069795D01*
X156612958Y-100078034D01*
X156617552Y-100091188D01*
X156621150Y-100106962D01*
X156625537Y-100112467D01*
X156631089Y-100119435D01*
X156638549Y-100131328D01*
X156645453Y-100145705D01*
X156650950Y-100150101D01*
X156650951Y-100150102D01*
X156658092Y-100155813D01*
X156667935Y-100165673D01*
X156678015Y-100178323D01*
X156684352Y-100181380D01*
X156684355Y-100181382D01*
X156692378Y-100185251D01*
X156704261Y-100192734D01*
X156716715Y-100202694D01*
X156723572Y-100204271D01*
X156723577Y-100204273D01*
X156732489Y-100206322D01*
X156745634Y-100210938D01*
X156760202Y-100217965D01*
X156781886Y-100217984D01*
X156783201Y-100217985D01*
X156783217Y-100217986D01*
X156783277Y-100218000D01*
X156800123Y-100218000D01*
X156851192Y-100218045D01*
X156851449Y-100218045D01*
X156851528Y-100218007D01*
X156851593Y-100218000D01*
X157663500Y-100218000D01*
X157707694Y-100236306D01*
X157726000Y-100280500D01*
X157726000Y-102355500D01*
X157707694Y-102399694D01*
X157663500Y-102418000D01*
X99258500Y-102418000D01*
X99214306Y-102399694D01*
X99196000Y-102355500D01*
X99196000Y-102039945D01*
X105327001Y-102039945D01*
X105327600Y-102046030D01*
X105340536Y-102111068D01*
X105345157Y-102122224D01*
X105394457Y-102196007D01*
X105402993Y-102204543D01*
X105476775Y-102253843D01*
X105487933Y-102258464D01*
X105552970Y-102271401D01*
X105559054Y-102272000D01*
X106541569Y-102272000D01*
X106550359Y-102268359D01*
X106554000Y-102259569D01*
X106554000Y-102259568D01*
X106808000Y-102259568D01*
X106811641Y-102268358D01*
X106820431Y-102271999D01*
X107802945Y-102271999D01*
X107809030Y-102271400D01*
X107874068Y-102258464D01*
X107885224Y-102253843D01*
X107959007Y-102204543D01*
X107967543Y-102196007D01*
X108016843Y-102122225D01*
X108021464Y-102111067D01*
X108034401Y-102046030D01*
X108035000Y-102039946D01*
X108035000Y-102030558D01*
X109413500Y-102030558D01*
X109414099Y-102033569D01*
X109418766Y-102057028D01*
X109420898Y-102067748D01*
X109449078Y-102109922D01*
X109491252Y-102138102D01*
X109497285Y-102139302D01*
X109497287Y-102139303D01*
X109523384Y-102144494D01*
X109528442Y-102145500D01*
X111753558Y-102145500D01*
X111758616Y-102144494D01*
X111784713Y-102139303D01*
X111784715Y-102139302D01*
X111790748Y-102138102D01*
X111832922Y-102109922D01*
X111861102Y-102067748D01*
X111863235Y-102057028D01*
X111867901Y-102033569D01*
X111868500Y-102030558D01*
X111868500Y-96005442D01*
X111866633Y-95996055D01*
X111862303Y-95974287D01*
X111862302Y-95974285D01*
X111861102Y-95968252D01*
X111832922Y-95926078D01*
X111790748Y-95897898D01*
X111784715Y-95896698D01*
X111784713Y-95896697D01*
X111756569Y-95891099D01*
X111753558Y-95890500D01*
X110958000Y-95890500D01*
X110913806Y-95872194D01*
X110895500Y-95828000D01*
X110895500Y-91580558D01*
X121133500Y-91580558D01*
X121134099Y-91583569D01*
X121135833Y-91592284D01*
X121140898Y-91617748D01*
X121169078Y-91659922D01*
X121211252Y-91688102D01*
X121217285Y-91689302D01*
X121217287Y-91689303D01*
X121243384Y-91694494D01*
X121248442Y-91695500D01*
X122973558Y-91695500D01*
X122978616Y-91694494D01*
X123004713Y-91689303D01*
X123004715Y-91689302D01*
X123010748Y-91688102D01*
X123052922Y-91659922D01*
X123081102Y-91617748D01*
X123086168Y-91592284D01*
X123087901Y-91583569D01*
X123088500Y-91580558D01*
X123088500Y-89855442D01*
X123081102Y-89818252D01*
X123052922Y-89776078D01*
X123010748Y-89747898D01*
X123004715Y-89746698D01*
X123004713Y-89746697D01*
X122976569Y-89741099D01*
X122973558Y-89740500D01*
X121248442Y-89740500D01*
X121245431Y-89741099D01*
X121217287Y-89746697D01*
X121217285Y-89746698D01*
X121211252Y-89747898D01*
X121169078Y-89776078D01*
X121140898Y-89818252D01*
X121133500Y-89855442D01*
X121133500Y-91580558D01*
X110895500Y-91580558D01*
X110895500Y-88318471D01*
X121013759Y-88318471D01*
X121015732Y-88348581D01*
X121016626Y-88354224D01*
X121065159Y-88545323D01*
X121067066Y-88550707D01*
X121149612Y-88729761D01*
X121152468Y-88734708D01*
X121266257Y-88895717D01*
X121269970Y-88900065D01*
X121411203Y-89037647D01*
X121415636Y-89041236D01*
X121579576Y-89150778D01*
X121584598Y-89153504D01*
X121765744Y-89231331D01*
X121771183Y-89233098D01*
X121963492Y-89276614D01*
X121969141Y-89277357D01*
X121971577Y-89277453D01*
X121979827Y-89274409D01*
X121984000Y-89264869D01*
X121984000Y-89262779D01*
X122238000Y-89262779D01*
X122241641Y-89271569D01*
X122247208Y-89273875D01*
X122366992Y-89256507D01*
X122372541Y-89255175D01*
X122559247Y-89191796D01*
X122564460Y-89189475D01*
X122736492Y-89093133D01*
X122741194Y-89089902D01*
X122892793Y-88963819D01*
X122896819Y-88959793D01*
X123022902Y-88808194D01*
X123026133Y-88803492D01*
X123122475Y-88631460D01*
X123124796Y-88626247D01*
X123188175Y-88439541D01*
X123189507Y-88433992D01*
X123206426Y-88317304D01*
X123204084Y-88308082D01*
X123198904Y-88305000D01*
X122250431Y-88305000D01*
X122241641Y-88308641D01*
X122238000Y-88317431D01*
X122238000Y-89262779D01*
X121984000Y-89262779D01*
X121984000Y-88317431D01*
X121980359Y-88308641D01*
X121971569Y-88305000D01*
X121025307Y-88305000D01*
X121017632Y-88308179D01*
X121013759Y-88318471D01*
X110895500Y-88318471D01*
X110895500Y-88038655D01*
X121015707Y-88038655D01*
X121018290Y-88047811D01*
X121023984Y-88051000D01*
X121971569Y-88051000D01*
X121980359Y-88047359D01*
X121984000Y-88038569D01*
X122238000Y-88038569D01*
X122241641Y-88047359D01*
X122250431Y-88051000D01*
X123195629Y-88051000D01*
X123204419Y-88047359D01*
X123207125Y-88040826D01*
X123201426Y-87978805D01*
X123200385Y-87973187D01*
X123146867Y-87783424D01*
X123144824Y-87778102D01*
X123057616Y-87601261D01*
X123054630Y-87596389D01*
X122936664Y-87438414D01*
X122932841Y-87434169D01*
X122788060Y-87300334D01*
X122783525Y-87296854D01*
X122616774Y-87191642D01*
X122611696Y-87189054D01*
X122428553Y-87115988D01*
X122423087Y-87114369D01*
X122250193Y-87079978D01*
X122240861Y-87081834D01*
X122238000Y-87086117D01*
X122238000Y-88038569D01*
X121984000Y-88038569D01*
X121984000Y-87091994D01*
X121980359Y-87083204D01*
X121975214Y-87081073D01*
X121826870Y-87106563D01*
X121821347Y-87108042D01*
X121636367Y-87176285D01*
X121631218Y-87178741D01*
X121461770Y-87279552D01*
X121457148Y-87282911D01*
X121308910Y-87412912D01*
X121304983Y-87417050D01*
X121182913Y-87571895D01*
X121179809Y-87576674D01*
X121087998Y-87751177D01*
X121085819Y-87756437D01*
X121027346Y-87944752D01*
X121026162Y-87950322D01*
X121015707Y-88038655D01*
X110895500Y-88038655D01*
X110895500Y-86319306D01*
X110913806Y-86275112D01*
X111098112Y-86090806D01*
X111142306Y-86072500D01*
X136429694Y-86072500D01*
X136473888Y-86090806D01*
X136588194Y-86205112D01*
X136606500Y-86249306D01*
X136606500Y-90286694D01*
X136588194Y-90330888D01*
X136473888Y-90445194D01*
X136429694Y-90463500D01*
X135801703Y-90463500D01*
X135757509Y-90445194D01*
X135741871Y-90419065D01*
X135741550Y-90418000D01*
X135719117Y-90343701D01*
X135651448Y-90216434D01*
X135630555Y-90177140D01*
X135630553Y-90177137D01*
X135629120Y-90174442D01*
X135507962Y-90025887D01*
X135360256Y-89903694D01*
X135191629Y-89812518D01*
X135141189Y-89796904D01*
X135011420Y-89756734D01*
X135011417Y-89756733D01*
X135008505Y-89755832D01*
X135005472Y-89755513D01*
X135005471Y-89755513D01*
X134933018Y-89747898D01*
X134817857Y-89735794D01*
X134814824Y-89736070D01*
X134814820Y-89736070D01*
X134741357Y-89742756D01*
X134626948Y-89753168D01*
X134443050Y-89807292D01*
X134273167Y-89896105D01*
X134123770Y-90016223D01*
X134000549Y-90163072D01*
X133971213Y-90216434D01*
X133912768Y-90322745D01*
X133875436Y-90352653D01*
X133827889Y-90347404D01*
X133797981Y-90310072D01*
X133795499Y-90292635D01*
X133795499Y-89479221D01*
X133796700Y-89467028D01*
X133799284Y-89454037D01*
X133800485Y-89447999D01*
X133780733Y-89348698D01*
X133738683Y-89285766D01*
X133738682Y-89285765D01*
X133724483Y-89264515D01*
X133719365Y-89261095D01*
X133708349Y-89253734D01*
X133698879Y-89245962D01*
X133152026Y-88699109D01*
X133133720Y-88654915D01*
X133141876Y-88624044D01*
X133168312Y-88577509D01*
X133228821Y-88395612D01*
X133233542Y-88358247D01*
X133238567Y-88318471D01*
X133713759Y-88318471D01*
X133715732Y-88348581D01*
X133716626Y-88354224D01*
X133765159Y-88545323D01*
X133767066Y-88550707D01*
X133849612Y-88729761D01*
X133852468Y-88734708D01*
X133966257Y-88895717D01*
X133969970Y-88900065D01*
X134111203Y-89037647D01*
X134115636Y-89041236D01*
X134279576Y-89150778D01*
X134284598Y-89153504D01*
X134465744Y-89231331D01*
X134471183Y-89233098D01*
X134663492Y-89276614D01*
X134669141Y-89277357D01*
X134671577Y-89277453D01*
X134679827Y-89274409D01*
X134684000Y-89264869D01*
X134684000Y-89262779D01*
X134938000Y-89262779D01*
X134941641Y-89271569D01*
X134947208Y-89273875D01*
X135066992Y-89256507D01*
X135072541Y-89255175D01*
X135259247Y-89191796D01*
X135264460Y-89189475D01*
X135436492Y-89093133D01*
X135441194Y-89089902D01*
X135592793Y-88963819D01*
X135596819Y-88959793D01*
X135722902Y-88808194D01*
X135726133Y-88803492D01*
X135822475Y-88631460D01*
X135824796Y-88626247D01*
X135888175Y-88439541D01*
X135889507Y-88433992D01*
X135906426Y-88317304D01*
X135904084Y-88308082D01*
X135898904Y-88305000D01*
X134950431Y-88305000D01*
X134941641Y-88308641D01*
X134938000Y-88317431D01*
X134938000Y-89262779D01*
X134684000Y-89262779D01*
X134684000Y-88317431D01*
X134680359Y-88308641D01*
X134671569Y-88305000D01*
X133725307Y-88305000D01*
X133717632Y-88308179D01*
X133713759Y-88318471D01*
X133238567Y-88318471D01*
X133252627Y-88207167D01*
X133252627Y-88207166D01*
X133252847Y-88205425D01*
X133253230Y-88178000D01*
X133251886Y-88164286D01*
X133239568Y-88038655D01*
X133715707Y-88038655D01*
X133718290Y-88047811D01*
X133723984Y-88051000D01*
X134671569Y-88051000D01*
X134680359Y-88047359D01*
X134684000Y-88038569D01*
X134938000Y-88038569D01*
X134941641Y-88047359D01*
X134950431Y-88051000D01*
X135895629Y-88051000D01*
X135904419Y-88047359D01*
X135907125Y-88040826D01*
X135901426Y-87978805D01*
X135900385Y-87973187D01*
X135846867Y-87783424D01*
X135844824Y-87778102D01*
X135757616Y-87601261D01*
X135754630Y-87596389D01*
X135636664Y-87438414D01*
X135632841Y-87434169D01*
X135488060Y-87300334D01*
X135483525Y-87296854D01*
X135316774Y-87191642D01*
X135311696Y-87189054D01*
X135128553Y-87115988D01*
X135123087Y-87114369D01*
X134950193Y-87079978D01*
X134940861Y-87081834D01*
X134938000Y-87086117D01*
X134938000Y-88038569D01*
X134684000Y-88038569D01*
X134684000Y-87091994D01*
X134680359Y-87083204D01*
X134675214Y-87081073D01*
X134526870Y-87106563D01*
X134521347Y-87108042D01*
X134336367Y-87176285D01*
X134331218Y-87178741D01*
X134161770Y-87279552D01*
X134157148Y-87282911D01*
X134008910Y-87412912D01*
X134004983Y-87417050D01*
X133882913Y-87571895D01*
X133879809Y-87576674D01*
X133787998Y-87751177D01*
X133785819Y-87756437D01*
X133727346Y-87944752D01*
X133726162Y-87950322D01*
X133715707Y-88038655D01*
X133239568Y-88038655D01*
X133234822Y-87990257D01*
X133234524Y-87987217D01*
X133179117Y-87803701D01*
X133089120Y-87634442D01*
X132967962Y-87485887D01*
X132820256Y-87363694D01*
X132651629Y-87272518D01*
X132577027Y-87249425D01*
X132471420Y-87216734D01*
X132471417Y-87216733D01*
X132468505Y-87215832D01*
X132465472Y-87215513D01*
X132465471Y-87215513D01*
X132417787Y-87210501D01*
X132277857Y-87195794D01*
X132274824Y-87196070D01*
X132274820Y-87196070D01*
X132192118Y-87203597D01*
X132086948Y-87213168D01*
X131903050Y-87267292D01*
X131733167Y-87356105D01*
X131583770Y-87476223D01*
X131460549Y-87623072D01*
X131404277Y-87725430D01*
X131375321Y-87778102D01*
X131368198Y-87791058D01*
X131310234Y-87973783D01*
X131309894Y-87976815D01*
X131301931Y-88047811D01*
X131288866Y-88164286D01*
X131292321Y-88205425D01*
X131304342Y-88348581D01*
X131304907Y-88355311D01*
X131357746Y-88539583D01*
X131359141Y-88542297D01*
X131424080Y-88668655D01*
X131445370Y-88710082D01*
X131564443Y-88860314D01*
X131710428Y-88984557D01*
X131713092Y-88986046D01*
X131713095Y-88986048D01*
X131821832Y-89046819D01*
X131877765Y-89078079D01*
X131880669Y-89079023D01*
X131880670Y-89079023D01*
X132057168Y-89136371D01*
X132057173Y-89136372D01*
X132060081Y-89137317D01*
X132250430Y-89160015D01*
X132253472Y-89159781D01*
X132253475Y-89159781D01*
X132438514Y-89145543D01*
X132438519Y-89145542D01*
X132441562Y-89145308D01*
X132470182Y-89137317D01*
X132623260Y-89094577D01*
X132623264Y-89094576D01*
X132626199Y-89093756D01*
X132633829Y-89089902D01*
X132719121Y-89046819D01*
X132766821Y-89043233D01*
X132791494Y-89058412D01*
X133268193Y-89535110D01*
X133286499Y-89579304D01*
X133286499Y-90294984D01*
X133268193Y-90339178D01*
X133223999Y-90357484D01*
X133179805Y-90339178D01*
X133168815Y-90324326D01*
X133090555Y-90177140D01*
X133090553Y-90177137D01*
X133089120Y-90174442D01*
X132967962Y-90025887D01*
X132820256Y-89903694D01*
X132651629Y-89812518D01*
X132601189Y-89796904D01*
X132471420Y-89756734D01*
X132471417Y-89756733D01*
X132468505Y-89755832D01*
X132465472Y-89755513D01*
X132465471Y-89755513D01*
X132393018Y-89747898D01*
X132277857Y-89735794D01*
X132274824Y-89736070D01*
X132274820Y-89736070D01*
X132201357Y-89742756D01*
X132086948Y-89753168D01*
X131903050Y-89807292D01*
X131733167Y-89896105D01*
X131583770Y-90016223D01*
X131460549Y-90163072D01*
X131431213Y-90216434D01*
X131372768Y-90322745D01*
X131335436Y-90352653D01*
X131287889Y-90347404D01*
X131257981Y-90310072D01*
X131255499Y-90292635D01*
X131255499Y-89479221D01*
X131256700Y-89467028D01*
X131259284Y-89454037D01*
X131260485Y-89447999D01*
X131240733Y-89348698D01*
X131198683Y-89285766D01*
X131198682Y-89285765D01*
X131184483Y-89264515D01*
X131179365Y-89261095D01*
X131168349Y-89253734D01*
X131158879Y-89245962D01*
X130612026Y-88699109D01*
X130593720Y-88654915D01*
X130601876Y-88624044D01*
X130628312Y-88577509D01*
X130688821Y-88395612D01*
X130693542Y-88358247D01*
X130712627Y-88207167D01*
X130712627Y-88207166D01*
X130712847Y-88205425D01*
X130713230Y-88178000D01*
X130711886Y-88164286D01*
X130694822Y-87990257D01*
X130694524Y-87987217D01*
X130639117Y-87803701D01*
X130549120Y-87634442D01*
X130427962Y-87485887D01*
X130280256Y-87363694D01*
X130111629Y-87272518D01*
X130037027Y-87249425D01*
X129931420Y-87216734D01*
X129931417Y-87216733D01*
X129928505Y-87215832D01*
X129925472Y-87215513D01*
X129925471Y-87215513D01*
X129877787Y-87210501D01*
X129737857Y-87195794D01*
X129734824Y-87196070D01*
X129734820Y-87196070D01*
X129652118Y-87203597D01*
X129546948Y-87213168D01*
X129363050Y-87267292D01*
X129193167Y-87356105D01*
X129043770Y-87476223D01*
X128920549Y-87623072D01*
X128864277Y-87725430D01*
X128835321Y-87778102D01*
X128828198Y-87791058D01*
X128770234Y-87973783D01*
X128769894Y-87976815D01*
X128761931Y-88047811D01*
X128748866Y-88164286D01*
X128752321Y-88205425D01*
X128764342Y-88348581D01*
X128764907Y-88355311D01*
X128817746Y-88539583D01*
X128819141Y-88542297D01*
X128884080Y-88668655D01*
X128905370Y-88710082D01*
X129024443Y-88860314D01*
X129170428Y-88984557D01*
X129173092Y-88986046D01*
X129173095Y-88986048D01*
X129281832Y-89046819D01*
X129337765Y-89078079D01*
X129340669Y-89079023D01*
X129340670Y-89079023D01*
X129517168Y-89136371D01*
X129517173Y-89136372D01*
X129520081Y-89137317D01*
X129710430Y-89160015D01*
X129713472Y-89159781D01*
X129713475Y-89159781D01*
X129898514Y-89145543D01*
X129898519Y-89145542D01*
X129901562Y-89145308D01*
X129930182Y-89137317D01*
X130083260Y-89094577D01*
X130083264Y-89094576D01*
X130086199Y-89093756D01*
X130093829Y-89089902D01*
X130179121Y-89046819D01*
X130226821Y-89043233D01*
X130251494Y-89058412D01*
X130728193Y-89535110D01*
X130746499Y-89579304D01*
X130746499Y-90294984D01*
X130728193Y-90339178D01*
X130683999Y-90357484D01*
X130639805Y-90339178D01*
X130628815Y-90324326D01*
X130550555Y-90177140D01*
X130550553Y-90177137D01*
X130549120Y-90174442D01*
X130427962Y-90025887D01*
X130280256Y-89903694D01*
X130111629Y-89812518D01*
X130061189Y-89796904D01*
X129931420Y-89756734D01*
X129931417Y-89756733D01*
X129928505Y-89755832D01*
X129925472Y-89755513D01*
X129925471Y-89755513D01*
X129853018Y-89747898D01*
X129737857Y-89735794D01*
X129734824Y-89736070D01*
X129734820Y-89736070D01*
X129661357Y-89742756D01*
X129546948Y-89753168D01*
X129363050Y-89807292D01*
X129193167Y-89896105D01*
X129043770Y-90016223D01*
X128920549Y-90163072D01*
X128891213Y-90216434D01*
X128832768Y-90322745D01*
X128795436Y-90352653D01*
X128747889Y-90347404D01*
X128717981Y-90310072D01*
X128715499Y-90292635D01*
X128715499Y-89479221D01*
X128716700Y-89467028D01*
X128719284Y-89454037D01*
X128720485Y-89447999D01*
X128700733Y-89348698D01*
X128658683Y-89285766D01*
X128658682Y-89285765D01*
X128644483Y-89264515D01*
X128639365Y-89261095D01*
X128628349Y-89253734D01*
X128618879Y-89245962D01*
X128072026Y-88699109D01*
X128053720Y-88654915D01*
X128061876Y-88624044D01*
X128088312Y-88577509D01*
X128148821Y-88395612D01*
X128153542Y-88358247D01*
X128172627Y-88207167D01*
X128172627Y-88207166D01*
X128172847Y-88205425D01*
X128173230Y-88178000D01*
X128171886Y-88164286D01*
X128154822Y-87990257D01*
X128154524Y-87987217D01*
X128099117Y-87803701D01*
X128009120Y-87634442D01*
X127887962Y-87485887D01*
X127740256Y-87363694D01*
X127571629Y-87272518D01*
X127497027Y-87249425D01*
X127391420Y-87216734D01*
X127391417Y-87216733D01*
X127388505Y-87215832D01*
X127385472Y-87215513D01*
X127385471Y-87215513D01*
X127337787Y-87210501D01*
X127197857Y-87195794D01*
X127194824Y-87196070D01*
X127194820Y-87196070D01*
X127112118Y-87203597D01*
X127006948Y-87213168D01*
X126823050Y-87267292D01*
X126653167Y-87356105D01*
X126503770Y-87476223D01*
X126380549Y-87623072D01*
X126324277Y-87725430D01*
X126295321Y-87778102D01*
X126288198Y-87791058D01*
X126230234Y-87973783D01*
X126229894Y-87976815D01*
X126221931Y-88047811D01*
X126208866Y-88164286D01*
X126212321Y-88205425D01*
X126224342Y-88348581D01*
X126224907Y-88355311D01*
X126277746Y-88539583D01*
X126279141Y-88542297D01*
X126344080Y-88668655D01*
X126365370Y-88710082D01*
X126484443Y-88860314D01*
X126630428Y-88984557D01*
X126633092Y-88986046D01*
X126633095Y-88986048D01*
X126741832Y-89046819D01*
X126797765Y-89078079D01*
X126800669Y-89079023D01*
X126800670Y-89079023D01*
X126977168Y-89136371D01*
X126977173Y-89136372D01*
X126980081Y-89137317D01*
X127170430Y-89160015D01*
X127173472Y-89159781D01*
X127173475Y-89159781D01*
X127358514Y-89145543D01*
X127358519Y-89145542D01*
X127361562Y-89145308D01*
X127390182Y-89137317D01*
X127543260Y-89094577D01*
X127543264Y-89094576D01*
X127546199Y-89093756D01*
X127553829Y-89089902D01*
X127639121Y-89046819D01*
X127686821Y-89043233D01*
X127711494Y-89058412D01*
X128188193Y-89535110D01*
X128206499Y-89579304D01*
X128206499Y-90294984D01*
X128188193Y-90339178D01*
X128143999Y-90357484D01*
X128099805Y-90339178D01*
X128088815Y-90324326D01*
X128010555Y-90177140D01*
X128010553Y-90177137D01*
X128009120Y-90174442D01*
X127887962Y-90025887D01*
X127740256Y-89903694D01*
X127571629Y-89812518D01*
X127521189Y-89796904D01*
X127391420Y-89756734D01*
X127391417Y-89756733D01*
X127388505Y-89755832D01*
X127385472Y-89755513D01*
X127385471Y-89755513D01*
X127313018Y-89747898D01*
X127197857Y-89735794D01*
X127194824Y-89736070D01*
X127194820Y-89736070D01*
X127121357Y-89742756D01*
X127006948Y-89753168D01*
X126823050Y-89807292D01*
X126653167Y-89896105D01*
X126503770Y-90016223D01*
X126380549Y-90163072D01*
X126351213Y-90216434D01*
X126292768Y-90322745D01*
X126255436Y-90352653D01*
X126207889Y-90347404D01*
X126177981Y-90310072D01*
X126175499Y-90292635D01*
X126175499Y-89479221D01*
X126176700Y-89467028D01*
X126179284Y-89454037D01*
X126180485Y-89447999D01*
X126160733Y-89348698D01*
X126118683Y-89285766D01*
X126118682Y-89285765D01*
X126104483Y-89264515D01*
X126099365Y-89261095D01*
X126088349Y-89253734D01*
X126078879Y-89245962D01*
X125532026Y-88699109D01*
X125513720Y-88654915D01*
X125521876Y-88624044D01*
X125548312Y-88577509D01*
X125608821Y-88395612D01*
X125613542Y-88358247D01*
X125632627Y-88207167D01*
X125632627Y-88207166D01*
X125632847Y-88205425D01*
X125633230Y-88178000D01*
X125631886Y-88164286D01*
X125614822Y-87990257D01*
X125614524Y-87987217D01*
X125559117Y-87803701D01*
X125469120Y-87634442D01*
X125347962Y-87485887D01*
X125200256Y-87363694D01*
X125031629Y-87272518D01*
X124957027Y-87249425D01*
X124851420Y-87216734D01*
X124851417Y-87216733D01*
X124848505Y-87215832D01*
X124845472Y-87215513D01*
X124845471Y-87215513D01*
X124797787Y-87210501D01*
X124657857Y-87195794D01*
X124654824Y-87196070D01*
X124654820Y-87196070D01*
X124572118Y-87203597D01*
X124466948Y-87213168D01*
X124283050Y-87267292D01*
X124113167Y-87356105D01*
X123963770Y-87476223D01*
X123840549Y-87623072D01*
X123784277Y-87725430D01*
X123755321Y-87778102D01*
X123748198Y-87791058D01*
X123690234Y-87973783D01*
X123689894Y-87976815D01*
X123681931Y-88047811D01*
X123668866Y-88164286D01*
X123672321Y-88205425D01*
X123684342Y-88348581D01*
X123684907Y-88355311D01*
X123737746Y-88539583D01*
X123739141Y-88542297D01*
X123804080Y-88668655D01*
X123825370Y-88710082D01*
X123944443Y-88860314D01*
X124090428Y-88984557D01*
X124093092Y-88986046D01*
X124093095Y-88986048D01*
X124201832Y-89046819D01*
X124257765Y-89078079D01*
X124260669Y-89079023D01*
X124260670Y-89079023D01*
X124437168Y-89136371D01*
X124437173Y-89136372D01*
X124440081Y-89137317D01*
X124630430Y-89160015D01*
X124633472Y-89159781D01*
X124633475Y-89159781D01*
X124818514Y-89145543D01*
X124818519Y-89145542D01*
X124821562Y-89145308D01*
X124850182Y-89137317D01*
X125003260Y-89094577D01*
X125003264Y-89094576D01*
X125006199Y-89093756D01*
X125013829Y-89089902D01*
X125099121Y-89046819D01*
X125146821Y-89043233D01*
X125171494Y-89058412D01*
X125648193Y-89535110D01*
X125666499Y-89579304D01*
X125666499Y-90294984D01*
X125648193Y-90339178D01*
X125603999Y-90357484D01*
X125559805Y-90339178D01*
X125548815Y-90324326D01*
X125470555Y-90177140D01*
X125470553Y-90177137D01*
X125469120Y-90174442D01*
X125347962Y-90025887D01*
X125200256Y-89903694D01*
X125031629Y-89812518D01*
X124981189Y-89796904D01*
X124851420Y-89756734D01*
X124851417Y-89756733D01*
X124848505Y-89755832D01*
X124845472Y-89755513D01*
X124845471Y-89755513D01*
X124773018Y-89747898D01*
X124657857Y-89735794D01*
X124654824Y-89736070D01*
X124654820Y-89736070D01*
X124581357Y-89742756D01*
X124466948Y-89753168D01*
X124283050Y-89807292D01*
X124113167Y-89896105D01*
X123963770Y-90016223D01*
X123840549Y-90163072D01*
X123811213Y-90216434D01*
X123761757Y-90306395D01*
X123748198Y-90331058D01*
X123690234Y-90513783D01*
X123689894Y-90516815D01*
X123673325Y-90664536D01*
X123668866Y-90704286D01*
X123669122Y-90707330D01*
X123684124Y-90885985D01*
X123684907Y-90895311D01*
X123737746Y-91079583D01*
X123825370Y-91250082D01*
X123944443Y-91400314D01*
X124090428Y-91524557D01*
X124093092Y-91526046D01*
X124093095Y-91526048D01*
X124246374Y-91611713D01*
X124257765Y-91618079D01*
X124260669Y-91619023D01*
X124260670Y-91619023D01*
X124353314Y-91649125D01*
X124389688Y-91680192D01*
X124396500Y-91708566D01*
X124396500Y-91996694D01*
X124378194Y-92040888D01*
X124310089Y-92108993D01*
X124265895Y-92127299D01*
X114978418Y-92127299D01*
X114966226Y-92126098D01*
X114953239Y-92123515D01*
X114947201Y-92122314D01*
X114941163Y-92123515D01*
X114922143Y-92127298D01*
X114922135Y-92127299D01*
X114922132Y-92127299D01*
X114922127Y-92127300D01*
X114878919Y-92135895D01*
X114847900Y-92142065D01*
X114784967Y-92184115D01*
X114784965Y-92184117D01*
X114784962Y-92184119D01*
X114774274Y-92191261D01*
X114763717Y-92198315D01*
X114760298Y-92203432D01*
X114760297Y-92203433D01*
X114752938Y-92214446D01*
X114745166Y-92223916D01*
X114443117Y-92525965D01*
X114433647Y-92533737D01*
X114424755Y-92539679D01*
X114417516Y-92544516D01*
X114414097Y-92549633D01*
X114414095Y-92549635D01*
X114403321Y-92565759D01*
X114403317Y-92565765D01*
X114403316Y-92565766D01*
X114394675Y-92578699D01*
X114361266Y-92628699D01*
X114360065Y-92634735D01*
X114360065Y-92634736D01*
X114351460Y-92677999D01*
X114347676Y-92697025D01*
X114341514Y-92728000D01*
X114342715Y-92734038D01*
X114345299Y-92747029D01*
X114346500Y-92759222D01*
X114346500Y-95828000D01*
X114328194Y-95872194D01*
X114284000Y-95890500D01*
X113488442Y-95890500D01*
X113485431Y-95891099D01*
X113457287Y-95896697D01*
X113457285Y-95896698D01*
X113451252Y-95897898D01*
X113409078Y-95926078D01*
X113380898Y-95968252D01*
X113379698Y-95974285D01*
X113379697Y-95974287D01*
X113375367Y-95996055D01*
X113373500Y-96005442D01*
X113373500Y-102030558D01*
X113374099Y-102033569D01*
X113378766Y-102057028D01*
X113380898Y-102067748D01*
X113409078Y-102109922D01*
X113451252Y-102138102D01*
X113457285Y-102139302D01*
X113457287Y-102139303D01*
X113483384Y-102144494D01*
X113488442Y-102145500D01*
X115713558Y-102145500D01*
X115718616Y-102144494D01*
X115744713Y-102139303D01*
X115744715Y-102139302D01*
X115750748Y-102138102D01*
X115792922Y-102109922D01*
X115821102Y-102067748D01*
X115823235Y-102057028D01*
X115827901Y-102033569D01*
X115828500Y-102030558D01*
X115828500Y-96005442D01*
X115826633Y-95996055D01*
X115822303Y-95974287D01*
X115822302Y-95974285D01*
X115821102Y-95968252D01*
X115792922Y-95926078D01*
X115750748Y-95897898D01*
X115744715Y-95896698D01*
X115744713Y-95896697D01*
X115716569Y-95891099D01*
X115713558Y-95890500D01*
X114918000Y-95890500D01*
X114873806Y-95872194D01*
X114855500Y-95828000D01*
X114855500Y-92859306D01*
X114873806Y-92815112D01*
X115034313Y-92654605D01*
X115078507Y-92636299D01*
X124365979Y-92636299D01*
X124378172Y-92637500D01*
X124397201Y-92641285D01*
X124496502Y-92621533D01*
X124559435Y-92579483D01*
X124559437Y-92579481D01*
X124559440Y-92579479D01*
X124575568Y-92568702D01*
X124580685Y-92565283D01*
X124591466Y-92549149D01*
X124599236Y-92539682D01*
X124808883Y-92330035D01*
X124818353Y-92322263D01*
X124829366Y-92314904D01*
X124829367Y-92314903D01*
X124834484Y-92311484D01*
X124848681Y-92290237D01*
X124848684Y-92290234D01*
X124890734Y-92227301D01*
X124910486Y-92128000D01*
X124906701Y-92108971D01*
X124905500Y-92096778D01*
X124905500Y-91709312D01*
X124923806Y-91665118D01*
X124951193Y-91649114D01*
X125003258Y-91634578D01*
X125003266Y-91634575D01*
X125006199Y-91633756D01*
X125177305Y-91547324D01*
X125179703Y-91545451D01*
X125179707Y-91545448D01*
X125305559Y-91447121D01*
X125328365Y-91429303D01*
X125355455Y-91397919D01*
X125451630Y-91286500D01*
X125451634Y-91286495D01*
X125453624Y-91284189D01*
X125455132Y-91281535D01*
X125546805Y-91120163D01*
X125546807Y-91120157D01*
X125548312Y-91117509D01*
X125549033Y-91117918D01*
X125581606Y-91087012D01*
X125629425Y-91088269D01*
X125662350Y-91122970D01*
X125666499Y-91145363D01*
X125666499Y-92926695D01*
X125648193Y-92970889D01*
X125569289Y-93049793D01*
X125525095Y-93068099D01*
X118887618Y-93068099D01*
X118875426Y-93066898D01*
X118862439Y-93064315D01*
X118856401Y-93063114D01*
X118850363Y-93064315D01*
X118831343Y-93068098D01*
X118831335Y-93068099D01*
X118831332Y-93068099D01*
X118831327Y-93068100D01*
X118788119Y-93076695D01*
X118757100Y-93082865D01*
X118694167Y-93124915D01*
X118694165Y-93124917D01*
X118694162Y-93124919D01*
X118682282Y-93132857D01*
X118672917Y-93139115D01*
X118669498Y-93144232D01*
X118669497Y-93144233D01*
X118662138Y-93155246D01*
X118654366Y-93164716D01*
X118403117Y-93415965D01*
X118393647Y-93423737D01*
X118382634Y-93431096D01*
X118377516Y-93434516D01*
X118363319Y-93455763D01*
X118363316Y-93455766D01*
X118363292Y-93455802D01*
X118363281Y-93455818D01*
X118333116Y-93500965D01*
X118329696Y-93506083D01*
X118321266Y-93518699D01*
X118320064Y-93524740D01*
X118320064Y-93524741D01*
X118311460Y-93567999D01*
X118306009Y-93595405D01*
X118301514Y-93618000D01*
X118302715Y-93624038D01*
X118305299Y-93637029D01*
X118306500Y-93649222D01*
X118306500Y-95828000D01*
X118288194Y-95872194D01*
X118244000Y-95890500D01*
X117448442Y-95890500D01*
X117445431Y-95891099D01*
X117417287Y-95896697D01*
X117417285Y-95896698D01*
X117411252Y-95897898D01*
X117369078Y-95926078D01*
X117340898Y-95968252D01*
X117339698Y-95974285D01*
X117339697Y-95974287D01*
X117335367Y-95996055D01*
X117333500Y-96005442D01*
X117333500Y-102030558D01*
X117334099Y-102033569D01*
X117338766Y-102057028D01*
X117340898Y-102067748D01*
X117369078Y-102109922D01*
X117411252Y-102138102D01*
X117417285Y-102139302D01*
X117417287Y-102139303D01*
X117443384Y-102144494D01*
X117448442Y-102145500D01*
X119673558Y-102145500D01*
X119678616Y-102144494D01*
X119704713Y-102139303D01*
X119704715Y-102139302D01*
X119710748Y-102138102D01*
X119752922Y-102109922D01*
X119781102Y-102067748D01*
X119783235Y-102057028D01*
X119787901Y-102033569D01*
X119788500Y-102030558D01*
X119788500Y-96005442D01*
X119786633Y-95996055D01*
X119782303Y-95974287D01*
X119782302Y-95974285D01*
X119781102Y-95968252D01*
X119752922Y-95926078D01*
X119710748Y-95897898D01*
X119704715Y-95896698D01*
X119704713Y-95896697D01*
X119676569Y-95891099D01*
X119673558Y-95890500D01*
X118878000Y-95890500D01*
X118833806Y-95872194D01*
X118815500Y-95828000D01*
X118815500Y-93749306D01*
X118833806Y-93705112D01*
X118943513Y-93595405D01*
X118987707Y-93577099D01*
X125625179Y-93577099D01*
X125637372Y-93578300D01*
X125656401Y-93582085D01*
X125755702Y-93562333D01*
X125818635Y-93520283D01*
X125818637Y-93520281D01*
X125818640Y-93520279D01*
X125834768Y-93509502D01*
X125839885Y-93506083D01*
X125850664Y-93489952D01*
X125858436Y-93480482D01*
X126078882Y-93260036D01*
X126088352Y-93252264D01*
X126099365Y-93244905D01*
X126099366Y-93244904D01*
X126104483Y-93241485D01*
X126118680Y-93220238D01*
X126118683Y-93220235D01*
X126160733Y-93157302D01*
X126180485Y-93058001D01*
X126176700Y-93038972D01*
X126175499Y-93026779D01*
X126175499Y-91138976D01*
X126193805Y-91094782D01*
X126237999Y-91076476D01*
X126282193Y-91094782D01*
X126293587Y-91110407D01*
X126365370Y-91250082D01*
X126484443Y-91400314D01*
X126630428Y-91524557D01*
X126633092Y-91526046D01*
X126633095Y-91526048D01*
X126786374Y-91611713D01*
X126797765Y-91618079D01*
X126800669Y-91619023D01*
X126800670Y-91619023D01*
X126893314Y-91649125D01*
X126929688Y-91680192D01*
X126936500Y-91708566D01*
X126936500Y-93906695D01*
X126918195Y-93950888D01*
X126878488Y-93990595D01*
X126834295Y-94008899D01*
X122746818Y-94008899D01*
X122734626Y-94007698D01*
X122721639Y-94005115D01*
X122715601Y-94003914D01*
X122709563Y-94005115D01*
X122690543Y-94008898D01*
X122690535Y-94008899D01*
X122690532Y-94008899D01*
X122690527Y-94008900D01*
X122622336Y-94022464D01*
X122622334Y-94022465D01*
X122616300Y-94023665D01*
X122611186Y-94027082D01*
X122611184Y-94027083D01*
X122585810Y-94044038D01*
X122553369Y-94065715D01*
X122532117Y-94079915D01*
X122528699Y-94085030D01*
X122528697Y-94085032D01*
X122521336Y-94096048D01*
X122513564Y-94105518D01*
X122363117Y-94255965D01*
X122353647Y-94263737D01*
X122342634Y-94271096D01*
X122337516Y-94274516D01*
X122323319Y-94295763D01*
X122323316Y-94295766D01*
X122281266Y-94358699D01*
X122261514Y-94458000D01*
X122262715Y-94464038D01*
X122265299Y-94477029D01*
X122266500Y-94489222D01*
X122266500Y-95828000D01*
X122248194Y-95872194D01*
X122204000Y-95890500D01*
X121408442Y-95890500D01*
X121405431Y-95891099D01*
X121377287Y-95896697D01*
X121377285Y-95896698D01*
X121371252Y-95897898D01*
X121329078Y-95926078D01*
X121300898Y-95968252D01*
X121299698Y-95974285D01*
X121299697Y-95974287D01*
X121295367Y-95996055D01*
X121293500Y-96005442D01*
X121293500Y-102030558D01*
X121294099Y-102033569D01*
X121298766Y-102057028D01*
X121300898Y-102067748D01*
X121329078Y-102109922D01*
X121371252Y-102138102D01*
X121377285Y-102139302D01*
X121377287Y-102139303D01*
X121403384Y-102144494D01*
X121408442Y-102145500D01*
X123633558Y-102145500D01*
X123638616Y-102144494D01*
X123664713Y-102139303D01*
X123664715Y-102139302D01*
X123670748Y-102138102D01*
X123712922Y-102109922D01*
X123741102Y-102067748D01*
X123743235Y-102057028D01*
X123747901Y-102033569D01*
X123748500Y-102030558D01*
X123748500Y-96005442D01*
X123746633Y-95996055D01*
X123742303Y-95974287D01*
X123742302Y-95974285D01*
X123741102Y-95968252D01*
X123712922Y-95926078D01*
X123670748Y-95897898D01*
X123664715Y-95896698D01*
X123664713Y-95896697D01*
X123636569Y-95891099D01*
X123633558Y-95890500D01*
X122838000Y-95890500D01*
X122793806Y-95872194D01*
X122775500Y-95828000D01*
X122775500Y-94589307D01*
X122793803Y-94545115D01*
X122802710Y-94536207D01*
X122846907Y-94517899D01*
X126934379Y-94517899D01*
X126946572Y-94519100D01*
X126965601Y-94522885D01*
X127064902Y-94503133D01*
X127127835Y-94461083D01*
X127127837Y-94461081D01*
X127127840Y-94461079D01*
X127143968Y-94450302D01*
X127149085Y-94446883D01*
X127159864Y-94430752D01*
X127167636Y-94421282D01*
X127348880Y-94240037D01*
X127358350Y-94232265D01*
X127369366Y-94224904D01*
X127369367Y-94224903D01*
X127374484Y-94221484D01*
X127394530Y-94191483D01*
X127427314Y-94142420D01*
X127427315Y-94142418D01*
X127430734Y-94137301D01*
X127445500Y-94063067D01*
X127445500Y-94063063D01*
X127450485Y-94038000D01*
X127446701Y-94018975D01*
X127445500Y-94006783D01*
X127445500Y-91709312D01*
X127463806Y-91665118D01*
X127491193Y-91649114D01*
X127543258Y-91634578D01*
X127543266Y-91634575D01*
X127546199Y-91633756D01*
X127717305Y-91547324D01*
X127719703Y-91545451D01*
X127719707Y-91545448D01*
X127845559Y-91447121D01*
X127868365Y-91429303D01*
X127895455Y-91397919D01*
X127991630Y-91286500D01*
X127991634Y-91286495D01*
X127993624Y-91284189D01*
X127995132Y-91281535D01*
X128086805Y-91120163D01*
X128086807Y-91120157D01*
X128088312Y-91117509D01*
X128089033Y-91117918D01*
X128121606Y-91087012D01*
X128169425Y-91088269D01*
X128202350Y-91122970D01*
X128206499Y-91145363D01*
X128206499Y-94836696D01*
X128188194Y-94880889D01*
X128137688Y-94931395D01*
X128093495Y-94949699D01*
X126706023Y-94949699D01*
X126693830Y-94948498D01*
X126680839Y-94945914D01*
X126674801Y-94944713D01*
X126575500Y-94964465D01*
X126512567Y-95006515D01*
X126512565Y-95006517D01*
X126512562Y-95006519D01*
X126500682Y-95014457D01*
X126491317Y-95020715D01*
X126487898Y-95025832D01*
X126487897Y-95025833D01*
X126480538Y-95036846D01*
X126472766Y-95046316D01*
X126323117Y-95195965D01*
X126313647Y-95203737D01*
X126312088Y-95204779D01*
X126297516Y-95214516D01*
X126283319Y-95235763D01*
X126283316Y-95235766D01*
X126241266Y-95298699D01*
X126221514Y-95398000D01*
X126222715Y-95404038D01*
X126225299Y-95417029D01*
X126226500Y-95429222D01*
X126226500Y-95828000D01*
X126208194Y-95872194D01*
X126164000Y-95890500D01*
X125368442Y-95890500D01*
X125365431Y-95891099D01*
X125337287Y-95896697D01*
X125337285Y-95896698D01*
X125331252Y-95897898D01*
X125289078Y-95926078D01*
X125260898Y-95968252D01*
X125259698Y-95974285D01*
X125259697Y-95974287D01*
X125255367Y-95996055D01*
X125253500Y-96005442D01*
X125253500Y-102030558D01*
X125254099Y-102033569D01*
X125258766Y-102057028D01*
X125260898Y-102067748D01*
X125289078Y-102109922D01*
X125331252Y-102138102D01*
X125337285Y-102139302D01*
X125337287Y-102139303D01*
X125363384Y-102144494D01*
X125368442Y-102145500D01*
X127593558Y-102145500D01*
X127598616Y-102144494D01*
X127624713Y-102139303D01*
X127624715Y-102139302D01*
X127630748Y-102138102D01*
X127672922Y-102109922D01*
X127701102Y-102067748D01*
X127703235Y-102057028D01*
X127707901Y-102033569D01*
X127708500Y-102030558D01*
X127708500Y-96005442D01*
X127706633Y-95996055D01*
X127702303Y-95974287D01*
X127702302Y-95974285D01*
X127701102Y-95968252D01*
X127672922Y-95926078D01*
X127630748Y-95897898D01*
X127624715Y-95896698D01*
X127624713Y-95896697D01*
X127596569Y-95891099D01*
X127593558Y-95890500D01*
X126798000Y-95890500D01*
X126753806Y-95872194D01*
X126735500Y-95828000D01*
X126735500Y-95529306D01*
X126753806Y-95485112D01*
X126761913Y-95477005D01*
X126806107Y-95458699D01*
X128193579Y-95458699D01*
X128205772Y-95459900D01*
X128224801Y-95463685D01*
X128324102Y-95443933D01*
X128387035Y-95401883D01*
X128387037Y-95401881D01*
X128387040Y-95401879D01*
X128403168Y-95391102D01*
X128408285Y-95387683D01*
X128419066Y-95371549D01*
X128426836Y-95362082D01*
X128618879Y-95170038D01*
X128628349Y-95162266D01*
X128639365Y-95154905D01*
X128639366Y-95154904D01*
X128644483Y-95151485D01*
X128671189Y-95111517D01*
X128697313Y-95072421D01*
X128697314Y-95072419D01*
X128700733Y-95067302D01*
X128715499Y-94993068D01*
X128715499Y-94993064D01*
X128720484Y-94968001D01*
X128716700Y-94948976D01*
X128715499Y-94936784D01*
X128715499Y-91138976D01*
X128733805Y-91094782D01*
X128777999Y-91076476D01*
X128822193Y-91094782D01*
X128833587Y-91110407D01*
X128905370Y-91250082D01*
X129024443Y-91400314D01*
X129170428Y-91524557D01*
X129173092Y-91526046D01*
X129173095Y-91526048D01*
X129326374Y-91611713D01*
X129337765Y-91618079D01*
X129340669Y-91619023D01*
X129340670Y-91619023D01*
X129433314Y-91649125D01*
X129469688Y-91680192D01*
X129476500Y-91708566D01*
X129476500Y-95067977D01*
X129475299Y-95080170D01*
X129471514Y-95099199D01*
X129491266Y-95198500D01*
X129533316Y-95261433D01*
X129533319Y-95261436D01*
X129547516Y-95282683D01*
X129552635Y-95286103D01*
X129563644Y-95293459D01*
X129573116Y-95301232D01*
X129633963Y-95362079D01*
X129641735Y-95371549D01*
X129652516Y-95387683D01*
X129673764Y-95401880D01*
X129673766Y-95401882D01*
X129683670Y-95408500D01*
X129731580Y-95440513D01*
X129731582Y-95440514D01*
X129736699Y-95443933D01*
X129767718Y-95450103D01*
X129810926Y-95458698D01*
X129810931Y-95458699D01*
X129810934Y-95458699D01*
X129810942Y-95458700D01*
X129836000Y-95463684D01*
X129842038Y-95462483D01*
X129855025Y-95459900D01*
X129867217Y-95458699D01*
X130124000Y-95458699D01*
X130168194Y-95477005D01*
X130186500Y-95521199D01*
X130186500Y-95828000D01*
X130168194Y-95872194D01*
X130124000Y-95890500D01*
X129328442Y-95890500D01*
X129325431Y-95891099D01*
X129297287Y-95896697D01*
X129297285Y-95896698D01*
X129291252Y-95897898D01*
X129249078Y-95926078D01*
X129220898Y-95968252D01*
X129219698Y-95974285D01*
X129219697Y-95974287D01*
X129215367Y-95996055D01*
X129213500Y-96005442D01*
X129213500Y-102030558D01*
X129214099Y-102033569D01*
X129218766Y-102057028D01*
X129220898Y-102067748D01*
X129249078Y-102109922D01*
X129291252Y-102138102D01*
X129297285Y-102139302D01*
X129297287Y-102139303D01*
X129323384Y-102144494D01*
X129328442Y-102145500D01*
X131553558Y-102145500D01*
X131558616Y-102144494D01*
X131584713Y-102139303D01*
X131584715Y-102139302D01*
X131590748Y-102138102D01*
X131632922Y-102109922D01*
X131661102Y-102067748D01*
X131663235Y-102057028D01*
X131667901Y-102033569D01*
X131668500Y-102030558D01*
X131668500Y-96005442D01*
X131666633Y-95996055D01*
X131662303Y-95974287D01*
X131662302Y-95974285D01*
X131661102Y-95968252D01*
X131632922Y-95926078D01*
X131590748Y-95897898D01*
X131584715Y-95896698D01*
X131584713Y-95896697D01*
X131556569Y-95891099D01*
X131553558Y-95890500D01*
X130758000Y-95890500D01*
X130713806Y-95872194D01*
X130695500Y-95828000D01*
X130695500Y-95340416D01*
X130696701Y-95328224D01*
X130699284Y-95315237D01*
X130700485Y-95309199D01*
X130695500Y-95284136D01*
X130695500Y-95284132D01*
X130680734Y-95209898D01*
X130676618Y-95203737D01*
X130627903Y-95130832D01*
X130624484Y-95125715D01*
X130608352Y-95114936D01*
X130598881Y-95107163D01*
X130538033Y-95046315D01*
X130530260Y-95036843D01*
X130522904Y-95025834D01*
X130519484Y-95020715D01*
X130503062Y-95009742D01*
X130498239Y-95006519D01*
X130498236Y-95006517D01*
X130498234Y-95006515D01*
X130435301Y-94964465D01*
X130336000Y-94944713D01*
X130329962Y-94945914D01*
X130316971Y-94948498D01*
X130304778Y-94949699D01*
X130048000Y-94949699D01*
X130003806Y-94931393D01*
X129985500Y-94887199D01*
X129985500Y-91709312D01*
X130003806Y-91665118D01*
X130031193Y-91649114D01*
X130083258Y-91634578D01*
X130083266Y-91634575D01*
X130086199Y-91633756D01*
X130257305Y-91547324D01*
X130259703Y-91545451D01*
X130259707Y-91545448D01*
X130385559Y-91447121D01*
X130408365Y-91429303D01*
X130435455Y-91397919D01*
X130531630Y-91286500D01*
X130531634Y-91286495D01*
X130533624Y-91284189D01*
X130535132Y-91281535D01*
X130626805Y-91120163D01*
X130626807Y-91120157D01*
X130628312Y-91117509D01*
X130629033Y-91117918D01*
X130661606Y-91087012D01*
X130709425Y-91088269D01*
X130742350Y-91122970D01*
X130746499Y-91145363D01*
X130746499Y-93976777D01*
X130745298Y-93988970D01*
X130741513Y-94007999D01*
X130746499Y-94033066D01*
X130755818Y-94079915D01*
X130761265Y-94107300D01*
X130803315Y-94170233D01*
X130803318Y-94170236D01*
X130817515Y-94191483D01*
X130822632Y-94194902D01*
X130822633Y-94194903D01*
X130833646Y-94202262D01*
X130843116Y-94210034D01*
X131054364Y-94421282D01*
X131062136Y-94430752D01*
X131072915Y-94446883D01*
X131078032Y-94450302D01*
X131094160Y-94461079D01*
X131094163Y-94461081D01*
X131094165Y-94461083D01*
X131157098Y-94503133D01*
X131181566Y-94508000D01*
X131231325Y-94517898D01*
X131231330Y-94517899D01*
X131231333Y-94517899D01*
X131231341Y-94517900D01*
X131256399Y-94522884D01*
X131262437Y-94521683D01*
X131275424Y-94519100D01*
X131287616Y-94517899D01*
X134025093Y-94517899D01*
X134069287Y-94536205D01*
X134128194Y-94595112D01*
X134146500Y-94639306D01*
X134146500Y-95828000D01*
X134128194Y-95872194D01*
X134084000Y-95890500D01*
X133288442Y-95890500D01*
X133285431Y-95891099D01*
X133257287Y-95896697D01*
X133257285Y-95896698D01*
X133251252Y-95897898D01*
X133209078Y-95926078D01*
X133180898Y-95968252D01*
X133179698Y-95974285D01*
X133179697Y-95974287D01*
X133175367Y-95996055D01*
X133173500Y-96005442D01*
X133173500Y-102030558D01*
X133174099Y-102033569D01*
X133178766Y-102057028D01*
X133180898Y-102067748D01*
X133209078Y-102109922D01*
X133251252Y-102138102D01*
X133257285Y-102139302D01*
X133257287Y-102139303D01*
X133283384Y-102144494D01*
X133288442Y-102145500D01*
X135513558Y-102145500D01*
X135518616Y-102144494D01*
X135544713Y-102139303D01*
X135544715Y-102139302D01*
X135550748Y-102138102D01*
X135592922Y-102109922D01*
X135621102Y-102067748D01*
X135623235Y-102057028D01*
X135627901Y-102033569D01*
X135628500Y-102030558D01*
X135628500Y-96005442D01*
X135626633Y-95996055D01*
X135622303Y-95974287D01*
X135622302Y-95974285D01*
X135621102Y-95968252D01*
X135592922Y-95926078D01*
X135550748Y-95897898D01*
X135544715Y-95896698D01*
X135544713Y-95896697D01*
X135516569Y-95891099D01*
X135513558Y-95890500D01*
X134718000Y-95890500D01*
X134673806Y-95872194D01*
X134655500Y-95828000D01*
X134655500Y-94539222D01*
X134656701Y-94527029D01*
X134659285Y-94514038D01*
X134660486Y-94508000D01*
X134650541Y-94458000D01*
X134640734Y-94408699D01*
X134598684Y-94345766D01*
X134598681Y-94345763D01*
X134584484Y-94324516D01*
X134579366Y-94321096D01*
X134568353Y-94313737D01*
X134558883Y-94305965D01*
X134358434Y-94105516D01*
X134350662Y-94096046D01*
X134343303Y-94085033D01*
X134343302Y-94085032D01*
X134339883Y-94079915D01*
X134330518Y-94073657D01*
X134318638Y-94065719D01*
X134318635Y-94065717D01*
X134318633Y-94065715D01*
X134255700Y-94023665D01*
X134156399Y-94003913D01*
X134150361Y-94005114D01*
X134137370Y-94007698D01*
X134125177Y-94008899D01*
X131387705Y-94008899D01*
X131343511Y-93990593D01*
X131273805Y-93920887D01*
X131255499Y-93876693D01*
X131255499Y-91138976D01*
X131273805Y-91094782D01*
X131317999Y-91076476D01*
X131362193Y-91094782D01*
X131373587Y-91110407D01*
X131445370Y-91250082D01*
X131564443Y-91400314D01*
X131710428Y-91524557D01*
X131713092Y-91526046D01*
X131713095Y-91526048D01*
X131866374Y-91611713D01*
X131877765Y-91618079D01*
X131880669Y-91619023D01*
X131880670Y-91619023D01*
X131973314Y-91649125D01*
X132009688Y-91680192D01*
X132016500Y-91708566D01*
X132016500Y-93046778D01*
X132015299Y-93058971D01*
X132011514Y-93078000D01*
X132031266Y-93177301D01*
X132073316Y-93240234D01*
X132073319Y-93240237D01*
X132087516Y-93261484D01*
X132092633Y-93264903D01*
X132092634Y-93264904D01*
X132103647Y-93272263D01*
X132113117Y-93280035D01*
X132313564Y-93480482D01*
X132321336Y-93489952D01*
X132332115Y-93506083D01*
X132337232Y-93509502D01*
X132353360Y-93520279D01*
X132353363Y-93520281D01*
X132353365Y-93520283D01*
X132374089Y-93534130D01*
X132387264Y-93542933D01*
X132411179Y-93558913D01*
X132411181Y-93558914D01*
X132416298Y-93562333D01*
X132444783Y-93567999D01*
X132490525Y-93577098D01*
X132490530Y-93577099D01*
X132490533Y-93577099D01*
X132490541Y-93577100D01*
X132515599Y-93582084D01*
X132521637Y-93580883D01*
X132534624Y-93578300D01*
X132546816Y-93577099D01*
X137984293Y-93577099D01*
X138028486Y-93595403D01*
X138088195Y-93655112D01*
X138106500Y-93699305D01*
X138106500Y-95828000D01*
X138088194Y-95872194D01*
X138044000Y-95890500D01*
X137248442Y-95890500D01*
X137245431Y-95891099D01*
X137217287Y-95896697D01*
X137217285Y-95896698D01*
X137211252Y-95897898D01*
X137169078Y-95926078D01*
X137140898Y-95968252D01*
X137139698Y-95974285D01*
X137139697Y-95974287D01*
X137135367Y-95996055D01*
X137133500Y-96005442D01*
X137133500Y-102030558D01*
X137134099Y-102033569D01*
X137138766Y-102057028D01*
X137140898Y-102067748D01*
X137169078Y-102109922D01*
X137211252Y-102138102D01*
X137217285Y-102139302D01*
X137217287Y-102139303D01*
X137243384Y-102144494D01*
X137248442Y-102145500D01*
X139473558Y-102145500D01*
X139478616Y-102144494D01*
X139504713Y-102139303D01*
X139504715Y-102139302D01*
X139510748Y-102138102D01*
X139552922Y-102109922D01*
X139581102Y-102067748D01*
X139583235Y-102057028D01*
X139587901Y-102033569D01*
X139588500Y-102030558D01*
X139588500Y-96005442D01*
X139586633Y-95996055D01*
X139582303Y-95974287D01*
X139582302Y-95974285D01*
X139581102Y-95968252D01*
X139552922Y-95926078D01*
X139510748Y-95897898D01*
X139504715Y-95896698D01*
X139504713Y-95896697D01*
X139476569Y-95891099D01*
X139473558Y-95890500D01*
X138678000Y-95890500D01*
X138633806Y-95872194D01*
X138615500Y-95828000D01*
X138615500Y-93599217D01*
X138616701Y-93587025D01*
X138619284Y-93574038D01*
X138620485Y-93568000D01*
X138615500Y-93542937D01*
X138615500Y-93542933D01*
X138600734Y-93468699D01*
X138592093Y-93455766D01*
X138547903Y-93389633D01*
X138544484Y-93384516D01*
X138539366Y-93381096D01*
X138528350Y-93373735D01*
X138518880Y-93365963D01*
X138317634Y-93164716D01*
X138309862Y-93155246D01*
X138302503Y-93144233D01*
X138302502Y-93144232D01*
X138299083Y-93139115D01*
X138289718Y-93132857D01*
X138277838Y-93124919D01*
X138277835Y-93124917D01*
X138277833Y-93124915D01*
X138214900Y-93082865D01*
X138115599Y-93063113D01*
X138109561Y-93064314D01*
X138096570Y-93066898D01*
X138084377Y-93068099D01*
X132646905Y-93068099D01*
X132602711Y-93049793D01*
X132543806Y-92990888D01*
X132525500Y-92946694D01*
X132525500Y-91709312D01*
X132543806Y-91665118D01*
X132571193Y-91649114D01*
X132623258Y-91634578D01*
X132623266Y-91634575D01*
X132626199Y-91633756D01*
X132797305Y-91547324D01*
X132799703Y-91545451D01*
X132799707Y-91545448D01*
X132925559Y-91447121D01*
X132948365Y-91429303D01*
X132975455Y-91397919D01*
X133071630Y-91286500D01*
X133071634Y-91286495D01*
X133073624Y-91284189D01*
X133075132Y-91281535D01*
X133166805Y-91120163D01*
X133166807Y-91120157D01*
X133168312Y-91117509D01*
X133169033Y-91117918D01*
X133201606Y-91087012D01*
X133249425Y-91088269D01*
X133282350Y-91122970D01*
X133286499Y-91145363D01*
X133286499Y-92066777D01*
X133285298Y-92078970D01*
X133281513Y-92097999D01*
X133286499Y-92123066D01*
X133290278Y-92142065D01*
X133301265Y-92197300D01*
X133343315Y-92260233D01*
X133343318Y-92260236D01*
X133357515Y-92281483D01*
X133362632Y-92284902D01*
X133362633Y-92284903D01*
X133373646Y-92292262D01*
X133383116Y-92300034D01*
X133622762Y-92539679D01*
X133630534Y-92549149D01*
X133641315Y-92565283D01*
X133646432Y-92568702D01*
X133662565Y-92579482D01*
X133662566Y-92579483D01*
X133720379Y-92618113D01*
X133720381Y-92618114D01*
X133725498Y-92621533D01*
X133824799Y-92641285D01*
X133843828Y-92637500D01*
X133856021Y-92636299D01*
X141893493Y-92636299D01*
X141937687Y-92654605D01*
X142048194Y-92765111D01*
X142066500Y-92809305D01*
X142066500Y-95828000D01*
X142048194Y-95872194D01*
X142004000Y-95890500D01*
X141208442Y-95890500D01*
X141205431Y-95891099D01*
X141177287Y-95896697D01*
X141177285Y-95896698D01*
X141171252Y-95897898D01*
X141129078Y-95926078D01*
X141100898Y-95968252D01*
X141099698Y-95974285D01*
X141099697Y-95974287D01*
X141095367Y-95996055D01*
X141093500Y-96005442D01*
X141093500Y-102030558D01*
X141094099Y-102033569D01*
X141098766Y-102057028D01*
X141100898Y-102067748D01*
X141129078Y-102109922D01*
X141171252Y-102138102D01*
X141177285Y-102139302D01*
X141177287Y-102139303D01*
X141203384Y-102144494D01*
X141208442Y-102145500D01*
X143433558Y-102145500D01*
X143438616Y-102144494D01*
X143464713Y-102139303D01*
X143464715Y-102139302D01*
X143470748Y-102138102D01*
X143512922Y-102109922D01*
X143541102Y-102067748D01*
X143543235Y-102057028D01*
X143547901Y-102033569D01*
X143548500Y-102030558D01*
X145053500Y-102030558D01*
X145054099Y-102033569D01*
X145058766Y-102057028D01*
X145060898Y-102067748D01*
X145089078Y-102109922D01*
X145131252Y-102138102D01*
X145137285Y-102139302D01*
X145137287Y-102139303D01*
X145163384Y-102144494D01*
X145168442Y-102145500D01*
X147393558Y-102145500D01*
X147398616Y-102144494D01*
X147424713Y-102139303D01*
X147424715Y-102139302D01*
X147430748Y-102138102D01*
X147472922Y-102109922D01*
X147501102Y-102067748D01*
X147503235Y-102057028D01*
X147506633Y-102039945D01*
X148887001Y-102039945D01*
X148887600Y-102046030D01*
X148900536Y-102111068D01*
X148905157Y-102122224D01*
X148954457Y-102196007D01*
X148962993Y-102204543D01*
X149036775Y-102253843D01*
X149047933Y-102258464D01*
X149112970Y-102271401D01*
X149119054Y-102272000D01*
X150101569Y-102272000D01*
X150110359Y-102268359D01*
X150114000Y-102259569D01*
X150114000Y-102259568D01*
X150368000Y-102259568D01*
X150371641Y-102268358D01*
X150380431Y-102271999D01*
X151362945Y-102271999D01*
X151369030Y-102271400D01*
X151434068Y-102258464D01*
X151445224Y-102253843D01*
X151519007Y-102204543D01*
X151527543Y-102196007D01*
X151576843Y-102122225D01*
X151581464Y-102111067D01*
X151594401Y-102046030D01*
X151595000Y-102039946D01*
X151595000Y-99157431D01*
X151591359Y-99148641D01*
X151582569Y-99145000D01*
X150380431Y-99145000D01*
X150371641Y-99148641D01*
X150368000Y-99157431D01*
X150368000Y-102259568D01*
X150114000Y-102259568D01*
X150114000Y-99157431D01*
X150110359Y-99148641D01*
X150101569Y-99145000D01*
X148899432Y-99145000D01*
X148890642Y-99148641D01*
X148887001Y-99157431D01*
X148887001Y-102039945D01*
X147506633Y-102039945D01*
X147507901Y-102033569D01*
X147508500Y-102030558D01*
X147508500Y-98878569D01*
X148887000Y-98878569D01*
X148890641Y-98887359D01*
X148899431Y-98891000D01*
X150101569Y-98891000D01*
X150110359Y-98887359D01*
X150114000Y-98878569D01*
X150368000Y-98878569D01*
X150371641Y-98887359D01*
X150380431Y-98891000D01*
X151582568Y-98891000D01*
X151591358Y-98887359D01*
X151594999Y-98878569D01*
X151594999Y-95996055D01*
X151594400Y-95989970D01*
X151581464Y-95924932D01*
X151576843Y-95913776D01*
X151527543Y-95839993D01*
X151519007Y-95831457D01*
X151445225Y-95782157D01*
X151434067Y-95777536D01*
X151369030Y-95764599D01*
X151362946Y-95764000D01*
X150380431Y-95764000D01*
X150371641Y-95767641D01*
X150368000Y-95776431D01*
X150368000Y-98878569D01*
X150114000Y-98878569D01*
X150114000Y-95776432D01*
X150110359Y-95767642D01*
X150101569Y-95764001D01*
X149119055Y-95764001D01*
X149112970Y-95764600D01*
X149047932Y-95777536D01*
X149036776Y-95782157D01*
X148962993Y-95831457D01*
X148954457Y-95839993D01*
X148905157Y-95913775D01*
X148900536Y-95924933D01*
X148887599Y-95989970D01*
X148887000Y-95996054D01*
X148887000Y-98878569D01*
X147508500Y-98878569D01*
X147508500Y-96005442D01*
X147506633Y-95996055D01*
X147502303Y-95974287D01*
X147502302Y-95974285D01*
X147501102Y-95968252D01*
X147472922Y-95926078D01*
X147430748Y-95897898D01*
X147424715Y-95896698D01*
X147424713Y-95896697D01*
X147396569Y-95891099D01*
X147393558Y-95890500D01*
X145168442Y-95890500D01*
X145165431Y-95891099D01*
X145137287Y-95896697D01*
X145137285Y-95896698D01*
X145131252Y-95897898D01*
X145089078Y-95926078D01*
X145060898Y-95968252D01*
X145059698Y-95974285D01*
X145059697Y-95974287D01*
X145055367Y-95996055D01*
X145053500Y-96005442D01*
X145053500Y-102030558D01*
X143548500Y-102030558D01*
X143548500Y-96005442D01*
X143546633Y-95996055D01*
X143542303Y-95974287D01*
X143542302Y-95974285D01*
X143541102Y-95968252D01*
X143512922Y-95926078D01*
X143470748Y-95897898D01*
X143464715Y-95896698D01*
X143464713Y-95896697D01*
X143436569Y-95891099D01*
X143433558Y-95890500D01*
X142638000Y-95890500D01*
X142593806Y-95872194D01*
X142575500Y-95828000D01*
X142575500Y-92709217D01*
X142576701Y-92697025D01*
X142579284Y-92684038D01*
X142580485Y-92678000D01*
X142575500Y-92652937D01*
X142575500Y-92652933D01*
X142574591Y-92648363D01*
X156115166Y-92648363D01*
X156119112Y-92657592D01*
X156208698Y-92743204D01*
X156211262Y-92745401D01*
X156505407Y-92971107D01*
X156508174Y-92973001D01*
X156824967Y-93165615D01*
X156827944Y-93167211D01*
X157163686Y-93324484D01*
X157166801Y-93325742D01*
X157517558Y-93445832D01*
X157520816Y-93446754D01*
X157882489Y-93528261D01*
X157885814Y-93528823D01*
X158254169Y-93570792D01*
X158257551Y-93570993D01*
X158628291Y-93572934D01*
X158631648Y-93572770D01*
X159000432Y-93534660D01*
X159003780Y-93534130D01*
X159366269Y-93456419D01*
X159369542Y-93455531D01*
X159721527Y-93339122D01*
X159724675Y-93337888D01*
X160062036Y-93184144D01*
X160065029Y-93182579D01*
X160383821Y-92993295D01*
X160386617Y-92991423D01*
X160683096Y-92768820D01*
X160685680Y-92766652D01*
X160802840Y-92657016D01*
X160806519Y-92648906D01*
X160802744Y-92639349D01*
X158469790Y-90306395D01*
X158461000Y-90302754D01*
X158452210Y-90306395D01*
X156118647Y-92639958D01*
X156115166Y-92648363D01*
X142574591Y-92648363D01*
X142560734Y-92578699D01*
X142554055Y-92568702D01*
X142507903Y-92499633D01*
X142504484Y-92494516D01*
X142499366Y-92491096D01*
X142488350Y-92483735D01*
X142478880Y-92475963D01*
X142226834Y-92223916D01*
X142219062Y-92214446D01*
X142211703Y-92203433D01*
X142211702Y-92203432D01*
X142208283Y-92198315D01*
X142197726Y-92191261D01*
X142187038Y-92184119D01*
X142187035Y-92184117D01*
X142187033Y-92184115D01*
X142124100Y-92142065D01*
X142024799Y-92122313D01*
X142018761Y-92123514D01*
X142005770Y-92126098D01*
X141993577Y-92127299D01*
X133956104Y-92127299D01*
X133911910Y-92108993D01*
X133813805Y-92010887D01*
X133795499Y-91966693D01*
X133795499Y-91138976D01*
X133813805Y-91094782D01*
X133857999Y-91076476D01*
X133902193Y-91094782D01*
X133913587Y-91110407D01*
X133985370Y-91250082D01*
X134104443Y-91400314D01*
X134250428Y-91524557D01*
X134253092Y-91526046D01*
X134253095Y-91526048D01*
X134406374Y-91611713D01*
X134417765Y-91618079D01*
X134420669Y-91619023D01*
X134420670Y-91619023D01*
X134597168Y-91676371D01*
X134597173Y-91676372D01*
X134600081Y-91677317D01*
X134790430Y-91700015D01*
X134793472Y-91699781D01*
X134793475Y-91699781D01*
X134978514Y-91685543D01*
X134978519Y-91685542D01*
X134981562Y-91685308D01*
X135010182Y-91677317D01*
X135163260Y-91634577D01*
X135163264Y-91634576D01*
X135166199Y-91633756D01*
X135337305Y-91547324D01*
X135339703Y-91545451D01*
X135339707Y-91545448D01*
X135465559Y-91447121D01*
X135488365Y-91429303D01*
X135515455Y-91397919D01*
X135611630Y-91286500D01*
X135611634Y-91286495D01*
X135613624Y-91284189D01*
X135615132Y-91281535D01*
X135706801Y-91120170D01*
X135706804Y-91120163D01*
X135708312Y-91117509D01*
X135742322Y-91015272D01*
X135773642Y-90979115D01*
X135801627Y-90972500D01*
X136529778Y-90972500D01*
X136541971Y-90973701D01*
X136561000Y-90977486D01*
X136660301Y-90957734D01*
X136723234Y-90915684D01*
X136723236Y-90915682D01*
X136723239Y-90915680D01*
X136739367Y-90904903D01*
X136744484Y-90901484D01*
X136750642Y-90892268D01*
X136755263Y-90885353D01*
X136763035Y-90875883D01*
X137018883Y-90620035D01*
X137028353Y-90612263D01*
X137039366Y-90604904D01*
X137039367Y-90604903D01*
X137044484Y-90601484D01*
X137058681Y-90580237D01*
X137058684Y-90580234D01*
X137100734Y-90517301D01*
X137101434Y-90513783D01*
X137115500Y-90443067D01*
X137120486Y-90418000D01*
X137116701Y-90398971D01*
X137115500Y-90386778D01*
X137115500Y-90107623D01*
X155002034Y-90107623D01*
X155020791Y-90477886D01*
X155021144Y-90481243D01*
X155079780Y-90847320D01*
X155080492Y-90850613D01*
X155178322Y-91208219D01*
X155179391Y-91211432D01*
X155315268Y-91556377D01*
X155316669Y-91559437D01*
X155489013Y-91887704D01*
X155490733Y-91890590D01*
X155697515Y-92198314D01*
X155699550Y-92201015D01*
X155919575Y-92462303D01*
X155928024Y-92466682D01*
X155934892Y-92464503D01*
X158272605Y-90126790D01*
X158276246Y-90118000D01*
X158645754Y-90118000D01*
X158649395Y-90126790D01*
X160984509Y-92461904D01*
X160992020Y-92465015D01*
X161002203Y-92460342D01*
X161200477Y-92229828D01*
X161202551Y-92227135D01*
X161412533Y-91921609D01*
X161414298Y-91918719D01*
X161590065Y-91592284D01*
X161591498Y-91589239D01*
X161730981Y-91245733D01*
X161732082Y-91242536D01*
X161833648Y-90885985D01*
X161834400Y-90882675D01*
X161896862Y-90517255D01*
X161897253Y-90513876D01*
X161919934Y-90143055D01*
X161919992Y-90141254D01*
X161920070Y-90118886D01*
X161920025Y-90117117D01*
X161899932Y-89746098D01*
X161899568Y-89742756D01*
X161839655Y-89376889D01*
X161838929Y-89373585D01*
X161739851Y-89016322D01*
X161738777Y-89013129D01*
X161601694Y-88668655D01*
X161600277Y-88665590D01*
X161426798Y-88337945D01*
X161425055Y-88335044D01*
X161217202Y-88028047D01*
X161215161Y-88025358D01*
X161002056Y-87774071D01*
X160993593Y-87769722D01*
X160986656Y-87771949D01*
X158649395Y-90109210D01*
X158645754Y-90118000D01*
X158276246Y-90118000D01*
X158272605Y-90109210D01*
X155937148Y-87773753D01*
X155928358Y-87770112D01*
X155921552Y-87772931D01*
X155714163Y-88015754D01*
X155712108Y-88018442D01*
X155503190Y-88324704D01*
X155501434Y-88327603D01*
X155326814Y-88654637D01*
X155325384Y-88657703D01*
X155187102Y-89001689D01*
X155186011Y-89004894D01*
X155085693Y-89361790D01*
X155084953Y-89365099D01*
X155023763Y-89730755D01*
X155023386Y-89734112D01*
X155002046Y-90104225D01*
X155002034Y-90107623D01*
X137115500Y-90107623D01*
X137115500Y-87587089D01*
X156115409Y-87587089D01*
X156119170Y-87596565D01*
X158452210Y-89929605D01*
X158461000Y-89933246D01*
X158469790Y-89929605D01*
X160803248Y-87596147D01*
X160806705Y-87587801D01*
X160802711Y-87578506D01*
X160704118Y-87484944D01*
X160701551Y-87482760D01*
X160406631Y-87258092D01*
X160403843Y-87256197D01*
X160086379Y-87064691D01*
X160083405Y-87063109D01*
X159747123Y-86907013D01*
X159743988Y-86905758D01*
X159392801Y-86786888D01*
X159389577Y-86785987D01*
X159027602Y-86705740D01*
X159024280Y-86705190D01*
X158655771Y-86664506D01*
X158652398Y-86664318D01*
X158281652Y-86663671D01*
X158278287Y-86663847D01*
X157909649Y-86703243D01*
X157906296Y-86703787D01*
X157544081Y-86782762D01*
X157540812Y-86783663D01*
X157189242Y-86901296D01*
X157186092Y-86902543D01*
X156849271Y-87057463D01*
X156846279Y-87059041D01*
X156528172Y-87249425D01*
X156525353Y-87251326D01*
X156229660Y-87474957D01*
X156227093Y-87477126D01*
X156119085Y-87578907D01*
X156115409Y-87587089D01*
X137115500Y-87587089D01*
X137115500Y-86149222D01*
X137116701Y-86137029D01*
X137119285Y-86124038D01*
X137120486Y-86118000D01*
X137108499Y-86057734D01*
X137100734Y-86018699D01*
X137089231Y-86001484D01*
X137058684Y-85955766D01*
X137058681Y-85955763D01*
X137044484Y-85934516D01*
X137039366Y-85931096D01*
X137028353Y-85923737D01*
X137018883Y-85915965D01*
X136763035Y-85660117D01*
X136755263Y-85650647D01*
X136747904Y-85639634D01*
X136747903Y-85639633D01*
X136744484Y-85634516D01*
X136735119Y-85628258D01*
X136723239Y-85620320D01*
X136723236Y-85620318D01*
X136723234Y-85620316D01*
X136660301Y-85578266D01*
X136561000Y-85558514D01*
X136554962Y-85559715D01*
X136541971Y-85562299D01*
X136529778Y-85563500D01*
X111042222Y-85563500D01*
X111030029Y-85562299D01*
X111017038Y-85559715D01*
X111011000Y-85558514D01*
X110911699Y-85578266D01*
X110848766Y-85620316D01*
X110848764Y-85620318D01*
X110848761Y-85620320D01*
X110836881Y-85628258D01*
X110827516Y-85634516D01*
X110824097Y-85639633D01*
X110824096Y-85639634D01*
X110816737Y-85650647D01*
X110808965Y-85660117D01*
X110483117Y-85985965D01*
X110473647Y-85993737D01*
X110462634Y-86001096D01*
X110457516Y-86004516D01*
X110454097Y-86009633D01*
X110444005Y-86024737D01*
X110443319Y-86025763D01*
X110443316Y-86025766D01*
X110401266Y-86088699D01*
X110381514Y-86188000D01*
X110382715Y-86194038D01*
X110385299Y-86207029D01*
X110386500Y-86219222D01*
X110386500Y-95828000D01*
X110368194Y-95872194D01*
X110324000Y-95890500D01*
X109528442Y-95890500D01*
X109525431Y-95891099D01*
X109497287Y-95896697D01*
X109497285Y-95896698D01*
X109491252Y-95897898D01*
X109449078Y-95926078D01*
X109420898Y-95968252D01*
X109419698Y-95974285D01*
X109419697Y-95974287D01*
X109415367Y-95996055D01*
X109413500Y-96005442D01*
X109413500Y-102030558D01*
X108035000Y-102030558D01*
X108035000Y-99157431D01*
X108031359Y-99148641D01*
X108022569Y-99145000D01*
X106820431Y-99145000D01*
X106811641Y-99148641D01*
X106808000Y-99157431D01*
X106808000Y-102259568D01*
X106554000Y-102259568D01*
X106554000Y-99157431D01*
X106550359Y-99148641D01*
X106541569Y-99145000D01*
X105339432Y-99145000D01*
X105330642Y-99148641D01*
X105327001Y-99157431D01*
X105327001Y-102039945D01*
X99196000Y-102039945D01*
X99196000Y-100280500D01*
X99214306Y-100236306D01*
X99258500Y-100218000D01*
X100110123Y-100218000D01*
X100154411Y-100218039D01*
X100154412Y-100218039D01*
X100161449Y-100218045D01*
X100167794Y-100214998D01*
X100167795Y-100214998D01*
X100176034Y-100211042D01*
X100189188Y-100206448D01*
X100189776Y-100206314D01*
X100204962Y-100202850D01*
X100217435Y-100192911D01*
X100229329Y-100185450D01*
X100243705Y-100178547D01*
X100248102Y-100173049D01*
X100253813Y-100165908D01*
X100263673Y-100156065D01*
X100263989Y-100155813D01*
X100276323Y-100145985D01*
X100279380Y-100139648D01*
X100279382Y-100139645D01*
X100283251Y-100131622D01*
X100290735Y-100119738D01*
X100290978Y-100119435D01*
X100300694Y-100107285D01*
X100302271Y-100100428D01*
X100302273Y-100100423D01*
X100304322Y-100091511D01*
X100308938Y-100078366D01*
X100309098Y-100078034D01*
X100315965Y-100063798D01*
X100315985Y-100040799D01*
X100315986Y-100040783D01*
X100316000Y-100040723D01*
X100316000Y-100023877D01*
X100316045Y-99972551D01*
X100316007Y-99972472D01*
X100316000Y-99972407D01*
X100316000Y-98878569D01*
X105327000Y-98878569D01*
X105330641Y-98887359D01*
X105339431Y-98891000D01*
X106541569Y-98891000D01*
X106550359Y-98887359D01*
X106554000Y-98878569D01*
X106808000Y-98878569D01*
X106811641Y-98887359D01*
X106820431Y-98891000D01*
X108022568Y-98891000D01*
X108031358Y-98887359D01*
X108034999Y-98878569D01*
X108034999Y-95996055D01*
X108034400Y-95989970D01*
X108021464Y-95924932D01*
X108016843Y-95913776D01*
X107967543Y-95839993D01*
X107959007Y-95831457D01*
X107885225Y-95782157D01*
X107874067Y-95777536D01*
X107809030Y-95764599D01*
X107802946Y-95764000D01*
X106820431Y-95764000D01*
X106811641Y-95767641D01*
X106808000Y-95776431D01*
X106808000Y-98878569D01*
X106554000Y-98878569D01*
X106554000Y-95776432D01*
X106550359Y-95767642D01*
X106541569Y-95764001D01*
X105559055Y-95764001D01*
X105552970Y-95764600D01*
X105487932Y-95777536D01*
X105476776Y-95782157D01*
X105402993Y-95831457D01*
X105394457Y-95839993D01*
X105345157Y-95913775D01*
X105340536Y-95924933D01*
X105327599Y-95989970D01*
X105327000Y-95996054D01*
X105327000Y-98878569D01*
X100316000Y-98878569D01*
X100316000Y-97023877D01*
X100316039Y-96979589D01*
X100316039Y-96979588D01*
X100316045Y-96972551D01*
X100312834Y-96965864D01*
X100309042Y-96957966D01*
X100304448Y-96944812D01*
X100302415Y-96935901D01*
X100300850Y-96929038D01*
X100290911Y-96916565D01*
X100283450Y-96904671D01*
X100276547Y-96890295D01*
X100271049Y-96885898D01*
X100263908Y-96880187D01*
X100254065Y-96870327D01*
X100253878Y-96870092D01*
X100243985Y-96857677D01*
X100237648Y-96854620D01*
X100237645Y-96854618D01*
X100229622Y-96850749D01*
X100217738Y-96843265D01*
X100210782Y-96837702D01*
X100205285Y-96833306D01*
X100198428Y-96831729D01*
X100198423Y-96831727D01*
X100189511Y-96829678D01*
X100176366Y-96825062D01*
X100176150Y-96824958D01*
X100161798Y-96818035D01*
X100140114Y-96818016D01*
X100138799Y-96818015D01*
X100138783Y-96818014D01*
X100138723Y-96818000D01*
X100121877Y-96818000D01*
X100070808Y-96817955D01*
X100070551Y-96817955D01*
X100070472Y-96817993D01*
X100070407Y-96818000D01*
X94121877Y-96818000D01*
X94077589Y-96817961D01*
X94077588Y-96817961D01*
X94070551Y-96817955D01*
X94064206Y-96821002D01*
X94064205Y-96821002D01*
X94055966Y-96824958D01*
X94042812Y-96829552D01*
X94027038Y-96833150D01*
X94021532Y-96837537D01*
X94021533Y-96837537D01*
X94014565Y-96843089D01*
X94002672Y-96850549D01*
X93988295Y-96857453D01*
X93983899Y-96862950D01*
X93983898Y-96862951D01*
X93978187Y-96870092D01*
X93968327Y-96879935D01*
X93955677Y-96890015D01*
X93952620Y-96896352D01*
X93952618Y-96896355D01*
X93948749Y-96904378D01*
X93941266Y-96916261D01*
X93931306Y-96928715D01*
X93929729Y-96935572D01*
X93929727Y-96935577D01*
X93927678Y-96944489D01*
X93923062Y-96957634D01*
X93916035Y-96972202D01*
X93916029Y-96979239D01*
X93916015Y-96995201D01*
X93916014Y-96995217D01*
X93916000Y-96995277D01*
X93916000Y-97012123D01*
X93915955Y-97063449D01*
X93915993Y-97063528D01*
X93916000Y-97063593D01*
X93916000Y-100012123D01*
X93915955Y-100063449D01*
X93919002Y-100069794D01*
X93919002Y-100069795D01*
X93922958Y-100078034D01*
X93927552Y-100091188D01*
X93931150Y-100106962D01*
X93935537Y-100112467D01*
X93941089Y-100119435D01*
X93948549Y-100131328D01*
X93955453Y-100145705D01*
X93960950Y-100150101D01*
X93960951Y-100150102D01*
X93968092Y-100155813D01*
X93977935Y-100165673D01*
X93988015Y-100178323D01*
X93994352Y-100181380D01*
X93994355Y-100181382D01*
X94002378Y-100185251D01*
X94014261Y-100192734D01*
X94026715Y-100202694D01*
X94033572Y-100204271D01*
X94033577Y-100204273D01*
X94042489Y-100206322D01*
X94055634Y-100210938D01*
X94070202Y-100217965D01*
X94091886Y-100217984D01*
X94093201Y-100217985D01*
X94093217Y-100217986D01*
X94093277Y-100218000D01*
X94110123Y-100218000D01*
X94161192Y-100218045D01*
X94161449Y-100218045D01*
X94161528Y-100218007D01*
X94161593Y-100218000D01*
X94973500Y-100218000D01*
X95017694Y-100236306D01*
X95036000Y-100280500D01*
X95036000Y-102355500D01*
X95017694Y-102399694D01*
X94973500Y-102418000D01*
X93490816Y-102418000D01*
X93476810Y-102416410D01*
X93468220Y-102414435D01*
X93461358Y-102412857D01*
X93454493Y-102414411D01*
X93452497Y-102414407D01*
X93435353Y-102415474D01*
X93408782Y-102412857D01*
X93311052Y-102403231D01*
X93299043Y-102400843D01*
X93160742Y-102358890D01*
X93149422Y-102354201D01*
X93021972Y-102286077D01*
X93011785Y-102279270D01*
X92900073Y-102187591D01*
X92891409Y-102178927D01*
X92799730Y-102067215D01*
X92792923Y-102057028D01*
X92724799Y-101929578D01*
X92720110Y-101918259D01*
X92713126Y-101895235D01*
X92678157Y-101779957D01*
X92675768Y-101767944D01*
X92663569Y-101644080D01*
X92664559Y-101628601D01*
X92664565Y-101625220D01*
X92666143Y-101618358D01*
X92664429Y-101610780D01*
X92662541Y-101602439D01*
X92661000Y-101588646D01*
X92661000Y-92648363D01*
X96115166Y-92648363D01*
X96119112Y-92657592D01*
X96208698Y-92743204D01*
X96211262Y-92745401D01*
X96505407Y-92971107D01*
X96508174Y-92973001D01*
X96824967Y-93165615D01*
X96827944Y-93167211D01*
X97163686Y-93324484D01*
X97166801Y-93325742D01*
X97517558Y-93445832D01*
X97520816Y-93446754D01*
X97882489Y-93528261D01*
X97885814Y-93528823D01*
X98254169Y-93570792D01*
X98257551Y-93570993D01*
X98628291Y-93572934D01*
X98631648Y-93572770D01*
X99000432Y-93534660D01*
X99003780Y-93534130D01*
X99366269Y-93456419D01*
X99369542Y-93455531D01*
X99721527Y-93339122D01*
X99724675Y-93337888D01*
X100062036Y-93184144D01*
X100065029Y-93182579D01*
X100383821Y-92993295D01*
X100386617Y-92991423D01*
X100683096Y-92768820D01*
X100685680Y-92766652D01*
X100802840Y-92657016D01*
X100806519Y-92648906D01*
X100802744Y-92639349D01*
X98469790Y-90306395D01*
X98461000Y-90302754D01*
X98452210Y-90306395D01*
X96118647Y-92639958D01*
X96115166Y-92648363D01*
X92661000Y-92648363D01*
X92661000Y-90107623D01*
X95002034Y-90107623D01*
X95020791Y-90477886D01*
X95021144Y-90481243D01*
X95079780Y-90847320D01*
X95080492Y-90850613D01*
X95178322Y-91208219D01*
X95179391Y-91211432D01*
X95315268Y-91556377D01*
X95316669Y-91559437D01*
X95489013Y-91887704D01*
X95490733Y-91890590D01*
X95697515Y-92198314D01*
X95699550Y-92201015D01*
X95919575Y-92462303D01*
X95928024Y-92466682D01*
X95934892Y-92464503D01*
X98272605Y-90126790D01*
X98276246Y-90118000D01*
X98645754Y-90118000D01*
X98649395Y-90126790D01*
X100984509Y-92461904D01*
X100992020Y-92465015D01*
X101002203Y-92460342D01*
X101200477Y-92229828D01*
X101202551Y-92227135D01*
X101301400Y-92083308D01*
X106035446Y-92083308D01*
X106038250Y-92090077D01*
X106074228Y-92120697D01*
X106079227Y-92124171D01*
X106254324Y-92222030D01*
X106259895Y-92224464D01*
X106450661Y-92286448D01*
X106456618Y-92287757D01*
X106655785Y-92311506D01*
X106661865Y-92311634D01*
X106861863Y-92296245D01*
X106867855Y-92295188D01*
X107061058Y-92241245D01*
X107066721Y-92239048D01*
X107245774Y-92148602D01*
X107250896Y-92145352D01*
X107321296Y-92090349D01*
X107325980Y-92082069D01*
X107324260Y-92075865D01*
X106689790Y-91441395D01*
X106681000Y-91437754D01*
X106672210Y-91441395D01*
X106039087Y-92074518D01*
X106035446Y-92083308D01*
X101301400Y-92083308D01*
X101412533Y-91921609D01*
X101414298Y-91918719D01*
X101590065Y-91592284D01*
X101591498Y-91589239D01*
X101730981Y-91245733D01*
X101732082Y-91242536D01*
X101732445Y-91241260D01*
X105622259Y-91241260D01*
X105639044Y-91441147D01*
X105640140Y-91447121D01*
X105695434Y-91639950D01*
X105697667Y-91645592D01*
X105789364Y-91824014D01*
X105792649Y-91829112D01*
X105843571Y-91893359D01*
X105851885Y-91897987D01*
X105858210Y-91896185D01*
X106492605Y-91261790D01*
X106496246Y-91253000D01*
X106865754Y-91253000D01*
X106869395Y-91261790D01*
X107502747Y-91895142D01*
X107510288Y-91898265D01*
X107520441Y-91893617D01*
X107544439Y-91865814D01*
X107547950Y-91860837D01*
X107647024Y-91686437D01*
X107649501Y-91680873D01*
X107712818Y-91490537D01*
X107714164Y-91484613D01*
X107739467Y-91284314D01*
X107739711Y-91280819D01*
X107740076Y-91254738D01*
X107739931Y-91251272D01*
X107720228Y-91050326D01*
X107719046Y-91044358D01*
X107661071Y-90852336D01*
X107658751Y-90846708D01*
X107564582Y-90669601D01*
X107561216Y-90664536D01*
X107518696Y-90612401D01*
X107510317Y-90607890D01*
X107503742Y-90609863D01*
X106869395Y-91244210D01*
X106865754Y-91253000D01*
X106496246Y-91253000D01*
X106492605Y-91244210D01*
X105859674Y-90611279D01*
X105850884Y-90607638D01*
X105844262Y-90610381D01*
X105809086Y-90652302D01*
X105805649Y-90657323D01*
X105709018Y-90833095D01*
X105706619Y-90838693D01*
X105645969Y-91029886D01*
X105644703Y-91035840D01*
X105622344Y-91235171D01*
X105622259Y-91241260D01*
X101732445Y-91241260D01*
X101833648Y-90885985D01*
X101834400Y-90882675D01*
X101896862Y-90517255D01*
X101897253Y-90513876D01*
X101902762Y-90423802D01*
X106035971Y-90423802D01*
X106037857Y-90430252D01*
X106672210Y-91064605D01*
X106681000Y-91068246D01*
X106689790Y-91064605D01*
X107322564Y-90431831D01*
X107326205Y-90423041D01*
X107323520Y-90416560D01*
X107275598Y-90376916D01*
X107270549Y-90373511D01*
X107094112Y-90278112D01*
X107088494Y-90275750D01*
X106896877Y-90216434D01*
X106890928Y-90215213D01*
X106691426Y-90194245D01*
X106685357Y-90194202D01*
X106485582Y-90212384D01*
X106479615Y-90213522D01*
X106287190Y-90270156D01*
X106281544Y-90272437D01*
X106103782Y-90365368D01*
X106098694Y-90368698D01*
X106040541Y-90415455D01*
X106035971Y-90423802D01*
X101902762Y-90423802D01*
X101919934Y-90143055D01*
X101919992Y-90141254D01*
X101920070Y-90118886D01*
X101920025Y-90117117D01*
X101899932Y-89746098D01*
X101899568Y-89742756D01*
X101839655Y-89376889D01*
X101838929Y-89373585D01*
X101739851Y-89016322D01*
X101738777Y-89013129D01*
X101601694Y-88668655D01*
X101600277Y-88665590D01*
X101426798Y-88337945D01*
X101425055Y-88335044D01*
X101217202Y-88028047D01*
X101215161Y-88025358D01*
X101002056Y-87774071D01*
X100993593Y-87769722D01*
X100986656Y-87771949D01*
X98649395Y-90109210D01*
X98645754Y-90118000D01*
X98276246Y-90118000D01*
X98272605Y-90109210D01*
X95937148Y-87773753D01*
X95928358Y-87770112D01*
X95921552Y-87772931D01*
X95714163Y-88015754D01*
X95712108Y-88018442D01*
X95503190Y-88324704D01*
X95501434Y-88327603D01*
X95326814Y-88654637D01*
X95325384Y-88657703D01*
X95187102Y-89001689D01*
X95186011Y-89004894D01*
X95085693Y-89361790D01*
X95084953Y-89365099D01*
X95023763Y-89730755D01*
X95023386Y-89734112D01*
X95002046Y-90104225D01*
X95002034Y-90107623D01*
X92661000Y-90107623D01*
X92661000Y-87587089D01*
X96115409Y-87587089D01*
X96119170Y-87596565D01*
X98452210Y-89929605D01*
X98461000Y-89933246D01*
X98469790Y-89929605D01*
X100803248Y-87596147D01*
X100806705Y-87587801D01*
X100802711Y-87578506D01*
X100704118Y-87484944D01*
X100701551Y-87482760D01*
X100406631Y-87258092D01*
X100403843Y-87256197D01*
X100086379Y-87064691D01*
X100083405Y-87063109D01*
X99747123Y-86907013D01*
X99743988Y-86905758D01*
X99392801Y-86786888D01*
X99389577Y-86785987D01*
X99027602Y-86705740D01*
X99024280Y-86705190D01*
X98655771Y-86664506D01*
X98652398Y-86664318D01*
X98281652Y-86663671D01*
X98278287Y-86663847D01*
X97909649Y-86703243D01*
X97906296Y-86703787D01*
X97544081Y-86782762D01*
X97540812Y-86783663D01*
X97189242Y-86901296D01*
X97186092Y-86902543D01*
X96849271Y-87057463D01*
X96846279Y-87059041D01*
X96528172Y-87249425D01*
X96525353Y-87251326D01*
X96229660Y-87474957D01*
X96227093Y-87477126D01*
X96119085Y-87578907D01*
X96115409Y-87587089D01*
X92661000Y-87587089D01*
X92661000Y-83368584D01*
X97428629Y-83368584D01*
X97445490Y-83569381D01*
X97456672Y-83608377D01*
X97497652Y-83751289D01*
X97501032Y-83763078D01*
X97593139Y-83942299D01*
X97718302Y-84100215D01*
X97720626Y-84102193D01*
X97720628Y-84102195D01*
X97869425Y-84228832D01*
X97871754Y-84230814D01*
X98047651Y-84329119D01*
X98050555Y-84330063D01*
X98050556Y-84330063D01*
X98236379Y-84390441D01*
X98236384Y-84390442D01*
X98239292Y-84391387D01*
X98439378Y-84415246D01*
X98442420Y-84415012D01*
X98442423Y-84415012D01*
X98637236Y-84400021D01*
X98637238Y-84400021D01*
X98640287Y-84399786D01*
X98834367Y-84345598D01*
X98837090Y-84344223D01*
X98837094Y-84344221D01*
X98848699Y-84338359D01*
X154079058Y-84338359D01*
X154092611Y-84545135D01*
X154143619Y-84745980D01*
X154230373Y-84934165D01*
X154349970Y-85103390D01*
X154498402Y-85247986D01*
X154670699Y-85363111D01*
X154861091Y-85444910D01*
X154863877Y-85445540D01*
X154863882Y-85445542D01*
X155060411Y-85490012D01*
X155060414Y-85490012D01*
X155063201Y-85490643D01*
X155154531Y-85494231D01*
X155267402Y-85498666D01*
X155267406Y-85498666D01*
X155270262Y-85498778D01*
X155475337Y-85469044D01*
X155671560Y-85402435D01*
X155852359Y-85301183D01*
X156011678Y-85168678D01*
X156144183Y-85009359D01*
X156245435Y-84828560D01*
X156312044Y-84632337D01*
X156324284Y-84547915D01*
X156341515Y-84429078D01*
X156341515Y-84429073D01*
X156341778Y-84427262D01*
X156343330Y-84368000D01*
X156340607Y-84338359D01*
X160579058Y-84338359D01*
X160592611Y-84545135D01*
X160643619Y-84745980D01*
X160730373Y-84934165D01*
X160849970Y-85103390D01*
X160998402Y-85247986D01*
X161170699Y-85363111D01*
X161361091Y-85444910D01*
X161363877Y-85445540D01*
X161363882Y-85445542D01*
X161560411Y-85490012D01*
X161560414Y-85490012D01*
X161563201Y-85490643D01*
X161654531Y-85494231D01*
X161767402Y-85498666D01*
X161767406Y-85498666D01*
X161770262Y-85498778D01*
X161975337Y-85469044D01*
X162171560Y-85402435D01*
X162352359Y-85301183D01*
X162511678Y-85168678D01*
X162644183Y-85009359D01*
X162745435Y-84828560D01*
X162812044Y-84632337D01*
X162824284Y-84547915D01*
X162841515Y-84429078D01*
X162841515Y-84429073D01*
X162841778Y-84427262D01*
X162843330Y-84368000D01*
X162840607Y-84338359D01*
X162824631Y-84164504D01*
X162824369Y-84161649D01*
X162823590Y-84158886D01*
X162768899Y-83964966D01*
X162768897Y-83964962D01*
X162768121Y-83962209D01*
X162676470Y-83776359D01*
X162659643Y-83753825D01*
X162554202Y-83612622D01*
X162554201Y-83612620D01*
X162552485Y-83610323D01*
X162400319Y-83469662D01*
X162225067Y-83359087D01*
X162032599Y-83282300D01*
X162029793Y-83281742D01*
X162029790Y-83281741D01*
X161832167Y-83242431D01*
X161832165Y-83242431D01*
X161829361Y-83241873D01*
X161731846Y-83240597D01*
X161625020Y-83239198D01*
X161625015Y-83239198D01*
X161622158Y-83239161D01*
X161619337Y-83239646D01*
X161619333Y-83239646D01*
X161499768Y-83260191D01*
X161417931Y-83274253D01*
X161415243Y-83275245D01*
X161415238Y-83275246D01*
X161226207Y-83344984D01*
X161226204Y-83344985D01*
X161223519Y-83345976D01*
X161045433Y-83451926D01*
X160889637Y-83588555D01*
X160887861Y-83590808D01*
X160887860Y-83590809D01*
X160872477Y-83610323D01*
X160761348Y-83751289D01*
X160664863Y-83934676D01*
X160664016Y-83937403D01*
X160664015Y-83937406D01*
X160651364Y-83978150D01*
X160603414Y-84132575D01*
X160579058Y-84338359D01*
X156340607Y-84338359D01*
X156324631Y-84164504D01*
X156324369Y-84161649D01*
X156323590Y-84158886D01*
X156268899Y-83964966D01*
X156268897Y-83964962D01*
X156268121Y-83962209D01*
X156176470Y-83776359D01*
X156159643Y-83753825D01*
X156054202Y-83612622D01*
X156054201Y-83612620D01*
X156052485Y-83610323D01*
X155900319Y-83469662D01*
X155725067Y-83359087D01*
X155532599Y-83282300D01*
X155529793Y-83281742D01*
X155529790Y-83281741D01*
X155332167Y-83242431D01*
X155332165Y-83242431D01*
X155329361Y-83241873D01*
X155231846Y-83240597D01*
X155125020Y-83239198D01*
X155125015Y-83239198D01*
X155122158Y-83239161D01*
X155119337Y-83239646D01*
X155119333Y-83239646D01*
X154999768Y-83260191D01*
X154917931Y-83274253D01*
X154915243Y-83275245D01*
X154915238Y-83275246D01*
X154726207Y-83344984D01*
X154726204Y-83344985D01*
X154723519Y-83345976D01*
X154545433Y-83451926D01*
X154389637Y-83588555D01*
X154387861Y-83590808D01*
X154387860Y-83590809D01*
X154372477Y-83610323D01*
X154261348Y-83751289D01*
X154164863Y-83934676D01*
X154164016Y-83937403D01*
X154164015Y-83937406D01*
X154151364Y-83978150D01*
X154103414Y-84132575D01*
X154079058Y-84338359D01*
X98848699Y-84338359D01*
X99011506Y-84256119D01*
X99014226Y-84254745D01*
X99016624Y-84252872D01*
X99016628Y-84252869D01*
X99170596Y-84132575D01*
X99173013Y-84130687D01*
X99304679Y-83978150D01*
X99404210Y-83802944D01*
X99467814Y-83611743D01*
X99468240Y-83608377D01*
X99492849Y-83413570D01*
X99492849Y-83413569D01*
X99493069Y-83411828D01*
X99493472Y-83383000D01*
X99493303Y-83381280D01*
X99493303Y-83381271D01*
X99474107Y-83185498D01*
X99473809Y-83182458D01*
X99415568Y-82989556D01*
X99320968Y-82811639D01*
X99193612Y-82655485D01*
X99038351Y-82527042D01*
X99035667Y-82525591D01*
X99035663Y-82525588D01*
X98863784Y-82432654D01*
X98861099Y-82431202D01*
X98764853Y-82401409D01*
X98671522Y-82372518D01*
X98671519Y-82372517D01*
X98668607Y-82371616D01*
X98665574Y-82371297D01*
X98665573Y-82371297D01*
X98615780Y-82366064D01*
X98468208Y-82350553D01*
X98465175Y-82350829D01*
X98465171Y-82350829D01*
X98377987Y-82358764D01*
X98267534Y-82368816D01*
X98074229Y-82425709D01*
X98003129Y-82462879D01*
X97898360Y-82517650D01*
X97898357Y-82517652D01*
X97895656Y-82519064D01*
X97738617Y-82645327D01*
X97609093Y-82799687D01*
X97512018Y-82976266D01*
X97451090Y-83168337D01*
X97450750Y-83171369D01*
X97431001Y-83347440D01*
X97428629Y-83368584D01*
X92661000Y-83368584D01*
X92661000Y-81755558D01*
X97433500Y-81755558D01*
X97434099Y-81758569D01*
X97439085Y-81783633D01*
X97440898Y-81792748D01*
X97469078Y-81834922D01*
X97511252Y-81863102D01*
X97517285Y-81864302D01*
X97517287Y-81864303D01*
X97543384Y-81869494D01*
X97548442Y-81870500D01*
X99373558Y-81870500D01*
X99378616Y-81869494D01*
X99404713Y-81864303D01*
X99404715Y-81864302D01*
X99410748Y-81863102D01*
X99452922Y-81834922D01*
X99481102Y-81792748D01*
X99482916Y-81783633D01*
X99487901Y-81758569D01*
X99488500Y-81755558D01*
X99488500Y-81410000D01*
X99506806Y-81365806D01*
X99551000Y-81347500D01*
X105743052Y-81347500D01*
X105787246Y-81365806D01*
X105802493Y-81390687D01*
X105828006Y-81469210D01*
X105828008Y-81469215D01*
X105829019Y-81472326D01*
X105830656Y-81475161D01*
X105924865Y-81638338D01*
X105924868Y-81638342D01*
X105926503Y-81641174D01*
X106056963Y-81786064D01*
X106214695Y-81900663D01*
X106392808Y-81979964D01*
X106396012Y-81980645D01*
X106580315Y-82019820D01*
X106580319Y-82019820D01*
X106583516Y-82020500D01*
X106778484Y-82020500D01*
X106781681Y-82019820D01*
X106781685Y-82019820D01*
X106965988Y-81980645D01*
X106969192Y-81979964D01*
X107147305Y-81900663D01*
X107305037Y-81786064D01*
X107435497Y-81641174D01*
X107437132Y-81638342D01*
X107437135Y-81638338D01*
X107531344Y-81475161D01*
X107532981Y-81472326D01*
X107533992Y-81469215D01*
X107533994Y-81469210D01*
X107592216Y-81290018D01*
X107592216Y-81290017D01*
X107593229Y-81286900D01*
X107613609Y-81093000D01*
X107593229Y-80899100D01*
X107574793Y-80842359D01*
X154421395Y-80842359D01*
X154423499Y-80847438D01*
X154579368Y-80956577D01*
X154584079Y-80959298D01*
X154777996Y-81049723D01*
X154783105Y-81051583D01*
X154989777Y-81106960D01*
X154995131Y-81107904D01*
X155208280Y-81126552D01*
X155213720Y-81126552D01*
X155426869Y-81107904D01*
X155432223Y-81106960D01*
X155638895Y-81051583D01*
X155644004Y-81049723D01*
X155837921Y-80959298D01*
X155842632Y-80956577D01*
X155995570Y-80849490D01*
X156000113Y-80842359D01*
X160921395Y-80842359D01*
X160923499Y-80847438D01*
X161079368Y-80956577D01*
X161084079Y-80959298D01*
X161277996Y-81049723D01*
X161283105Y-81051583D01*
X161489777Y-81106960D01*
X161495131Y-81107904D01*
X161708280Y-81126552D01*
X161713720Y-81126552D01*
X161926869Y-81107904D01*
X161932223Y-81106960D01*
X162138895Y-81051583D01*
X162144004Y-81049723D01*
X162337921Y-80959298D01*
X162342632Y-80956577D01*
X162495570Y-80849490D01*
X162500682Y-80841465D01*
X162499492Y-80836097D01*
X161719790Y-80056395D01*
X161711000Y-80052754D01*
X161702210Y-80056395D01*
X160925036Y-80833569D01*
X160921395Y-80842359D01*
X156000113Y-80842359D01*
X156000682Y-80841465D01*
X155999492Y-80836097D01*
X155219790Y-80056395D01*
X155211000Y-80052754D01*
X155202210Y-80056395D01*
X154425036Y-80833569D01*
X154421395Y-80842359D01*
X107574793Y-80842359D01*
X107533994Y-80716790D01*
X107533992Y-80716785D01*
X107532981Y-80713674D01*
X107497703Y-80652570D01*
X107437135Y-80547662D01*
X107437132Y-80547658D01*
X107435497Y-80544826D01*
X107305037Y-80399936D01*
X107147305Y-80285337D01*
X106969192Y-80206036D01*
X106953941Y-80202794D01*
X106781685Y-80166180D01*
X106781681Y-80166180D01*
X106778484Y-80165500D01*
X106583516Y-80165500D01*
X106580319Y-80166180D01*
X106580315Y-80166180D01*
X106408059Y-80202794D01*
X106392808Y-80206036D01*
X106214696Y-80285337D01*
X106212051Y-80287259D01*
X106212047Y-80287261D01*
X106059612Y-80398011D01*
X106059610Y-80398013D01*
X106056963Y-80399936D01*
X105926503Y-80544826D01*
X105924868Y-80547658D01*
X105924865Y-80547662D01*
X105864297Y-80652570D01*
X105829019Y-80713674D01*
X105828008Y-80716785D01*
X105828006Y-80716790D01*
X105802493Y-80795313D01*
X105771426Y-80831688D01*
X105743052Y-80838500D01*
X99551000Y-80838500D01*
X99506806Y-80820194D01*
X99488500Y-80776000D01*
X99488500Y-79930442D01*
X99481102Y-79893252D01*
X99466046Y-79870720D01*
X153952448Y-79870720D01*
X153971096Y-80083869D01*
X153972040Y-80089223D01*
X154027417Y-80295895D01*
X154029277Y-80301004D01*
X154119702Y-80494921D01*
X154122423Y-80499632D01*
X154229510Y-80652570D01*
X154237535Y-80657682D01*
X154242903Y-80656492D01*
X155022605Y-79876790D01*
X155026246Y-79868000D01*
X155395754Y-79868000D01*
X155399395Y-79876790D01*
X156176569Y-80653964D01*
X156185359Y-80657605D01*
X156190438Y-80655501D01*
X156299577Y-80499632D01*
X156302298Y-80494921D01*
X156392723Y-80301004D01*
X156394583Y-80295895D01*
X156449960Y-80089223D01*
X156450904Y-80083869D01*
X156469552Y-79870720D01*
X160452448Y-79870720D01*
X160471096Y-80083869D01*
X160472040Y-80089223D01*
X160527417Y-80295895D01*
X160529277Y-80301004D01*
X160619702Y-80494921D01*
X160622423Y-80499632D01*
X160729510Y-80652570D01*
X160737535Y-80657682D01*
X160742903Y-80656492D01*
X161522605Y-79876790D01*
X161526246Y-79868000D01*
X161895754Y-79868000D01*
X161899395Y-79876790D01*
X162676569Y-80653964D01*
X162685359Y-80657605D01*
X162690438Y-80655501D01*
X162799577Y-80499632D01*
X162802298Y-80494921D01*
X162892723Y-80301004D01*
X162894583Y-80295895D01*
X162949960Y-80089223D01*
X162950904Y-80083869D01*
X162969552Y-79870720D01*
X162969552Y-79865280D01*
X162950904Y-79652131D01*
X162949960Y-79646777D01*
X162894583Y-79440105D01*
X162892723Y-79434996D01*
X162802298Y-79241079D01*
X162799577Y-79236368D01*
X162692490Y-79083430D01*
X162684465Y-79078318D01*
X162679097Y-79079508D01*
X161899395Y-79859210D01*
X161895754Y-79868000D01*
X161526246Y-79868000D01*
X161522605Y-79859210D01*
X160745431Y-79082036D01*
X160736641Y-79078395D01*
X160731562Y-79080499D01*
X160622423Y-79236368D01*
X160619702Y-79241079D01*
X160529277Y-79434996D01*
X160527417Y-79440105D01*
X160472040Y-79646777D01*
X160471096Y-79652131D01*
X160452448Y-79865280D01*
X160452448Y-79870720D01*
X156469552Y-79870720D01*
X156469552Y-79865280D01*
X156450904Y-79652131D01*
X156449960Y-79646777D01*
X156394583Y-79440105D01*
X156392723Y-79434996D01*
X156302298Y-79241079D01*
X156299577Y-79236368D01*
X156192490Y-79083430D01*
X156184465Y-79078318D01*
X156179097Y-79079508D01*
X155399395Y-79859210D01*
X155395754Y-79868000D01*
X155026246Y-79868000D01*
X155022605Y-79859210D01*
X154245431Y-79082036D01*
X154236641Y-79078395D01*
X154231562Y-79080499D01*
X154122423Y-79236368D01*
X154119702Y-79241079D01*
X154029277Y-79434996D01*
X154027417Y-79440105D01*
X153972040Y-79646777D01*
X153971096Y-79652131D01*
X153952448Y-79865280D01*
X153952448Y-79870720D01*
X99466046Y-79870720D01*
X99452922Y-79851078D01*
X99410748Y-79822898D01*
X99404715Y-79821698D01*
X99404713Y-79821697D01*
X99376569Y-79816099D01*
X99373558Y-79815500D01*
X97548442Y-79815500D01*
X97545431Y-79816099D01*
X97517287Y-79821697D01*
X97517285Y-79821698D01*
X97511252Y-79822898D01*
X97469078Y-79851078D01*
X97440898Y-79893252D01*
X97433500Y-79930442D01*
X97433500Y-81755558D01*
X92661000Y-81755558D01*
X92661000Y-78894535D01*
X154421318Y-78894535D01*
X154422508Y-78899903D01*
X155202210Y-79679605D01*
X155211000Y-79683246D01*
X155219790Y-79679605D01*
X155996964Y-78902431D01*
X156000235Y-78894535D01*
X160921318Y-78894535D01*
X160922508Y-78899903D01*
X161702210Y-79679605D01*
X161711000Y-79683246D01*
X161719790Y-79679605D01*
X162496964Y-78902431D01*
X162500605Y-78893641D01*
X162498501Y-78888562D01*
X162342632Y-78779423D01*
X162337921Y-78776702D01*
X162144004Y-78686277D01*
X162138895Y-78684417D01*
X161932223Y-78629040D01*
X161926869Y-78628096D01*
X161713720Y-78609448D01*
X161708280Y-78609448D01*
X161495131Y-78628096D01*
X161489777Y-78629040D01*
X161283105Y-78684417D01*
X161277996Y-78686277D01*
X161084079Y-78776702D01*
X161079368Y-78779423D01*
X160926430Y-78886510D01*
X160921318Y-78894535D01*
X156000235Y-78894535D01*
X156000605Y-78893641D01*
X155998501Y-78888562D01*
X155842632Y-78779423D01*
X155837921Y-78776702D01*
X155644004Y-78686277D01*
X155638895Y-78684417D01*
X155432223Y-78629040D01*
X155426869Y-78628096D01*
X155213720Y-78609448D01*
X155208280Y-78609448D01*
X154995131Y-78628096D01*
X154989777Y-78629040D01*
X154783105Y-78684417D01*
X154777996Y-78686277D01*
X154584079Y-78776702D01*
X154579368Y-78779423D01*
X154426430Y-78886510D01*
X154421318Y-78894535D01*
X92661000Y-78894535D01*
X92661000Y-78647816D01*
X92662590Y-78633810D01*
X92664565Y-78625220D01*
X92666143Y-78618358D01*
X92664589Y-78611493D01*
X92664593Y-78609497D01*
X92663526Y-78592353D01*
X92675768Y-78468056D01*
X92678158Y-78456039D01*
X92686149Y-78429698D01*
X92720110Y-78317741D01*
X92724799Y-78306422D01*
X92792923Y-78178972D01*
X92799730Y-78168785D01*
X92891409Y-78057073D01*
X92900073Y-78048409D01*
X93011785Y-77956730D01*
X93021972Y-77949923D01*
X93149422Y-77881799D01*
X93160741Y-77877110D01*
X93183765Y-77870126D01*
X93299043Y-77835157D01*
X93311052Y-77832769D01*
X93391907Y-77824805D01*
X93434920Y-77820569D01*
X93450399Y-77821559D01*
X93453780Y-77821565D01*
X93460642Y-77823143D01*
X93467505Y-77821590D01*
X93467507Y-77821590D01*
X93476561Y-77819541D01*
X93490354Y-77818000D01*
X163431184Y-77818000D01*
X163445190Y-77819590D01*
G37*
%TD.AperFunction*%
M02*
