%FSLAX45Y45*%
G04 Gerber Fmt 4.5, Leading zero omitted, Abs format (unit mm)*
G04 Created by KiCad (PCBNEW (6.0.2)) date 2022-04-04 11:24:25*
%MOMM*%
%LPD*%
G01*
G04 APERTURE LIST*
%TA.AperFunction,Profile*%
%ADD10C,0.050000*%
%TD*%
%ADD11C,0.200000*%
%ADD12C,0.080000*%
%ADD13C,0.090000*%
%ADD14C,0.100000*%
%ADD15C,0.110000*%
%ADD16C,0.320000*%
G04 APERTURE END LIST*
D10*
X9411600Y-9701800D02*
X10011600Y-9701800D01*
X16346100Y-10261800D02*
G75*
G03*
X16446100Y-10161800I0J100000D01*
G01*
X16280600Y-9701800D02*
X16280600Y-10001800D01*
X15792600Y-10261800D02*
X9899600Y-10261800D01*
X9246100Y-7861800D02*
X9246100Y-10161800D01*
X10011600Y-9701800D02*
X10011600Y-10001800D01*
X9523600Y-10261800D02*
X9346100Y-10261800D01*
X9411600Y-10001800D02*
X9411600Y-9701800D01*
X16346100Y-7761800D02*
X9346100Y-7761800D01*
X16168600Y-10261800D02*
X16346100Y-10261800D01*
X9523600Y-10261800D02*
X9523600Y-10001800D01*
X9346100Y-7761800D02*
G75*
G03*
X9246100Y-7861800I0J-100000D01*
G01*
X16280600Y-10001800D02*
X16168600Y-10001800D01*
X15680600Y-9701800D02*
X16280600Y-9701800D01*
X15792600Y-10261800D02*
X15792600Y-10001800D01*
X15792600Y-10001800D02*
X15680600Y-10001800D01*
X9899600Y-10001800D02*
X9899600Y-10261800D01*
X9523600Y-10001800D02*
X9411600Y-10001800D01*
X16446100Y-7861800D02*
G75*
G03*
X16346100Y-7761800I-100000J0D01*
G01*
X15680600Y-10001800D02*
X15680600Y-9701800D01*
X10011600Y-10001800D02*
X9899600Y-10001800D01*
X9246100Y-10161800D02*
G75*
G03*
X9346100Y-10261800I100000J0D01*
G01*
X16446100Y-10161800D02*
X16446100Y-7861800D01*
X16168600Y-10001800D02*
X16168600Y-10261800D01*
D11*
D12*
X10628100Y-8069300D02*
X10708100Y-8149300D01*
X10708100Y-8069300D02*
X10628100Y-8149300D01*
X10628100Y-9085300D02*
X10708100Y-9165300D01*
X10708100Y-9085300D02*
X10628100Y-9165300D01*
D13*
X9891100Y-8084300D02*
G75*
G03*
X9891100Y-8084300I-45000J0D01*
G01*
X9891100Y-8338300D02*
G75*
G03*
X9891100Y-8338300I-45000J0D01*
G01*
D14*
X12211100Y-8767800D02*
X12211100Y-8867800D01*
X12161100Y-8817800D02*
X12261100Y-8817800D01*
X12211100Y-9021800D02*
X12211100Y-9121800D01*
X12161100Y-9071800D02*
X12261100Y-9071800D01*
X12465100Y-8767800D02*
X12465100Y-8867800D01*
X12415100Y-8817800D02*
X12515100Y-8817800D01*
X12465100Y-9021800D02*
X12465100Y-9121800D01*
X12415100Y-9071800D02*
X12515100Y-9071800D01*
X12719100Y-8767800D02*
X12719100Y-8867800D01*
X12669100Y-8817800D02*
X12769100Y-8817800D01*
X12719100Y-9021800D02*
X12719100Y-9121800D01*
X12669100Y-9071800D02*
X12769100Y-9071800D01*
X12973100Y-8767800D02*
X12973100Y-8867800D01*
X12923100Y-8817800D02*
X13023100Y-8817800D01*
X12973100Y-9021800D02*
X12973100Y-9121800D01*
X12923100Y-9071800D02*
X13023100Y-9071800D01*
X13227100Y-8767800D02*
X13227100Y-8867800D01*
X13177100Y-8817800D02*
X13277100Y-8817800D01*
X13227100Y-9021800D02*
X13227100Y-9121800D01*
X13177100Y-9071800D02*
X13277100Y-9071800D01*
X13481100Y-8767800D02*
X13481100Y-8867800D01*
X13431100Y-8817800D02*
X13531100Y-8817800D01*
X13481100Y-9021800D02*
X13481100Y-9121800D01*
X13431100Y-9071800D02*
X13531100Y-9071800D01*
D15*
X15559991Y-8025691D02*
X15559991Y-7947909D01*
X15482209Y-7947909D01*
X15482209Y-8025691D01*
X15559991Y-8025691D01*
X15559991Y-8475691D02*
X15559991Y-8397909D01*
X15482209Y-8397909D01*
X15482209Y-8475691D01*
X15559991Y-8475691D01*
X16209991Y-8025691D02*
X16209991Y-7947909D01*
X16132209Y-7947909D01*
X16132209Y-8025691D01*
X16209991Y-8025691D01*
X16209991Y-8475691D02*
X16209991Y-8397909D01*
X16132209Y-8397909D01*
X16132209Y-8475691D01*
X16209991Y-8475691D01*
D16*
X9846100Y-9171800D02*
X10006100Y-9011800D01*
X9846100Y-8851800D01*
X9686100Y-9011800D01*
X9846100Y-9171800D01*
X15846100Y-9171800D02*
X16006100Y-9011800D01*
X15846100Y-8851800D01*
X15686100Y-9011800D01*
X15846100Y-9171800D01*
D11*
X9501219Y-10574776D02*
X9501219Y-10374776D01*
X9548838Y-10374776D01*
X9577410Y-10384300D01*
X9596457Y-10403348D01*
X9605981Y-10422395D01*
X9615505Y-10460490D01*
X9615505Y-10489062D01*
X9605981Y-10527157D01*
X9596457Y-10546205D01*
X9577410Y-10565252D01*
X9548838Y-10574776D01*
X9501219Y-10574776D01*
X9701219Y-10574776D02*
X9701219Y-10441443D01*
X9701219Y-10479538D02*
X9710743Y-10460490D01*
X9720267Y-10450967D01*
X9739314Y-10441443D01*
X9758362Y-10441443D01*
X9825029Y-10574776D02*
X9825029Y-10441443D01*
X9825029Y-10374776D02*
X9815505Y-10384300D01*
X9825029Y-10393824D01*
X9834552Y-10384300D01*
X9825029Y-10374776D01*
X9825029Y-10393824D01*
X9948838Y-10574776D02*
X9929790Y-10565252D01*
X9920267Y-10546205D01*
X9920267Y-10374776D01*
X10053600Y-10574776D02*
X10034552Y-10565252D01*
X10025029Y-10546205D01*
X10025029Y-10374776D01*
X10282171Y-10574776D02*
X10282171Y-10374776D01*
X10348838Y-10517633D01*
X10415505Y-10374776D01*
X10415505Y-10574776D01*
X10596457Y-10574776D02*
X10596457Y-10470014D01*
X10586933Y-10450967D01*
X10567886Y-10441443D01*
X10529790Y-10441443D01*
X10510743Y-10450967D01*
X10596457Y-10565252D02*
X10577410Y-10574776D01*
X10529790Y-10574776D01*
X10510743Y-10565252D01*
X10501219Y-10546205D01*
X10501219Y-10527157D01*
X10510743Y-10508110D01*
X10529790Y-10498586D01*
X10577410Y-10498586D01*
X10596457Y-10489062D01*
X10691695Y-10441443D02*
X10691695Y-10641443D01*
X10691695Y-10450967D02*
X10710743Y-10441443D01*
X10748838Y-10441443D01*
X10767886Y-10450967D01*
X10777410Y-10460490D01*
X10786933Y-10479538D01*
X10786933Y-10536681D01*
X10777410Y-10555729D01*
X10767886Y-10565252D01*
X10748838Y-10574776D01*
X10710743Y-10574776D01*
X10691695Y-10565252D01*
X10872648Y-10555729D02*
X10882171Y-10565252D01*
X10872648Y-10574776D01*
X10863124Y-10565252D01*
X10872648Y-10555729D01*
X10872648Y-10574776D01*
X10872648Y-10450967D02*
X10882171Y-10460490D01*
X10872648Y-10470014D01*
X10863124Y-10460490D01*
X10872648Y-10450967D01*
X10872648Y-10470014D01*
D12*
X9163600Y-10864300D02*
X9243600Y-10944300D01*
X9243600Y-10864300D02*
X9163600Y-10944300D01*
D11*
X9539314Y-10794776D02*
X9558362Y-10794776D01*
X9577410Y-10804300D01*
X9586933Y-10813824D01*
X9596457Y-10832871D01*
X9605981Y-10870967D01*
X9605981Y-10918586D01*
X9596457Y-10956681D01*
X9586933Y-10975729D01*
X9577410Y-10985252D01*
X9558362Y-10994776D01*
X9539314Y-10994776D01*
X9520267Y-10985252D01*
X9510743Y-10975729D01*
X9501219Y-10956681D01*
X9491695Y-10918586D01*
X9491695Y-10870967D01*
X9501219Y-10832871D01*
X9510743Y-10813824D01*
X9520267Y-10804300D01*
X9539314Y-10794776D01*
X9691695Y-10975729D02*
X9701219Y-10985252D01*
X9691695Y-10994776D01*
X9682171Y-10985252D01*
X9691695Y-10975729D01*
X9691695Y-10994776D01*
X9815505Y-10880490D02*
X9796457Y-10870967D01*
X9786933Y-10861443D01*
X9777410Y-10842395D01*
X9777410Y-10832871D01*
X9786933Y-10813824D01*
X9796457Y-10804300D01*
X9815505Y-10794776D01*
X9853600Y-10794776D01*
X9872648Y-10804300D01*
X9882171Y-10813824D01*
X9891695Y-10832871D01*
X9891695Y-10842395D01*
X9882171Y-10861443D01*
X9872648Y-10870967D01*
X9853600Y-10880490D01*
X9815505Y-10880490D01*
X9796457Y-10890014D01*
X9786933Y-10899538D01*
X9777410Y-10918586D01*
X9777410Y-10956681D01*
X9786933Y-10975729D01*
X9796457Y-10985252D01*
X9815505Y-10994776D01*
X9853600Y-10994776D01*
X9872648Y-10985252D01*
X9882171Y-10975729D01*
X9891695Y-10956681D01*
X9891695Y-10918586D01*
X9882171Y-10899538D01*
X9872648Y-10890014D01*
X9853600Y-10880490D01*
X10015505Y-10794776D02*
X10034552Y-10794776D01*
X10053600Y-10804300D01*
X10063124Y-10813824D01*
X10072648Y-10832871D01*
X10082171Y-10870967D01*
X10082171Y-10918586D01*
X10072648Y-10956681D01*
X10063124Y-10975729D01*
X10053600Y-10985252D01*
X10034552Y-10994776D01*
X10015505Y-10994776D01*
X9996457Y-10985252D01*
X9986933Y-10975729D01*
X9977410Y-10956681D01*
X9967886Y-10918586D01*
X9967886Y-10870967D01*
X9977410Y-10832871D01*
X9986933Y-10813824D01*
X9996457Y-10804300D01*
X10015505Y-10794776D01*
X10205981Y-10794776D02*
X10225029Y-10794776D01*
X10244076Y-10804300D01*
X10253600Y-10813824D01*
X10263124Y-10832871D01*
X10272648Y-10870967D01*
X10272648Y-10918586D01*
X10263124Y-10956681D01*
X10253600Y-10975729D01*
X10244076Y-10985252D01*
X10225029Y-10994776D01*
X10205981Y-10994776D01*
X10186933Y-10985252D01*
X10177410Y-10975729D01*
X10167886Y-10956681D01*
X10158362Y-10918586D01*
X10158362Y-10870967D01*
X10167886Y-10832871D01*
X10177410Y-10813824D01*
X10186933Y-10804300D01*
X10205981Y-10794776D01*
X10358362Y-10994776D02*
X10358362Y-10861443D01*
X10358362Y-10880490D02*
X10367886Y-10870967D01*
X10386933Y-10861443D01*
X10415505Y-10861443D01*
X10434552Y-10870967D01*
X10444076Y-10890014D01*
X10444076Y-10994776D01*
X10444076Y-10890014D02*
X10453600Y-10870967D01*
X10472648Y-10861443D01*
X10501219Y-10861443D01*
X10520267Y-10870967D01*
X10529790Y-10890014D01*
X10529790Y-10994776D01*
X10625029Y-10994776D02*
X10625029Y-10861443D01*
X10625029Y-10880490D02*
X10634552Y-10870967D01*
X10653600Y-10861443D01*
X10682171Y-10861443D01*
X10701219Y-10870967D01*
X10710743Y-10890014D01*
X10710743Y-10994776D01*
X10710743Y-10890014D02*
X10720267Y-10870967D01*
X10739314Y-10861443D01*
X10767886Y-10861443D01*
X10786933Y-10870967D01*
X10796457Y-10890014D01*
X10796457Y-10994776D01*
X11186933Y-10785252D02*
X11015505Y-11042395D01*
X11444076Y-10794776D02*
X11463124Y-10794776D01*
X11482171Y-10804300D01*
X11491695Y-10813824D01*
X11501219Y-10832871D01*
X11510743Y-10870967D01*
X11510743Y-10918586D01*
X11501219Y-10956681D01*
X11491695Y-10975729D01*
X11482171Y-10985252D01*
X11463124Y-10994776D01*
X11444076Y-10994776D01*
X11425028Y-10985252D01*
X11415505Y-10975729D01*
X11405981Y-10956681D01*
X11396457Y-10918586D01*
X11396457Y-10870967D01*
X11405981Y-10832871D01*
X11415505Y-10813824D01*
X11425028Y-10804300D01*
X11444076Y-10794776D01*
X11596457Y-10975729D02*
X11605981Y-10985252D01*
X11596457Y-10994776D01*
X11586933Y-10985252D01*
X11596457Y-10975729D01*
X11596457Y-10994776D01*
X11729790Y-10794776D02*
X11748838Y-10794776D01*
X11767886Y-10804300D01*
X11777409Y-10813824D01*
X11786933Y-10832871D01*
X11796457Y-10870967D01*
X11796457Y-10918586D01*
X11786933Y-10956681D01*
X11777409Y-10975729D01*
X11767886Y-10985252D01*
X11748838Y-10994776D01*
X11729790Y-10994776D01*
X11710743Y-10985252D01*
X11701219Y-10975729D01*
X11691695Y-10956681D01*
X11682171Y-10918586D01*
X11682171Y-10870967D01*
X11691695Y-10832871D01*
X11701219Y-10813824D01*
X11710743Y-10804300D01*
X11729790Y-10794776D01*
X11863124Y-10794776D02*
X11986933Y-10794776D01*
X11920267Y-10870967D01*
X11948838Y-10870967D01*
X11967886Y-10880490D01*
X11977409Y-10890014D01*
X11986933Y-10909062D01*
X11986933Y-10956681D01*
X11977409Y-10975729D01*
X11967886Y-10985252D01*
X11948838Y-10994776D01*
X11891695Y-10994776D01*
X11872648Y-10985252D01*
X11863124Y-10975729D01*
X12177409Y-10994776D02*
X12063124Y-10994776D01*
X12120267Y-10994776D02*
X12120267Y-10794776D01*
X12101219Y-10823348D01*
X12082171Y-10842395D01*
X12063124Y-10851919D01*
X12358362Y-10794776D02*
X12263124Y-10794776D01*
X12253600Y-10890014D01*
X12263124Y-10880490D01*
X12282171Y-10870967D01*
X12329790Y-10870967D01*
X12348838Y-10880490D01*
X12358362Y-10890014D01*
X12367886Y-10909062D01*
X12367886Y-10956681D01*
X12358362Y-10975729D01*
X12348838Y-10985252D01*
X12329790Y-10994776D01*
X12282171Y-10994776D01*
X12263124Y-10985252D01*
X12253600Y-10975729D01*
X12444076Y-10794776D02*
X12444076Y-10832871D01*
X12520267Y-10794776D02*
X12520267Y-10832871D01*
X12815505Y-11070967D02*
X12805981Y-11061443D01*
X12786933Y-11032871D01*
X12777409Y-11013824D01*
X12767886Y-10985252D01*
X12758362Y-10937633D01*
X12758362Y-10899538D01*
X12767886Y-10851919D01*
X12777409Y-10823348D01*
X12786933Y-10804300D01*
X12805981Y-10775729D01*
X12815505Y-10766205D01*
X12882171Y-10813824D02*
X12891695Y-10804300D01*
X12910743Y-10794776D01*
X12958362Y-10794776D01*
X12977409Y-10804300D01*
X12986933Y-10813824D01*
X12996457Y-10832871D01*
X12996457Y-10851919D01*
X12986933Y-10880490D01*
X12872648Y-10994776D01*
X12996457Y-10994776D01*
X13234552Y-10994776D02*
X13234552Y-10794776D01*
X13320267Y-10994776D02*
X13320267Y-10890014D01*
X13310743Y-10870967D01*
X13291695Y-10861443D01*
X13263124Y-10861443D01*
X13244076Y-10870967D01*
X13234552Y-10880490D01*
X13444076Y-10994776D02*
X13425028Y-10985252D01*
X13415505Y-10975729D01*
X13405981Y-10956681D01*
X13405981Y-10899538D01*
X13415505Y-10880490D01*
X13425028Y-10870967D01*
X13444076Y-10861443D01*
X13472648Y-10861443D01*
X13491695Y-10870967D01*
X13501219Y-10880490D01*
X13510743Y-10899538D01*
X13510743Y-10956681D01*
X13501219Y-10975729D01*
X13491695Y-10985252D01*
X13472648Y-10994776D01*
X13444076Y-10994776D01*
X13625028Y-10994776D02*
X13605981Y-10985252D01*
X13596457Y-10966205D01*
X13596457Y-10794776D01*
X13777409Y-10985252D02*
X13758362Y-10994776D01*
X13720267Y-10994776D01*
X13701219Y-10985252D01*
X13691695Y-10966205D01*
X13691695Y-10890014D01*
X13701219Y-10870967D01*
X13720267Y-10861443D01*
X13758362Y-10861443D01*
X13777409Y-10870967D01*
X13786933Y-10890014D01*
X13786933Y-10909062D01*
X13691695Y-10928110D01*
X13863124Y-10985252D02*
X13882171Y-10994776D01*
X13920267Y-10994776D01*
X13939314Y-10985252D01*
X13948838Y-10966205D01*
X13948838Y-10956681D01*
X13939314Y-10937633D01*
X13920267Y-10928110D01*
X13891695Y-10928110D01*
X13872648Y-10918586D01*
X13863124Y-10899538D01*
X13863124Y-10890014D01*
X13872648Y-10870967D01*
X13891695Y-10861443D01*
X13920267Y-10861443D01*
X13939314Y-10870967D01*
X14015505Y-11070967D02*
X14025028Y-11061443D01*
X14044076Y-11032871D01*
X14053600Y-11013824D01*
X14063124Y-10985252D01*
X14072648Y-10937633D01*
X14072648Y-10899538D01*
X14063124Y-10851919D01*
X14053600Y-10823348D01*
X14044076Y-10804300D01*
X14025028Y-10775729D01*
X14015505Y-10766205D01*
D13*
X9243600Y-11168300D02*
G75*
G03*
X9243600Y-11168300I-45000J0D01*
G01*
D11*
X9539314Y-11058776D02*
X9558362Y-11058776D01*
X9577410Y-11068300D01*
X9586933Y-11077824D01*
X9596457Y-11096871D01*
X9605981Y-11134967D01*
X9605981Y-11182586D01*
X9596457Y-11220681D01*
X9586933Y-11239728D01*
X9577410Y-11249252D01*
X9558362Y-11258776D01*
X9539314Y-11258776D01*
X9520267Y-11249252D01*
X9510743Y-11239728D01*
X9501219Y-11220681D01*
X9491695Y-11182586D01*
X9491695Y-11134967D01*
X9501219Y-11096871D01*
X9510743Y-11077824D01*
X9520267Y-11068300D01*
X9539314Y-11058776D01*
X9691695Y-11239728D02*
X9701219Y-11249252D01*
X9691695Y-11258776D01*
X9682171Y-11249252D01*
X9691695Y-11239728D01*
X9691695Y-11258776D01*
X9796457Y-11258776D02*
X9834552Y-11258776D01*
X9853600Y-11249252D01*
X9863124Y-11239728D01*
X9882171Y-11211157D01*
X9891695Y-11173062D01*
X9891695Y-11096871D01*
X9882171Y-11077824D01*
X9872648Y-11068300D01*
X9853600Y-11058776D01*
X9815505Y-11058776D01*
X9796457Y-11068300D01*
X9786933Y-11077824D01*
X9777410Y-11096871D01*
X9777410Y-11144490D01*
X9786933Y-11163538D01*
X9796457Y-11173062D01*
X9815505Y-11182586D01*
X9853600Y-11182586D01*
X9872648Y-11173062D01*
X9882171Y-11163538D01*
X9891695Y-11144490D01*
X10015505Y-11058776D02*
X10034552Y-11058776D01*
X10053600Y-11068300D01*
X10063124Y-11077824D01*
X10072648Y-11096871D01*
X10082171Y-11134967D01*
X10082171Y-11182586D01*
X10072648Y-11220681D01*
X10063124Y-11239728D01*
X10053600Y-11249252D01*
X10034552Y-11258776D01*
X10015505Y-11258776D01*
X9996457Y-11249252D01*
X9986933Y-11239728D01*
X9977410Y-11220681D01*
X9967886Y-11182586D01*
X9967886Y-11134967D01*
X9977410Y-11096871D01*
X9986933Y-11077824D01*
X9996457Y-11068300D01*
X10015505Y-11058776D01*
X10205981Y-11058776D02*
X10225029Y-11058776D01*
X10244076Y-11068300D01*
X10253600Y-11077824D01*
X10263124Y-11096871D01*
X10272648Y-11134967D01*
X10272648Y-11182586D01*
X10263124Y-11220681D01*
X10253600Y-11239728D01*
X10244076Y-11249252D01*
X10225029Y-11258776D01*
X10205981Y-11258776D01*
X10186933Y-11249252D01*
X10177410Y-11239728D01*
X10167886Y-11220681D01*
X10158362Y-11182586D01*
X10158362Y-11134967D01*
X10167886Y-11096871D01*
X10177410Y-11077824D01*
X10186933Y-11068300D01*
X10205981Y-11058776D01*
X10358362Y-11258776D02*
X10358362Y-11125443D01*
X10358362Y-11144490D02*
X10367886Y-11134967D01*
X10386933Y-11125443D01*
X10415505Y-11125443D01*
X10434552Y-11134967D01*
X10444076Y-11154014D01*
X10444076Y-11258776D01*
X10444076Y-11154014D02*
X10453600Y-11134967D01*
X10472648Y-11125443D01*
X10501219Y-11125443D01*
X10520267Y-11134967D01*
X10529790Y-11154014D01*
X10529790Y-11258776D01*
X10625029Y-11258776D02*
X10625029Y-11125443D01*
X10625029Y-11144490D02*
X10634552Y-11134967D01*
X10653600Y-11125443D01*
X10682171Y-11125443D01*
X10701219Y-11134967D01*
X10710743Y-11154014D01*
X10710743Y-11258776D01*
X10710743Y-11154014D02*
X10720267Y-11134967D01*
X10739314Y-11125443D01*
X10767886Y-11125443D01*
X10786933Y-11134967D01*
X10796457Y-11154014D01*
X10796457Y-11258776D01*
X11186933Y-11049252D02*
X11015505Y-11306395D01*
X11444076Y-11058776D02*
X11463124Y-11058776D01*
X11482171Y-11068300D01*
X11491695Y-11077824D01*
X11501219Y-11096871D01*
X11510743Y-11134967D01*
X11510743Y-11182586D01*
X11501219Y-11220681D01*
X11491695Y-11239728D01*
X11482171Y-11249252D01*
X11463124Y-11258776D01*
X11444076Y-11258776D01*
X11425028Y-11249252D01*
X11415505Y-11239728D01*
X11405981Y-11220681D01*
X11396457Y-11182586D01*
X11396457Y-11134967D01*
X11405981Y-11096871D01*
X11415505Y-11077824D01*
X11425028Y-11068300D01*
X11444076Y-11058776D01*
X11596457Y-11239728D02*
X11605981Y-11249252D01*
X11596457Y-11258776D01*
X11586933Y-11249252D01*
X11596457Y-11239728D01*
X11596457Y-11258776D01*
X11729790Y-11058776D02*
X11748838Y-11058776D01*
X11767886Y-11068300D01*
X11777409Y-11077824D01*
X11786933Y-11096871D01*
X11796457Y-11134967D01*
X11796457Y-11182586D01*
X11786933Y-11220681D01*
X11777409Y-11239728D01*
X11767886Y-11249252D01*
X11748838Y-11258776D01*
X11729790Y-11258776D01*
X11710743Y-11249252D01*
X11701219Y-11239728D01*
X11691695Y-11220681D01*
X11682171Y-11182586D01*
X11682171Y-11134967D01*
X11691695Y-11096871D01*
X11701219Y-11077824D01*
X11710743Y-11068300D01*
X11729790Y-11058776D01*
X11863124Y-11058776D02*
X11986933Y-11058776D01*
X11920267Y-11134967D01*
X11948838Y-11134967D01*
X11967886Y-11144490D01*
X11977409Y-11154014D01*
X11986933Y-11173062D01*
X11986933Y-11220681D01*
X11977409Y-11239728D01*
X11967886Y-11249252D01*
X11948838Y-11258776D01*
X11891695Y-11258776D01*
X11872648Y-11249252D01*
X11863124Y-11239728D01*
X12167886Y-11058776D02*
X12072648Y-11058776D01*
X12063124Y-11154014D01*
X12072648Y-11144490D01*
X12091695Y-11134967D01*
X12139314Y-11134967D01*
X12158362Y-11144490D01*
X12167886Y-11154014D01*
X12177409Y-11173062D01*
X12177409Y-11220681D01*
X12167886Y-11239728D01*
X12158362Y-11249252D01*
X12139314Y-11258776D01*
X12091695Y-11258776D01*
X12072648Y-11249252D01*
X12063124Y-11239728D01*
X12348838Y-11125443D02*
X12348838Y-11258776D01*
X12301219Y-11049252D02*
X12253600Y-11192109D01*
X12377409Y-11192109D01*
X12444076Y-11058776D02*
X12444076Y-11096871D01*
X12520267Y-11058776D02*
X12520267Y-11096871D01*
X12815505Y-11334967D02*
X12805981Y-11325443D01*
X12786933Y-11296871D01*
X12777409Y-11277824D01*
X12767886Y-11249252D01*
X12758362Y-11201633D01*
X12758362Y-11163538D01*
X12767886Y-11115919D01*
X12777409Y-11087348D01*
X12786933Y-11068300D01*
X12805981Y-11039729D01*
X12815505Y-11030205D01*
X12882171Y-11077824D02*
X12891695Y-11068300D01*
X12910743Y-11058776D01*
X12958362Y-11058776D01*
X12977409Y-11068300D01*
X12986933Y-11077824D01*
X12996457Y-11096871D01*
X12996457Y-11115919D01*
X12986933Y-11144490D01*
X12872648Y-11258776D01*
X12996457Y-11258776D01*
X13234552Y-11258776D02*
X13234552Y-11058776D01*
X13320267Y-11258776D02*
X13320267Y-11154014D01*
X13310743Y-11134967D01*
X13291695Y-11125443D01*
X13263124Y-11125443D01*
X13244076Y-11134967D01*
X13234552Y-11144490D01*
X13444076Y-11258776D02*
X13425028Y-11249252D01*
X13415505Y-11239728D01*
X13405981Y-11220681D01*
X13405981Y-11163538D01*
X13415505Y-11144490D01*
X13425028Y-11134967D01*
X13444076Y-11125443D01*
X13472648Y-11125443D01*
X13491695Y-11134967D01*
X13501219Y-11144490D01*
X13510743Y-11163538D01*
X13510743Y-11220681D01*
X13501219Y-11239728D01*
X13491695Y-11249252D01*
X13472648Y-11258776D01*
X13444076Y-11258776D01*
X13625028Y-11258776D02*
X13605981Y-11249252D01*
X13596457Y-11230205D01*
X13596457Y-11058776D01*
X13777409Y-11249252D02*
X13758362Y-11258776D01*
X13720267Y-11258776D01*
X13701219Y-11249252D01*
X13691695Y-11230205D01*
X13691695Y-11154014D01*
X13701219Y-11134967D01*
X13720267Y-11125443D01*
X13758362Y-11125443D01*
X13777409Y-11134967D01*
X13786933Y-11154014D01*
X13786933Y-11173062D01*
X13691695Y-11192109D01*
X13863124Y-11249252D02*
X13882171Y-11258776D01*
X13920267Y-11258776D01*
X13939314Y-11249252D01*
X13948838Y-11230205D01*
X13948838Y-11220681D01*
X13939314Y-11201633D01*
X13920267Y-11192109D01*
X13891695Y-11192109D01*
X13872648Y-11182586D01*
X13863124Y-11163538D01*
X13863124Y-11154014D01*
X13872648Y-11134967D01*
X13891695Y-11125443D01*
X13920267Y-11125443D01*
X13939314Y-11134967D01*
X14015505Y-11334967D02*
X14025028Y-11325443D01*
X14044076Y-11296871D01*
X14053600Y-11277824D01*
X14063124Y-11249252D01*
X14072648Y-11201633D01*
X14072648Y-11163538D01*
X14063124Y-11115919D01*
X14053600Y-11087348D01*
X14044076Y-11068300D01*
X14025028Y-11039729D01*
X14015505Y-11030205D01*
D14*
X9193600Y-11382300D02*
X9193600Y-11482300D01*
X9143600Y-11432300D02*
X9243600Y-11432300D01*
D11*
X9605981Y-11522776D02*
X9491695Y-11522776D01*
X9548838Y-11522776D02*
X9548838Y-11322776D01*
X9529790Y-11351348D01*
X9510743Y-11370395D01*
X9491695Y-11379919D01*
X9691695Y-11503728D02*
X9701219Y-11513252D01*
X9691695Y-11522776D01*
X9682171Y-11513252D01*
X9691695Y-11503728D01*
X9691695Y-11522776D01*
X9825029Y-11322776D02*
X9844076Y-11322776D01*
X9863124Y-11332300D01*
X9872648Y-11341824D01*
X9882171Y-11360871D01*
X9891695Y-11398967D01*
X9891695Y-11446586D01*
X9882171Y-11484681D01*
X9872648Y-11503728D01*
X9863124Y-11513252D01*
X9844076Y-11522776D01*
X9825029Y-11522776D01*
X9805981Y-11513252D01*
X9796457Y-11503728D01*
X9786933Y-11484681D01*
X9777410Y-11446586D01*
X9777410Y-11398967D01*
X9786933Y-11360871D01*
X9796457Y-11341824D01*
X9805981Y-11332300D01*
X9825029Y-11322776D01*
X10015505Y-11322776D02*
X10034552Y-11322776D01*
X10053600Y-11332300D01*
X10063124Y-11341824D01*
X10072648Y-11360871D01*
X10082171Y-11398967D01*
X10082171Y-11446586D01*
X10072648Y-11484681D01*
X10063124Y-11503728D01*
X10053600Y-11513252D01*
X10034552Y-11522776D01*
X10015505Y-11522776D01*
X9996457Y-11513252D01*
X9986933Y-11503728D01*
X9977410Y-11484681D01*
X9967886Y-11446586D01*
X9967886Y-11398967D01*
X9977410Y-11360871D01*
X9986933Y-11341824D01*
X9996457Y-11332300D01*
X10015505Y-11322776D01*
X10205981Y-11322776D02*
X10225029Y-11322776D01*
X10244076Y-11332300D01*
X10253600Y-11341824D01*
X10263124Y-11360871D01*
X10272648Y-11398967D01*
X10272648Y-11446586D01*
X10263124Y-11484681D01*
X10253600Y-11503728D01*
X10244076Y-11513252D01*
X10225029Y-11522776D01*
X10205981Y-11522776D01*
X10186933Y-11513252D01*
X10177410Y-11503728D01*
X10167886Y-11484681D01*
X10158362Y-11446586D01*
X10158362Y-11398967D01*
X10167886Y-11360871D01*
X10177410Y-11341824D01*
X10186933Y-11332300D01*
X10205981Y-11322776D01*
X10358362Y-11522776D02*
X10358362Y-11389443D01*
X10358362Y-11408490D02*
X10367886Y-11398967D01*
X10386933Y-11389443D01*
X10415505Y-11389443D01*
X10434552Y-11398967D01*
X10444076Y-11418014D01*
X10444076Y-11522776D01*
X10444076Y-11418014D02*
X10453600Y-11398967D01*
X10472648Y-11389443D01*
X10501219Y-11389443D01*
X10520267Y-11398967D01*
X10529790Y-11418014D01*
X10529790Y-11522776D01*
X10625029Y-11522776D02*
X10625029Y-11389443D01*
X10625029Y-11408490D02*
X10634552Y-11398967D01*
X10653600Y-11389443D01*
X10682171Y-11389443D01*
X10701219Y-11398967D01*
X10710743Y-11418014D01*
X10710743Y-11522776D01*
X10710743Y-11418014D02*
X10720267Y-11398967D01*
X10739314Y-11389443D01*
X10767886Y-11389443D01*
X10786933Y-11398967D01*
X10796457Y-11418014D01*
X10796457Y-11522776D01*
X11186933Y-11313252D02*
X11015505Y-11570395D01*
X11444076Y-11322776D02*
X11463124Y-11322776D01*
X11482171Y-11332300D01*
X11491695Y-11341824D01*
X11501219Y-11360871D01*
X11510743Y-11398967D01*
X11510743Y-11446586D01*
X11501219Y-11484681D01*
X11491695Y-11503728D01*
X11482171Y-11513252D01*
X11463124Y-11522776D01*
X11444076Y-11522776D01*
X11425028Y-11513252D01*
X11415505Y-11503728D01*
X11405981Y-11484681D01*
X11396457Y-11446586D01*
X11396457Y-11398967D01*
X11405981Y-11360871D01*
X11415505Y-11341824D01*
X11425028Y-11332300D01*
X11444076Y-11322776D01*
X11596457Y-11503728D02*
X11605981Y-11513252D01*
X11596457Y-11522776D01*
X11586933Y-11513252D01*
X11596457Y-11503728D01*
X11596457Y-11522776D01*
X11729790Y-11322776D02*
X11748838Y-11322776D01*
X11767886Y-11332300D01*
X11777409Y-11341824D01*
X11786933Y-11360871D01*
X11796457Y-11398967D01*
X11796457Y-11446586D01*
X11786933Y-11484681D01*
X11777409Y-11503728D01*
X11767886Y-11513252D01*
X11748838Y-11522776D01*
X11729790Y-11522776D01*
X11710743Y-11513252D01*
X11701219Y-11503728D01*
X11691695Y-11484681D01*
X11682171Y-11446586D01*
X11682171Y-11398967D01*
X11691695Y-11360871D01*
X11701219Y-11341824D01*
X11710743Y-11332300D01*
X11729790Y-11322776D01*
X11863124Y-11322776D02*
X11986933Y-11322776D01*
X11920267Y-11398967D01*
X11948838Y-11398967D01*
X11967886Y-11408490D01*
X11977409Y-11418014D01*
X11986933Y-11437062D01*
X11986933Y-11484681D01*
X11977409Y-11503728D01*
X11967886Y-11513252D01*
X11948838Y-11522776D01*
X11891695Y-11522776D01*
X11872648Y-11513252D01*
X11863124Y-11503728D01*
X12082171Y-11522776D02*
X12120267Y-11522776D01*
X12139314Y-11513252D01*
X12148838Y-11503728D01*
X12167886Y-11475157D01*
X12177409Y-11437062D01*
X12177409Y-11360871D01*
X12167886Y-11341824D01*
X12158362Y-11332300D01*
X12139314Y-11322776D01*
X12101219Y-11322776D01*
X12082171Y-11332300D01*
X12072648Y-11341824D01*
X12063124Y-11360871D01*
X12063124Y-11408490D01*
X12072648Y-11427538D01*
X12082171Y-11437062D01*
X12101219Y-11446586D01*
X12139314Y-11446586D01*
X12158362Y-11437062D01*
X12167886Y-11427538D01*
X12177409Y-11408490D01*
X12348838Y-11389443D02*
X12348838Y-11522776D01*
X12301219Y-11313252D02*
X12253600Y-11456109D01*
X12377409Y-11456109D01*
X12444076Y-11322776D02*
X12444076Y-11360871D01*
X12520267Y-11322776D02*
X12520267Y-11360871D01*
X12815505Y-11598967D02*
X12805981Y-11589443D01*
X12786933Y-11560871D01*
X12777409Y-11541824D01*
X12767886Y-11513252D01*
X12758362Y-11465633D01*
X12758362Y-11427538D01*
X12767886Y-11379919D01*
X12777409Y-11351348D01*
X12786933Y-11332300D01*
X12805981Y-11303728D01*
X12815505Y-11294205D01*
X12996457Y-11522776D02*
X12882171Y-11522776D01*
X12939314Y-11522776D02*
X12939314Y-11322776D01*
X12920267Y-11351348D01*
X12901219Y-11370395D01*
X12882171Y-11379919D01*
X13072648Y-11341824D02*
X13082171Y-11332300D01*
X13101219Y-11322776D01*
X13148838Y-11322776D01*
X13167886Y-11332300D01*
X13177409Y-11341824D01*
X13186933Y-11360871D01*
X13186933Y-11379919D01*
X13177409Y-11408490D01*
X13063124Y-11522776D01*
X13186933Y-11522776D01*
X13425028Y-11522776D02*
X13425028Y-11322776D01*
X13510743Y-11522776D02*
X13510743Y-11418014D01*
X13501219Y-11398967D01*
X13482171Y-11389443D01*
X13453600Y-11389443D01*
X13434552Y-11398967D01*
X13425028Y-11408490D01*
X13634552Y-11522776D02*
X13615505Y-11513252D01*
X13605981Y-11503728D01*
X13596457Y-11484681D01*
X13596457Y-11427538D01*
X13605981Y-11408490D01*
X13615505Y-11398967D01*
X13634552Y-11389443D01*
X13663124Y-11389443D01*
X13682171Y-11398967D01*
X13691695Y-11408490D01*
X13701219Y-11427538D01*
X13701219Y-11484681D01*
X13691695Y-11503728D01*
X13682171Y-11513252D01*
X13663124Y-11522776D01*
X13634552Y-11522776D01*
X13815505Y-11522776D02*
X13796457Y-11513252D01*
X13786933Y-11494205D01*
X13786933Y-11322776D01*
X13967886Y-11513252D02*
X13948838Y-11522776D01*
X13910743Y-11522776D01*
X13891695Y-11513252D01*
X13882171Y-11494205D01*
X13882171Y-11418014D01*
X13891695Y-11398967D01*
X13910743Y-11389443D01*
X13948838Y-11389443D01*
X13967886Y-11398967D01*
X13977409Y-11418014D01*
X13977409Y-11437062D01*
X13882171Y-11456109D01*
X14053600Y-11513252D02*
X14072648Y-11522776D01*
X14110743Y-11522776D01*
X14129790Y-11513252D01*
X14139314Y-11494205D01*
X14139314Y-11484681D01*
X14129790Y-11465633D01*
X14110743Y-11456109D01*
X14082171Y-11456109D01*
X14063124Y-11446586D01*
X14053600Y-11427538D01*
X14053600Y-11418014D01*
X14063124Y-11398967D01*
X14082171Y-11389443D01*
X14110743Y-11389443D01*
X14129790Y-11398967D01*
X14205981Y-11598967D02*
X14215505Y-11589443D01*
X14234552Y-11560871D01*
X14244076Y-11541824D01*
X14253600Y-11513252D01*
X14263124Y-11465633D01*
X14263124Y-11427538D01*
X14253600Y-11379919D01*
X14244076Y-11351348D01*
X14234552Y-11332300D01*
X14215505Y-11303728D01*
X14205981Y-11294205D01*
D15*
X9227491Y-11735191D02*
X9227491Y-11657409D01*
X9149709Y-11657409D01*
X9149709Y-11735191D01*
X9227491Y-11735191D01*
D11*
X9605981Y-11786776D02*
X9491695Y-11786776D01*
X9548838Y-11786776D02*
X9548838Y-11586776D01*
X9529790Y-11615348D01*
X9510743Y-11634395D01*
X9491695Y-11643919D01*
X9691695Y-11767728D02*
X9701219Y-11777252D01*
X9691695Y-11786776D01*
X9682171Y-11777252D01*
X9691695Y-11767728D01*
X9691695Y-11786776D01*
X9891695Y-11786776D02*
X9777410Y-11786776D01*
X9834552Y-11786776D02*
X9834552Y-11586776D01*
X9815505Y-11615348D01*
X9796457Y-11634395D01*
X9777410Y-11643919D01*
X10015505Y-11586776D02*
X10034552Y-11586776D01*
X10053600Y-11596300D01*
X10063124Y-11605824D01*
X10072648Y-11624871D01*
X10082171Y-11662967D01*
X10082171Y-11710586D01*
X10072648Y-11748681D01*
X10063124Y-11767728D01*
X10053600Y-11777252D01*
X10034552Y-11786776D01*
X10015505Y-11786776D01*
X9996457Y-11777252D01*
X9986933Y-11767728D01*
X9977410Y-11748681D01*
X9967886Y-11710586D01*
X9967886Y-11662967D01*
X9977410Y-11624871D01*
X9986933Y-11605824D01*
X9996457Y-11596300D01*
X10015505Y-11586776D01*
X10205981Y-11586776D02*
X10225029Y-11586776D01*
X10244076Y-11596300D01*
X10253600Y-11605824D01*
X10263124Y-11624871D01*
X10272648Y-11662967D01*
X10272648Y-11710586D01*
X10263124Y-11748681D01*
X10253600Y-11767728D01*
X10244076Y-11777252D01*
X10225029Y-11786776D01*
X10205981Y-11786776D01*
X10186933Y-11777252D01*
X10177410Y-11767728D01*
X10167886Y-11748681D01*
X10158362Y-11710586D01*
X10158362Y-11662967D01*
X10167886Y-11624871D01*
X10177410Y-11605824D01*
X10186933Y-11596300D01*
X10205981Y-11586776D01*
X10358362Y-11786776D02*
X10358362Y-11653443D01*
X10358362Y-11672490D02*
X10367886Y-11662967D01*
X10386933Y-11653443D01*
X10415505Y-11653443D01*
X10434552Y-11662967D01*
X10444076Y-11682014D01*
X10444076Y-11786776D01*
X10444076Y-11682014D02*
X10453600Y-11662967D01*
X10472648Y-11653443D01*
X10501219Y-11653443D01*
X10520267Y-11662967D01*
X10529790Y-11682014D01*
X10529790Y-11786776D01*
X10625029Y-11786776D02*
X10625029Y-11653443D01*
X10625029Y-11672490D02*
X10634552Y-11662967D01*
X10653600Y-11653443D01*
X10682171Y-11653443D01*
X10701219Y-11662967D01*
X10710743Y-11682014D01*
X10710743Y-11786776D01*
X10710743Y-11682014D02*
X10720267Y-11662967D01*
X10739314Y-11653443D01*
X10767886Y-11653443D01*
X10786933Y-11662967D01*
X10796457Y-11682014D01*
X10796457Y-11786776D01*
X11186933Y-11577252D02*
X11015505Y-11834395D01*
X11444076Y-11586776D02*
X11463124Y-11586776D01*
X11482171Y-11596300D01*
X11491695Y-11605824D01*
X11501219Y-11624871D01*
X11510743Y-11662967D01*
X11510743Y-11710586D01*
X11501219Y-11748681D01*
X11491695Y-11767728D01*
X11482171Y-11777252D01*
X11463124Y-11786776D01*
X11444076Y-11786776D01*
X11425028Y-11777252D01*
X11415505Y-11767728D01*
X11405981Y-11748681D01*
X11396457Y-11710586D01*
X11396457Y-11662967D01*
X11405981Y-11624871D01*
X11415505Y-11605824D01*
X11425028Y-11596300D01*
X11444076Y-11586776D01*
X11596457Y-11767728D02*
X11605981Y-11777252D01*
X11596457Y-11786776D01*
X11586933Y-11777252D01*
X11596457Y-11767728D01*
X11596457Y-11786776D01*
X11729790Y-11586776D02*
X11748838Y-11586776D01*
X11767886Y-11596300D01*
X11777409Y-11605824D01*
X11786933Y-11624871D01*
X11796457Y-11662967D01*
X11796457Y-11710586D01*
X11786933Y-11748681D01*
X11777409Y-11767728D01*
X11767886Y-11777252D01*
X11748838Y-11786776D01*
X11729790Y-11786776D01*
X11710743Y-11777252D01*
X11701219Y-11767728D01*
X11691695Y-11748681D01*
X11682171Y-11710586D01*
X11682171Y-11662967D01*
X11691695Y-11624871D01*
X11701219Y-11605824D01*
X11710743Y-11596300D01*
X11729790Y-11586776D01*
X11967886Y-11653443D02*
X11967886Y-11786776D01*
X11920267Y-11577252D02*
X11872648Y-11720109D01*
X11996457Y-11720109D01*
X12053600Y-11586776D02*
X12177409Y-11586776D01*
X12110743Y-11662967D01*
X12139314Y-11662967D01*
X12158362Y-11672490D01*
X12167886Y-11682014D01*
X12177409Y-11701062D01*
X12177409Y-11748681D01*
X12167886Y-11767728D01*
X12158362Y-11777252D01*
X12139314Y-11786776D01*
X12082171Y-11786776D01*
X12063124Y-11777252D01*
X12053600Y-11767728D01*
X12244076Y-11586776D02*
X12367886Y-11586776D01*
X12301219Y-11662967D01*
X12329790Y-11662967D01*
X12348838Y-11672490D01*
X12358362Y-11682014D01*
X12367886Y-11701062D01*
X12367886Y-11748681D01*
X12358362Y-11767728D01*
X12348838Y-11777252D01*
X12329790Y-11786776D01*
X12272648Y-11786776D01*
X12253600Y-11777252D01*
X12244076Y-11767728D01*
X12444076Y-11586776D02*
X12444076Y-11624871D01*
X12520267Y-11586776D02*
X12520267Y-11624871D01*
X12815505Y-11862967D02*
X12805981Y-11853443D01*
X12786933Y-11824871D01*
X12777409Y-11805824D01*
X12767886Y-11777252D01*
X12758362Y-11729633D01*
X12758362Y-11691538D01*
X12767886Y-11643919D01*
X12777409Y-11615348D01*
X12786933Y-11596300D01*
X12805981Y-11567728D01*
X12815505Y-11558205D01*
X12977409Y-11653443D02*
X12977409Y-11786776D01*
X12929790Y-11577252D02*
X12882171Y-11720109D01*
X13005981Y-11720109D01*
X13234552Y-11786776D02*
X13234552Y-11586776D01*
X13320267Y-11786776D02*
X13320267Y-11682014D01*
X13310743Y-11662967D01*
X13291695Y-11653443D01*
X13263124Y-11653443D01*
X13244076Y-11662967D01*
X13234552Y-11672490D01*
X13444076Y-11786776D02*
X13425028Y-11777252D01*
X13415505Y-11767728D01*
X13405981Y-11748681D01*
X13405981Y-11691538D01*
X13415505Y-11672490D01*
X13425028Y-11662967D01*
X13444076Y-11653443D01*
X13472648Y-11653443D01*
X13491695Y-11662967D01*
X13501219Y-11672490D01*
X13510743Y-11691538D01*
X13510743Y-11748681D01*
X13501219Y-11767728D01*
X13491695Y-11777252D01*
X13472648Y-11786776D01*
X13444076Y-11786776D01*
X13625028Y-11786776D02*
X13605981Y-11777252D01*
X13596457Y-11758205D01*
X13596457Y-11586776D01*
X13777409Y-11777252D02*
X13758362Y-11786776D01*
X13720267Y-11786776D01*
X13701219Y-11777252D01*
X13691695Y-11758205D01*
X13691695Y-11682014D01*
X13701219Y-11662967D01*
X13720267Y-11653443D01*
X13758362Y-11653443D01*
X13777409Y-11662967D01*
X13786933Y-11682014D01*
X13786933Y-11701062D01*
X13691695Y-11720109D01*
X13863124Y-11777252D02*
X13882171Y-11786776D01*
X13920267Y-11786776D01*
X13939314Y-11777252D01*
X13948838Y-11758205D01*
X13948838Y-11748681D01*
X13939314Y-11729633D01*
X13920267Y-11720109D01*
X13891695Y-11720109D01*
X13872648Y-11710586D01*
X13863124Y-11691538D01*
X13863124Y-11682014D01*
X13872648Y-11662967D01*
X13891695Y-11653443D01*
X13920267Y-11653443D01*
X13939314Y-11662967D01*
X14015505Y-11862967D02*
X14025028Y-11853443D01*
X14044076Y-11824871D01*
X14053600Y-11805824D01*
X14063124Y-11777252D01*
X14072648Y-11729633D01*
X14072648Y-11691538D01*
X14063124Y-11643919D01*
X14053600Y-11615348D01*
X14044076Y-11596300D01*
X14025028Y-11567728D01*
X14015505Y-11558205D01*
X9143600Y-12060300D02*
X9243600Y-11960300D01*
X9143600Y-11860300D01*
X9043600Y-11960300D01*
X9143600Y-12060300D01*
X9482171Y-11850776D02*
X9605981Y-11850776D01*
X9539314Y-11926967D01*
X9567886Y-11926967D01*
X9586933Y-11936490D01*
X9596457Y-11946014D01*
X9605981Y-11965062D01*
X9605981Y-12012681D01*
X9596457Y-12031728D01*
X9586933Y-12041252D01*
X9567886Y-12050776D01*
X9510743Y-12050776D01*
X9491695Y-12041252D01*
X9482171Y-12031728D01*
X9691695Y-12031728D02*
X9701219Y-12041252D01*
X9691695Y-12050776D01*
X9682171Y-12041252D01*
X9691695Y-12031728D01*
X9691695Y-12050776D01*
X9777410Y-11869824D02*
X9786933Y-11860300D01*
X9805981Y-11850776D01*
X9853600Y-11850776D01*
X9872648Y-11860300D01*
X9882171Y-11869824D01*
X9891695Y-11888871D01*
X9891695Y-11907919D01*
X9882171Y-11936490D01*
X9767886Y-12050776D01*
X9891695Y-12050776D01*
X10015505Y-11850776D02*
X10034552Y-11850776D01*
X10053600Y-11860300D01*
X10063124Y-11869824D01*
X10072648Y-11888871D01*
X10082171Y-11926967D01*
X10082171Y-11974586D01*
X10072648Y-12012681D01*
X10063124Y-12031728D01*
X10053600Y-12041252D01*
X10034552Y-12050776D01*
X10015505Y-12050776D01*
X9996457Y-12041252D01*
X9986933Y-12031728D01*
X9977410Y-12012681D01*
X9967886Y-11974586D01*
X9967886Y-11926967D01*
X9977410Y-11888871D01*
X9986933Y-11869824D01*
X9996457Y-11860300D01*
X10015505Y-11850776D01*
X10205981Y-11850776D02*
X10225029Y-11850776D01*
X10244076Y-11860300D01*
X10253600Y-11869824D01*
X10263124Y-11888871D01*
X10272648Y-11926967D01*
X10272648Y-11974586D01*
X10263124Y-12012681D01*
X10253600Y-12031728D01*
X10244076Y-12041252D01*
X10225029Y-12050776D01*
X10205981Y-12050776D01*
X10186933Y-12041252D01*
X10177410Y-12031728D01*
X10167886Y-12012681D01*
X10158362Y-11974586D01*
X10158362Y-11926967D01*
X10167886Y-11888871D01*
X10177410Y-11869824D01*
X10186933Y-11860300D01*
X10205981Y-11850776D01*
X10358362Y-12050776D02*
X10358362Y-11917443D01*
X10358362Y-11936490D02*
X10367886Y-11926967D01*
X10386933Y-11917443D01*
X10415505Y-11917443D01*
X10434552Y-11926967D01*
X10444076Y-11946014D01*
X10444076Y-12050776D01*
X10444076Y-11946014D02*
X10453600Y-11926967D01*
X10472648Y-11917443D01*
X10501219Y-11917443D01*
X10520267Y-11926967D01*
X10529790Y-11946014D01*
X10529790Y-12050776D01*
X10625029Y-12050776D02*
X10625029Y-11917443D01*
X10625029Y-11936490D02*
X10634552Y-11926967D01*
X10653600Y-11917443D01*
X10682171Y-11917443D01*
X10701219Y-11926967D01*
X10710743Y-11946014D01*
X10710743Y-12050776D01*
X10710743Y-11946014D02*
X10720267Y-11926967D01*
X10739314Y-11917443D01*
X10767886Y-11917443D01*
X10786933Y-11926967D01*
X10796457Y-11946014D01*
X10796457Y-12050776D01*
X11186933Y-11841252D02*
X11015505Y-12098395D01*
X11444076Y-11850776D02*
X11463124Y-11850776D01*
X11482171Y-11860300D01*
X11491695Y-11869824D01*
X11501219Y-11888871D01*
X11510743Y-11926967D01*
X11510743Y-11974586D01*
X11501219Y-12012681D01*
X11491695Y-12031728D01*
X11482171Y-12041252D01*
X11463124Y-12050776D01*
X11444076Y-12050776D01*
X11425028Y-12041252D01*
X11415505Y-12031728D01*
X11405981Y-12012681D01*
X11396457Y-11974586D01*
X11396457Y-11926967D01*
X11405981Y-11888871D01*
X11415505Y-11869824D01*
X11425028Y-11860300D01*
X11444076Y-11850776D01*
X11596457Y-12031728D02*
X11605981Y-12041252D01*
X11596457Y-12050776D01*
X11586933Y-12041252D01*
X11596457Y-12031728D01*
X11596457Y-12050776D01*
X11796457Y-12050776D02*
X11682171Y-12050776D01*
X11739314Y-12050776D02*
X11739314Y-11850776D01*
X11720267Y-11879348D01*
X11701219Y-11898395D01*
X11682171Y-11907919D01*
X11872648Y-11869824D02*
X11882171Y-11860300D01*
X11901219Y-11850776D01*
X11948838Y-11850776D01*
X11967886Y-11860300D01*
X11977409Y-11869824D01*
X11986933Y-11888871D01*
X11986933Y-11907919D01*
X11977409Y-11936490D01*
X11863124Y-12050776D01*
X11986933Y-12050776D01*
X12158362Y-11850776D02*
X12120267Y-11850776D01*
X12101219Y-11860300D01*
X12091695Y-11869824D01*
X12072648Y-11898395D01*
X12063124Y-11936490D01*
X12063124Y-12012681D01*
X12072648Y-12031728D01*
X12082171Y-12041252D01*
X12101219Y-12050776D01*
X12139314Y-12050776D01*
X12158362Y-12041252D01*
X12167886Y-12031728D01*
X12177409Y-12012681D01*
X12177409Y-11965062D01*
X12167886Y-11946014D01*
X12158362Y-11936490D01*
X12139314Y-11926967D01*
X12101219Y-11926967D01*
X12082171Y-11936490D01*
X12072648Y-11946014D01*
X12063124Y-11965062D01*
X12301219Y-11850776D02*
X12320267Y-11850776D01*
X12339314Y-11860300D01*
X12348838Y-11869824D01*
X12358362Y-11888871D01*
X12367886Y-11926967D01*
X12367886Y-11974586D01*
X12358362Y-12012681D01*
X12348838Y-12031728D01*
X12339314Y-12041252D01*
X12320267Y-12050776D01*
X12301219Y-12050776D01*
X12282171Y-12041252D01*
X12272648Y-12031728D01*
X12263124Y-12012681D01*
X12253600Y-11974586D01*
X12253600Y-11926967D01*
X12263124Y-11888871D01*
X12272648Y-11869824D01*
X12282171Y-11860300D01*
X12301219Y-11850776D01*
X12444076Y-11850776D02*
X12444076Y-11888871D01*
X12520267Y-11850776D02*
X12520267Y-11888871D01*
X12815505Y-12126967D02*
X12805981Y-12117443D01*
X12786933Y-12088871D01*
X12777409Y-12069824D01*
X12767886Y-12041252D01*
X12758362Y-11993633D01*
X12758362Y-11955538D01*
X12767886Y-11907919D01*
X12777409Y-11879348D01*
X12786933Y-11860300D01*
X12805981Y-11831728D01*
X12815505Y-11822205D01*
X12882171Y-11869824D02*
X12891695Y-11860300D01*
X12910743Y-11850776D01*
X12958362Y-11850776D01*
X12977409Y-11860300D01*
X12986933Y-11869824D01*
X12996457Y-11888871D01*
X12996457Y-11907919D01*
X12986933Y-11936490D01*
X12872648Y-12050776D01*
X12996457Y-12050776D01*
X13234552Y-12050776D02*
X13234552Y-11850776D01*
X13320267Y-12050776D02*
X13320267Y-11946014D01*
X13310743Y-11926967D01*
X13291695Y-11917443D01*
X13263124Y-11917443D01*
X13244076Y-11926967D01*
X13234552Y-11936490D01*
X13444076Y-12050776D02*
X13425028Y-12041252D01*
X13415505Y-12031728D01*
X13405981Y-12012681D01*
X13405981Y-11955538D01*
X13415505Y-11936490D01*
X13425028Y-11926967D01*
X13444076Y-11917443D01*
X13472648Y-11917443D01*
X13491695Y-11926967D01*
X13501219Y-11936490D01*
X13510743Y-11955538D01*
X13510743Y-12012681D01*
X13501219Y-12031728D01*
X13491695Y-12041252D01*
X13472648Y-12050776D01*
X13444076Y-12050776D01*
X13625028Y-12050776D02*
X13605981Y-12041252D01*
X13596457Y-12022205D01*
X13596457Y-11850776D01*
X13777409Y-12041252D02*
X13758362Y-12050776D01*
X13720267Y-12050776D01*
X13701219Y-12041252D01*
X13691695Y-12022205D01*
X13691695Y-11946014D01*
X13701219Y-11926967D01*
X13720267Y-11917443D01*
X13758362Y-11917443D01*
X13777409Y-11926967D01*
X13786933Y-11946014D01*
X13786933Y-11965062D01*
X13691695Y-11984109D01*
X13863124Y-12041252D02*
X13882171Y-12050776D01*
X13920267Y-12050776D01*
X13939314Y-12041252D01*
X13948838Y-12022205D01*
X13948838Y-12012681D01*
X13939314Y-11993633D01*
X13920267Y-11984109D01*
X13891695Y-11984109D01*
X13872648Y-11974586D01*
X13863124Y-11955538D01*
X13863124Y-11946014D01*
X13872648Y-11926967D01*
X13891695Y-11917443D01*
X13920267Y-11917443D01*
X13939314Y-11926967D01*
X14015505Y-12126967D02*
X14025028Y-12117443D01*
X14044076Y-12088871D01*
X14053600Y-12069824D01*
X14063124Y-12041252D01*
X14072648Y-11993633D01*
X14072648Y-11955538D01*
X14063124Y-11907919D01*
X14053600Y-11879348D01*
X14044076Y-11860300D01*
X14025028Y-11831728D01*
X14015505Y-11822205D01*
M02*
