%TF.GenerationSoftware,KiCad,Pcbnew,(6.0.2)*%
%TF.CreationDate,2022-04-04T11:22:31-04:00*%
%TF.ProjectId,xum1541-via-adapter,78756d31-3534-4312-9d76-69612d616461,1*%
%TF.SameCoordinates,Original*%
%TF.FileFunction,Soldermask,Top*%
%TF.FilePolarity,Negative*%
%FSLAX46Y46*%
G04 Gerber Fmt 4.6, Leading zero omitted, Abs format (unit mm)*
G04 Created by KiCad (PCBNEW (6.0.2)) date 2022-04-04 11:22:31*
%MOMM*%
%LPD*%
G01*
G04 APERTURE LIST*
%ADD10C,1.600000*%
%ADD11O,1.600000X1.600000*%
%ADD12R,1.700000X1.700000*%
%ADD13O,1.700000X1.700000*%
G04 APERTURE END LIST*
D10*
X126725850Y-79830000D03*
X128313350Y-81100000D03*
D11*
X128313350Y-83640000D03*
X126725850Y-82370000D03*
X126725850Y-84910000D03*
X128313350Y-86180000D03*
X126725850Y-87450000D03*
X128313350Y-88720000D03*
X128313350Y-91260000D03*
X126725850Y-89990000D03*
X128313350Y-93800000D03*
X126725850Y-92530000D03*
X128313350Y-96340000D03*
X126725850Y-95070000D03*
X126725850Y-97610000D03*
X128313350Y-98880000D03*
X126725850Y-100150000D03*
X128313350Y-101420000D03*
X128313350Y-103960000D03*
X126725850Y-102690000D03*
X126725850Y-105230000D03*
X128313350Y-106500000D03*
X126725850Y-107770000D03*
X128313350Y-109040000D03*
X126725850Y-110310000D03*
X128313350Y-111580000D03*
X126725850Y-112850000D03*
X128313350Y-114120000D03*
X128313350Y-116660000D03*
X126725850Y-115390000D03*
X126725850Y-117930000D03*
X128313350Y-119200000D03*
X128313350Y-121740000D03*
X126725850Y-120470000D03*
X126725850Y-123010000D03*
X128313350Y-124280000D03*
X126725850Y-125550000D03*
X128313350Y-126820000D03*
X126725850Y-128090000D03*
X128313350Y-129360000D03*
X143553350Y-129360000D03*
X141965850Y-128090000D03*
X141965850Y-125550000D03*
X143553350Y-126820000D03*
X141965850Y-123010000D03*
X143553350Y-124280000D03*
X141965850Y-120470000D03*
X143553350Y-121740000D03*
X143553350Y-119200000D03*
X141965850Y-117930000D03*
X143553350Y-116660000D03*
X141965850Y-115390000D03*
X141965850Y-112850000D03*
X143553350Y-114120000D03*
X143553350Y-111580000D03*
X141965850Y-110310000D03*
X141965850Y-107770000D03*
X143553350Y-109040000D03*
X143553350Y-106500000D03*
X141965850Y-105230000D03*
X141965850Y-102690000D03*
X143553350Y-103960000D03*
X141965850Y-100150000D03*
X143553350Y-101420000D03*
X143553350Y-98880000D03*
X141965850Y-97610000D03*
X141965850Y-95070000D03*
X143553350Y-96340000D03*
X143553350Y-93800000D03*
X141965850Y-92530000D03*
X143553350Y-91260000D03*
X141965850Y-89990000D03*
X143553350Y-88720000D03*
X141965850Y-87450000D03*
X143553350Y-86180000D03*
X141965850Y-84910000D03*
X143553350Y-83640000D03*
X141965850Y-82370000D03*
X143553350Y-81100000D03*
X141965850Y-79830000D03*
D12*
X128789600Y-76020000D03*
D13*
X128789600Y-73480000D03*
X131329600Y-76020000D03*
X131329600Y-73480000D03*
X133869600Y-76020000D03*
X133869600Y-73480000D03*
X136409600Y-76020000D03*
X136409600Y-73480000D03*
X138949600Y-76020000D03*
X138949600Y-73480000D03*
X141489600Y-76020000D03*
X141489600Y-73480000D03*
M02*
