%FSLAX45Y45*%
G04 Gerber Fmt 4.5, Leading zero omitted, Abs format (unit mm)*
G04 Created by KiCad (PCBNEW (6.0.2)) date 2022-04-04 11:22:47*
%MOMM*%
%LPD*%
G01*
G04 APERTURE LIST*
%TA.AperFunction,Profile*%
%ADD10C,0.038100*%
%TD*%
%ADD11C,0.200000*%
G04 APERTURE END LIST*
D10*
X12533960Y-7892000D02*
X12533960Y-13022000D01*
X14343960Y-7842000D02*
X14443960Y-7842000D01*
X14293960Y-7252000D02*
X14293960Y-7792000D01*
X14443960Y-13072000D02*
G75*
G03*
X14493960Y-13022000I0J50000D01*
G01*
X12783960Y-7202000D02*
G75*
G03*
X12733960Y-7252000I0J-50000D01*
G01*
X14243960Y-7202000D02*
X12783960Y-7202000D01*
X12533960Y-13022000D02*
G75*
G03*
X12583960Y-13072000I50000J0D01*
G01*
X12683960Y-7842000D02*
G75*
G03*
X12733960Y-7792000I0J50000D01*
G01*
X14493960Y-13022000D02*
X14493960Y-7892000D01*
X12733960Y-7792000D02*
X12733960Y-7252000D01*
X14293960Y-7252000D02*
G75*
G03*
X14243960Y-7202000I-50000J0D01*
G01*
X12583960Y-7842000D02*
G75*
G03*
X12533960Y-7892000I0J-50000D01*
G01*
X14493960Y-7892000D02*
G75*
G03*
X14443960Y-7842000I-50000J0D01*
G01*
X12583960Y-13072000D02*
X14443960Y-13072000D01*
X14293960Y-7792000D02*
G75*
G03*
X14343960Y-7842000I50000J0D01*
G01*
X12583960Y-7842000D02*
X12683960Y-7842000D01*
D11*
X12789674Y-13384381D02*
X12789674Y-13184381D01*
X12837293Y-13184381D01*
X12865864Y-13193905D01*
X12884912Y-13212953D01*
X12894436Y-13232000D01*
X12903960Y-13270095D01*
X12903960Y-13298667D01*
X12894436Y-13336762D01*
X12884912Y-13355810D01*
X12865864Y-13374857D01*
X12837293Y-13384381D01*
X12789674Y-13384381D01*
X12989674Y-13384381D02*
X12989674Y-13251048D01*
X12989674Y-13289143D02*
X12999198Y-13270095D01*
X13008722Y-13260572D01*
X13027769Y-13251048D01*
X13046817Y-13251048D01*
X13113483Y-13384381D02*
X13113483Y-13251048D01*
X13113483Y-13184381D02*
X13103960Y-13193905D01*
X13113483Y-13203429D01*
X13123007Y-13193905D01*
X13113483Y-13184381D01*
X13113483Y-13203429D01*
X13237293Y-13384381D02*
X13218245Y-13374857D01*
X13208722Y-13355810D01*
X13208722Y-13184381D01*
X13342055Y-13384381D02*
X13323007Y-13374857D01*
X13313483Y-13355810D01*
X13313483Y-13184381D01*
X13570626Y-13384381D02*
X13570626Y-13184381D01*
X13637293Y-13327238D01*
X13703960Y-13184381D01*
X13703960Y-13384381D01*
X13884912Y-13384381D02*
X13884912Y-13279619D01*
X13875388Y-13260572D01*
X13856341Y-13251048D01*
X13818245Y-13251048D01*
X13799198Y-13260572D01*
X13884912Y-13374857D02*
X13865864Y-13384381D01*
X13818245Y-13384381D01*
X13799198Y-13374857D01*
X13789674Y-13355810D01*
X13789674Y-13336762D01*
X13799198Y-13317714D01*
X13818245Y-13308191D01*
X13865864Y-13308191D01*
X13884912Y-13298667D01*
X13980150Y-13251048D02*
X13980150Y-13451048D01*
X13980150Y-13260572D02*
X13999198Y-13251048D01*
X14037293Y-13251048D01*
X14056341Y-13260572D01*
X14065864Y-13270095D01*
X14075388Y-13289143D01*
X14075388Y-13346286D01*
X14065864Y-13365333D01*
X14056341Y-13374857D01*
X14037293Y-13384381D01*
X13999198Y-13384381D01*
X13980150Y-13374857D01*
X14161103Y-13365333D02*
X14170626Y-13374857D01*
X14161103Y-13384381D01*
X14151579Y-13374857D01*
X14161103Y-13365333D01*
X14161103Y-13384381D01*
X14161103Y-13260572D02*
X14170626Y-13270095D01*
X14161103Y-13279619D01*
X14151579Y-13270095D01*
X14161103Y-13260572D01*
X14161103Y-13279619D01*
M02*
