%TF.GenerationSoftware,KiCad,Pcbnew,(6.0.2)*%
%TF.CreationDate,2022-04-04T11:22:31-04:00*%
%TF.ProjectId,xum1541-via-adapter,78756d31-3534-4312-9d76-69612d616461,1*%
%TF.SameCoordinates,Original*%
%TF.FileFunction,Legend,Bot*%
%TF.FilePolarity,Positive*%
%FSLAX46Y46*%
G04 Gerber Fmt 4.6, Leading zero omitted, Abs format (unit mm)*
G04 Created by KiCad (PCBNEW (6.0.2)) date 2022-04-04 11:22:31*
%MOMM*%
%LPD*%
G01*
G04 APERTURE LIST*
%ADD10C,0.152400*%
%ADD11C,1.600000*%
%ADD12O,1.600000X1.600000*%
%ADD13R,1.700000X1.700000*%
%ADD14O,1.700000X1.700000*%
G04 APERTURE END LIST*
D10*
X135584704Y-105124360D02*
X135004133Y-105124360D01*
X134888019Y-105163065D01*
X134810609Y-105240475D01*
X134771904Y-105356589D01*
X134771904Y-105433999D01*
X134771904Y-104350265D02*
X134771904Y-104737313D01*
X135584704Y-104737313D01*
X134849314Y-103614875D02*
X134810609Y-103653579D01*
X134771904Y-103769694D01*
X134771904Y-103847103D01*
X134810609Y-103963218D01*
X134888019Y-104040627D01*
X134965428Y-104079332D01*
X135120247Y-104118037D01*
X135236361Y-104118037D01*
X135391180Y-104079332D01*
X135468590Y-104040627D01*
X135546000Y-103963218D01*
X135584704Y-103847103D01*
X135584704Y-103769694D01*
X135546000Y-103653579D01*
X135507295Y-103614875D01*
X135584704Y-103034303D02*
X135004133Y-103034303D01*
X134888019Y-103073008D01*
X134810609Y-103150418D01*
X134771904Y-103266532D01*
X134771904Y-103343941D01*
X134771904Y-102260208D02*
X134771904Y-102647256D01*
X135584704Y-102647256D01*
X134849314Y-101524818D02*
X134810609Y-101563522D01*
X134771904Y-101679637D01*
X134771904Y-101757046D01*
X134810609Y-101873160D01*
X134888019Y-101950570D01*
X134965428Y-101989275D01*
X135120247Y-102027979D01*
X135236361Y-102027979D01*
X135391180Y-101989275D01*
X135468590Y-101950570D01*
X135546000Y-101873160D01*
X135584704Y-101757046D01*
X135584704Y-101679637D01*
X135546000Y-101563522D01*
X135507295Y-101524818D01*
X135584704Y-100944246D02*
X135004133Y-100944246D01*
X134888019Y-100982951D01*
X134810609Y-101060360D01*
X134771904Y-101176475D01*
X134771904Y-101253884D01*
X134771904Y-100170151D02*
X134771904Y-100557199D01*
X135584704Y-100557199D01*
X134849314Y-99434760D02*
X134810609Y-99473465D01*
X134771904Y-99589579D01*
X134771904Y-99666989D01*
X134810609Y-99783103D01*
X134888019Y-99860513D01*
X134965428Y-99899218D01*
X135120247Y-99937922D01*
X135236361Y-99937922D01*
X135391180Y-99899218D01*
X135468590Y-99860513D01*
X135546000Y-99783103D01*
X135584704Y-99666989D01*
X135584704Y-99589579D01*
X135546000Y-99473465D01*
X135507295Y-99434760D01*
X135584704Y-98854189D02*
X135004133Y-98854189D01*
X134888019Y-98892894D01*
X134810609Y-98970303D01*
X134771904Y-99086418D01*
X134771904Y-99163827D01*
X134771904Y-98080094D02*
X134771904Y-98467141D01*
X135584704Y-98467141D01*
X134849314Y-97344703D02*
X134810609Y-97383408D01*
X134771904Y-97499522D01*
X134771904Y-97576932D01*
X134810609Y-97693046D01*
X134888019Y-97770456D01*
X134965428Y-97809160D01*
X135120247Y-97847865D01*
X135236361Y-97847865D01*
X135391180Y-97809160D01*
X135468590Y-97770456D01*
X135546000Y-97693046D01*
X135584704Y-97576932D01*
X135584704Y-97499522D01*
X135546000Y-97383408D01*
X135507295Y-97344703D01*
%LPC*%
D11*
X126725850Y-79830000D03*
X128313350Y-81100000D03*
D12*
X128313350Y-83640000D03*
X126725850Y-82370000D03*
X126725850Y-84910000D03*
X128313350Y-86180000D03*
X126725850Y-87450000D03*
X128313350Y-88720000D03*
X128313350Y-91260000D03*
X126725850Y-89990000D03*
X128313350Y-93800000D03*
X126725850Y-92530000D03*
X128313350Y-96340000D03*
X126725850Y-95070000D03*
X126725850Y-97610000D03*
X128313350Y-98880000D03*
X126725850Y-100150000D03*
X128313350Y-101420000D03*
X128313350Y-103960000D03*
X126725850Y-102690000D03*
X126725850Y-105230000D03*
X128313350Y-106500000D03*
X126725850Y-107770000D03*
X128313350Y-109040000D03*
X126725850Y-110310000D03*
X128313350Y-111580000D03*
X126725850Y-112850000D03*
X128313350Y-114120000D03*
X128313350Y-116660000D03*
X126725850Y-115390000D03*
X126725850Y-117930000D03*
X128313350Y-119200000D03*
X128313350Y-121740000D03*
X126725850Y-120470000D03*
X126725850Y-123010000D03*
X128313350Y-124280000D03*
X126725850Y-125550000D03*
X128313350Y-126820000D03*
X126725850Y-128090000D03*
X128313350Y-129360000D03*
X143553350Y-129360000D03*
X141965850Y-128090000D03*
X141965850Y-125550000D03*
X143553350Y-126820000D03*
X141965850Y-123010000D03*
X143553350Y-124280000D03*
X141965850Y-120470000D03*
X143553350Y-121740000D03*
X143553350Y-119200000D03*
X141965850Y-117930000D03*
X143553350Y-116660000D03*
X141965850Y-115390000D03*
X141965850Y-112850000D03*
X143553350Y-114120000D03*
X143553350Y-111580000D03*
X141965850Y-110310000D03*
X141965850Y-107770000D03*
X143553350Y-109040000D03*
X143553350Y-106500000D03*
X141965850Y-105230000D03*
X141965850Y-102690000D03*
X143553350Y-103960000D03*
X141965850Y-100150000D03*
X143553350Y-101420000D03*
X143553350Y-98880000D03*
X141965850Y-97610000D03*
X141965850Y-95070000D03*
X143553350Y-96340000D03*
X143553350Y-93800000D03*
X141965850Y-92530000D03*
X143553350Y-91260000D03*
X141965850Y-89990000D03*
X143553350Y-88720000D03*
X141965850Y-87450000D03*
X143553350Y-86180000D03*
X141965850Y-84910000D03*
X143553350Y-83640000D03*
X141965850Y-82370000D03*
X143553350Y-81100000D03*
X141965850Y-79830000D03*
D13*
X128789600Y-76020000D03*
D14*
X128789600Y-73480000D03*
X131329600Y-76020000D03*
X131329600Y-73480000D03*
X133869600Y-76020000D03*
X133869600Y-73480000D03*
X136409600Y-76020000D03*
X136409600Y-73480000D03*
X138949600Y-76020000D03*
X138949600Y-73480000D03*
X141489600Y-76020000D03*
X141489600Y-73480000D03*
M02*
