M48
; DRILL file {KiCad (6.0.2)} date Mon Apr  4 11:22:46 2022
; FORMAT={-:-/ absolute / metric / decimal}
; #@! TF.CreationDate,2022-04-04T11:22:46-04:00
; #@! TF.GenerationSoftware,Kicad,Pcbnew,(6.0.2)
; #@! TF.FileFunction,Plated,1,2,PTH
FMAT,2
METRIC
; #@! TA.AperFunction,Plated,PTH,ComponentDrill
T1C0.800
; #@! TA.AperFunction,Plated,PTH,ComponentDrill
T2C1.000
%
G90
G05
T1
X126.726Y-79.83
X126.726Y-82.37
X126.726Y-84.91
X126.726Y-87.45
X126.726Y-89.99
X126.726Y-92.53
X126.726Y-95.07
X126.726Y-97.61
X126.726Y-100.15
X126.726Y-102.69
X126.726Y-105.23
X126.726Y-107.77
X126.726Y-110.31
X126.726Y-112.85
X126.726Y-115.39
X126.726Y-117.93
X126.726Y-120.47
X126.726Y-123.01
X126.726Y-125.55
X126.726Y-128.09
X128.313Y-81.1
X128.313Y-83.64
X128.313Y-86.18
X128.313Y-88.72
X128.313Y-91.26
X128.313Y-93.8
X128.313Y-96.34
X128.313Y-98.88
X128.313Y-101.42
X128.313Y-103.96
X128.313Y-106.5
X128.313Y-109.04
X128.313Y-111.58
X128.313Y-114.12
X128.313Y-116.66
X128.313Y-119.2
X128.313Y-121.74
X128.313Y-124.28
X128.313Y-126.82
X128.313Y-129.36
X141.966Y-79.83
X141.966Y-82.37
X141.966Y-84.91
X141.966Y-87.45
X141.966Y-89.99
X141.966Y-92.53
X141.966Y-95.07
X141.966Y-97.61
X141.966Y-100.15
X141.966Y-102.69
X141.966Y-105.23
X141.966Y-107.77
X141.966Y-110.31
X141.966Y-112.85
X141.966Y-115.39
X141.966Y-117.93
X141.966Y-120.47
X141.966Y-123.01
X141.966Y-125.55
X141.966Y-128.09
X143.553Y-81.1
X143.553Y-83.64
X143.553Y-86.18
X143.553Y-88.72
X143.553Y-91.26
X143.553Y-93.8
X143.553Y-96.34
X143.553Y-98.88
X143.553Y-101.42
X143.553Y-103.96
X143.553Y-106.5
X143.553Y-109.04
X143.553Y-111.58
X143.553Y-114.12
X143.553Y-116.66
X143.553Y-119.2
X143.553Y-121.74
X143.553Y-124.28
X143.553Y-126.82
X143.553Y-129.36
T2
X128.79Y-73.48
X128.79Y-76.02
X131.33Y-73.48
X131.33Y-76.02
X133.87Y-73.48
X133.87Y-76.02
X136.41Y-73.48
X136.41Y-76.02
X138.95Y-73.48
X138.95Y-76.02
X141.49Y-73.48
X141.49Y-76.02
T0
M30
