%TF.GenerationSoftware,KiCad,Pcbnew,(6.0.2)*%
%TF.CreationDate,2022-04-04T11:25:54-04:00*%
%TF.ProjectId,xum1541,78756d31-3534-4312-9e6b-696361645f70,1.0*%
%TF.SameCoordinates,Original*%
%TF.FileFunction,Soldermask,Top*%
%TF.FilePolarity,Negative*%
%FSLAX46Y46*%
G04 Gerber Fmt 4.6, Leading zero omitted, Abs format (unit mm)*
G04 Created by KiCad (PCBNEW (6.0.2)) date 2022-04-04 11:25:54*
%MOMM*%
%LPD*%
G01*
G04 APERTURE LIST*
%ADD10C,1.600000*%
%ADD11O,1.600000X1.600000*%
%ADD12R,2.794000X1.524000*%
%ADD13O,2.794000X1.524000*%
%ADD14C,2.000000*%
%ADD15C,3.100000*%
%ADD16C,5.400000*%
%ADD17R,1.700000X1.700000*%
%ADD18O,1.700000X1.700000*%
%ADD19R,1.600000X1.600000*%
%ADD20C,2.400000*%
%ADD21R,1.800000X1.800000*%
%ADD22C,1.800000*%
G04 APERTURE END LIST*
D10*
X163800000Y-128200000D03*
D11*
X163800000Y-130740000D03*
D12*
X158255000Y-137090000D03*
D13*
X158255000Y-134550000D03*
X158255000Y-132010000D03*
X158255000Y-129470000D03*
X158255000Y-126930000D03*
X158255000Y-124390000D03*
X158255000Y-121850000D03*
X158255000Y-119310000D03*
X158255000Y-116770000D03*
X158255000Y-114230000D03*
X158255000Y-111690000D03*
X158255000Y-109150000D03*
X141745000Y-109150000D03*
X141745000Y-111690000D03*
X141745000Y-114230000D03*
X141745000Y-116770000D03*
X141745000Y-119310000D03*
X141745000Y-121850000D03*
X141745000Y-124390000D03*
X141745000Y-126930000D03*
X141745000Y-129470000D03*
X141745000Y-132010000D03*
X141745000Y-134550000D03*
X141745000Y-137090000D03*
D14*
X128750000Y-133750000D03*
X135250000Y-133750000D03*
X128750000Y-138250000D03*
X135250000Y-138250000D03*
D10*
X141745000Y-102800000D03*
D11*
X141745000Y-105340000D03*
D15*
X123000000Y-84000000D03*
D16*
X123000000Y-84000000D03*
D15*
X177000000Y-138000000D03*
D16*
X177000000Y-138000000D03*
D10*
X170500000Y-128200000D03*
D11*
X170500000Y-130740000D03*
D17*
X131516666Y-94075000D03*
D18*
X131516666Y-91535000D03*
X134056666Y-94075000D03*
X134056666Y-91535000D03*
X136596666Y-94075000D03*
X136596666Y-91535000D03*
X139136666Y-94075000D03*
X139136666Y-91535000D03*
X141676666Y-94075000D03*
X141676666Y-91535000D03*
X144216666Y-94075000D03*
X144216666Y-91535000D03*
D19*
X173930000Y-120580000D03*
D11*
X173930000Y-118040000D03*
X173930000Y-115500000D03*
X173930000Y-112960000D03*
X173930000Y-110420000D03*
X173930000Y-107880000D03*
X173930000Y-105340000D03*
X166310000Y-105340000D03*
X166310000Y-107880000D03*
X166310000Y-110420000D03*
X166310000Y-112960000D03*
X166310000Y-115500000D03*
X166310000Y-118040000D03*
X166310000Y-120580000D03*
D20*
X169500000Y-88725000D03*
X154500000Y-88725000D03*
D14*
X154500000Y-93725000D03*
X157000000Y-96225000D03*
X162000000Y-93725000D03*
X167000000Y-96225000D03*
X169500000Y-93725000D03*
X162000000Y-98725000D03*
X164500000Y-86525000D03*
X159500000Y-86525000D03*
X167000000Y-83725000D03*
X157000000Y-83725000D03*
D21*
X170500000Y-134725000D03*
D22*
X170500000Y-137265000D03*
D10*
X145872500Y-102800000D03*
D11*
X145872500Y-105340000D03*
D21*
X163800000Y-134725000D03*
D22*
X163800000Y-137265000D03*
D15*
X123000000Y-138000000D03*
D16*
X123000000Y-138000000D03*
X177000000Y-84000000D03*
D15*
X177000000Y-84000000D03*
D10*
X166310000Y-124390000D03*
X168810000Y-124390000D03*
X158255000Y-102800000D03*
D11*
X158255000Y-105340000D03*
D10*
X154127500Y-102800000D03*
D11*
X154127500Y-105340000D03*
D10*
X150000000Y-102800000D03*
D11*
X150000000Y-105340000D03*
M02*
