%FSLAX45Y45*%
G04 Gerber Fmt 4.5, Leading zero omitted, Abs format (unit mm)*
G04 Created by KiCad (PCBNEW (6.0.2)) date 2022-04-04 11:25:59*
%MOMM*%
%LPD*%
G01*
G04 APERTURE LIST*
%TA.AperFunction,Profile*%
%ADD10C,0.100000*%
%TD*%
%ADD11C,0.200000*%
%ADD12C,0.076200*%
%ADD13C,0.080000*%
%ADD14C,0.090000*%
%ADD15C,0.100000*%
%ADD16C,0.110000*%
%ADD17C,0.135000*%
%ADD18C,0.270000*%
G04 APERTURE END LIST*
D10*
X17700000Y-14100000D02*
G75*
G03*
X18000000Y-13800000I0J300000D01*
G01*
X18000000Y-8400000D02*
X18000000Y-13800000D01*
X12300000Y-8100000D02*
G75*
G03*
X12000000Y-8400000I0J-300000D01*
G01*
X12000000Y-13800000D02*
G75*
G03*
X12300000Y-14100000I300000J0D01*
G01*
X12000000Y-13800000D02*
X12000000Y-8400000D01*
X12300000Y-8100000D02*
X17700000Y-8100000D01*
X12300000Y-14100000D02*
X17700000Y-14100000D01*
X18000000Y-8400000D02*
G75*
G03*
X17700000Y-8100000I-300000J0D01*
G01*
D11*
D12*
X14136400Y-10876900D02*
X14212600Y-10953100D01*
X14212600Y-10876900D02*
X14136400Y-10953100D01*
D11*
X14238000Y-10886900D02*
X14111000Y-10886900D01*
X14238000Y-10943100D02*
X14111000Y-10943100D01*
X14111000Y-10886900D02*
G75*
G03*
X14111000Y-10943100I0J-28100D01*
G01*
X14238000Y-10943100D02*
G75*
G03*
X14238000Y-10886900I0J28100D01*
G01*
D12*
X14136400Y-11130900D02*
X14212600Y-11207100D01*
X14212600Y-11130900D02*
X14136400Y-11207100D01*
D11*
X14238000Y-11140900D02*
X14111000Y-11140900D01*
X14238000Y-11197100D02*
X14111000Y-11197100D01*
X14111000Y-11140900D02*
G75*
G03*
X14111000Y-11197100I0J-28100D01*
G01*
X14238000Y-11197100D02*
G75*
G03*
X14238000Y-11140900I0J28100D01*
G01*
D12*
X14136400Y-11384900D02*
X14212600Y-11461100D01*
X14212600Y-11384900D02*
X14136400Y-11461100D01*
D11*
X14238000Y-11394900D02*
X14111000Y-11394900D01*
X14238000Y-11451100D02*
X14111000Y-11451100D01*
X14111000Y-11394900D02*
G75*
G03*
X14111000Y-11451100I0J-28100D01*
G01*
X14238000Y-11451100D02*
G75*
G03*
X14238000Y-11394900I0J28100D01*
G01*
D12*
X14136400Y-11638900D02*
X14212600Y-11715100D01*
X14212600Y-11638900D02*
X14136400Y-11715100D01*
D11*
X14238000Y-11648900D02*
X14111000Y-11648900D01*
X14238000Y-11705100D02*
X14111000Y-11705100D01*
X14111000Y-11648900D02*
G75*
G03*
X14111000Y-11705100I0J-28100D01*
G01*
X14238000Y-11705100D02*
G75*
G03*
X14238000Y-11648900I0J28100D01*
G01*
D12*
X14136400Y-11892900D02*
X14212600Y-11969100D01*
X14212600Y-11892900D02*
X14136400Y-11969100D01*
D11*
X14238000Y-11902900D02*
X14111000Y-11902900D01*
X14238000Y-11959100D02*
X14111000Y-11959100D01*
X14111000Y-11902900D02*
G75*
G03*
X14111000Y-11959100I0J-28100D01*
G01*
X14238000Y-11959100D02*
G75*
G03*
X14238000Y-11902900I0J28100D01*
G01*
D12*
X14136400Y-12146900D02*
X14212600Y-12223100D01*
X14212600Y-12146900D02*
X14136400Y-12223100D01*
D11*
X14238000Y-12156900D02*
X14111000Y-12156900D01*
X14238000Y-12213100D02*
X14111000Y-12213100D01*
X14111000Y-12156900D02*
G75*
G03*
X14111000Y-12213100I0J-28100D01*
G01*
X14238000Y-12213100D02*
G75*
G03*
X14238000Y-12156900I0J28100D01*
G01*
D12*
X14136400Y-12400900D02*
X14212600Y-12477100D01*
X14212600Y-12400900D02*
X14136400Y-12477100D01*
D11*
X14238000Y-12410900D02*
X14111000Y-12410900D01*
X14238000Y-12467100D02*
X14111000Y-12467100D01*
X14111000Y-12410900D02*
G75*
G03*
X14111000Y-12467100I0J-28100D01*
G01*
X14238000Y-12467100D02*
G75*
G03*
X14238000Y-12410900I0J28100D01*
G01*
D12*
X14136400Y-12654900D02*
X14212600Y-12731100D01*
X14212600Y-12654900D02*
X14136400Y-12731100D01*
D11*
X14238000Y-12664900D02*
X14111000Y-12664900D01*
X14238000Y-12721100D02*
X14111000Y-12721100D01*
X14111000Y-12664900D02*
G75*
G03*
X14111000Y-12721100I0J-28100D01*
G01*
X14238000Y-12721100D02*
G75*
G03*
X14238000Y-12664900I0J28100D01*
G01*
D12*
X14136400Y-12908900D02*
X14212600Y-12985100D01*
X14212600Y-12908900D02*
X14136400Y-12985100D01*
D11*
X14238000Y-12918900D02*
X14111000Y-12918900D01*
X14238000Y-12975100D02*
X14111000Y-12975100D01*
X14111000Y-12918900D02*
G75*
G03*
X14111000Y-12975100I0J-28100D01*
G01*
X14238000Y-12975100D02*
G75*
G03*
X14238000Y-12918900I0J28100D01*
G01*
D12*
X14136400Y-13162900D02*
X14212600Y-13239100D01*
X14212600Y-13162900D02*
X14136400Y-13239100D01*
D11*
X14238000Y-13172900D02*
X14111000Y-13172900D01*
X14238000Y-13229100D02*
X14111000Y-13229100D01*
X14111000Y-13172900D02*
G75*
G03*
X14111000Y-13229100I0J-28100D01*
G01*
X14238000Y-13229100D02*
G75*
G03*
X14238000Y-13172900I0J28100D01*
G01*
D12*
X14136400Y-13416900D02*
X14212600Y-13493100D01*
X14212600Y-13416900D02*
X14136400Y-13493100D01*
D11*
X14238000Y-13426900D02*
X14111000Y-13426900D01*
X14238000Y-13483100D02*
X14111000Y-13483100D01*
X14111000Y-13426900D02*
G75*
G03*
X14111000Y-13483100I0J-28100D01*
G01*
X14238000Y-13483100D02*
G75*
G03*
X14238000Y-13426900I0J28100D01*
G01*
D12*
X14136400Y-13670900D02*
X14212600Y-13747100D01*
X14212600Y-13670900D02*
X14136400Y-13747100D01*
D11*
X14238000Y-13680900D02*
X14111000Y-13680900D01*
X14238000Y-13737100D02*
X14111000Y-13737100D01*
X14111000Y-13680900D02*
G75*
G03*
X14111000Y-13737100I0J-28100D01*
G01*
X14238000Y-13737100D02*
G75*
G03*
X14238000Y-13680900I0J28100D01*
G01*
D12*
X15787400Y-10876900D02*
X15863600Y-10953100D01*
X15863600Y-10876900D02*
X15787400Y-10953100D01*
D11*
X15889000Y-10886900D02*
X15762000Y-10886900D01*
X15889000Y-10943100D02*
X15762000Y-10943100D01*
X15762000Y-10886900D02*
G75*
G03*
X15762000Y-10943100I0J-28100D01*
G01*
X15889000Y-10943100D02*
G75*
G03*
X15889000Y-10886900I0J28100D01*
G01*
D12*
X15787400Y-11130900D02*
X15863600Y-11207100D01*
X15863600Y-11130900D02*
X15787400Y-11207100D01*
D11*
X15889000Y-11140900D02*
X15762000Y-11140900D01*
X15889000Y-11197100D02*
X15762000Y-11197100D01*
X15762000Y-11140900D02*
G75*
G03*
X15762000Y-11197100I0J-28100D01*
G01*
X15889000Y-11197100D02*
G75*
G03*
X15889000Y-11140900I0J28100D01*
G01*
D12*
X15787400Y-11384900D02*
X15863600Y-11461100D01*
X15863600Y-11384900D02*
X15787400Y-11461100D01*
D11*
X15889000Y-11394900D02*
X15762000Y-11394900D01*
X15889000Y-11451100D02*
X15762000Y-11451100D01*
X15762000Y-11394900D02*
G75*
G03*
X15762000Y-11451100I0J-28100D01*
G01*
X15889000Y-11451100D02*
G75*
G03*
X15889000Y-11394900I0J28100D01*
G01*
D12*
X15787400Y-11638900D02*
X15863600Y-11715100D01*
X15863600Y-11638900D02*
X15787400Y-11715100D01*
D11*
X15889000Y-11648900D02*
X15762000Y-11648900D01*
X15889000Y-11705100D02*
X15762000Y-11705100D01*
X15762000Y-11648900D02*
G75*
G03*
X15762000Y-11705100I0J-28100D01*
G01*
X15889000Y-11705100D02*
G75*
G03*
X15889000Y-11648900I0J28100D01*
G01*
D12*
X15787400Y-11892900D02*
X15863600Y-11969100D01*
X15863600Y-11892900D02*
X15787400Y-11969100D01*
D11*
X15889000Y-11902900D02*
X15762000Y-11902900D01*
X15889000Y-11959100D02*
X15762000Y-11959100D01*
X15762000Y-11902900D02*
G75*
G03*
X15762000Y-11959100I0J-28100D01*
G01*
X15889000Y-11959100D02*
G75*
G03*
X15889000Y-11902900I0J28100D01*
G01*
D12*
X15787400Y-12146900D02*
X15863600Y-12223100D01*
X15863600Y-12146900D02*
X15787400Y-12223100D01*
D11*
X15889000Y-12156900D02*
X15762000Y-12156900D01*
X15889000Y-12213100D02*
X15762000Y-12213100D01*
X15762000Y-12156900D02*
G75*
G03*
X15762000Y-12213100I0J-28100D01*
G01*
X15889000Y-12213100D02*
G75*
G03*
X15889000Y-12156900I0J28100D01*
G01*
D12*
X15787400Y-12400900D02*
X15863600Y-12477100D01*
X15863600Y-12400900D02*
X15787400Y-12477100D01*
D11*
X15889000Y-12410900D02*
X15762000Y-12410900D01*
X15889000Y-12467100D02*
X15762000Y-12467100D01*
X15762000Y-12410900D02*
G75*
G03*
X15762000Y-12467100I0J-28100D01*
G01*
X15889000Y-12467100D02*
G75*
G03*
X15889000Y-12410900I0J28100D01*
G01*
D12*
X15787400Y-12654900D02*
X15863600Y-12731100D01*
X15863600Y-12654900D02*
X15787400Y-12731100D01*
D11*
X15889000Y-12664900D02*
X15762000Y-12664900D01*
X15889000Y-12721100D02*
X15762000Y-12721100D01*
X15762000Y-12664900D02*
G75*
G03*
X15762000Y-12721100I0J-28100D01*
G01*
X15889000Y-12721100D02*
G75*
G03*
X15889000Y-12664900I0J28100D01*
G01*
D12*
X15787400Y-12908900D02*
X15863600Y-12985100D01*
X15863600Y-12908900D02*
X15787400Y-12985100D01*
D11*
X15889000Y-12918900D02*
X15762000Y-12918900D01*
X15889000Y-12975100D02*
X15762000Y-12975100D01*
X15762000Y-12918900D02*
G75*
G03*
X15762000Y-12975100I0J-28100D01*
G01*
X15889000Y-12975100D02*
G75*
G03*
X15889000Y-12918900I0J28100D01*
G01*
D12*
X15787400Y-13162900D02*
X15863600Y-13239100D01*
X15863600Y-13162900D02*
X15787400Y-13239100D01*
D11*
X15889000Y-13172900D02*
X15762000Y-13172900D01*
X15889000Y-13229100D02*
X15762000Y-13229100D01*
X15762000Y-13172900D02*
G75*
G03*
X15762000Y-13229100I0J-28100D01*
G01*
X15889000Y-13229100D02*
G75*
G03*
X15889000Y-13172900I0J28100D01*
G01*
D12*
X15787400Y-13416900D02*
X15863600Y-13493100D01*
X15863600Y-13416900D02*
X15787400Y-13493100D01*
D11*
X15889000Y-13426900D02*
X15762000Y-13426900D01*
X15889000Y-13483100D02*
X15762000Y-13483100D01*
X15762000Y-13426900D02*
G75*
G03*
X15762000Y-13483100I0J-28100D01*
G01*
X15889000Y-13483100D02*
G75*
G03*
X15889000Y-13426900I0J28100D01*
G01*
D12*
X15787400Y-13670900D02*
X15863600Y-13747100D01*
X15863600Y-13670900D02*
X15787400Y-13747100D01*
D11*
X15889000Y-13680900D02*
X15762000Y-13680900D01*
X15889000Y-13737100D02*
X15762000Y-13737100D01*
X15762000Y-13680900D02*
G75*
G03*
X15762000Y-13737100I0J-28100D01*
G01*
X15889000Y-13737100D02*
G75*
G03*
X15889000Y-13680900I0J28100D01*
G01*
D13*
X14214500Y-10280000D02*
G75*
G03*
X14214500Y-10280000I-40000J0D01*
G01*
X14214500Y-10534000D02*
G75*
G03*
X14214500Y-10534000I-40000J0D01*
G01*
X14627250Y-10280000D02*
G75*
G03*
X14627250Y-10280000I-40000J0D01*
G01*
X14627250Y-10534000D02*
G75*
G03*
X14627250Y-10534000I-40000J0D01*
G01*
X15040000Y-10280000D02*
G75*
G03*
X15040000Y-10280000I-40000J0D01*
G01*
X15040000Y-10534000D02*
G75*
G03*
X15040000Y-10534000I-40000J0D01*
G01*
X15452750Y-10280000D02*
G75*
G03*
X15452750Y-10280000I-40000J0D01*
G01*
X15452750Y-10534000D02*
G75*
G03*
X15452750Y-10534000I-40000J0D01*
G01*
X15865500Y-10280000D02*
G75*
G03*
X15865500Y-10280000I-40000J0D01*
G01*
X15865500Y-10534000D02*
G75*
G03*
X15865500Y-10534000I-40000J0D01*
G01*
X16420000Y-12820000D02*
G75*
G03*
X16420000Y-12820000I-40000J0D01*
G01*
X16420000Y-13074000D02*
G75*
G03*
X16420000Y-13074000I-40000J0D01*
G01*
X16671000Y-10534000D02*
G75*
G03*
X16671000Y-10534000I-40000J0D01*
G01*
X16671000Y-10788000D02*
G75*
G03*
X16671000Y-10788000I-40000J0D01*
G01*
X16671000Y-11042000D02*
G75*
G03*
X16671000Y-11042000I-40000J0D01*
G01*
X16671000Y-11296000D02*
G75*
G03*
X16671000Y-11296000I-40000J0D01*
G01*
X16671000Y-11550000D02*
G75*
G03*
X16671000Y-11550000I-40000J0D01*
G01*
X16671000Y-11804000D02*
G75*
G03*
X16671000Y-11804000I-40000J0D01*
G01*
X16671000Y-12058000D02*
G75*
G03*
X16671000Y-12058000I-40000J0D01*
G01*
X16671000Y-12439000D02*
G75*
G03*
X16671000Y-12439000I-40000J0D01*
G01*
X16921000Y-12439000D02*
G75*
G03*
X16921000Y-12439000I-40000J0D01*
G01*
X17090000Y-12820000D02*
G75*
G03*
X17090000Y-12820000I-40000J0D01*
G01*
X17090000Y-13074000D02*
G75*
G03*
X17090000Y-13074000I-40000J0D01*
G01*
X17433000Y-10534000D02*
G75*
G03*
X17433000Y-10534000I-40000J0D01*
G01*
X17433000Y-10788000D02*
G75*
G03*
X17433000Y-10788000I-40000J0D01*
G01*
X17433000Y-11042000D02*
G75*
G03*
X17433000Y-11042000I-40000J0D01*
G01*
X17433000Y-11296000D02*
G75*
G03*
X17433000Y-11296000I-40000J0D01*
G01*
X17433000Y-11550000D02*
G75*
G03*
X17433000Y-11550000I-40000J0D01*
G01*
X17433000Y-11804000D02*
G75*
G03*
X17433000Y-11804000I-40000J0D01*
G01*
X17433000Y-12058000D02*
G75*
G03*
X17433000Y-12058000I-40000J0D01*
G01*
D14*
X16380000Y-13427500D02*
X16380000Y-13517500D01*
X16335000Y-13472500D02*
X16425000Y-13472500D01*
X16380000Y-13681500D02*
X16380000Y-13771500D01*
X16335000Y-13726500D02*
X16425000Y-13726500D01*
X17050000Y-13427500D02*
X17050000Y-13517500D01*
X17005000Y-13472500D02*
X17095000Y-13472500D01*
X17050000Y-13681500D02*
X17050000Y-13771500D01*
X17005000Y-13726500D02*
X17095000Y-13726500D01*
D15*
X13187022Y-9188856D02*
X13187022Y-9118144D01*
X13116311Y-9118144D01*
X13116311Y-9188856D01*
X13187022Y-9188856D01*
X13187022Y-9442856D02*
X13187022Y-9372144D01*
X13116311Y-9372144D01*
X13116311Y-9442856D01*
X13187022Y-9442856D01*
X13441022Y-9188856D02*
X13441022Y-9118144D01*
X13370311Y-9118144D01*
X13370311Y-9188856D01*
X13441022Y-9188856D01*
X13441022Y-9442856D02*
X13441022Y-9372144D01*
X13370311Y-9372144D01*
X13370311Y-9442856D01*
X13441022Y-9442856D01*
X13695022Y-9188856D02*
X13695022Y-9118144D01*
X13624311Y-9118144D01*
X13624311Y-9188856D01*
X13695022Y-9188856D01*
X13695022Y-9442856D02*
X13695022Y-9372144D01*
X13624311Y-9372144D01*
X13624311Y-9442856D01*
X13695022Y-9442856D01*
X13949022Y-9188856D02*
X13949022Y-9118144D01*
X13878311Y-9118144D01*
X13878311Y-9188856D01*
X13949022Y-9188856D01*
X13949022Y-9442856D02*
X13949022Y-9372144D01*
X13878311Y-9372144D01*
X13878311Y-9442856D01*
X13949022Y-9442856D01*
X14203022Y-9188856D02*
X14203022Y-9118144D01*
X14132311Y-9118144D01*
X14132311Y-9188856D01*
X14203022Y-9188856D01*
X14203022Y-9442856D02*
X14203022Y-9372144D01*
X14132311Y-9372144D01*
X14132311Y-9442856D01*
X14203022Y-9442856D01*
X14457022Y-9188856D02*
X14457022Y-9118144D01*
X14386311Y-9118144D01*
X14386311Y-9188856D01*
X14457022Y-9188856D01*
X14457022Y-9442856D02*
X14457022Y-9372144D01*
X14386311Y-9372144D01*
X14386311Y-9442856D01*
X14457022Y-9442856D01*
D16*
X12875000Y-13430000D02*
X12930000Y-13375000D01*
X12875000Y-13320000D01*
X12820000Y-13375000D01*
X12875000Y-13430000D01*
X12875000Y-13880000D02*
X12930000Y-13825000D01*
X12875000Y-13770000D01*
X12820000Y-13825000D01*
X12875000Y-13880000D01*
X13525000Y-13430000D02*
X13580000Y-13375000D01*
X13525000Y-13320000D01*
X13470000Y-13375000D01*
X13525000Y-13430000D01*
X13525000Y-13880000D02*
X13580000Y-13825000D01*
X13525000Y-13770000D01*
X13470000Y-13825000D01*
X13525000Y-13880000D01*
D17*
X15382500Y-9305000D02*
X15517500Y-9440000D01*
X15517500Y-9305000D02*
X15382500Y-9440000D01*
X15517500Y-9372500D02*
G75*
G03*
X15517500Y-9372500I-67500J0D01*
G01*
X15632500Y-8305000D02*
X15767500Y-8440000D01*
X15767500Y-8305000D02*
X15632500Y-8440000D01*
X15767500Y-8372500D02*
G75*
G03*
X15767500Y-8372500I-67500J0D01*
G01*
X15632500Y-9555000D02*
X15767500Y-9690000D01*
X15767500Y-9555000D02*
X15632500Y-9690000D01*
X15767500Y-9622500D02*
G75*
G03*
X15767500Y-9622500I-67500J0D01*
G01*
X15882500Y-8585000D02*
X16017500Y-8720000D01*
X16017500Y-8585000D02*
X15882500Y-8720000D01*
X16017500Y-8652500D02*
G75*
G03*
X16017500Y-8652500I-67500J0D01*
G01*
X16132500Y-9305000D02*
X16267500Y-9440000D01*
X16267500Y-9305000D02*
X16132500Y-9440000D01*
X16267500Y-9372500D02*
G75*
G03*
X16267500Y-9372500I-67500J0D01*
G01*
X16132500Y-9805000D02*
X16267500Y-9940000D01*
X16267500Y-9805000D02*
X16132500Y-9940000D01*
X16267500Y-9872500D02*
G75*
G03*
X16267500Y-9872500I-67500J0D01*
G01*
X16382500Y-8585000D02*
X16517500Y-8720000D01*
X16517500Y-8585000D02*
X16382500Y-8720000D01*
X16517500Y-8652500D02*
G75*
G03*
X16517500Y-8652500I-67500J0D01*
G01*
X16632500Y-8305000D02*
X16767500Y-8440000D01*
X16767500Y-8305000D02*
X16632500Y-8440000D01*
X16767500Y-8372500D02*
G75*
G03*
X16767500Y-8372500I-67500J0D01*
G01*
X16632500Y-9555000D02*
X16767500Y-9690000D01*
X16767500Y-9555000D02*
X16632500Y-9690000D01*
X16767500Y-9622500D02*
G75*
G03*
X16767500Y-9622500I-67500J0D01*
G01*
X16882500Y-9305000D02*
X17017500Y-9440000D01*
X17017500Y-9305000D02*
X16882500Y-9440000D01*
X17017500Y-9372500D02*
G75*
G03*
X17017500Y-9372500I-67500J0D01*
G01*
D18*
X12165000Y-8265000D02*
X12435000Y-8535000D01*
X12435000Y-8265000D02*
X12165000Y-8535000D01*
X12300000Y-8265000D02*
X12300000Y-8535000D01*
X12165000Y-8400000D02*
X12435000Y-8400000D01*
X12165000Y-13665000D02*
X12435000Y-13935000D01*
X12435000Y-13665000D02*
X12165000Y-13935000D01*
X12300000Y-13665000D02*
X12300000Y-13935000D01*
X12165000Y-13800000D02*
X12435000Y-13800000D01*
X17565000Y-8265000D02*
X17835000Y-8535000D01*
X17835000Y-8265000D02*
X17565000Y-8535000D01*
X17700000Y-8265000D02*
X17700000Y-8535000D01*
X17565000Y-8400000D02*
X17835000Y-8400000D01*
X17565000Y-13665000D02*
X17835000Y-13935000D01*
X17835000Y-13665000D02*
X17565000Y-13935000D01*
X17700000Y-13665000D02*
X17700000Y-13935000D01*
X17565000Y-13800000D02*
X17835000Y-13800000D01*
D11*
X12252619Y-14415476D02*
X12252619Y-14215476D01*
X12300238Y-14215476D01*
X12328809Y-14225000D01*
X12347857Y-14244048D01*
X12357381Y-14263095D01*
X12366905Y-14301190D01*
X12366905Y-14329762D01*
X12357381Y-14367857D01*
X12347857Y-14386905D01*
X12328809Y-14405952D01*
X12300238Y-14415476D01*
X12252619Y-14415476D01*
X12452619Y-14415476D02*
X12452619Y-14282143D01*
X12452619Y-14320238D02*
X12462143Y-14301190D01*
X12471667Y-14291667D01*
X12490714Y-14282143D01*
X12509762Y-14282143D01*
X12576428Y-14415476D02*
X12576428Y-14282143D01*
X12576428Y-14215476D02*
X12566905Y-14225000D01*
X12576428Y-14234524D01*
X12585952Y-14225000D01*
X12576428Y-14215476D01*
X12576428Y-14234524D01*
X12700238Y-14415476D02*
X12681190Y-14405952D01*
X12671667Y-14386905D01*
X12671667Y-14215476D01*
X12805000Y-14415476D02*
X12785952Y-14405952D01*
X12776428Y-14386905D01*
X12776428Y-14215476D01*
X13033571Y-14415476D02*
X13033571Y-14215476D01*
X13100238Y-14358333D01*
X13166905Y-14215476D01*
X13166905Y-14415476D01*
X13347857Y-14415476D02*
X13347857Y-14310714D01*
X13338333Y-14291667D01*
X13319286Y-14282143D01*
X13281190Y-14282143D01*
X13262143Y-14291667D01*
X13347857Y-14405952D02*
X13328809Y-14415476D01*
X13281190Y-14415476D01*
X13262143Y-14405952D01*
X13252619Y-14386905D01*
X13252619Y-14367857D01*
X13262143Y-14348809D01*
X13281190Y-14339286D01*
X13328809Y-14339286D01*
X13347857Y-14329762D01*
X13443095Y-14282143D02*
X13443095Y-14482143D01*
X13443095Y-14291667D02*
X13462143Y-14282143D01*
X13500238Y-14282143D01*
X13519286Y-14291667D01*
X13528809Y-14301190D01*
X13538333Y-14320238D01*
X13538333Y-14377381D01*
X13528809Y-14396428D01*
X13519286Y-14405952D01*
X13500238Y-14415476D01*
X13462143Y-14415476D01*
X13443095Y-14405952D01*
X13624048Y-14396428D02*
X13633571Y-14405952D01*
X13624048Y-14415476D01*
X13614524Y-14405952D01*
X13624048Y-14396428D01*
X13624048Y-14415476D01*
X13624048Y-14291667D02*
X13633571Y-14301190D01*
X13624048Y-14310714D01*
X13614524Y-14301190D01*
X13624048Y-14291667D01*
X13624048Y-14310714D01*
D12*
X11918800Y-14706900D02*
X11995000Y-14783100D01*
X11995000Y-14706900D02*
X11918800Y-14783100D01*
D11*
X12290714Y-14635476D02*
X12309762Y-14635476D01*
X12328809Y-14645000D01*
X12338333Y-14654524D01*
X12347857Y-14673571D01*
X12357381Y-14711667D01*
X12357381Y-14759286D01*
X12347857Y-14797381D01*
X12338333Y-14816428D01*
X12328809Y-14825952D01*
X12309762Y-14835476D01*
X12290714Y-14835476D01*
X12271667Y-14825952D01*
X12262143Y-14816428D01*
X12252619Y-14797381D01*
X12243095Y-14759286D01*
X12243095Y-14711667D01*
X12252619Y-14673571D01*
X12262143Y-14654524D01*
X12271667Y-14645000D01*
X12290714Y-14635476D01*
X12443095Y-14816428D02*
X12452619Y-14825952D01*
X12443095Y-14835476D01*
X12433571Y-14825952D01*
X12443095Y-14816428D01*
X12443095Y-14835476D01*
X12519286Y-14635476D02*
X12652619Y-14635476D01*
X12566905Y-14835476D01*
X12814524Y-14635476D02*
X12776428Y-14635476D01*
X12757381Y-14645000D01*
X12747857Y-14654524D01*
X12728809Y-14683095D01*
X12719286Y-14721190D01*
X12719286Y-14797381D01*
X12728809Y-14816428D01*
X12738333Y-14825952D01*
X12757381Y-14835476D01*
X12795476Y-14835476D01*
X12814524Y-14825952D01*
X12824048Y-14816428D01*
X12833571Y-14797381D01*
X12833571Y-14749762D01*
X12824048Y-14730714D01*
X12814524Y-14721190D01*
X12795476Y-14711667D01*
X12757381Y-14711667D01*
X12738333Y-14721190D01*
X12728809Y-14730714D01*
X12719286Y-14749762D01*
X12909762Y-14654524D02*
X12919286Y-14645000D01*
X12938333Y-14635476D01*
X12985952Y-14635476D01*
X13005000Y-14645000D01*
X13014524Y-14654524D01*
X13024048Y-14673571D01*
X13024048Y-14692619D01*
X13014524Y-14721190D01*
X12900238Y-14835476D01*
X13024048Y-14835476D01*
X13109762Y-14835476D02*
X13109762Y-14702143D01*
X13109762Y-14721190D02*
X13119286Y-14711667D01*
X13138333Y-14702143D01*
X13166905Y-14702143D01*
X13185952Y-14711667D01*
X13195476Y-14730714D01*
X13195476Y-14835476D01*
X13195476Y-14730714D02*
X13205000Y-14711667D01*
X13224048Y-14702143D01*
X13252619Y-14702143D01*
X13271667Y-14711667D01*
X13281190Y-14730714D01*
X13281190Y-14835476D01*
X13376428Y-14835476D02*
X13376428Y-14702143D01*
X13376428Y-14721190D02*
X13385952Y-14711667D01*
X13405000Y-14702143D01*
X13433571Y-14702143D01*
X13452619Y-14711667D01*
X13462143Y-14730714D01*
X13462143Y-14835476D01*
X13462143Y-14730714D02*
X13471667Y-14711667D01*
X13490714Y-14702143D01*
X13519286Y-14702143D01*
X13538333Y-14711667D01*
X13547857Y-14730714D01*
X13547857Y-14835476D01*
X13938333Y-14625952D02*
X13766905Y-14883095D01*
X14195476Y-14635476D02*
X14214524Y-14635476D01*
X14233571Y-14645000D01*
X14243095Y-14654524D01*
X14252619Y-14673571D01*
X14262143Y-14711667D01*
X14262143Y-14759286D01*
X14252619Y-14797381D01*
X14243095Y-14816428D01*
X14233571Y-14825952D01*
X14214524Y-14835476D01*
X14195476Y-14835476D01*
X14176428Y-14825952D01*
X14166905Y-14816428D01*
X14157381Y-14797381D01*
X14147857Y-14759286D01*
X14147857Y-14711667D01*
X14157381Y-14673571D01*
X14166905Y-14654524D01*
X14176428Y-14645000D01*
X14195476Y-14635476D01*
X14347857Y-14816428D02*
X14357381Y-14825952D01*
X14347857Y-14835476D01*
X14338333Y-14825952D01*
X14347857Y-14816428D01*
X14347857Y-14835476D01*
X14481190Y-14635476D02*
X14500238Y-14635476D01*
X14519286Y-14645000D01*
X14528809Y-14654524D01*
X14538333Y-14673571D01*
X14547857Y-14711667D01*
X14547857Y-14759286D01*
X14538333Y-14797381D01*
X14528809Y-14816428D01*
X14519286Y-14825952D01*
X14500238Y-14835476D01*
X14481190Y-14835476D01*
X14462143Y-14825952D01*
X14452619Y-14816428D01*
X14443095Y-14797381D01*
X14433571Y-14759286D01*
X14433571Y-14711667D01*
X14443095Y-14673571D01*
X14452619Y-14654524D01*
X14462143Y-14645000D01*
X14481190Y-14635476D01*
X14614524Y-14635476D02*
X14738333Y-14635476D01*
X14671667Y-14711667D01*
X14700238Y-14711667D01*
X14719286Y-14721190D01*
X14728809Y-14730714D01*
X14738333Y-14749762D01*
X14738333Y-14797381D01*
X14728809Y-14816428D01*
X14719286Y-14825952D01*
X14700238Y-14835476D01*
X14643095Y-14835476D01*
X14624048Y-14825952D01*
X14614524Y-14816428D01*
X14862143Y-14635476D02*
X14881190Y-14635476D01*
X14900238Y-14645000D01*
X14909762Y-14654524D01*
X14919286Y-14673571D01*
X14928809Y-14711667D01*
X14928809Y-14759286D01*
X14919286Y-14797381D01*
X14909762Y-14816428D01*
X14900238Y-14825952D01*
X14881190Y-14835476D01*
X14862143Y-14835476D01*
X14843095Y-14825952D01*
X14833571Y-14816428D01*
X14824048Y-14797381D01*
X14814524Y-14759286D01*
X14814524Y-14711667D01*
X14824048Y-14673571D01*
X14833571Y-14654524D01*
X14843095Y-14645000D01*
X14862143Y-14635476D01*
X15052619Y-14635476D02*
X15071667Y-14635476D01*
X15090714Y-14645000D01*
X15100238Y-14654524D01*
X15109762Y-14673571D01*
X15119286Y-14711667D01*
X15119286Y-14759286D01*
X15109762Y-14797381D01*
X15100238Y-14816428D01*
X15090714Y-14825952D01*
X15071667Y-14835476D01*
X15052619Y-14835476D01*
X15033571Y-14825952D01*
X15024048Y-14816428D01*
X15014524Y-14797381D01*
X15005000Y-14759286D01*
X15005000Y-14711667D01*
X15014524Y-14673571D01*
X15024048Y-14654524D01*
X15033571Y-14645000D01*
X15052619Y-14635476D01*
X15195476Y-14635476D02*
X15195476Y-14673571D01*
X15271667Y-14635476D02*
X15271667Y-14673571D01*
X15566905Y-14911667D02*
X15557381Y-14902143D01*
X15538333Y-14873571D01*
X15528809Y-14854524D01*
X15519286Y-14825952D01*
X15509762Y-14778333D01*
X15509762Y-14740238D01*
X15519286Y-14692619D01*
X15528809Y-14664048D01*
X15538333Y-14645000D01*
X15557381Y-14616428D01*
X15566905Y-14606905D01*
X15681190Y-14635476D02*
X15700238Y-14635476D01*
X15719286Y-14645000D01*
X15728809Y-14654524D01*
X15738333Y-14673571D01*
X15747857Y-14711667D01*
X15747857Y-14759286D01*
X15738333Y-14797381D01*
X15728809Y-14816428D01*
X15719286Y-14825952D01*
X15700238Y-14835476D01*
X15681190Y-14835476D01*
X15662143Y-14825952D01*
X15652619Y-14816428D01*
X15643095Y-14797381D01*
X15633571Y-14759286D01*
X15633571Y-14711667D01*
X15643095Y-14673571D01*
X15652619Y-14654524D01*
X15662143Y-14645000D01*
X15681190Y-14635476D01*
X15985952Y-14835476D02*
X15985952Y-14635476D01*
X16071667Y-14835476D02*
X16071667Y-14730714D01*
X16062143Y-14711667D01*
X16043095Y-14702143D01*
X16014524Y-14702143D01*
X15995476Y-14711667D01*
X15985952Y-14721190D01*
X16195476Y-14835476D02*
X16176428Y-14825952D01*
X16166905Y-14816428D01*
X16157381Y-14797381D01*
X16157381Y-14740238D01*
X16166905Y-14721190D01*
X16176428Y-14711667D01*
X16195476Y-14702143D01*
X16224048Y-14702143D01*
X16243095Y-14711667D01*
X16252619Y-14721190D01*
X16262143Y-14740238D01*
X16262143Y-14797381D01*
X16252619Y-14816428D01*
X16243095Y-14825952D01*
X16224048Y-14835476D01*
X16195476Y-14835476D01*
X16376428Y-14835476D02*
X16357381Y-14825952D01*
X16347857Y-14806905D01*
X16347857Y-14635476D01*
X16528809Y-14825952D02*
X16509762Y-14835476D01*
X16471667Y-14835476D01*
X16452619Y-14825952D01*
X16443095Y-14806905D01*
X16443095Y-14730714D01*
X16452619Y-14711667D01*
X16471667Y-14702143D01*
X16509762Y-14702143D01*
X16528809Y-14711667D01*
X16538333Y-14730714D01*
X16538333Y-14749762D01*
X16443095Y-14768809D01*
X16614524Y-14825952D02*
X16633571Y-14835476D01*
X16671667Y-14835476D01*
X16690714Y-14825952D01*
X16700238Y-14806905D01*
X16700238Y-14797381D01*
X16690714Y-14778333D01*
X16671667Y-14768809D01*
X16643095Y-14768809D01*
X16624048Y-14759286D01*
X16614524Y-14740238D01*
X16614524Y-14730714D01*
X16624048Y-14711667D01*
X16643095Y-14702143D01*
X16671667Y-14702143D01*
X16690714Y-14711667D01*
X16938333Y-14759286D02*
X17090714Y-14759286D01*
X17014524Y-14835476D02*
X17014524Y-14683095D01*
X17328810Y-14654524D02*
X17338333Y-14645000D01*
X17357381Y-14635476D01*
X17405000Y-14635476D01*
X17424048Y-14645000D01*
X17433571Y-14654524D01*
X17443095Y-14673571D01*
X17443095Y-14692619D01*
X17433571Y-14721190D01*
X17319286Y-14835476D01*
X17443095Y-14835476D01*
X17614524Y-14702143D02*
X17614524Y-14835476D01*
X17566905Y-14625952D02*
X17519286Y-14768809D01*
X17643095Y-14768809D01*
X17862143Y-14825952D02*
X17881190Y-14835476D01*
X17919286Y-14835476D01*
X17938333Y-14825952D01*
X17947857Y-14806905D01*
X17947857Y-14797381D01*
X17938333Y-14778333D01*
X17919286Y-14768809D01*
X17890714Y-14768809D01*
X17871667Y-14759286D01*
X17862143Y-14740238D01*
X17862143Y-14730714D01*
X17871667Y-14711667D01*
X17890714Y-14702143D01*
X17919286Y-14702143D01*
X17938333Y-14711667D01*
X18062143Y-14835476D02*
X18043095Y-14825952D01*
X18033571Y-14806905D01*
X18033571Y-14635476D01*
X18166905Y-14835476D02*
X18147857Y-14825952D01*
X18138333Y-14816428D01*
X18128810Y-14797381D01*
X18128810Y-14740238D01*
X18138333Y-14721190D01*
X18147857Y-14711667D01*
X18166905Y-14702143D01*
X18195476Y-14702143D01*
X18214524Y-14711667D01*
X18224048Y-14721190D01*
X18233571Y-14740238D01*
X18233571Y-14797381D01*
X18224048Y-14816428D01*
X18214524Y-14825952D01*
X18195476Y-14835476D01*
X18166905Y-14835476D01*
X18290714Y-14702143D02*
X18366905Y-14702143D01*
X18319286Y-14635476D02*
X18319286Y-14806905D01*
X18328810Y-14825952D01*
X18347857Y-14835476D01*
X18366905Y-14835476D01*
X18424048Y-14825952D02*
X18443095Y-14835476D01*
X18481190Y-14835476D01*
X18500238Y-14825952D01*
X18509762Y-14806905D01*
X18509762Y-14797381D01*
X18500238Y-14778333D01*
X18481190Y-14768809D01*
X18452619Y-14768809D01*
X18433571Y-14759286D01*
X18424048Y-14740238D01*
X18424048Y-14730714D01*
X18433571Y-14711667D01*
X18452619Y-14702143D01*
X18481190Y-14702143D01*
X18500238Y-14711667D01*
X18576429Y-14911667D02*
X18585952Y-14902143D01*
X18605000Y-14873571D01*
X18614524Y-14854524D01*
X18624048Y-14825952D01*
X18633571Y-14778333D01*
X18633571Y-14740238D01*
X18624048Y-14692619D01*
X18614524Y-14664048D01*
X18605000Y-14645000D01*
X18585952Y-14616428D01*
X18576429Y-14606905D01*
D13*
X11995000Y-15009000D02*
G75*
G03*
X11995000Y-15009000I-40000J0D01*
G01*
D11*
X12290714Y-14899476D02*
X12309762Y-14899476D01*
X12328809Y-14909000D01*
X12338333Y-14918524D01*
X12347857Y-14937571D01*
X12357381Y-14975667D01*
X12357381Y-15023286D01*
X12347857Y-15061381D01*
X12338333Y-15080428D01*
X12328809Y-15089952D01*
X12309762Y-15099476D01*
X12290714Y-15099476D01*
X12271667Y-15089952D01*
X12262143Y-15080428D01*
X12252619Y-15061381D01*
X12243095Y-15023286D01*
X12243095Y-14975667D01*
X12252619Y-14937571D01*
X12262143Y-14918524D01*
X12271667Y-14909000D01*
X12290714Y-14899476D01*
X12443095Y-15080428D02*
X12452619Y-15089952D01*
X12443095Y-15099476D01*
X12433571Y-15089952D01*
X12443095Y-15080428D01*
X12443095Y-15099476D01*
X12566905Y-14985190D02*
X12547857Y-14975667D01*
X12538333Y-14966143D01*
X12528809Y-14947095D01*
X12528809Y-14937571D01*
X12538333Y-14918524D01*
X12547857Y-14909000D01*
X12566905Y-14899476D01*
X12605000Y-14899476D01*
X12624048Y-14909000D01*
X12633571Y-14918524D01*
X12643095Y-14937571D01*
X12643095Y-14947095D01*
X12633571Y-14966143D01*
X12624048Y-14975667D01*
X12605000Y-14985190D01*
X12566905Y-14985190D01*
X12547857Y-14994714D01*
X12538333Y-15004238D01*
X12528809Y-15023286D01*
X12528809Y-15061381D01*
X12538333Y-15080428D01*
X12547857Y-15089952D01*
X12566905Y-15099476D01*
X12605000Y-15099476D01*
X12624048Y-15089952D01*
X12633571Y-15080428D01*
X12643095Y-15061381D01*
X12643095Y-15023286D01*
X12633571Y-15004238D01*
X12624048Y-14994714D01*
X12605000Y-14985190D01*
X12766905Y-14899476D02*
X12785952Y-14899476D01*
X12805000Y-14909000D01*
X12814524Y-14918524D01*
X12824048Y-14937571D01*
X12833571Y-14975667D01*
X12833571Y-15023286D01*
X12824048Y-15061381D01*
X12814524Y-15080428D01*
X12805000Y-15089952D01*
X12785952Y-15099476D01*
X12766905Y-15099476D01*
X12747857Y-15089952D01*
X12738333Y-15080428D01*
X12728809Y-15061381D01*
X12719286Y-15023286D01*
X12719286Y-14975667D01*
X12728809Y-14937571D01*
X12738333Y-14918524D01*
X12747857Y-14909000D01*
X12766905Y-14899476D01*
X12957381Y-14899476D02*
X12976428Y-14899476D01*
X12995476Y-14909000D01*
X13005000Y-14918524D01*
X13014524Y-14937571D01*
X13024048Y-14975667D01*
X13024048Y-15023286D01*
X13014524Y-15061381D01*
X13005000Y-15080428D01*
X12995476Y-15089952D01*
X12976428Y-15099476D01*
X12957381Y-15099476D01*
X12938333Y-15089952D01*
X12928809Y-15080428D01*
X12919286Y-15061381D01*
X12909762Y-15023286D01*
X12909762Y-14975667D01*
X12919286Y-14937571D01*
X12928809Y-14918524D01*
X12938333Y-14909000D01*
X12957381Y-14899476D01*
X13109762Y-15099476D02*
X13109762Y-14966143D01*
X13109762Y-14985190D02*
X13119286Y-14975667D01*
X13138333Y-14966143D01*
X13166905Y-14966143D01*
X13185952Y-14975667D01*
X13195476Y-14994714D01*
X13195476Y-15099476D01*
X13195476Y-14994714D02*
X13205000Y-14975667D01*
X13224048Y-14966143D01*
X13252619Y-14966143D01*
X13271667Y-14975667D01*
X13281190Y-14994714D01*
X13281190Y-15099476D01*
X13376428Y-15099476D02*
X13376428Y-14966143D01*
X13376428Y-14985190D02*
X13385952Y-14975667D01*
X13405000Y-14966143D01*
X13433571Y-14966143D01*
X13452619Y-14975667D01*
X13462143Y-14994714D01*
X13462143Y-15099476D01*
X13462143Y-14994714D02*
X13471667Y-14975667D01*
X13490714Y-14966143D01*
X13519286Y-14966143D01*
X13538333Y-14975667D01*
X13547857Y-14994714D01*
X13547857Y-15099476D01*
X13938333Y-14889952D02*
X13766905Y-15147095D01*
X14195476Y-14899476D02*
X14214524Y-14899476D01*
X14233571Y-14909000D01*
X14243095Y-14918524D01*
X14252619Y-14937571D01*
X14262143Y-14975667D01*
X14262143Y-15023286D01*
X14252619Y-15061381D01*
X14243095Y-15080428D01*
X14233571Y-15089952D01*
X14214524Y-15099476D01*
X14195476Y-15099476D01*
X14176428Y-15089952D01*
X14166905Y-15080428D01*
X14157381Y-15061381D01*
X14147857Y-15023286D01*
X14147857Y-14975667D01*
X14157381Y-14937571D01*
X14166905Y-14918524D01*
X14176428Y-14909000D01*
X14195476Y-14899476D01*
X14347857Y-15080428D02*
X14357381Y-15089952D01*
X14347857Y-15099476D01*
X14338333Y-15089952D01*
X14347857Y-15080428D01*
X14347857Y-15099476D01*
X14481190Y-14899476D02*
X14500238Y-14899476D01*
X14519286Y-14909000D01*
X14528809Y-14918524D01*
X14538333Y-14937571D01*
X14547857Y-14975667D01*
X14547857Y-15023286D01*
X14538333Y-15061381D01*
X14528809Y-15080428D01*
X14519286Y-15089952D01*
X14500238Y-15099476D01*
X14481190Y-15099476D01*
X14462143Y-15089952D01*
X14452619Y-15080428D01*
X14443095Y-15061381D01*
X14433571Y-15023286D01*
X14433571Y-14975667D01*
X14443095Y-14937571D01*
X14452619Y-14918524D01*
X14462143Y-14909000D01*
X14481190Y-14899476D01*
X14614524Y-14899476D02*
X14738333Y-14899476D01*
X14671667Y-14975667D01*
X14700238Y-14975667D01*
X14719286Y-14985190D01*
X14728809Y-14994714D01*
X14738333Y-15013762D01*
X14738333Y-15061381D01*
X14728809Y-15080428D01*
X14719286Y-15089952D01*
X14700238Y-15099476D01*
X14643095Y-15099476D01*
X14624048Y-15089952D01*
X14614524Y-15080428D01*
X14928809Y-15099476D02*
X14814524Y-15099476D01*
X14871667Y-15099476D02*
X14871667Y-14899476D01*
X14852619Y-14928048D01*
X14833571Y-14947095D01*
X14814524Y-14956619D01*
X15109762Y-14899476D02*
X15014524Y-14899476D01*
X15005000Y-14994714D01*
X15014524Y-14985190D01*
X15033571Y-14975667D01*
X15081190Y-14975667D01*
X15100238Y-14985190D01*
X15109762Y-14994714D01*
X15119286Y-15013762D01*
X15119286Y-15061381D01*
X15109762Y-15080428D01*
X15100238Y-15089952D01*
X15081190Y-15099476D01*
X15033571Y-15099476D01*
X15014524Y-15089952D01*
X15005000Y-15080428D01*
X15195476Y-14899476D02*
X15195476Y-14937571D01*
X15271667Y-14899476D02*
X15271667Y-14937571D01*
X15566905Y-15175667D02*
X15557381Y-15166143D01*
X15538333Y-15137571D01*
X15528809Y-15118524D01*
X15519286Y-15089952D01*
X15509762Y-15042333D01*
X15509762Y-15004238D01*
X15519286Y-14956619D01*
X15528809Y-14928048D01*
X15538333Y-14909000D01*
X15557381Y-14880428D01*
X15566905Y-14870905D01*
X15624048Y-14899476D02*
X15747857Y-14899476D01*
X15681190Y-14975667D01*
X15709762Y-14975667D01*
X15728809Y-14985190D01*
X15738333Y-14994714D01*
X15747857Y-15013762D01*
X15747857Y-15061381D01*
X15738333Y-15080428D01*
X15728809Y-15089952D01*
X15709762Y-15099476D01*
X15652619Y-15099476D01*
X15633571Y-15089952D01*
X15624048Y-15080428D01*
X15871667Y-14899476D02*
X15890714Y-14899476D01*
X15909762Y-14909000D01*
X15919286Y-14918524D01*
X15928809Y-14937571D01*
X15938333Y-14975667D01*
X15938333Y-15023286D01*
X15928809Y-15061381D01*
X15919286Y-15080428D01*
X15909762Y-15089952D01*
X15890714Y-15099476D01*
X15871667Y-15099476D01*
X15852619Y-15089952D01*
X15843095Y-15080428D01*
X15833571Y-15061381D01*
X15824048Y-15023286D01*
X15824048Y-14975667D01*
X15833571Y-14937571D01*
X15843095Y-14918524D01*
X15852619Y-14909000D01*
X15871667Y-14899476D01*
X16176428Y-15099476D02*
X16176428Y-14899476D01*
X16262143Y-15099476D02*
X16262143Y-14994714D01*
X16252619Y-14975667D01*
X16233571Y-14966143D01*
X16205000Y-14966143D01*
X16185952Y-14975667D01*
X16176428Y-14985190D01*
X16385952Y-15099476D02*
X16366905Y-15089952D01*
X16357381Y-15080428D01*
X16347857Y-15061381D01*
X16347857Y-15004238D01*
X16357381Y-14985190D01*
X16366905Y-14975667D01*
X16385952Y-14966143D01*
X16414524Y-14966143D01*
X16433571Y-14975667D01*
X16443095Y-14985190D01*
X16452619Y-15004238D01*
X16452619Y-15061381D01*
X16443095Y-15080428D01*
X16433571Y-15089952D01*
X16414524Y-15099476D01*
X16385952Y-15099476D01*
X16566905Y-15099476D02*
X16547857Y-15089952D01*
X16538333Y-15070905D01*
X16538333Y-14899476D01*
X16719286Y-15089952D02*
X16700238Y-15099476D01*
X16662143Y-15099476D01*
X16643095Y-15089952D01*
X16633571Y-15070905D01*
X16633571Y-14994714D01*
X16643095Y-14975667D01*
X16662143Y-14966143D01*
X16700238Y-14966143D01*
X16719286Y-14975667D01*
X16728809Y-14994714D01*
X16728809Y-15013762D01*
X16633571Y-15032809D01*
X16805000Y-15089952D02*
X16824048Y-15099476D01*
X16862143Y-15099476D01*
X16881190Y-15089952D01*
X16890714Y-15070905D01*
X16890714Y-15061381D01*
X16881190Y-15042333D01*
X16862143Y-15032809D01*
X16833571Y-15032809D01*
X16814524Y-15023286D01*
X16805000Y-15004238D01*
X16805000Y-14994714D01*
X16814524Y-14975667D01*
X16833571Y-14966143D01*
X16862143Y-14966143D01*
X16881190Y-14975667D01*
X16957381Y-15175667D02*
X16966905Y-15166143D01*
X16985952Y-15137571D01*
X16995476Y-15118524D01*
X17005000Y-15089952D01*
X17014524Y-15042333D01*
X17014524Y-15004238D01*
X17005000Y-14956619D01*
X16995476Y-14928048D01*
X16985952Y-14909000D01*
X16966905Y-14880428D01*
X16957381Y-14870905D01*
D14*
X11950000Y-15228000D02*
X11950000Y-15318000D01*
X11905000Y-15273000D02*
X11995000Y-15273000D01*
D11*
X12290714Y-15163476D02*
X12309762Y-15163476D01*
X12328809Y-15173000D01*
X12338333Y-15182524D01*
X12347857Y-15201571D01*
X12357381Y-15239667D01*
X12357381Y-15287286D01*
X12347857Y-15325381D01*
X12338333Y-15344428D01*
X12328809Y-15353952D01*
X12309762Y-15363476D01*
X12290714Y-15363476D01*
X12271667Y-15353952D01*
X12262143Y-15344428D01*
X12252619Y-15325381D01*
X12243095Y-15287286D01*
X12243095Y-15239667D01*
X12252619Y-15201571D01*
X12262143Y-15182524D01*
X12271667Y-15173000D01*
X12290714Y-15163476D01*
X12443095Y-15344428D02*
X12452619Y-15353952D01*
X12443095Y-15363476D01*
X12433571Y-15353952D01*
X12443095Y-15344428D01*
X12443095Y-15363476D01*
X12547857Y-15363476D02*
X12585952Y-15363476D01*
X12605000Y-15353952D01*
X12614524Y-15344428D01*
X12633571Y-15315857D01*
X12643095Y-15277762D01*
X12643095Y-15201571D01*
X12633571Y-15182524D01*
X12624048Y-15173000D01*
X12605000Y-15163476D01*
X12566905Y-15163476D01*
X12547857Y-15173000D01*
X12538333Y-15182524D01*
X12528809Y-15201571D01*
X12528809Y-15249190D01*
X12538333Y-15268238D01*
X12547857Y-15277762D01*
X12566905Y-15287286D01*
X12605000Y-15287286D01*
X12624048Y-15277762D01*
X12633571Y-15268238D01*
X12643095Y-15249190D01*
X12766905Y-15163476D02*
X12785952Y-15163476D01*
X12805000Y-15173000D01*
X12814524Y-15182524D01*
X12824048Y-15201571D01*
X12833571Y-15239667D01*
X12833571Y-15287286D01*
X12824048Y-15325381D01*
X12814524Y-15344428D01*
X12805000Y-15353952D01*
X12785952Y-15363476D01*
X12766905Y-15363476D01*
X12747857Y-15353952D01*
X12738333Y-15344428D01*
X12728809Y-15325381D01*
X12719286Y-15287286D01*
X12719286Y-15239667D01*
X12728809Y-15201571D01*
X12738333Y-15182524D01*
X12747857Y-15173000D01*
X12766905Y-15163476D01*
X12957381Y-15163476D02*
X12976428Y-15163476D01*
X12995476Y-15173000D01*
X13005000Y-15182524D01*
X13014524Y-15201571D01*
X13024048Y-15239667D01*
X13024048Y-15287286D01*
X13014524Y-15325381D01*
X13005000Y-15344428D01*
X12995476Y-15353952D01*
X12976428Y-15363476D01*
X12957381Y-15363476D01*
X12938333Y-15353952D01*
X12928809Y-15344428D01*
X12919286Y-15325381D01*
X12909762Y-15287286D01*
X12909762Y-15239667D01*
X12919286Y-15201571D01*
X12928809Y-15182524D01*
X12938333Y-15173000D01*
X12957381Y-15163476D01*
X13109762Y-15363476D02*
X13109762Y-15230143D01*
X13109762Y-15249190D02*
X13119286Y-15239667D01*
X13138333Y-15230143D01*
X13166905Y-15230143D01*
X13185952Y-15239667D01*
X13195476Y-15258714D01*
X13195476Y-15363476D01*
X13195476Y-15258714D02*
X13205000Y-15239667D01*
X13224048Y-15230143D01*
X13252619Y-15230143D01*
X13271667Y-15239667D01*
X13281190Y-15258714D01*
X13281190Y-15363476D01*
X13376428Y-15363476D02*
X13376428Y-15230143D01*
X13376428Y-15249190D02*
X13385952Y-15239667D01*
X13405000Y-15230143D01*
X13433571Y-15230143D01*
X13452619Y-15239667D01*
X13462143Y-15258714D01*
X13462143Y-15363476D01*
X13462143Y-15258714D02*
X13471667Y-15239667D01*
X13490714Y-15230143D01*
X13519286Y-15230143D01*
X13538333Y-15239667D01*
X13547857Y-15258714D01*
X13547857Y-15363476D01*
X13938333Y-15153952D02*
X13766905Y-15411095D01*
X14195476Y-15163476D02*
X14214524Y-15163476D01*
X14233571Y-15173000D01*
X14243095Y-15182524D01*
X14252619Y-15201571D01*
X14262143Y-15239667D01*
X14262143Y-15287286D01*
X14252619Y-15325381D01*
X14243095Y-15344428D01*
X14233571Y-15353952D01*
X14214524Y-15363476D01*
X14195476Y-15363476D01*
X14176428Y-15353952D01*
X14166905Y-15344428D01*
X14157381Y-15325381D01*
X14147857Y-15287286D01*
X14147857Y-15239667D01*
X14157381Y-15201571D01*
X14166905Y-15182524D01*
X14176428Y-15173000D01*
X14195476Y-15163476D01*
X14347857Y-15344428D02*
X14357381Y-15353952D01*
X14347857Y-15363476D01*
X14338333Y-15353952D01*
X14347857Y-15344428D01*
X14347857Y-15363476D01*
X14481190Y-15163476D02*
X14500238Y-15163476D01*
X14519286Y-15173000D01*
X14528809Y-15182524D01*
X14538333Y-15201571D01*
X14547857Y-15239667D01*
X14547857Y-15287286D01*
X14538333Y-15325381D01*
X14528809Y-15344428D01*
X14519286Y-15353952D01*
X14500238Y-15363476D01*
X14481190Y-15363476D01*
X14462143Y-15353952D01*
X14452619Y-15344428D01*
X14443095Y-15325381D01*
X14433571Y-15287286D01*
X14433571Y-15239667D01*
X14443095Y-15201571D01*
X14452619Y-15182524D01*
X14462143Y-15173000D01*
X14481190Y-15163476D01*
X14614524Y-15163476D02*
X14738333Y-15163476D01*
X14671667Y-15239667D01*
X14700238Y-15239667D01*
X14719286Y-15249190D01*
X14728809Y-15258714D01*
X14738333Y-15277762D01*
X14738333Y-15325381D01*
X14728809Y-15344428D01*
X14719286Y-15353952D01*
X14700238Y-15363476D01*
X14643095Y-15363476D01*
X14624048Y-15353952D01*
X14614524Y-15344428D01*
X14919286Y-15163476D02*
X14824048Y-15163476D01*
X14814524Y-15258714D01*
X14824048Y-15249190D01*
X14843095Y-15239667D01*
X14890714Y-15239667D01*
X14909762Y-15249190D01*
X14919286Y-15258714D01*
X14928809Y-15277762D01*
X14928809Y-15325381D01*
X14919286Y-15344428D01*
X14909762Y-15353952D01*
X14890714Y-15363476D01*
X14843095Y-15363476D01*
X14824048Y-15353952D01*
X14814524Y-15344428D01*
X15100238Y-15230143D02*
X15100238Y-15363476D01*
X15052619Y-15153952D02*
X15005000Y-15296809D01*
X15128809Y-15296809D01*
X15195476Y-15163476D02*
X15195476Y-15201571D01*
X15271667Y-15163476D02*
X15271667Y-15201571D01*
X15566905Y-15439667D02*
X15557381Y-15430143D01*
X15538333Y-15401571D01*
X15528809Y-15382524D01*
X15519286Y-15353952D01*
X15509762Y-15306333D01*
X15509762Y-15268238D01*
X15519286Y-15220619D01*
X15528809Y-15192048D01*
X15538333Y-15173000D01*
X15557381Y-15144428D01*
X15566905Y-15134905D01*
X15728809Y-15230143D02*
X15728809Y-15363476D01*
X15681190Y-15153952D02*
X15633571Y-15296809D01*
X15757381Y-15296809D01*
X15985952Y-15363476D02*
X15985952Y-15163476D01*
X16071667Y-15363476D02*
X16071667Y-15258714D01*
X16062143Y-15239667D01*
X16043095Y-15230143D01*
X16014524Y-15230143D01*
X15995476Y-15239667D01*
X15985952Y-15249190D01*
X16195476Y-15363476D02*
X16176428Y-15353952D01*
X16166905Y-15344428D01*
X16157381Y-15325381D01*
X16157381Y-15268238D01*
X16166905Y-15249190D01*
X16176428Y-15239667D01*
X16195476Y-15230143D01*
X16224048Y-15230143D01*
X16243095Y-15239667D01*
X16252619Y-15249190D01*
X16262143Y-15268238D01*
X16262143Y-15325381D01*
X16252619Y-15344428D01*
X16243095Y-15353952D01*
X16224048Y-15363476D01*
X16195476Y-15363476D01*
X16376428Y-15363476D02*
X16357381Y-15353952D01*
X16347857Y-15334905D01*
X16347857Y-15163476D01*
X16528809Y-15353952D02*
X16509762Y-15363476D01*
X16471667Y-15363476D01*
X16452619Y-15353952D01*
X16443095Y-15334905D01*
X16443095Y-15258714D01*
X16452619Y-15239667D01*
X16471667Y-15230143D01*
X16509762Y-15230143D01*
X16528809Y-15239667D01*
X16538333Y-15258714D01*
X16538333Y-15277762D01*
X16443095Y-15296809D01*
X16614524Y-15353952D02*
X16633571Y-15363476D01*
X16671667Y-15363476D01*
X16690714Y-15353952D01*
X16700238Y-15334905D01*
X16700238Y-15325381D01*
X16690714Y-15306333D01*
X16671667Y-15296809D01*
X16643095Y-15296809D01*
X16624048Y-15287286D01*
X16614524Y-15268238D01*
X16614524Y-15258714D01*
X16624048Y-15239667D01*
X16643095Y-15230143D01*
X16671667Y-15230143D01*
X16690714Y-15239667D01*
X16766905Y-15439667D02*
X16776428Y-15430143D01*
X16795476Y-15401571D01*
X16805000Y-15382524D01*
X16814524Y-15353952D01*
X16824048Y-15306333D01*
X16824048Y-15268238D01*
X16814524Y-15220619D01*
X16805000Y-15192048D01*
X16795476Y-15173000D01*
X16776428Y-15144428D01*
X16766905Y-15134905D01*
D15*
X11980356Y-15572356D02*
X11980356Y-15501644D01*
X11909644Y-15501644D01*
X11909644Y-15572356D01*
X11980356Y-15572356D01*
D11*
X12357381Y-15627476D02*
X12243095Y-15627476D01*
X12300238Y-15627476D02*
X12300238Y-15427476D01*
X12281190Y-15456048D01*
X12262143Y-15475095D01*
X12243095Y-15484619D01*
X12443095Y-15608428D02*
X12452619Y-15617952D01*
X12443095Y-15627476D01*
X12433571Y-15617952D01*
X12443095Y-15608428D01*
X12443095Y-15627476D01*
X12576428Y-15427476D02*
X12595476Y-15427476D01*
X12614524Y-15437000D01*
X12624048Y-15446524D01*
X12633571Y-15465571D01*
X12643095Y-15503667D01*
X12643095Y-15551286D01*
X12633571Y-15589381D01*
X12624048Y-15608428D01*
X12614524Y-15617952D01*
X12595476Y-15627476D01*
X12576428Y-15627476D01*
X12557381Y-15617952D01*
X12547857Y-15608428D01*
X12538333Y-15589381D01*
X12528809Y-15551286D01*
X12528809Y-15503667D01*
X12538333Y-15465571D01*
X12547857Y-15446524D01*
X12557381Y-15437000D01*
X12576428Y-15427476D01*
X12766905Y-15427476D02*
X12785952Y-15427476D01*
X12805000Y-15437000D01*
X12814524Y-15446524D01*
X12824048Y-15465571D01*
X12833571Y-15503667D01*
X12833571Y-15551286D01*
X12824048Y-15589381D01*
X12814524Y-15608428D01*
X12805000Y-15617952D01*
X12785952Y-15627476D01*
X12766905Y-15627476D01*
X12747857Y-15617952D01*
X12738333Y-15608428D01*
X12728809Y-15589381D01*
X12719286Y-15551286D01*
X12719286Y-15503667D01*
X12728809Y-15465571D01*
X12738333Y-15446524D01*
X12747857Y-15437000D01*
X12766905Y-15427476D01*
X12957381Y-15427476D02*
X12976428Y-15427476D01*
X12995476Y-15437000D01*
X13005000Y-15446524D01*
X13014524Y-15465571D01*
X13024048Y-15503667D01*
X13024048Y-15551286D01*
X13014524Y-15589381D01*
X13005000Y-15608428D01*
X12995476Y-15617952D01*
X12976428Y-15627476D01*
X12957381Y-15627476D01*
X12938333Y-15617952D01*
X12928809Y-15608428D01*
X12919286Y-15589381D01*
X12909762Y-15551286D01*
X12909762Y-15503667D01*
X12919286Y-15465571D01*
X12928809Y-15446524D01*
X12938333Y-15437000D01*
X12957381Y-15427476D01*
X13109762Y-15627476D02*
X13109762Y-15494143D01*
X13109762Y-15513190D02*
X13119286Y-15503667D01*
X13138333Y-15494143D01*
X13166905Y-15494143D01*
X13185952Y-15503667D01*
X13195476Y-15522714D01*
X13195476Y-15627476D01*
X13195476Y-15522714D02*
X13205000Y-15503667D01*
X13224048Y-15494143D01*
X13252619Y-15494143D01*
X13271667Y-15503667D01*
X13281190Y-15522714D01*
X13281190Y-15627476D01*
X13376428Y-15627476D02*
X13376428Y-15494143D01*
X13376428Y-15513190D02*
X13385952Y-15503667D01*
X13405000Y-15494143D01*
X13433571Y-15494143D01*
X13452619Y-15503667D01*
X13462143Y-15522714D01*
X13462143Y-15627476D01*
X13462143Y-15522714D02*
X13471667Y-15503667D01*
X13490714Y-15494143D01*
X13519286Y-15494143D01*
X13538333Y-15503667D01*
X13547857Y-15522714D01*
X13547857Y-15627476D01*
X13938333Y-15417952D02*
X13766905Y-15675095D01*
X14195476Y-15427476D02*
X14214524Y-15427476D01*
X14233571Y-15437000D01*
X14243095Y-15446524D01*
X14252619Y-15465571D01*
X14262143Y-15503667D01*
X14262143Y-15551286D01*
X14252619Y-15589381D01*
X14243095Y-15608428D01*
X14233571Y-15617952D01*
X14214524Y-15627476D01*
X14195476Y-15627476D01*
X14176428Y-15617952D01*
X14166905Y-15608428D01*
X14157381Y-15589381D01*
X14147857Y-15551286D01*
X14147857Y-15503667D01*
X14157381Y-15465571D01*
X14166905Y-15446524D01*
X14176428Y-15437000D01*
X14195476Y-15427476D01*
X14347857Y-15608428D02*
X14357381Y-15617952D01*
X14347857Y-15627476D01*
X14338333Y-15617952D01*
X14347857Y-15608428D01*
X14347857Y-15627476D01*
X14481190Y-15427476D02*
X14500238Y-15427476D01*
X14519286Y-15437000D01*
X14528809Y-15446524D01*
X14538333Y-15465571D01*
X14547857Y-15503667D01*
X14547857Y-15551286D01*
X14538333Y-15589381D01*
X14528809Y-15608428D01*
X14519286Y-15617952D01*
X14500238Y-15627476D01*
X14481190Y-15627476D01*
X14462143Y-15617952D01*
X14452619Y-15608428D01*
X14443095Y-15589381D01*
X14433571Y-15551286D01*
X14433571Y-15503667D01*
X14443095Y-15465571D01*
X14452619Y-15446524D01*
X14462143Y-15437000D01*
X14481190Y-15427476D01*
X14614524Y-15427476D02*
X14738333Y-15427476D01*
X14671667Y-15503667D01*
X14700238Y-15503667D01*
X14719286Y-15513190D01*
X14728809Y-15522714D01*
X14738333Y-15541762D01*
X14738333Y-15589381D01*
X14728809Y-15608428D01*
X14719286Y-15617952D01*
X14700238Y-15627476D01*
X14643095Y-15627476D01*
X14624048Y-15617952D01*
X14614524Y-15608428D01*
X14833571Y-15627476D02*
X14871667Y-15627476D01*
X14890714Y-15617952D01*
X14900238Y-15608428D01*
X14919286Y-15579857D01*
X14928809Y-15541762D01*
X14928809Y-15465571D01*
X14919286Y-15446524D01*
X14909762Y-15437000D01*
X14890714Y-15427476D01*
X14852619Y-15427476D01*
X14833571Y-15437000D01*
X14824048Y-15446524D01*
X14814524Y-15465571D01*
X14814524Y-15513190D01*
X14824048Y-15532238D01*
X14833571Y-15541762D01*
X14852619Y-15551286D01*
X14890714Y-15551286D01*
X14909762Y-15541762D01*
X14919286Y-15532238D01*
X14928809Y-15513190D01*
X15100238Y-15494143D02*
X15100238Y-15627476D01*
X15052619Y-15417952D02*
X15005000Y-15560809D01*
X15128809Y-15560809D01*
X15195476Y-15427476D02*
X15195476Y-15465571D01*
X15271667Y-15427476D02*
X15271667Y-15465571D01*
X15566905Y-15703667D02*
X15557381Y-15694143D01*
X15538333Y-15665571D01*
X15528809Y-15646524D01*
X15519286Y-15617952D01*
X15509762Y-15570333D01*
X15509762Y-15532238D01*
X15519286Y-15484619D01*
X15528809Y-15456048D01*
X15538333Y-15437000D01*
X15557381Y-15408428D01*
X15566905Y-15398905D01*
X15747857Y-15627476D02*
X15633571Y-15627476D01*
X15690714Y-15627476D02*
X15690714Y-15427476D01*
X15671667Y-15456048D01*
X15652619Y-15475095D01*
X15633571Y-15484619D01*
X15824048Y-15446524D02*
X15833571Y-15437000D01*
X15852619Y-15427476D01*
X15900238Y-15427476D01*
X15919286Y-15437000D01*
X15928809Y-15446524D01*
X15938333Y-15465571D01*
X15938333Y-15484619D01*
X15928809Y-15513190D01*
X15814524Y-15627476D01*
X15938333Y-15627476D01*
X16176428Y-15627476D02*
X16176428Y-15427476D01*
X16262143Y-15627476D02*
X16262143Y-15522714D01*
X16252619Y-15503667D01*
X16233571Y-15494143D01*
X16205000Y-15494143D01*
X16185952Y-15503667D01*
X16176428Y-15513190D01*
X16385952Y-15627476D02*
X16366905Y-15617952D01*
X16357381Y-15608428D01*
X16347857Y-15589381D01*
X16347857Y-15532238D01*
X16357381Y-15513190D01*
X16366905Y-15503667D01*
X16385952Y-15494143D01*
X16414524Y-15494143D01*
X16433571Y-15503667D01*
X16443095Y-15513190D01*
X16452619Y-15532238D01*
X16452619Y-15589381D01*
X16443095Y-15608428D01*
X16433571Y-15617952D01*
X16414524Y-15627476D01*
X16385952Y-15627476D01*
X16566905Y-15627476D02*
X16547857Y-15617952D01*
X16538333Y-15598905D01*
X16538333Y-15427476D01*
X16719286Y-15617952D02*
X16700238Y-15627476D01*
X16662143Y-15627476D01*
X16643095Y-15617952D01*
X16633571Y-15598905D01*
X16633571Y-15522714D01*
X16643095Y-15503667D01*
X16662143Y-15494143D01*
X16700238Y-15494143D01*
X16719286Y-15503667D01*
X16728809Y-15522714D01*
X16728809Y-15541762D01*
X16633571Y-15560809D01*
X16805000Y-15617952D02*
X16824048Y-15627476D01*
X16862143Y-15627476D01*
X16881190Y-15617952D01*
X16890714Y-15598905D01*
X16890714Y-15589381D01*
X16881190Y-15570333D01*
X16862143Y-15560809D01*
X16833571Y-15560809D01*
X16814524Y-15551286D01*
X16805000Y-15532238D01*
X16805000Y-15522714D01*
X16814524Y-15503667D01*
X16833571Y-15494143D01*
X16862143Y-15494143D01*
X16881190Y-15503667D01*
X16957381Y-15703667D02*
X16966905Y-15694143D01*
X16985952Y-15665571D01*
X16995476Y-15646524D01*
X17005000Y-15617952D01*
X17014524Y-15570333D01*
X17014524Y-15532238D01*
X17005000Y-15484619D01*
X16995476Y-15456048D01*
X16985952Y-15437000D01*
X16966905Y-15408428D01*
X16957381Y-15398905D01*
D16*
X11940000Y-15856000D02*
X11995000Y-15801000D01*
X11940000Y-15746000D01*
X11885000Y-15801000D01*
X11940000Y-15856000D01*
D11*
X12357381Y-15891476D02*
X12243095Y-15891476D01*
X12300238Y-15891476D02*
X12300238Y-15691476D01*
X12281190Y-15720048D01*
X12262143Y-15739095D01*
X12243095Y-15748619D01*
X12443095Y-15872428D02*
X12452619Y-15881952D01*
X12443095Y-15891476D01*
X12433571Y-15881952D01*
X12443095Y-15872428D01*
X12443095Y-15891476D01*
X12643095Y-15891476D02*
X12528809Y-15891476D01*
X12585952Y-15891476D02*
X12585952Y-15691476D01*
X12566905Y-15720048D01*
X12547857Y-15739095D01*
X12528809Y-15748619D01*
X12766905Y-15691476D02*
X12785952Y-15691476D01*
X12805000Y-15701000D01*
X12814524Y-15710524D01*
X12824048Y-15729571D01*
X12833571Y-15767667D01*
X12833571Y-15815286D01*
X12824048Y-15853381D01*
X12814524Y-15872428D01*
X12805000Y-15881952D01*
X12785952Y-15891476D01*
X12766905Y-15891476D01*
X12747857Y-15881952D01*
X12738333Y-15872428D01*
X12728809Y-15853381D01*
X12719286Y-15815286D01*
X12719286Y-15767667D01*
X12728809Y-15729571D01*
X12738333Y-15710524D01*
X12747857Y-15701000D01*
X12766905Y-15691476D01*
X12957381Y-15691476D02*
X12976428Y-15691476D01*
X12995476Y-15701000D01*
X13005000Y-15710524D01*
X13014524Y-15729571D01*
X13024048Y-15767667D01*
X13024048Y-15815286D01*
X13014524Y-15853381D01*
X13005000Y-15872428D01*
X12995476Y-15881952D01*
X12976428Y-15891476D01*
X12957381Y-15891476D01*
X12938333Y-15881952D01*
X12928809Y-15872428D01*
X12919286Y-15853381D01*
X12909762Y-15815286D01*
X12909762Y-15767667D01*
X12919286Y-15729571D01*
X12928809Y-15710524D01*
X12938333Y-15701000D01*
X12957381Y-15691476D01*
X13109762Y-15891476D02*
X13109762Y-15758143D01*
X13109762Y-15777190D02*
X13119286Y-15767667D01*
X13138333Y-15758143D01*
X13166905Y-15758143D01*
X13185952Y-15767667D01*
X13195476Y-15786714D01*
X13195476Y-15891476D01*
X13195476Y-15786714D02*
X13205000Y-15767667D01*
X13224048Y-15758143D01*
X13252619Y-15758143D01*
X13271667Y-15767667D01*
X13281190Y-15786714D01*
X13281190Y-15891476D01*
X13376428Y-15891476D02*
X13376428Y-15758143D01*
X13376428Y-15777190D02*
X13385952Y-15767667D01*
X13405000Y-15758143D01*
X13433571Y-15758143D01*
X13452619Y-15767667D01*
X13462143Y-15786714D01*
X13462143Y-15891476D01*
X13462143Y-15786714D02*
X13471667Y-15767667D01*
X13490714Y-15758143D01*
X13519286Y-15758143D01*
X13538333Y-15767667D01*
X13547857Y-15786714D01*
X13547857Y-15891476D01*
X13938333Y-15681952D02*
X13766905Y-15939095D01*
X14195476Y-15691476D02*
X14214524Y-15691476D01*
X14233571Y-15701000D01*
X14243095Y-15710524D01*
X14252619Y-15729571D01*
X14262143Y-15767667D01*
X14262143Y-15815286D01*
X14252619Y-15853381D01*
X14243095Y-15872428D01*
X14233571Y-15881952D01*
X14214524Y-15891476D01*
X14195476Y-15891476D01*
X14176428Y-15881952D01*
X14166905Y-15872428D01*
X14157381Y-15853381D01*
X14147857Y-15815286D01*
X14147857Y-15767667D01*
X14157381Y-15729571D01*
X14166905Y-15710524D01*
X14176428Y-15701000D01*
X14195476Y-15691476D01*
X14347857Y-15872428D02*
X14357381Y-15881952D01*
X14347857Y-15891476D01*
X14338333Y-15881952D01*
X14347857Y-15872428D01*
X14347857Y-15891476D01*
X14481190Y-15691476D02*
X14500238Y-15691476D01*
X14519286Y-15701000D01*
X14528809Y-15710524D01*
X14538333Y-15729571D01*
X14547857Y-15767667D01*
X14547857Y-15815286D01*
X14538333Y-15853381D01*
X14528809Y-15872428D01*
X14519286Y-15881952D01*
X14500238Y-15891476D01*
X14481190Y-15891476D01*
X14462143Y-15881952D01*
X14452619Y-15872428D01*
X14443095Y-15853381D01*
X14433571Y-15815286D01*
X14433571Y-15767667D01*
X14443095Y-15729571D01*
X14452619Y-15710524D01*
X14462143Y-15701000D01*
X14481190Y-15691476D01*
X14719286Y-15758143D02*
X14719286Y-15891476D01*
X14671667Y-15681952D02*
X14624048Y-15824809D01*
X14747857Y-15824809D01*
X14805000Y-15691476D02*
X14928809Y-15691476D01*
X14862143Y-15767667D01*
X14890714Y-15767667D01*
X14909762Y-15777190D01*
X14919286Y-15786714D01*
X14928809Y-15805762D01*
X14928809Y-15853381D01*
X14919286Y-15872428D01*
X14909762Y-15881952D01*
X14890714Y-15891476D01*
X14833571Y-15891476D01*
X14814524Y-15881952D01*
X14805000Y-15872428D01*
X14995476Y-15691476D02*
X15119286Y-15691476D01*
X15052619Y-15767667D01*
X15081190Y-15767667D01*
X15100238Y-15777190D01*
X15109762Y-15786714D01*
X15119286Y-15805762D01*
X15119286Y-15853381D01*
X15109762Y-15872428D01*
X15100238Y-15881952D01*
X15081190Y-15891476D01*
X15024048Y-15891476D01*
X15005000Y-15881952D01*
X14995476Y-15872428D01*
X15195476Y-15691476D02*
X15195476Y-15729571D01*
X15271667Y-15691476D02*
X15271667Y-15729571D01*
X15566905Y-15967667D02*
X15557381Y-15958143D01*
X15538333Y-15929571D01*
X15528809Y-15910524D01*
X15519286Y-15881952D01*
X15509762Y-15834333D01*
X15509762Y-15796238D01*
X15519286Y-15748619D01*
X15528809Y-15720048D01*
X15538333Y-15701000D01*
X15557381Y-15672428D01*
X15566905Y-15662905D01*
X15728809Y-15758143D02*
X15728809Y-15891476D01*
X15681190Y-15681952D02*
X15633571Y-15824809D01*
X15757381Y-15824809D01*
X15985952Y-15891476D02*
X15985952Y-15691476D01*
X16071667Y-15891476D02*
X16071667Y-15786714D01*
X16062143Y-15767667D01*
X16043095Y-15758143D01*
X16014524Y-15758143D01*
X15995476Y-15767667D01*
X15985952Y-15777190D01*
X16195476Y-15891476D02*
X16176428Y-15881952D01*
X16166905Y-15872428D01*
X16157381Y-15853381D01*
X16157381Y-15796238D01*
X16166905Y-15777190D01*
X16176428Y-15767667D01*
X16195476Y-15758143D01*
X16224048Y-15758143D01*
X16243095Y-15767667D01*
X16252619Y-15777190D01*
X16262143Y-15796238D01*
X16262143Y-15853381D01*
X16252619Y-15872428D01*
X16243095Y-15881952D01*
X16224048Y-15891476D01*
X16195476Y-15891476D01*
X16376428Y-15891476D02*
X16357381Y-15881952D01*
X16347857Y-15862905D01*
X16347857Y-15691476D01*
X16528809Y-15881952D02*
X16509762Y-15891476D01*
X16471667Y-15891476D01*
X16452619Y-15881952D01*
X16443095Y-15862905D01*
X16443095Y-15786714D01*
X16452619Y-15767667D01*
X16471667Y-15758143D01*
X16509762Y-15758143D01*
X16528809Y-15767667D01*
X16538333Y-15786714D01*
X16538333Y-15805762D01*
X16443095Y-15824809D01*
X16614524Y-15881952D02*
X16633571Y-15891476D01*
X16671667Y-15891476D01*
X16690714Y-15881952D01*
X16700238Y-15862905D01*
X16700238Y-15853381D01*
X16690714Y-15834333D01*
X16671667Y-15824809D01*
X16643095Y-15824809D01*
X16624048Y-15815286D01*
X16614524Y-15796238D01*
X16614524Y-15786714D01*
X16624048Y-15767667D01*
X16643095Y-15758143D01*
X16671667Y-15758143D01*
X16690714Y-15767667D01*
X16766905Y-15967667D02*
X16776428Y-15958143D01*
X16795476Y-15929571D01*
X16805000Y-15910524D01*
X16814524Y-15881952D01*
X16824048Y-15834333D01*
X16824048Y-15796238D01*
X16814524Y-15748619D01*
X16805000Y-15720048D01*
X16795476Y-15701000D01*
X16776428Y-15672428D01*
X16766905Y-15662905D01*
D17*
X11860000Y-15997500D02*
X11995000Y-16132500D01*
X11995000Y-15997500D02*
X11860000Y-16132500D01*
X11995000Y-16065000D02*
G75*
G03*
X11995000Y-16065000I-67500J0D01*
G01*
D11*
X12357381Y-16155476D02*
X12243095Y-16155476D01*
X12300238Y-16155476D02*
X12300238Y-15955476D01*
X12281190Y-15984048D01*
X12262143Y-16003095D01*
X12243095Y-16012619D01*
X12443095Y-16136428D02*
X12452619Y-16145952D01*
X12443095Y-16155476D01*
X12433571Y-16145952D01*
X12443095Y-16136428D01*
X12443095Y-16155476D01*
X12519286Y-15955476D02*
X12643095Y-15955476D01*
X12576428Y-16031667D01*
X12605000Y-16031667D01*
X12624048Y-16041190D01*
X12633571Y-16050714D01*
X12643095Y-16069762D01*
X12643095Y-16117381D01*
X12633571Y-16136428D01*
X12624048Y-16145952D01*
X12605000Y-16155476D01*
X12547857Y-16155476D01*
X12528809Y-16145952D01*
X12519286Y-16136428D01*
X12824048Y-15955476D02*
X12728809Y-15955476D01*
X12719286Y-16050714D01*
X12728809Y-16041190D01*
X12747857Y-16031667D01*
X12795476Y-16031667D01*
X12814524Y-16041190D01*
X12824048Y-16050714D01*
X12833571Y-16069762D01*
X12833571Y-16117381D01*
X12824048Y-16136428D01*
X12814524Y-16145952D01*
X12795476Y-16155476D01*
X12747857Y-16155476D01*
X12728809Y-16145952D01*
X12719286Y-16136428D01*
X12957381Y-15955476D02*
X12976428Y-15955476D01*
X12995476Y-15965000D01*
X13005000Y-15974524D01*
X13014524Y-15993571D01*
X13024048Y-16031667D01*
X13024048Y-16079286D01*
X13014524Y-16117381D01*
X13005000Y-16136428D01*
X12995476Y-16145952D01*
X12976428Y-16155476D01*
X12957381Y-16155476D01*
X12938333Y-16145952D01*
X12928809Y-16136428D01*
X12919286Y-16117381D01*
X12909762Y-16079286D01*
X12909762Y-16031667D01*
X12919286Y-15993571D01*
X12928809Y-15974524D01*
X12938333Y-15965000D01*
X12957381Y-15955476D01*
X13109762Y-16155476D02*
X13109762Y-16022143D01*
X13109762Y-16041190D02*
X13119286Y-16031667D01*
X13138333Y-16022143D01*
X13166905Y-16022143D01*
X13185952Y-16031667D01*
X13195476Y-16050714D01*
X13195476Y-16155476D01*
X13195476Y-16050714D02*
X13205000Y-16031667D01*
X13224048Y-16022143D01*
X13252619Y-16022143D01*
X13271667Y-16031667D01*
X13281190Y-16050714D01*
X13281190Y-16155476D01*
X13376428Y-16155476D02*
X13376428Y-16022143D01*
X13376428Y-16041190D02*
X13385952Y-16031667D01*
X13405000Y-16022143D01*
X13433571Y-16022143D01*
X13452619Y-16031667D01*
X13462143Y-16050714D01*
X13462143Y-16155476D01*
X13462143Y-16050714D02*
X13471667Y-16031667D01*
X13490714Y-16022143D01*
X13519286Y-16022143D01*
X13538333Y-16031667D01*
X13547857Y-16050714D01*
X13547857Y-16155476D01*
X13938333Y-15945952D02*
X13766905Y-16203095D01*
X14195476Y-15955476D02*
X14214524Y-15955476D01*
X14233571Y-15965000D01*
X14243095Y-15974524D01*
X14252619Y-15993571D01*
X14262143Y-16031667D01*
X14262143Y-16079286D01*
X14252619Y-16117381D01*
X14243095Y-16136428D01*
X14233571Y-16145952D01*
X14214524Y-16155476D01*
X14195476Y-16155476D01*
X14176428Y-16145952D01*
X14166905Y-16136428D01*
X14157381Y-16117381D01*
X14147857Y-16079286D01*
X14147857Y-16031667D01*
X14157381Y-15993571D01*
X14166905Y-15974524D01*
X14176428Y-15965000D01*
X14195476Y-15955476D01*
X14347857Y-16136428D02*
X14357381Y-16145952D01*
X14347857Y-16155476D01*
X14338333Y-16145952D01*
X14347857Y-16136428D01*
X14347857Y-16155476D01*
X14481190Y-15955476D02*
X14500238Y-15955476D01*
X14519286Y-15965000D01*
X14528809Y-15974524D01*
X14538333Y-15993571D01*
X14547857Y-16031667D01*
X14547857Y-16079286D01*
X14538333Y-16117381D01*
X14528809Y-16136428D01*
X14519286Y-16145952D01*
X14500238Y-16155476D01*
X14481190Y-16155476D01*
X14462143Y-16145952D01*
X14452619Y-16136428D01*
X14443095Y-16117381D01*
X14433571Y-16079286D01*
X14433571Y-16031667D01*
X14443095Y-15993571D01*
X14452619Y-15974524D01*
X14462143Y-15965000D01*
X14481190Y-15955476D01*
X14728809Y-15955476D02*
X14633571Y-15955476D01*
X14624048Y-16050714D01*
X14633571Y-16041190D01*
X14652619Y-16031667D01*
X14700238Y-16031667D01*
X14719286Y-16041190D01*
X14728809Y-16050714D01*
X14738333Y-16069762D01*
X14738333Y-16117381D01*
X14728809Y-16136428D01*
X14719286Y-16145952D01*
X14700238Y-16155476D01*
X14652619Y-16155476D01*
X14633571Y-16145952D01*
X14624048Y-16136428D01*
X14805000Y-15955476D02*
X14928809Y-15955476D01*
X14862143Y-16031667D01*
X14890714Y-16031667D01*
X14909762Y-16041190D01*
X14919286Y-16050714D01*
X14928809Y-16069762D01*
X14928809Y-16117381D01*
X14919286Y-16136428D01*
X14909762Y-16145952D01*
X14890714Y-16155476D01*
X14833571Y-16155476D01*
X14814524Y-16145952D01*
X14805000Y-16136428D01*
X15119286Y-16155476D02*
X15005000Y-16155476D01*
X15062143Y-16155476D02*
X15062143Y-15955476D01*
X15043095Y-15984048D01*
X15024048Y-16003095D01*
X15005000Y-16012619D01*
X15195476Y-15955476D02*
X15195476Y-15993571D01*
X15271667Y-15955476D02*
X15271667Y-15993571D01*
X15566905Y-16231667D02*
X15557381Y-16222143D01*
X15538333Y-16193571D01*
X15528809Y-16174524D01*
X15519286Y-16145952D01*
X15509762Y-16098333D01*
X15509762Y-16060238D01*
X15519286Y-16012619D01*
X15528809Y-15984048D01*
X15538333Y-15965000D01*
X15557381Y-15936428D01*
X15566905Y-15926905D01*
X15747857Y-16155476D02*
X15633571Y-16155476D01*
X15690714Y-16155476D02*
X15690714Y-15955476D01*
X15671667Y-15984048D01*
X15652619Y-16003095D01*
X15633571Y-16012619D01*
X15871667Y-15955476D02*
X15890714Y-15955476D01*
X15909762Y-15965000D01*
X15919286Y-15974524D01*
X15928809Y-15993571D01*
X15938333Y-16031667D01*
X15938333Y-16079286D01*
X15928809Y-16117381D01*
X15919286Y-16136428D01*
X15909762Y-16145952D01*
X15890714Y-16155476D01*
X15871667Y-16155476D01*
X15852619Y-16145952D01*
X15843095Y-16136428D01*
X15833571Y-16117381D01*
X15824048Y-16079286D01*
X15824048Y-16031667D01*
X15833571Y-15993571D01*
X15843095Y-15974524D01*
X15852619Y-15965000D01*
X15871667Y-15955476D01*
X16176428Y-16155476D02*
X16176428Y-15955476D01*
X16262143Y-16155476D02*
X16262143Y-16050714D01*
X16252619Y-16031667D01*
X16233571Y-16022143D01*
X16205000Y-16022143D01*
X16185952Y-16031667D01*
X16176428Y-16041190D01*
X16385952Y-16155476D02*
X16366905Y-16145952D01*
X16357381Y-16136428D01*
X16347857Y-16117381D01*
X16347857Y-16060238D01*
X16357381Y-16041190D01*
X16366905Y-16031667D01*
X16385952Y-16022143D01*
X16414524Y-16022143D01*
X16433571Y-16031667D01*
X16443095Y-16041190D01*
X16452619Y-16060238D01*
X16452619Y-16117381D01*
X16443095Y-16136428D01*
X16433571Y-16145952D01*
X16414524Y-16155476D01*
X16385952Y-16155476D01*
X16566905Y-16155476D02*
X16547857Y-16145952D01*
X16538333Y-16126905D01*
X16538333Y-15955476D01*
X16719286Y-16145952D02*
X16700238Y-16155476D01*
X16662143Y-16155476D01*
X16643095Y-16145952D01*
X16633571Y-16126905D01*
X16633571Y-16050714D01*
X16643095Y-16031667D01*
X16662143Y-16022143D01*
X16700238Y-16022143D01*
X16719286Y-16031667D01*
X16728809Y-16050714D01*
X16728809Y-16069762D01*
X16633571Y-16088809D01*
X16805000Y-16145952D02*
X16824048Y-16155476D01*
X16862143Y-16155476D01*
X16881190Y-16145952D01*
X16890714Y-16126905D01*
X16890714Y-16117381D01*
X16881190Y-16098333D01*
X16862143Y-16088809D01*
X16833571Y-16088809D01*
X16814524Y-16079286D01*
X16805000Y-16060238D01*
X16805000Y-16050714D01*
X16814524Y-16031667D01*
X16833571Y-16022143D01*
X16862143Y-16022143D01*
X16881190Y-16031667D01*
X16957381Y-16231667D02*
X16966905Y-16222143D01*
X16985952Y-16193571D01*
X16995476Y-16174524D01*
X17005000Y-16145952D01*
X17014524Y-16098333D01*
X17014524Y-16060238D01*
X17005000Y-16012619D01*
X16995476Y-15984048D01*
X16985952Y-15965000D01*
X16966905Y-15936428D01*
X16957381Y-15926905D01*
X11795000Y-16229000D02*
X11995000Y-16429000D01*
X11995000Y-16229000D02*
X11795000Y-16429000D01*
X11895000Y-16229000D02*
X11895000Y-16429000D01*
X11795000Y-16329000D02*
X11995000Y-16329000D01*
X12243095Y-16238524D02*
X12252619Y-16229000D01*
X12271667Y-16219476D01*
X12319286Y-16219476D01*
X12338333Y-16229000D01*
X12347857Y-16238524D01*
X12357381Y-16257571D01*
X12357381Y-16276619D01*
X12347857Y-16305190D01*
X12233571Y-16419476D01*
X12357381Y-16419476D01*
X12443095Y-16400428D02*
X12452619Y-16409952D01*
X12443095Y-16419476D01*
X12433571Y-16409952D01*
X12443095Y-16400428D01*
X12443095Y-16419476D01*
X12519286Y-16219476D02*
X12652619Y-16219476D01*
X12566905Y-16419476D01*
X12766905Y-16219476D02*
X12785952Y-16219476D01*
X12805000Y-16229000D01*
X12814524Y-16238524D01*
X12824048Y-16257571D01*
X12833571Y-16295667D01*
X12833571Y-16343286D01*
X12824048Y-16381381D01*
X12814524Y-16400428D01*
X12805000Y-16409952D01*
X12785952Y-16419476D01*
X12766905Y-16419476D01*
X12747857Y-16409952D01*
X12738333Y-16400428D01*
X12728809Y-16381381D01*
X12719286Y-16343286D01*
X12719286Y-16295667D01*
X12728809Y-16257571D01*
X12738333Y-16238524D01*
X12747857Y-16229000D01*
X12766905Y-16219476D01*
X12957381Y-16219476D02*
X12976428Y-16219476D01*
X12995476Y-16229000D01*
X13005000Y-16238524D01*
X13014524Y-16257571D01*
X13024048Y-16295667D01*
X13024048Y-16343286D01*
X13014524Y-16381381D01*
X13005000Y-16400428D01*
X12995476Y-16409952D01*
X12976428Y-16419476D01*
X12957381Y-16419476D01*
X12938333Y-16409952D01*
X12928809Y-16400428D01*
X12919286Y-16381381D01*
X12909762Y-16343286D01*
X12909762Y-16295667D01*
X12919286Y-16257571D01*
X12928809Y-16238524D01*
X12938333Y-16229000D01*
X12957381Y-16219476D01*
X13109762Y-16419476D02*
X13109762Y-16286143D01*
X13109762Y-16305190D02*
X13119286Y-16295667D01*
X13138333Y-16286143D01*
X13166905Y-16286143D01*
X13185952Y-16295667D01*
X13195476Y-16314714D01*
X13195476Y-16419476D01*
X13195476Y-16314714D02*
X13205000Y-16295667D01*
X13224048Y-16286143D01*
X13252619Y-16286143D01*
X13271667Y-16295667D01*
X13281190Y-16314714D01*
X13281190Y-16419476D01*
X13376428Y-16419476D02*
X13376428Y-16286143D01*
X13376428Y-16305190D02*
X13385952Y-16295667D01*
X13405000Y-16286143D01*
X13433571Y-16286143D01*
X13452619Y-16295667D01*
X13462143Y-16314714D01*
X13462143Y-16419476D01*
X13462143Y-16314714D02*
X13471667Y-16295667D01*
X13490714Y-16286143D01*
X13519286Y-16286143D01*
X13538333Y-16295667D01*
X13547857Y-16314714D01*
X13547857Y-16419476D01*
X13938333Y-16209952D02*
X13766905Y-16467095D01*
X14195476Y-16219476D02*
X14214524Y-16219476D01*
X14233571Y-16229000D01*
X14243095Y-16238524D01*
X14252619Y-16257571D01*
X14262143Y-16295667D01*
X14262143Y-16343286D01*
X14252619Y-16381381D01*
X14243095Y-16400428D01*
X14233571Y-16409952D01*
X14214524Y-16419476D01*
X14195476Y-16419476D01*
X14176428Y-16409952D01*
X14166905Y-16400428D01*
X14157381Y-16381381D01*
X14147857Y-16343286D01*
X14147857Y-16295667D01*
X14157381Y-16257571D01*
X14166905Y-16238524D01*
X14176428Y-16229000D01*
X14195476Y-16219476D01*
X14347857Y-16400428D02*
X14357381Y-16409952D01*
X14347857Y-16419476D01*
X14338333Y-16409952D01*
X14347857Y-16400428D01*
X14347857Y-16419476D01*
X14547857Y-16419476D02*
X14433571Y-16419476D01*
X14490714Y-16419476D02*
X14490714Y-16219476D01*
X14471667Y-16248048D01*
X14452619Y-16267095D01*
X14433571Y-16276619D01*
X14671667Y-16219476D02*
X14690714Y-16219476D01*
X14709762Y-16229000D01*
X14719286Y-16238524D01*
X14728809Y-16257571D01*
X14738333Y-16295667D01*
X14738333Y-16343286D01*
X14728809Y-16381381D01*
X14719286Y-16400428D01*
X14709762Y-16409952D01*
X14690714Y-16419476D01*
X14671667Y-16419476D01*
X14652619Y-16409952D01*
X14643095Y-16400428D01*
X14633571Y-16381381D01*
X14624048Y-16343286D01*
X14624048Y-16295667D01*
X14633571Y-16257571D01*
X14643095Y-16238524D01*
X14652619Y-16229000D01*
X14671667Y-16219476D01*
X14909762Y-16219476D02*
X14871667Y-16219476D01*
X14852619Y-16229000D01*
X14843095Y-16238524D01*
X14824048Y-16267095D01*
X14814524Y-16305190D01*
X14814524Y-16381381D01*
X14824048Y-16400428D01*
X14833571Y-16409952D01*
X14852619Y-16419476D01*
X14890714Y-16419476D01*
X14909762Y-16409952D01*
X14919286Y-16400428D01*
X14928809Y-16381381D01*
X14928809Y-16333762D01*
X14919286Y-16314714D01*
X14909762Y-16305190D01*
X14890714Y-16295667D01*
X14852619Y-16295667D01*
X14833571Y-16305190D01*
X14824048Y-16314714D01*
X14814524Y-16333762D01*
X14995476Y-16219476D02*
X15119286Y-16219476D01*
X15052619Y-16295667D01*
X15081190Y-16295667D01*
X15100238Y-16305190D01*
X15109762Y-16314714D01*
X15119286Y-16333762D01*
X15119286Y-16381381D01*
X15109762Y-16400428D01*
X15100238Y-16409952D01*
X15081190Y-16419476D01*
X15024048Y-16419476D01*
X15005000Y-16409952D01*
X14995476Y-16400428D01*
X15195476Y-16219476D02*
X15195476Y-16257571D01*
X15271667Y-16219476D02*
X15271667Y-16257571D01*
X15566905Y-16495667D02*
X15557381Y-16486143D01*
X15538333Y-16457571D01*
X15528809Y-16438524D01*
X15519286Y-16409952D01*
X15509762Y-16362333D01*
X15509762Y-16324238D01*
X15519286Y-16276619D01*
X15528809Y-16248048D01*
X15538333Y-16229000D01*
X15557381Y-16200428D01*
X15566905Y-16190905D01*
X15728809Y-16286143D02*
X15728809Y-16419476D01*
X15681190Y-16209952D02*
X15633571Y-16352809D01*
X15757381Y-16352809D01*
X15985952Y-16419476D02*
X15985952Y-16219476D01*
X16071667Y-16419476D02*
X16071667Y-16314714D01*
X16062143Y-16295667D01*
X16043095Y-16286143D01*
X16014524Y-16286143D01*
X15995476Y-16295667D01*
X15985952Y-16305190D01*
X16195476Y-16419476D02*
X16176428Y-16409952D01*
X16166905Y-16400428D01*
X16157381Y-16381381D01*
X16157381Y-16324238D01*
X16166905Y-16305190D01*
X16176428Y-16295667D01*
X16195476Y-16286143D01*
X16224048Y-16286143D01*
X16243095Y-16295667D01*
X16252619Y-16305190D01*
X16262143Y-16324238D01*
X16262143Y-16381381D01*
X16252619Y-16400428D01*
X16243095Y-16409952D01*
X16224048Y-16419476D01*
X16195476Y-16419476D01*
X16376428Y-16419476D02*
X16357381Y-16409952D01*
X16347857Y-16390905D01*
X16347857Y-16219476D01*
X16528809Y-16409952D02*
X16509762Y-16419476D01*
X16471667Y-16419476D01*
X16452619Y-16409952D01*
X16443095Y-16390905D01*
X16443095Y-16314714D01*
X16452619Y-16295667D01*
X16471667Y-16286143D01*
X16509762Y-16286143D01*
X16528809Y-16295667D01*
X16538333Y-16314714D01*
X16538333Y-16333762D01*
X16443095Y-16352809D01*
X16614524Y-16409952D02*
X16633571Y-16419476D01*
X16671667Y-16419476D01*
X16690714Y-16409952D01*
X16700238Y-16390905D01*
X16700238Y-16381381D01*
X16690714Y-16362333D01*
X16671667Y-16352809D01*
X16643095Y-16352809D01*
X16624048Y-16343286D01*
X16614524Y-16324238D01*
X16614524Y-16314714D01*
X16624048Y-16295667D01*
X16643095Y-16286143D01*
X16671667Y-16286143D01*
X16690714Y-16295667D01*
X16766905Y-16495667D02*
X16776428Y-16486143D01*
X16795476Y-16457571D01*
X16805000Y-16438524D01*
X16814524Y-16409952D01*
X16824048Y-16362333D01*
X16824048Y-16324238D01*
X16814524Y-16276619D01*
X16805000Y-16248048D01*
X16795476Y-16229000D01*
X16776428Y-16200428D01*
X16766905Y-16190905D01*
M02*
