%FSLAX45Y45*%
G04 Gerber Fmt 4.5, Leading zero omitted, Abs format (unit mm)*
G04 Created by KiCad (PCBNEW (6.0.2)) date 2022-04-04 11:25:59*
%MOMM*%
%LPD*%
G01*
G04 APERTURE LIST*
%TA.AperFunction,Profile*%
%ADD10C,0.100000*%
%TD*%
%ADD11C,0.200000*%
%ADD12C,0.240000*%
G04 APERTURE END LIST*
D10*
X17700000Y-14100000D02*
G75*
G03*
X18000000Y-13800000I0J300000D01*
G01*
X18000000Y-8400000D02*
X18000000Y-13800000D01*
X12300000Y-8100000D02*
G75*
G03*
X12000000Y-8400000I0J-300000D01*
G01*
X12000000Y-13800000D02*
G75*
G03*
X12300000Y-14100000I300000J0D01*
G01*
X12000000Y-13800000D02*
X12000000Y-8400000D01*
X12300000Y-8100000D02*
X17700000Y-8100000D01*
X12300000Y-14100000D02*
X17700000Y-14100000D01*
X18000000Y-8400000D02*
G75*
G03*
X17700000Y-8100000I-300000J0D01*
G01*
D11*
D12*
X15330000Y-8752500D02*
X15570000Y-8992500D01*
X15570000Y-8752500D02*
X15330000Y-8992500D01*
X16830000Y-8752500D02*
X17070000Y-8992500D01*
X17070000Y-8752500D02*
X16830000Y-8992500D01*
D11*
X12252619Y-14415476D02*
X12252619Y-14215476D01*
X12300238Y-14215476D01*
X12328809Y-14225000D01*
X12347857Y-14244048D01*
X12357381Y-14263095D01*
X12366905Y-14301190D01*
X12366905Y-14329762D01*
X12357381Y-14367857D01*
X12347857Y-14386905D01*
X12328809Y-14405952D01*
X12300238Y-14415476D01*
X12252619Y-14415476D01*
X12452619Y-14415476D02*
X12452619Y-14282143D01*
X12452619Y-14320238D02*
X12462143Y-14301190D01*
X12471667Y-14291667D01*
X12490714Y-14282143D01*
X12509762Y-14282143D01*
X12576428Y-14415476D02*
X12576428Y-14282143D01*
X12576428Y-14215476D02*
X12566905Y-14225000D01*
X12576428Y-14234524D01*
X12585952Y-14225000D01*
X12576428Y-14215476D01*
X12576428Y-14234524D01*
X12700238Y-14415476D02*
X12681190Y-14405952D01*
X12671667Y-14386905D01*
X12671667Y-14215476D01*
X12805000Y-14415476D02*
X12785952Y-14405952D01*
X12776428Y-14386905D01*
X12776428Y-14215476D01*
X13033571Y-14415476D02*
X13033571Y-14215476D01*
X13100238Y-14358333D01*
X13166905Y-14215476D01*
X13166905Y-14415476D01*
X13347857Y-14415476D02*
X13347857Y-14310714D01*
X13338333Y-14291667D01*
X13319286Y-14282143D01*
X13281190Y-14282143D01*
X13262143Y-14291667D01*
X13347857Y-14405952D02*
X13328809Y-14415476D01*
X13281190Y-14415476D01*
X13262143Y-14405952D01*
X13252619Y-14386905D01*
X13252619Y-14367857D01*
X13262143Y-14348809D01*
X13281190Y-14339286D01*
X13328809Y-14339286D01*
X13347857Y-14329762D01*
X13443095Y-14282143D02*
X13443095Y-14482143D01*
X13443095Y-14291667D02*
X13462143Y-14282143D01*
X13500238Y-14282143D01*
X13519286Y-14291667D01*
X13528809Y-14301190D01*
X13538333Y-14320238D01*
X13538333Y-14377381D01*
X13528809Y-14396428D01*
X13519286Y-14405952D01*
X13500238Y-14415476D01*
X13462143Y-14415476D01*
X13443095Y-14405952D01*
X13624048Y-14396428D02*
X13633571Y-14405952D01*
X13624048Y-14415476D01*
X13614524Y-14405952D01*
X13624048Y-14396428D01*
X13624048Y-14415476D01*
X13624048Y-14291667D02*
X13633571Y-14301190D01*
X13624048Y-14310714D01*
X13614524Y-14301190D01*
X13624048Y-14291667D01*
X13624048Y-14310714D01*
X11795000Y-14645000D02*
X11995000Y-14845000D01*
X11995000Y-14645000D02*
X11795000Y-14845000D01*
X12243095Y-14654524D02*
X12252619Y-14645000D01*
X12271667Y-14635476D01*
X12319286Y-14635476D01*
X12338333Y-14645000D01*
X12347857Y-14654524D01*
X12357381Y-14673571D01*
X12357381Y-14692619D01*
X12347857Y-14721190D01*
X12233571Y-14835476D01*
X12357381Y-14835476D01*
X12443095Y-14816428D02*
X12452619Y-14825952D01*
X12443095Y-14835476D01*
X12433571Y-14825952D01*
X12443095Y-14816428D01*
X12443095Y-14835476D01*
X12624048Y-14702143D02*
X12624048Y-14835476D01*
X12576428Y-14625952D02*
X12528809Y-14768809D01*
X12652619Y-14768809D01*
X12766905Y-14635476D02*
X12785952Y-14635476D01*
X12805000Y-14645000D01*
X12814524Y-14654524D01*
X12824048Y-14673571D01*
X12833571Y-14711667D01*
X12833571Y-14759286D01*
X12824048Y-14797381D01*
X12814524Y-14816428D01*
X12805000Y-14825952D01*
X12785952Y-14835476D01*
X12766905Y-14835476D01*
X12747857Y-14825952D01*
X12738333Y-14816428D01*
X12728809Y-14797381D01*
X12719286Y-14759286D01*
X12719286Y-14711667D01*
X12728809Y-14673571D01*
X12738333Y-14654524D01*
X12747857Y-14645000D01*
X12766905Y-14635476D01*
X12957381Y-14635476D02*
X12976428Y-14635476D01*
X12995476Y-14645000D01*
X13005000Y-14654524D01*
X13014524Y-14673571D01*
X13024048Y-14711667D01*
X13024048Y-14759286D01*
X13014524Y-14797381D01*
X13005000Y-14816428D01*
X12995476Y-14825952D01*
X12976428Y-14835476D01*
X12957381Y-14835476D01*
X12938333Y-14825952D01*
X12928809Y-14816428D01*
X12919286Y-14797381D01*
X12909762Y-14759286D01*
X12909762Y-14711667D01*
X12919286Y-14673571D01*
X12928809Y-14654524D01*
X12938333Y-14645000D01*
X12957381Y-14635476D01*
X13109762Y-14835476D02*
X13109762Y-14702143D01*
X13109762Y-14721190D02*
X13119286Y-14711667D01*
X13138333Y-14702143D01*
X13166905Y-14702143D01*
X13185952Y-14711667D01*
X13195476Y-14730714D01*
X13195476Y-14835476D01*
X13195476Y-14730714D02*
X13205000Y-14711667D01*
X13224048Y-14702143D01*
X13252619Y-14702143D01*
X13271667Y-14711667D01*
X13281190Y-14730714D01*
X13281190Y-14835476D01*
X13376428Y-14835476D02*
X13376428Y-14702143D01*
X13376428Y-14721190D02*
X13385952Y-14711667D01*
X13405000Y-14702143D01*
X13433571Y-14702143D01*
X13452619Y-14711667D01*
X13462143Y-14730714D01*
X13462143Y-14835476D01*
X13462143Y-14730714D02*
X13471667Y-14711667D01*
X13490714Y-14702143D01*
X13519286Y-14702143D01*
X13538333Y-14711667D01*
X13547857Y-14730714D01*
X13547857Y-14835476D01*
X13938333Y-14625952D02*
X13766905Y-14883095D01*
X14195476Y-14635476D02*
X14214524Y-14635476D01*
X14233571Y-14645000D01*
X14243095Y-14654524D01*
X14252619Y-14673571D01*
X14262143Y-14711667D01*
X14262143Y-14759286D01*
X14252619Y-14797381D01*
X14243095Y-14816428D01*
X14233571Y-14825952D01*
X14214524Y-14835476D01*
X14195476Y-14835476D01*
X14176428Y-14825952D01*
X14166905Y-14816428D01*
X14157381Y-14797381D01*
X14147857Y-14759286D01*
X14147857Y-14711667D01*
X14157381Y-14673571D01*
X14166905Y-14654524D01*
X14176428Y-14645000D01*
X14195476Y-14635476D01*
X14347857Y-14816428D02*
X14357381Y-14825952D01*
X14347857Y-14835476D01*
X14338333Y-14825952D01*
X14347857Y-14816428D01*
X14347857Y-14835476D01*
X14481190Y-14635476D02*
X14500238Y-14635476D01*
X14519286Y-14645000D01*
X14528809Y-14654524D01*
X14538333Y-14673571D01*
X14547857Y-14711667D01*
X14547857Y-14759286D01*
X14538333Y-14797381D01*
X14528809Y-14816428D01*
X14519286Y-14825952D01*
X14500238Y-14835476D01*
X14481190Y-14835476D01*
X14462143Y-14825952D01*
X14452619Y-14816428D01*
X14443095Y-14797381D01*
X14433571Y-14759286D01*
X14433571Y-14711667D01*
X14443095Y-14673571D01*
X14452619Y-14654524D01*
X14462143Y-14645000D01*
X14481190Y-14635476D01*
X14643095Y-14835476D02*
X14681190Y-14835476D01*
X14700238Y-14825952D01*
X14709762Y-14816428D01*
X14728809Y-14787857D01*
X14738333Y-14749762D01*
X14738333Y-14673571D01*
X14728809Y-14654524D01*
X14719286Y-14645000D01*
X14700238Y-14635476D01*
X14662143Y-14635476D01*
X14643095Y-14645000D01*
X14633571Y-14654524D01*
X14624048Y-14673571D01*
X14624048Y-14721190D01*
X14633571Y-14740238D01*
X14643095Y-14749762D01*
X14662143Y-14759286D01*
X14700238Y-14759286D01*
X14719286Y-14749762D01*
X14728809Y-14740238D01*
X14738333Y-14721190D01*
X14909762Y-14702143D02*
X14909762Y-14835476D01*
X14862143Y-14625952D02*
X14814524Y-14768809D01*
X14938333Y-14768809D01*
X15109762Y-14635476D02*
X15014524Y-14635476D01*
X15005000Y-14730714D01*
X15014524Y-14721190D01*
X15033571Y-14711667D01*
X15081190Y-14711667D01*
X15100238Y-14721190D01*
X15109762Y-14730714D01*
X15119286Y-14749762D01*
X15119286Y-14797381D01*
X15109762Y-14816428D01*
X15100238Y-14825952D01*
X15081190Y-14835476D01*
X15033571Y-14835476D01*
X15014524Y-14825952D01*
X15005000Y-14816428D01*
X15195476Y-14635476D02*
X15195476Y-14673571D01*
X15271667Y-14635476D02*
X15271667Y-14673571D01*
X15566905Y-14911667D02*
X15557381Y-14902143D01*
X15538333Y-14873571D01*
X15528809Y-14854524D01*
X15519286Y-14825952D01*
X15509762Y-14778333D01*
X15509762Y-14740238D01*
X15519286Y-14692619D01*
X15528809Y-14664048D01*
X15538333Y-14645000D01*
X15557381Y-14616428D01*
X15566905Y-14606905D01*
X15633571Y-14654524D02*
X15643095Y-14645000D01*
X15662143Y-14635476D01*
X15709762Y-14635476D01*
X15728809Y-14645000D01*
X15738333Y-14654524D01*
X15747857Y-14673571D01*
X15747857Y-14692619D01*
X15738333Y-14721190D01*
X15624048Y-14835476D01*
X15747857Y-14835476D01*
X15985952Y-14835476D02*
X15985952Y-14635476D01*
X16071667Y-14835476D02*
X16071667Y-14730714D01*
X16062143Y-14711667D01*
X16043095Y-14702143D01*
X16014524Y-14702143D01*
X15995476Y-14711667D01*
X15985952Y-14721190D01*
X16195476Y-14835476D02*
X16176428Y-14825952D01*
X16166905Y-14816428D01*
X16157381Y-14797381D01*
X16157381Y-14740238D01*
X16166905Y-14721190D01*
X16176428Y-14711667D01*
X16195476Y-14702143D01*
X16224048Y-14702143D01*
X16243095Y-14711667D01*
X16252619Y-14721190D01*
X16262143Y-14740238D01*
X16262143Y-14797381D01*
X16252619Y-14816428D01*
X16243095Y-14825952D01*
X16224048Y-14835476D01*
X16195476Y-14835476D01*
X16376428Y-14835476D02*
X16357381Y-14825952D01*
X16347857Y-14806905D01*
X16347857Y-14635476D01*
X16528809Y-14825952D02*
X16509762Y-14835476D01*
X16471667Y-14835476D01*
X16452619Y-14825952D01*
X16443095Y-14806905D01*
X16443095Y-14730714D01*
X16452619Y-14711667D01*
X16471667Y-14702143D01*
X16509762Y-14702143D01*
X16528809Y-14711667D01*
X16538333Y-14730714D01*
X16538333Y-14749762D01*
X16443095Y-14768809D01*
X16614524Y-14825952D02*
X16633571Y-14835476D01*
X16671667Y-14835476D01*
X16690714Y-14825952D01*
X16700238Y-14806905D01*
X16700238Y-14797381D01*
X16690714Y-14778333D01*
X16671667Y-14768809D01*
X16643095Y-14768809D01*
X16624048Y-14759286D01*
X16614524Y-14740238D01*
X16614524Y-14730714D01*
X16624048Y-14711667D01*
X16643095Y-14702143D01*
X16671667Y-14702143D01*
X16690714Y-14711667D01*
X16766905Y-14911667D02*
X16776428Y-14902143D01*
X16795476Y-14873571D01*
X16805000Y-14854524D01*
X16814524Y-14825952D01*
X16824048Y-14778333D01*
X16824048Y-14740238D01*
X16814524Y-14692619D01*
X16805000Y-14664048D01*
X16795476Y-14645000D01*
X16776428Y-14616428D01*
X16766905Y-14606905D01*
X17128810Y-14911667D02*
X17119286Y-14902143D01*
X17100238Y-14873571D01*
X17090714Y-14854524D01*
X17081190Y-14825952D01*
X17071667Y-14778333D01*
X17071667Y-14740238D01*
X17081190Y-14692619D01*
X17090714Y-14664048D01*
X17100238Y-14645000D01*
X17119286Y-14616428D01*
X17128810Y-14606905D01*
X17205000Y-14702143D02*
X17205000Y-14835476D01*
X17205000Y-14721190D02*
X17214524Y-14711667D01*
X17233571Y-14702143D01*
X17262143Y-14702143D01*
X17281190Y-14711667D01*
X17290714Y-14730714D01*
X17290714Y-14835476D01*
X17414524Y-14835476D02*
X17395476Y-14825952D01*
X17385952Y-14816428D01*
X17376429Y-14797381D01*
X17376429Y-14740238D01*
X17385952Y-14721190D01*
X17395476Y-14711667D01*
X17414524Y-14702143D01*
X17443095Y-14702143D01*
X17462143Y-14711667D01*
X17471667Y-14721190D01*
X17481190Y-14740238D01*
X17481190Y-14797381D01*
X17471667Y-14816428D01*
X17462143Y-14825952D01*
X17443095Y-14835476D01*
X17414524Y-14835476D01*
X17538333Y-14702143D02*
X17614524Y-14702143D01*
X17566905Y-14635476D02*
X17566905Y-14806905D01*
X17576429Y-14825952D01*
X17595476Y-14835476D01*
X17614524Y-14835476D01*
X17833571Y-14702143D02*
X17833571Y-14902143D01*
X17833571Y-14711667D02*
X17852619Y-14702143D01*
X17890714Y-14702143D01*
X17909762Y-14711667D01*
X17919286Y-14721190D01*
X17928810Y-14740238D01*
X17928810Y-14797381D01*
X17919286Y-14816428D01*
X17909762Y-14825952D01*
X17890714Y-14835476D01*
X17852619Y-14835476D01*
X17833571Y-14825952D01*
X18043095Y-14835476D02*
X18024048Y-14825952D01*
X18014524Y-14806905D01*
X18014524Y-14635476D01*
X18205000Y-14835476D02*
X18205000Y-14730714D01*
X18195476Y-14711667D01*
X18176429Y-14702143D01*
X18138333Y-14702143D01*
X18119286Y-14711667D01*
X18205000Y-14825952D02*
X18185952Y-14835476D01*
X18138333Y-14835476D01*
X18119286Y-14825952D01*
X18109762Y-14806905D01*
X18109762Y-14787857D01*
X18119286Y-14768809D01*
X18138333Y-14759286D01*
X18185952Y-14759286D01*
X18205000Y-14749762D01*
X18271667Y-14702143D02*
X18347857Y-14702143D01*
X18300238Y-14635476D02*
X18300238Y-14806905D01*
X18309762Y-14825952D01*
X18328810Y-14835476D01*
X18347857Y-14835476D01*
X18490714Y-14825952D02*
X18471667Y-14835476D01*
X18433571Y-14835476D01*
X18414524Y-14825952D01*
X18405000Y-14806905D01*
X18405000Y-14730714D01*
X18414524Y-14711667D01*
X18433571Y-14702143D01*
X18471667Y-14702143D01*
X18490714Y-14711667D01*
X18500238Y-14730714D01*
X18500238Y-14749762D01*
X18405000Y-14768809D01*
X18671667Y-14835476D02*
X18671667Y-14635476D01*
X18671667Y-14825952D02*
X18652619Y-14835476D01*
X18614524Y-14835476D01*
X18595476Y-14825952D01*
X18585952Y-14816428D01*
X18576429Y-14797381D01*
X18576429Y-14740238D01*
X18585952Y-14721190D01*
X18595476Y-14711667D01*
X18614524Y-14702143D01*
X18652619Y-14702143D01*
X18671667Y-14711667D01*
X18747857Y-14911667D02*
X18757381Y-14902143D01*
X18776429Y-14873571D01*
X18785952Y-14854524D01*
X18795476Y-14825952D01*
X18805000Y-14778333D01*
X18805000Y-14740238D01*
X18795476Y-14692619D01*
X18785952Y-14664048D01*
X18776429Y-14645000D01*
X18757381Y-14616428D01*
X18747857Y-14606905D01*
M02*
