M48
; DRILL file {KiCad (6.0.2)} date Mon Apr  4 11:25:57 2022
; FORMAT={-:-/ absolute / metric / decimal}
; #@! TF.CreationDate,2022-04-04T11:25:57-04:00
; #@! TF.GenerationSoftware,Kicad,Pcbnew,(6.0.2)
; #@! TF.FileFunction,Plated,1,2,PTH
FMAT,2
METRIC
; #@! TA.AperFunction,Plated,PTH,ComponentDrill
T1C0.762
; #@! TA.AperFunction,Plated,PTH,ComponentDrill
T2C0.800
; #@! TA.AperFunction,Plated,PTH,ComponentDrill
T3C0.900
; #@! TA.AperFunction,Plated,PTH,ComponentDrill
T4C1.000
; #@! TA.AperFunction,Plated,PTH,ComponentDrill
T5C1.100
; #@! TA.AperFunction,Plated,PTH,ComponentDrill
T6C1.350
; #@! TA.AperFunction,Plated,PTH,ComponentDrill
T7C2.700
%
G90
G05
T2
X141.745Y-102.8
X141.745Y-105.34
X145.873Y-102.8
X145.873Y-105.34
X150.0Y-102.8
X150.0Y-105.34
X154.127Y-102.8
X154.127Y-105.34
X158.255Y-102.8
X158.255Y-105.34
X163.8Y-128.2
X163.8Y-130.74
X166.31Y-105.34
X166.31Y-107.88
X166.31Y-110.42
X166.31Y-112.96
X166.31Y-115.5
X166.31Y-118.04
X166.31Y-120.58
X166.31Y-124.39
X168.81Y-124.39
X170.5Y-128.2
X170.5Y-130.74
X173.93Y-105.34
X173.93Y-107.88
X173.93Y-110.42
X173.93Y-112.96
X173.93Y-115.5
X173.93Y-118.04
X173.93Y-120.58
T3
X163.8Y-134.725
X163.8Y-137.265
X170.5Y-134.725
X170.5Y-137.265
T4
X131.517Y-91.535
X131.517Y-94.075
X134.057Y-91.535
X134.057Y-94.075
X136.597Y-91.535
X136.597Y-94.075
X139.137Y-91.535
X139.137Y-94.075
X141.677Y-91.535
X141.677Y-94.075
X144.217Y-91.535
X144.217Y-94.075
T5
X128.75Y-133.75
X128.75Y-138.25
X135.25Y-133.75
X135.25Y-138.25
T6
X154.5Y-93.725
X157.0Y-83.725
X157.0Y-96.225
X159.5Y-86.525
X162.0Y-93.725
X162.0Y-98.725
X164.5Y-86.525
X167.0Y-83.725
X167.0Y-96.225
X169.5Y-93.725
T7
X123.0Y-84.0
X123.0Y-138.0
X177.0Y-84.0
X177.0Y-138.0
T1
X142.38Y-109.15G85X141.11Y-109.15
G05
X142.38Y-111.69G85X141.11Y-111.69
G05
X142.38Y-114.23G85X141.11Y-114.23
G05
X142.38Y-116.77G85X141.11Y-116.77
G05
X142.38Y-119.31G85X141.11Y-119.31
G05
X142.38Y-121.85G85X141.11Y-121.85
G05
X142.38Y-124.39G85X141.11Y-124.39
G05
X142.38Y-126.93G85X141.11Y-126.93
G05
X142.38Y-129.47G85X141.11Y-129.47
G05
X142.38Y-132.01G85X141.11Y-132.01
G05
X142.38Y-134.55G85X141.11Y-134.55
G05
X142.38Y-137.09G85X141.11Y-137.09
G05
X158.89Y-109.15G85X157.62Y-109.15
G05
X158.89Y-111.69G85X157.62Y-111.69
G05
X158.89Y-114.23G85X157.62Y-114.23
G05
X158.89Y-116.77G85X157.62Y-116.77
G05
X158.89Y-119.31G85X157.62Y-119.31
G05
X158.89Y-121.85G85X157.62Y-121.85
G05
X158.89Y-124.39G85X157.62Y-124.39
G05
X158.89Y-126.93G85X157.62Y-126.93
G05
X158.89Y-129.47G85X157.62Y-129.47
G05
X158.89Y-132.01G85X157.62Y-132.01
G05
X158.89Y-134.55G85X157.62Y-134.55
G05
X158.89Y-137.09G85X157.62Y-137.09
G05
T0
M30
